M48
; DRILL file KiCad 10.0.3 date 2026-09-19T00:45:16
; FORMAT={-:-/ absolute / metric / decimal}
; #@! TF.CreationDate,2026-09-19T00:45:16+05:30
; #@! TF.GenerationSoftware,Kicad,Pcbnew,10.0.3
; #@! TF.FileFunction,MixedPlating,1,2
FMAT,2
METRIC
; #@! TA.AperFunction,Plated,PTH,ViaDrill
T1C0.300
; #@! TA.AperFunction,Plated,PTH,ComponentDrill
T2C0.800
; #@! TA.AperFunction,Plated,PTH,ComponentDrill
T3C0.900
; #@! TA.AperFunction,Plated,PTH,ComponentDrill
T4C1.000
; #@! TA.AperFunction,Plated,PTH,ComponentDrill
T5C1.016
; #@! TA.AperFunction,Plated,PTH,ComponentDrill
T6C1.100
; #@! TA.AperFunction,Plated,PTH,ComponentDrill
T7C1.200
; #@! TA.AperFunction,Plated,PTH,ComponentDrill
T8C1.500
%
G90
G05
T1
X82.0Y-107.0
X83.0Y-108.5
X83.5Y-105.0
X85.0Y-105.5
X87.0Y-112.0
X91.0Y-80.5
X92.933Y-94.183
X93.0Y-95.0
X96.0Y-91.5
X96.129Y-92.754
X96.279Y-113.221
X97.5Y-76.5
X104.5Y-120.5
X109.262Y-77.976
X116.0Y-121.0
X116.5Y-118.0
X117.0Y-112.5
X117.5Y-113.5
X118.5Y-120.4
X119.5Y-117.5
X120.0Y-63.0
X124.0Y-119.5
X126.5Y-116.0
X127.0Y-121.5
X128.5Y-120.0
X131.5Y-107.0
X132.5Y-105.5
X133.0Y-121.0
X133.18Y-101.5
X135.5Y-104.0
X135.5Y-107.5
X136.0Y-106.0
T2
X83.5Y-88.0
X83.5Y-93.0
X89.0Y-72.0
X89.0Y-75.5
X92.92Y-126.0
X93.0Y-121.5
X103.08Y-126.0
X103.16Y-121.5
X110.0Y-71.5
X110.0Y-76.5
X113.5Y-52.0
X113.5Y-57.0
X120.0Y-54.5
X120.0Y-59.5
X138.5Y-96.5
X138.5Y-106.66
T3
X142.5Y-89.0
X142.5Y-91.54
T4
X52.5Y-114.5
X52.5Y-117.04
X76.0Y-96.0
X76.0Y-98.54
X76.0Y-107.46
X76.0Y-110.0
X78.0Y-75.46
X78.0Y-78.0
X91.94Y-84.46
X91.94Y-109.86
X94.48Y-84.46
X94.48Y-109.86
X97.02Y-84.46
X97.02Y-109.86
X99.56Y-84.46
X99.56Y-109.86
X102.1Y-84.46
X102.1Y-109.86
X104.64Y-84.46
X104.64Y-109.86
X107.18Y-84.46
X107.18Y-109.86
X109.72Y-84.46
X109.72Y-109.86
X112.26Y-84.46
X112.26Y-109.86
X114.8Y-84.46
X114.8Y-109.86
X115.5Y-69.19
X115.5Y-71.73
X115.5Y-74.27
X115.5Y-76.81
X117.34Y-84.46
X117.34Y-109.86
X119.88Y-84.46
X119.88Y-109.86
X122.42Y-84.46
X122.42Y-109.86
X124.96Y-84.46
X124.96Y-109.86
X127.5Y-84.46
X127.5Y-109.86
X128.7Y-51.17
X128.7Y-53.71
X128.7Y-56.25
X141.5Y-112.0
X141.5Y-114.54
X141.5Y-117.08
X141.5Y-119.62
X141.5Y-122.16
X141.5Y-124.7
T5
X70.09Y-127.0
X72.63Y-127.0
X75.17Y-127.0
X82.92Y-111.8
X82.92Y-114.34
X82.92Y-116.88
X82.92Y-119.42
X82.92Y-121.96
X82.92Y-124.5
T6
X107.25Y-121.25
X107.25Y-125.75
X113.75Y-121.25
X113.75Y-125.75
T7
X77.25Y-55.7
X77.25Y-63.3
X106.75Y-55.7
X106.75Y-63.3
T8
X52.5Y-52.5
X52.5Y-92.0
X69.65Y-52.5
X69.65Y-92.0
M30
