G04 #@! TF.GenerationSoftware,KiCad,Pcbnew,10.0.3*
G04 #@! TF.CreationDate,2026-09-19T00:45:15+05:30*
G04 #@! TF.ProjectId,fall_sensor,66616c6c-5f73-4656-9e73-6f722e6b6963,rev?*
G04 #@! TF.SameCoordinates,Original*
G04 #@! TF.FileFunction,Copper,L1,Top*
G04 #@! TF.FilePolarity,Positive*
%FSLAX46Y46*%
G04 Gerber Fmt 4.6, Leading zero omitted, Abs format (unit mm)*
G04 Created by KiCad (PCBNEW 10.0.3) date 2026-09-19 00:45:15*
%MOMM*%
%LPD*%
G01*
G04 APERTURE LIST*
G04 Aperture macros list*
%AMRoundRect*
0 Rectangle with rounded corners*
0 $1 Rounding radius*
0 $2 $3 $4 $5 $6 $7 $8 $9 X,Y pos of 4 corners*
0 Add a 4 corners polygon primitive as box body*
4,1,4,$2,$3,$4,$5,$6,$7,$8,$9,$2,$3,0*
0 Add four circle primitives for the rounded corners*
1,1,$1+$1,$2,$3*
1,1,$1+$1,$4,$5*
1,1,$1+$1,$6,$7*
1,1,$1+$1,$8,$9*
0 Add four rect primitives between the rounded corners*
20,1,$1+$1,$2,$3,$4,$5,0*
20,1,$1+$1,$4,$5,$6,$7,0*
20,1,$1+$1,$6,$7,$8,$9,0*
20,1,$1+$1,$8,$9,$2,$3,0*%
G04 Aperture macros list end*
G04 #@! TA.AperFunction,ComponentPad*
%ADD10C,1.600000*%
G04 #@! TD*
G04 #@! TA.AperFunction,ComponentPad*
%ADD11R,1.700000X1.700000*%
G04 #@! TD*
G04 #@! TA.AperFunction,ComponentPad*
%ADD12C,1.700000*%
G04 #@! TD*
G04 #@! TA.AperFunction,ComponentPad*
%ADD13R,3.000000X3.000000*%
G04 #@! TD*
G04 #@! TA.AperFunction,ComponentPad*
%ADD14C,3.000000*%
G04 #@! TD*
G04 #@! TA.AperFunction,ComponentPad*
%ADD15R,1.880000X1.880000*%
G04 #@! TD*
G04 #@! TA.AperFunction,ComponentPad*
%ADD16C,1.880000*%
G04 #@! TD*
G04 #@! TA.AperFunction,ComponentPad*
%ADD17R,2.000000X2.000000*%
G04 #@! TD*
G04 #@! TA.AperFunction,ComponentPad*
%ADD18C,2.000000*%
G04 #@! TD*
G04 #@! TA.AperFunction,ComponentPad*
%ADD19RoundRect,0.250000X-0.550000X0.550000X-0.550000X-0.550000X0.550000X-0.550000X0.550000X0.550000X0*%
G04 #@! TD*
G04 #@! TA.AperFunction,ComponentPad*
%ADD20R,1.800000X1.800000*%
G04 #@! TD*
G04 #@! TA.AperFunction,ComponentPad*
%ADD21C,1.800000*%
G04 #@! TD*
G04 #@! TA.AperFunction,SMDPad,CuDef*
%ADD22RoundRect,0.150000X-0.512500X-0.150000X0.512500X-0.150000X0.512500X0.150000X-0.512500X0.150000X0*%
G04 #@! TD*
G04 #@! TA.AperFunction,ViaPad*
%ADD23C,0.600000*%
G04 #@! TD*
G04 #@! TA.AperFunction,ViaPad*
%ADD24C,0.500000*%
G04 #@! TD*
G04 #@! TA.AperFunction,Conductor*
%ADD25C,0.400000*%
G04 #@! TD*
G04 #@! TA.AperFunction,Conductor*
%ADD26C,0.250000*%
G04 #@! TD*
G04 #@! TA.AperFunction,Conductor*
%ADD27C,0.600000*%
G04 #@! TD*
G04 #@! TA.AperFunction,Conductor*
%ADD28C,0.300000*%
G04 #@! TD*
G04 #@! TA.AperFunction,Conductor*
%ADD29C,0.500000*%
G04 #@! TD*
G04 APERTURE END LIST*
D10*
G04 #@! TO.P,R2,1*
G04 #@! TO.N,/BATT_ADC*
X92920000Y-126000000D03*
G04 #@! TO.P,R2,2*
G04 #@! TO.N,GND*
X103080000Y-126000000D03*
G04 #@! TD*
G04 #@! TO.P,C4,1*
G04 #@! TO.N,+5V*
X113500000Y-52000000D03*
G04 #@! TO.P,C4,2*
G04 #@! TO.N,GND*
X113500000Y-57000000D03*
G04 #@! TD*
D11*
G04 #@! TO.P,U1,1,3V3_1*
G04 #@! TO.N,+3V3*
X127500000Y-109860000D03*
D12*
G04 #@! TO.P,U1,2,EN_2*
G04 #@! TO.N,unconnected-(U1-EN-Pad2)*
X124960000Y-109860000D03*
G04 #@! TO.P,U1,3,GPIO36_3*
G04 #@! TO.N,unconnected-(U1-GPIO36-Pad3)*
X122420000Y-109860000D03*
G04 #@! TO.P,U1,4,GPIO39_4*
G04 #@! TO.N,unconnected-(U1-GPIO39-Pad4)*
X119880000Y-109860000D03*
G04 #@! TO.P,U1,5,GPIO34_5*
G04 #@! TO.N,/BATT_ADC*
X117340000Y-109860000D03*
G04 #@! TO.P,U1,6,GPIO35_6*
G04 #@! TO.N,unconnected-(U1-GPIO35-Pad6)*
X114800000Y-109860000D03*
G04 #@! TO.P,U1,7,GPIO32_7*
G04 #@! TO.N,unconnected-(U1-GPIO32-Pad7)*
X112260000Y-109860000D03*
G04 #@! TO.P,U1,8,GPIO33_8*
G04 #@! TO.N,Net-(U1-GPIO33)*
X109720000Y-109860000D03*
G04 #@! TO.P,U1,9,GPIO25_9*
G04 #@! TO.N,/PRESENCE*
X107180000Y-109860000D03*
G04 #@! TO.P,U1,10,GPIO26_10*
G04 #@! TO.N,/FALL*
X104640000Y-109860000D03*
G04 #@! TO.P,U1,11,GPIO27_11*
G04 #@! TO.N,/RADAR_EN*
X102100000Y-109860000D03*
G04 #@! TO.P,U1,12,GPIO14_12*
G04 #@! TO.N,unconnected-(U1-GPIO14-Pad12)*
X99560000Y-109860000D03*
G04 #@! TO.P,U1,13,GPIO12_13*
G04 #@! TO.N,unconnected-(U1-GPIO12-Pad13)*
X97020000Y-109860000D03*
G04 #@! TO.P,U1,14,GND_14*
G04 #@! TO.N,GND*
X94480000Y-109860000D03*
G04 #@! TO.P,U1,15,GPIO13_15*
G04 #@! TO.N,/PIR_WAKE*
X91940000Y-109860000D03*
G04 #@! TO.P,U1,16,VIN_16*
G04 #@! TO.N,unconnected-(U1-VIN-Pad16)*
X127500000Y-84460000D03*
G04 #@! TO.P,U1,17,GND_17*
G04 #@! TO.N,GND*
X124960000Y-84460000D03*
G04 #@! TO.P,U1,18,GPIO23_18*
G04 #@! TO.N,unconnected-(U1-GPIO23-Pad18)*
X122420000Y-84460000D03*
G04 #@! TO.P,U1,19,GPIO22_19*
G04 #@! TO.N,unconnected-(U1-GPIO22-Pad19)*
X119880000Y-84460000D03*
G04 #@! TO.P,U1,20,TX0_20*
G04 #@! TO.N,unconnected-(U1-TX0-Pad20)*
X117340000Y-84460000D03*
G04 #@! TO.P,U1,21,RX0_21*
G04 #@! TO.N,unconnected-(U1-RX0-Pad21)*
X114800000Y-84460000D03*
G04 #@! TO.P,U1,22,GPIO21_22*
G04 #@! TO.N,unconnected-(U1-GPIO21-Pad22)*
X112260000Y-84460000D03*
G04 #@! TO.P,U1,23,GPIO19_23*
G04 #@! TO.N,Net-(U1-GPIO19)*
X109720000Y-84460000D03*
G04 #@! TO.P,U1,24,GPIO18_24*
G04 #@! TO.N,unconnected-(U1-GPIO18-Pad24)*
X107180000Y-84460000D03*
G04 #@! TO.P,U1,25,GPIO5_25*
G04 #@! TO.N,unconnected-(U1-GPIO5-Pad25)*
X104640000Y-84460000D03*
G04 #@! TO.P,U1,26,GPIO17_26*
G04 #@! TO.N,/RADAR_RX*
X102100000Y-84460000D03*
G04 #@! TO.P,U1,27,GPIO16_27*
G04 #@! TO.N,/RADAR_TX*
X99560000Y-84460000D03*
G04 #@! TO.P,U1,28,GPIO4_28*
G04 #@! TO.N,/MIC_WAKE*
X97020000Y-84460000D03*
G04 #@! TO.P,U1,29,GPIO2_29*
G04 #@! TO.N,unconnected-(U1-GPIO2-Pad29)*
X94480000Y-84460000D03*
G04 #@! TO.P,U1,30,GPIO15_30*
G04 #@! TO.N,unconnected-(U1-GPIO15-Pad30)*
X91940000Y-84460000D03*
G04 #@! TD*
D13*
G04 #@! TO.P,U7,1,Pin_1_1*
G04 #@! TO.N,+5V*
X69650000Y-52500000D03*
D14*
G04 #@! TO.P,U7,2,Pin_2_2*
G04 #@! TO.N,GND*
X52500000Y-52500000D03*
G04 #@! TO.P,U7,3,Pin_3_3*
G04 #@! TO.N,+3V3*
X69650000Y-92000000D03*
G04 #@! TO.P,U7,4,Pin_4_4*
G04 #@! TO.N,GND*
X52500000Y-92000000D03*
G04 #@! TD*
D15*
G04 #@! TO.P,U2,1*
G04 #@! TO.N,unconnected-(U2-P5{slash}RESET-Pad1)*
X82920000Y-111800000D03*
D16*
G04 #@! TO.P,U2,2*
G04 #@! TO.N,Net-(U2-P4)*
X82920000Y-114340000D03*
G04 #@! TO.P,U2,3*
G04 #@! TO.N,unconnected-(U2-P3-Pad3)*
X82920000Y-116880000D03*
G04 #@! TO.P,U2,4*
G04 #@! TO.N,/PIR_WAKE*
X82920000Y-119420000D03*
G04 #@! TO.P,U2,5*
G04 #@! TO.N,Net-(PIR1-OUT)*
X82920000Y-121960000D03*
G04 #@! TO.P,U2,6*
G04 #@! TO.N,/MIC_WAKE*
X82920000Y-124500000D03*
G04 #@! TO.P,U2,7*
G04 #@! TO.N,GND*
X72630000Y-127000000D03*
G04 #@! TO.P,U2,8*
G04 #@! TO.N,unconnected-(U2-VIN-Pad8)*
X75170000Y-127000000D03*
D15*
G04 #@! TO.P,U2,9*
G04 #@! TO.N,+3V3*
X70090000Y-127000000D03*
G04 #@! TD*
D11*
G04 #@! TO.P,SW2,1,1_1*
G04 #@! TO.N,Net-(U4-OUT+)*
X52500000Y-114500000D03*
D12*
G04 #@! TO.P,SW2,2,2_2*
G04 #@! TO.N,Net-(U3-VIN+)*
X52500000Y-117040000D03*
G04 #@! TD*
D17*
G04 #@! TO.P,U3,1,VIN+_1*
G04 #@! TO.N,Net-(U3-VIN+)*
X77250000Y-63300000D03*
D18*
G04 #@! TO.P,U3,2,VIN-_2*
G04 #@! TO.N,GND*
X77250000Y-55700000D03*
G04 #@! TO.P,U3,3,VOUT+_3*
G04 #@! TO.N,+5V*
X106750000Y-63300000D03*
G04 #@! TO.P,U3,4,GND_4*
G04 #@! TO.N,GND*
X106750000Y-55700000D03*
G04 #@! TD*
D12*
G04 #@! TO.P,U4,1,BAT+_1*
G04 #@! TO.N,Net-(BT1-Pin_2)*
X76000000Y-98540000D03*
G04 #@! TO.P,U4,2,BAT-_2*
G04 #@! TO.N,Net-(BT1-Pin_1)*
X76000000Y-107460000D03*
D11*
G04 #@! TO.P,U4,3,OUT+_3*
G04 #@! TO.N,Net-(U4-OUT+)*
X76000000Y-96000000D03*
D12*
G04 #@! TO.P,U4,4,OUT-_4*
G04 #@! TO.N,GND*
X76000000Y-110000000D03*
G04 #@! TD*
D11*
G04 #@! TO.P,BT1,1,Pin_1_1*
G04 #@! TO.N,Net-(BT1-Pin_1)*
X78000000Y-78000000D03*
D12*
G04 #@! TO.P,BT1,2,Pin_2_2*
G04 #@! TO.N,Net-(BT1-Pin_2)*
X78000000Y-75460000D03*
G04 #@! TD*
D10*
G04 #@! TO.P,R3,1*
G04 #@! TO.N,Net-(U1-GPIO19)*
X138500000Y-106660000D03*
G04 #@! TO.P,R3,2*
G04 #@! TO.N,Net-(D1-A)*
X138500000Y-96500000D03*
G04 #@! TD*
G04 #@! TO.P,C1,1*
G04 #@! TO.N,Net-(U4-OUT+)*
X83500000Y-88000000D03*
G04 #@! TO.P,C1,2*
G04 #@! TO.N,GND*
X83500000Y-93000000D03*
G04 #@! TD*
D19*
G04 #@! TO.P,C3,1*
G04 #@! TO.N,+5V*
X89000000Y-72000000D03*
D10*
G04 #@! TO.P,C3,2*
G04 #@! TO.N,GND*
X89000000Y-75500000D03*
G04 #@! TD*
D11*
G04 #@! TO.P,RADAR1,1,VIN_1*
G04 #@! TO.N,Net-(RADAR1-VIN)*
X141500000Y-112000000D03*
D12*
G04 #@! TO.P,RADAR1,2,GND_2*
G04 #@! TO.N,GND*
X141500000Y-114540000D03*
G04 #@! TO.P,RADAR1,3,TX_3*
G04 #@! TO.N,/RADAR_TX*
X141500000Y-117080000D03*
G04 #@! TO.P,RADAR1,4,RX_4*
G04 #@! TO.N,/RADAR_RX*
X141500000Y-119620000D03*
G04 #@! TO.P,RADAR1,5,OUT1_5*
G04 #@! TO.N,/PRESENCE*
X141500000Y-122160000D03*
G04 #@! TO.P,RADAR1,6,OUT2_6*
G04 #@! TO.N,/FALL*
X141500000Y-124700000D03*
G04 #@! TD*
D20*
G04 #@! TO.P,D1,1,A_1*
G04 #@! TO.N,Net-(D1-A)*
X142500000Y-89000000D03*
D21*
G04 #@! TO.P,D1,2,K_2*
G04 #@! TO.N,GND*
X142500000Y-91540000D03*
G04 #@! TD*
D11*
G04 #@! TO.P,U5,1,VCC_1*
G04 #@! TO.N,+3V3*
X115500000Y-76810000D03*
D12*
G04 #@! TO.P,U5,2,GND_2*
G04 #@! TO.N,GND*
X115500000Y-74270000D03*
G04 #@! TO.P,U5,3,DO_3*
G04 #@! TO.N,Net-(U2-P4)*
X115500000Y-71730000D03*
G04 #@! TO.P,U5,4,AO_4*
G04 #@! TO.N,unconnected-(U5-AO-Pad4)*
X115500000Y-69190000D03*
G04 #@! TD*
D18*
G04 #@! TO.P,SW1,1,1_1*
G04 #@! TO.N,Net-(U1-GPIO33)*
X107250000Y-121250000D03*
X113750000Y-121250000D03*
G04 #@! TO.P,SW1,2,2_2*
G04 #@! TO.N,+3V3*
X107250000Y-125750000D03*
X113750000Y-125750000D03*
G04 #@! TD*
D22*
G04 #@! TO.P,U6,1,VIN_1*
G04 #@! TO.N,+5V*
X120225000Y-119500000D03*
G04 #@! TO.P,U6,2,GND_2*
G04 #@! TO.N,GND*
X120225000Y-120450000D03*
G04 #@! TO.P,U6,3,EN_3*
G04 #@! TO.N,/RADAR_EN*
X120225000Y-121400000D03*
G04 #@! TO.P,U6,4,GND_4*
G04 #@! TO.N,GND*
X122500000Y-121400000D03*
G04 #@! TO.P,U6,5,GND_5*
X122500000Y-120450000D03*
G04 #@! TO.P,U6,6,VOUT_6*
G04 #@! TO.N,Net-(RADAR1-VIN)*
X122500000Y-119500000D03*
G04 #@! TD*
D11*
G04 #@! TO.P,PIR1,1,VCC_1*
G04 #@! TO.N,+3V3*
X128699999Y-56250000D03*
D12*
G04 #@! TO.P,PIR1,2,OUT_2*
G04 #@! TO.N,Net-(PIR1-OUT)*
X128699999Y-53710000D03*
G04 #@! TO.P,PIR1,3,GND_3*
G04 #@! TO.N,GND*
X128699999Y-51170000D03*
G04 #@! TD*
D10*
G04 #@! TO.P,C7,1*
G04 #@! TO.N,+3V3*
X110000000Y-76500000D03*
G04 #@! TO.P,C7,2*
G04 #@! TO.N,GND*
X110000000Y-71500000D03*
G04 #@! TD*
G04 #@! TO.P,R1,1*
G04 #@! TO.N,Net-(U4-OUT+)*
X93000000Y-121500000D03*
G04 #@! TO.P,R1,2*
G04 #@! TO.N,/BATT_ADC*
X103160000Y-121500000D03*
G04 #@! TD*
G04 #@! TO.P,C8,1*
G04 #@! TO.N,+3V3*
X120000000Y-54500000D03*
G04 #@! TO.P,C8,2*
G04 #@! TO.N,GND*
X120000000Y-59500000D03*
G04 #@! TD*
D23*
G04 #@! TO.N,/BATT_ADC*
X117500000Y-113500000D03*
X104500000Y-120500000D03*
D24*
G04 #@! TO.N,+3V3*
X91000000Y-80500000D03*
X97500000Y-76500000D03*
D23*
G04 #@! TO.N,Net-(U1-GPIO33)*
X116000000Y-121000000D03*
X117000000Y-112500000D03*
D24*
G04 #@! TO.N,/PRESENCE*
X126500000Y-116000000D03*
X133000000Y-121000000D03*
G04 #@! TO.N,/FALL*
X119500000Y-117500000D03*
X127000000Y-121500000D03*
G04 #@! TO.N,/RADAR_EN*
X118500000Y-120400000D03*
X116500000Y-118000000D03*
G04 #@! TO.N,/PIR_WAKE*
X96279390Y-113220610D03*
G04 #@! TO.N,Net-(U1-GPIO19)*
X135500000Y-104000000D03*
X133180000Y-101500000D03*
G04 #@! TO.N,/RADAR_RX*
X132500000Y-105500000D03*
X136000000Y-106000000D03*
G04 #@! TO.N,/RADAR_TX*
X131500000Y-107000000D03*
X135500000Y-107500000D03*
G04 #@! TO.N,/MIC_WAKE*
X96000000Y-91500000D03*
X83500000Y-105000000D03*
X93000000Y-95000000D03*
X82000000Y-107000000D03*
G04 #@! TO.N,Net-(U2-P4)*
X87000000Y-112000000D03*
G04 #@! TO.N,Net-(PIR1-OUT)*
X85000000Y-105500000D03*
X120000000Y-63000000D03*
X92933059Y-94183056D03*
X109262097Y-77975807D03*
X83000000Y-108500000D03*
X96129442Y-92754442D03*
G04 #@! TO.N,Net-(RADAR1-VIN)*
X124000000Y-119500000D03*
X128500000Y-120000000D03*
G04 #@! TD*
G04 #@! TO.N,*
D25*
X142500000Y-92500000D02*
X142500000Y-89000000D01*
X138500000Y-96500000D02*
X142500000Y-92500000D01*
G04 #@! TO.N,/BATT_ADC*
D26*
X92920000Y-126000000D02*
X98660000Y-126000000D01*
X103500000Y-121500000D02*
X104500000Y-120500000D01*
X117500000Y-113500000D02*
X118780000Y-113500000D01*
X117340000Y-112060000D02*
X117340000Y-109860000D01*
X98660000Y-126000000D02*
X103160000Y-121500000D01*
X118780000Y-113500000D02*
X117340000Y-112060000D01*
X103160000Y-121500000D02*
X103500000Y-121500000D01*
G04 #@! TO.N,GND*
D27*
X122500000Y-121400000D02*
X122500000Y-120700000D01*
D28*
X120225000Y-120450000D02*
X121550000Y-120450000D01*
X121550000Y-120450000D02*
X122500000Y-121400000D01*
G04 #@! TO.N,+5V*
D27*
X94200000Y-109514874D02*
X103935126Y-119250000D01*
X109500000Y-60550000D02*
X109500000Y-52000000D01*
X89000000Y-72000000D02*
X94200000Y-77200000D01*
X109500000Y-52000000D02*
X113500000Y-52000000D01*
X106750000Y-63300000D02*
X106750000Y-64750000D01*
X99500000Y-72000000D02*
X89000000Y-72000000D01*
X106750000Y-64750000D02*
X105000000Y-66500000D01*
X88000000Y-70850000D02*
X88000000Y-72000000D01*
X106750000Y-63300000D02*
X109500000Y-60550000D01*
X105000000Y-66500000D02*
X99500000Y-72000000D01*
X103935126Y-119250000D02*
X120225000Y-119250000D01*
X89000000Y-72000000D02*
X88000000Y-72000000D01*
X69650000Y-52500000D02*
X88000000Y-70850000D01*
X94200000Y-77200000D02*
X94200000Y-109514874D01*
G04 #@! TO.N,+3V3*
D29*
X76000000Y-80500000D02*
X91000000Y-80500000D01*
X74000000Y-89000000D02*
X74000000Y-84500000D01*
X70090000Y-127000000D02*
X70090000Y-128000000D01*
X125500000Y-66810000D02*
X125500000Y-58250000D01*
X110000000Y-76500000D02*
X115190000Y-76500000D01*
X125500000Y-58250000D02*
X126700000Y-58250000D01*
X115500000Y-76810000D02*
X125500000Y-66810000D01*
X125500000Y-58250000D02*
X123750000Y-58250000D01*
X73000000Y-83500000D02*
X76000000Y-80500000D01*
X134280000Y-83755836D02*
X134280000Y-108160000D01*
X74000000Y-84500000D02*
X73000000Y-83500000D01*
X102000000Y-73500000D02*
X107000000Y-73500000D01*
X100500000Y-73500000D02*
X102000000Y-73500000D01*
D27*
X69650000Y-92000000D02*
X72000000Y-89650000D01*
D29*
X120230870Y-125750000D02*
X113750000Y-125750000D01*
X126700000Y-58250000D02*
X128699999Y-56250000D01*
X107250000Y-125750000D02*
X105000000Y-128000000D01*
X115190000Y-76500000D02*
X115500000Y-76810000D01*
D27*
X72000000Y-89650000D02*
X72000000Y-89000000D01*
D29*
X105000000Y-128000000D02*
X89000000Y-128000000D01*
D26*
X132580000Y-109860000D02*
X127500000Y-109860000D01*
D29*
X97500000Y-76500000D02*
X100500000Y-73500000D01*
X123750000Y-58250000D02*
X120000000Y-54500000D01*
D26*
X134280000Y-108160000D02*
X132580000Y-109860000D01*
D29*
X115500000Y-76810000D02*
X127334164Y-76810000D01*
X70090000Y-128000000D02*
X89000000Y-128000000D01*
X72000000Y-89000000D02*
X74000000Y-89000000D01*
X127334164Y-76810000D02*
X134280000Y-83755836D01*
X107000000Y-73500000D02*
X110000000Y-76500000D01*
X113750000Y-125750000D02*
X107250000Y-125750000D01*
X132580000Y-113400870D02*
X120230870Y-125750000D01*
G04 #@! TO.N,Net-(U1-GPIO33)*
D27*
X94480000Y-109860000D02*
X109720000Y-109860000D01*
X116000000Y-121000000D02*
X114000000Y-121000000D01*
X113750000Y-121250000D02*
X107250000Y-121250000D01*
X109720000Y-109860000D02*
X117000000Y-112500000D01*
X114000000Y-121000000D02*
X113750000Y-121250000D01*
G04 #@! TO.N,/PRESENCE*
D26*
X141500000Y-122160000D02*
X140340000Y-121000000D01*
X118400000Y-116000000D02*
X112260000Y-109860000D01*
X112260000Y-109860000D02*
X107180000Y-109860000D01*
X140340000Y-121000000D02*
X133000000Y-121000000D01*
X126500000Y-116000000D02*
X118400000Y-116000000D01*
G04 #@! TO.N,/FALL*
X109720000Y-109860000D02*
X104640000Y-109860000D01*
X141500000Y-124700000D02*
X130200000Y-124700000D01*
X119500000Y-117500000D02*
X117360000Y-117500000D01*
X130200000Y-124700000D02*
X127000000Y-121500000D01*
X117360000Y-117500000D02*
X109720000Y-109860000D01*
G04 #@! TO.N,/RADAR_EN*
X115320000Y-118000000D02*
X106000000Y-118000000D01*
X118500000Y-120400000D02*
X118500000Y-120629094D01*
X102100000Y-114100000D02*
X102100000Y-109860000D01*
X106000000Y-118000000D02*
X102100000Y-114100000D01*
X118500000Y-120629094D02*
X119345906Y-121475000D01*
X115320000Y-118000000D02*
X116500000Y-118000000D01*
X115320000Y-118000000D02*
X107180000Y-109860000D01*
X119345906Y-121475000D02*
X120225000Y-121475000D01*
G04 #@! TO.N,/PIR_WAKE*
X92513299Y-122675000D02*
X93486701Y-122675000D01*
X96279390Y-119882311D02*
X96279390Y-113220610D01*
X83020000Y-119420000D02*
X83020000Y-116940000D01*
X86775000Y-116936701D02*
X92513299Y-122675000D01*
X83016701Y-116936701D02*
X86775000Y-116936701D01*
X93486701Y-122675000D02*
X96279390Y-119882311D01*
X82920000Y-119420000D02*
X83020000Y-119420000D01*
G04 #@! TO.N,Net-(U1-GPIO19)*
X133180000Y-101500000D02*
X131840000Y-101500000D01*
X138500000Y-106660000D02*
X135840000Y-104000000D01*
X135840000Y-104000000D02*
X135500000Y-104000000D01*
X131840000Y-101500000D02*
X114800000Y-84460000D01*
X114800000Y-84460000D02*
X109720000Y-84460000D01*
G04 #@! TO.N,/RADAR_RX*
X132500000Y-105500000D02*
X128220000Y-105500000D01*
X143225000Y-117895000D02*
X143225000Y-110567893D01*
X137835000Y-107835000D02*
X136000000Y-106000000D01*
X140492107Y-107835000D02*
X137835000Y-107835000D01*
X141500000Y-119620000D02*
X143225000Y-117895000D01*
X107180000Y-84460000D02*
X102100000Y-84460000D01*
X128220000Y-105500000D02*
X107180000Y-84460000D01*
X143225000Y-110567893D02*
X140492107Y-107835000D01*
G04 #@! TO.N,/RADAR_TX*
X131500000Y-107000000D02*
X127180000Y-107000000D01*
X142725000Y-115855000D02*
X142725000Y-110775000D01*
X141500000Y-117080000D02*
X142725000Y-115855000D01*
X142725000Y-110775000D02*
X138775000Y-110775000D01*
X138775000Y-110775000D02*
X135500000Y-107500000D01*
X127180000Y-107000000D02*
X99560000Y-84460000D01*
G04 #@! TO.N,/MIC_WAKE*
X96000000Y-90560000D02*
X97020000Y-84460000D01*
X82000000Y-107600000D02*
X82000000Y-107000000D01*
X82920000Y-124500000D02*
X86000000Y-124500000D01*
X86000000Y-111600000D02*
X82000000Y-107600000D01*
X83500000Y-105000000D02*
X93000000Y-95500000D01*
X93000000Y-95500000D02*
X93000000Y-95000000D01*
X86000000Y-124500000D02*
X86000000Y-111600000D01*
X96000000Y-91500000D02*
X96000000Y-90560000D01*
G04 #@! TO.N,Net-(U2-P4)*
X85000000Y-114340000D02*
X87000000Y-112760000D01*
X87000000Y-112760000D02*
X87000000Y-112000000D01*
X82920000Y-114340000D02*
X85000000Y-114340000D01*
G04 #@! TO.N,Net-(PIR1-OUT)*
X82875000Y-104241116D02*
X92933059Y-94183056D01*
X96129442Y-92754442D02*
X103325000Y-85558884D01*
D25*
X127500000Y-53710000D02*
X128699999Y-53710000D01*
X125500000Y-55710000D02*
X127500000Y-53710000D01*
D26*
X83000000Y-109140000D02*
X83000000Y-108500000D01*
X103325000Y-83912904D02*
X109262097Y-77975807D01*
X82920000Y-121960000D02*
X84500000Y-121960000D01*
X118475000Y-53868324D02*
X119368324Y-52975000D01*
X118475000Y-61475000D02*
X118475000Y-53868324D01*
X84875000Y-105625000D02*
X83241116Y-105625000D01*
X103325000Y-85558884D02*
X103325000Y-83912904D01*
X120000000Y-63000000D02*
X118475000Y-61475000D01*
X119368324Y-52975000D02*
X122765000Y-52975000D01*
X85000000Y-105500000D02*
X84875000Y-105625000D01*
X83241116Y-105625000D02*
X82875000Y-105258884D01*
X82875000Y-105258884D02*
X82875000Y-104241116D01*
X84500000Y-121960000D02*
X84500000Y-110640000D01*
X84500000Y-110640000D02*
X83000000Y-109140000D01*
X122765000Y-52975000D02*
X125500000Y-55710000D01*
G04 #@! TO.N,Net-(U4-OUT+)*
D27*
X77000000Y-105500000D02*
X82000000Y-105500000D01*
X77400000Y-105100000D02*
X77400000Y-94100000D01*
X76000000Y-96000000D02*
X57500000Y-114500000D01*
X76000000Y-96000000D02*
X77400000Y-96000000D01*
X82000000Y-105500000D02*
X93000000Y-116500000D01*
X57500000Y-114500000D02*
X52500000Y-114500000D01*
X93000000Y-116500000D02*
X93000000Y-121500000D01*
X77400000Y-94100000D02*
X83500000Y-88000000D01*
X76000000Y-96000000D02*
X77400000Y-96000000D01*
X77000000Y-105500000D02*
X77400000Y-105100000D01*
G04 #@! TO.N,Net-(U3-VIN+)*
X51100000Y-115640000D02*
X51100000Y-96799138D01*
X52500000Y-117040000D02*
X51100000Y-115640000D01*
X72500000Y-75400000D02*
X77250000Y-70650000D01*
X77250000Y-70650000D02*
X77250000Y-63300000D01*
X51100000Y-96799138D02*
X72500000Y-75399138D01*
G04 #@! TO.N,Net-(D1-A)*
D26*
X140230000Y-89000000D02*
X140230000Y-94770000D01*
D25*
X140230000Y-89000000D02*
X142500000Y-89000000D01*
D26*
X140230000Y-94770000D02*
X138500000Y-96500000D01*
G04 #@! TO.N,Net-(RADAR1-VIN)*
D27*
X123451580Y-119250000D02*
X122500000Y-119250000D01*
X124000000Y-119500000D02*
X123701580Y-119500000D01*
X141500000Y-112000000D02*
X133500000Y-120000000D01*
X133500000Y-120000000D02*
X128500000Y-120000000D01*
X123701580Y-119500000D02*
X123451580Y-119250000D01*
G04 #@! TD*
G04 #@! TA.AperFunction,Conductor*
G04 #@! TO.N,GND*
G36*
X141242540Y-89520185D02*
G01*
X141288295Y-89572989D01*
X141299501Y-89624500D01*
X141299501Y-89944856D01*
X141299502Y-89944882D01*
X141302413Y-89969987D01*
X141302415Y-89969991D01*
X141347793Y-90072764D01*
X141347794Y-90072765D01*
X141427235Y-90152206D01*
X141530009Y-90197585D01*
X141555135Y-90200500D01*
X141583171Y-90200499D01*
X141650208Y-90220181D01*
X141695965Y-90272984D01*
X141706790Y-90334228D01*
X141702484Y-90388931D01*
X141963181Y-90649627D01*
X141996666Y-90710950D01*
X141999500Y-90737308D01*
X141999500Y-91093691D01*
X141979815Y-91160730D01*
X141927011Y-91206485D01*
X141857853Y-91216429D01*
X141794297Y-91187404D01*
X141787819Y-91181372D01*
X141348932Y-90742485D01*
X141348931Y-90742485D01*
X141302616Y-90806233D01*
X141202567Y-91002589D01*
X141134473Y-91212164D01*
X141100000Y-91429818D01*
X141100000Y-91650181D01*
X141134473Y-91867835D01*
X141202567Y-92077410D01*
X141302611Y-92273756D01*
X141348932Y-92337513D01*
X141787819Y-91898627D01*
X141849142Y-91865142D01*
X141918834Y-91870126D01*
X141974767Y-91911998D01*
X141999184Y-91977462D01*
X141999500Y-91986308D01*
X141999500Y-92241324D01*
X141979815Y-92308363D01*
X141963181Y-92329005D01*
X140867181Y-93425005D01*
X140805858Y-93458490D01*
X140736166Y-93453506D01*
X140680233Y-93411634D01*
X140655816Y-93346170D01*
X140655500Y-93337324D01*
X140655500Y-89624500D01*
X140675185Y-89557461D01*
X140727989Y-89511706D01*
X140779500Y-89500500D01*
X141175501Y-89500500D01*
X141242540Y-89520185D01*
G37*
G04 #@! TD.AperFunction*
G04 #@! TA.AperFunction,Conductor*
G36*
X149442539Y-50520185D02*
G01*
X149488294Y-50572989D01*
X149499500Y-50624500D01*
X149499500Y-128882237D01*
X149479815Y-128949276D01*
X149427011Y-128995031D01*
X149376740Y-129006231D01*
X100050594Y-129499494D01*
X100049354Y-129499500D01*
X60258676Y-129499500D01*
X60191637Y-129479815D01*
X60170995Y-129463181D01*
X56743135Y-126035321D01*
X68899500Y-126035321D01*
X68899500Y-127964678D01*
X68914032Y-128037735D01*
X68914033Y-128037739D01*
X68914034Y-128037740D01*
X68969399Y-128120601D01*
X69052260Y-128175966D01*
X69052264Y-128175967D01*
X69125321Y-128190499D01*
X69125324Y-128190500D01*
X69125326Y-128190500D01*
X69492731Y-128190500D01*
X69559770Y-128210185D01*
X69600118Y-128252499D01*
X69649491Y-128338015D01*
X69751985Y-128440509D01*
X69751986Y-128440510D01*
X69751988Y-128440511D01*
X69877511Y-128512982D01*
X69877512Y-128512982D01*
X69877515Y-128512984D01*
X70017525Y-128550500D01*
X70017528Y-128550500D01*
X105072472Y-128550500D01*
X105072474Y-128550500D01*
X105072475Y-128550500D01*
X105212485Y-128512984D01*
X105338015Y-128440510D01*
X106751788Y-127026734D01*
X106813109Y-126993251D01*
X106877784Y-126996485D01*
X106945466Y-127018477D01*
X107147648Y-127050500D01*
X107147649Y-127050500D01*
X107352351Y-127050500D01*
X107352352Y-127050500D01*
X107554534Y-127018477D01*
X107749219Y-126955220D01*
X107931610Y-126862287D01*
X108024590Y-126794732D01*
X108097213Y-126741971D01*
X108097215Y-126741968D01*
X108097219Y-126741966D01*
X108241966Y-126597219D01*
X108241968Y-126597215D01*
X108241971Y-126597213D01*
X108362286Y-126431611D01*
X108363418Y-126429391D01*
X108394593Y-126368205D01*
X108442567Y-126317409D01*
X108505078Y-126300500D01*
X112494922Y-126300500D01*
X112561961Y-126320185D01*
X112605407Y-126368206D01*
X112637713Y-126431611D01*
X112758028Y-126597213D01*
X112902786Y-126741971D01*
X113036908Y-126839414D01*
X113068390Y-126862287D01*
X113184607Y-126921503D01*
X113250776Y-126955218D01*
X113250778Y-126955218D01*
X113250781Y-126955220D01*
X113305518Y-126973005D01*
X113445465Y-127018477D01*
X113497610Y-127026736D01*
X113647648Y-127050500D01*
X113647649Y-127050500D01*
X113852351Y-127050500D01*
X113852352Y-127050500D01*
X114054534Y-127018477D01*
X114249219Y-126955220D01*
X114431610Y-126862287D01*
X114524590Y-126794732D01*
X114597213Y-126741971D01*
X114597215Y-126741968D01*
X114597219Y-126741966D01*
X114741966Y-126597219D01*
X114741968Y-126597215D01*
X114741971Y-126597213D01*
X114862286Y-126431611D01*
X114863418Y-126429391D01*
X114894593Y-126368205D01*
X114942567Y-126317409D01*
X115005078Y-126300500D01*
X120303342Y-126300500D01*
X120303344Y-126300500D01*
X120303345Y-126300500D01*
X120443355Y-126262984D01*
X120444513Y-126262315D01*
X120446335Y-126261264D01*
X120517089Y-126220413D01*
X120568885Y-126190510D01*
X125331870Y-121427525D01*
X126449500Y-121427525D01*
X126449500Y-121572475D01*
X126482888Y-121697078D01*
X126487017Y-121712488D01*
X126559488Y-121838011D01*
X126559490Y-121838013D01*
X126559491Y-121838015D01*
X126661985Y-121940509D01*
X126661986Y-121940510D01*
X126661988Y-121940511D01*
X126683261Y-121952793D01*
X126787515Y-122012984D01*
X126924429Y-122049670D01*
X126980015Y-122081763D01*
X129859515Y-124961263D01*
X129938737Y-125040485D01*
X129987070Y-125068390D01*
X130035763Y-125096503D01*
X130143981Y-125125500D01*
X130143982Y-125125500D01*
X140405697Y-125125500D01*
X140472736Y-125145185D01*
X140516180Y-125193204D01*
X140545517Y-125250781D01*
X140558766Y-125276784D01*
X140558770Y-125276792D01*
X140601100Y-125335053D01*
X140660586Y-125416928D01*
X140783072Y-125539414D01*
X140923212Y-125641232D01*
X141077555Y-125719873D01*
X141242299Y-125773402D01*
X141413389Y-125800500D01*
X141413390Y-125800500D01*
X141586610Y-125800500D01*
X141586611Y-125800500D01*
X141757701Y-125773402D01*
X141922445Y-125719873D01*
X142076788Y-125641232D01*
X142216928Y-125539414D01*
X142339414Y-125416928D01*
X142441232Y-125276788D01*
X142519873Y-125122445D01*
X142573402Y-124957701D01*
X142600500Y-124786611D01*
X142600500Y-124613389D01*
X142573402Y-124442299D01*
X142519873Y-124277555D01*
X142441232Y-124123212D01*
X142339414Y-123983072D01*
X142216928Y-123860586D01*
X142076788Y-123758768D01*
X141922445Y-123680127D01*
X141757701Y-123626598D01*
X141757699Y-123626597D01*
X141757698Y-123626597D01*
X141626271Y-123605781D01*
X141586611Y-123599500D01*
X141413389Y-123599500D01*
X141373728Y-123605781D01*
X141242302Y-123626597D01*
X141077552Y-123680128D01*
X140923211Y-123758768D01*
X140843256Y-123816859D01*
X140783072Y-123860586D01*
X140783070Y-123860588D01*
X140783069Y-123860588D01*
X140660588Y-123983069D01*
X140660588Y-123983070D01*
X140660586Y-123983072D01*
X140643350Y-124006795D01*
X140558770Y-124123207D01*
X140558768Y-124123212D01*
X140516180Y-124206795D01*
X140468208Y-124257590D01*
X140405697Y-124274500D01*
X130427610Y-124274500D01*
X130360571Y-124254815D01*
X130339929Y-124238181D01*
X127581763Y-121480015D01*
X127549670Y-121424429D01*
X127512984Y-121287515D01*
X127502985Y-121270197D01*
X127440511Y-121161988D01*
X127440506Y-121161982D01*
X127338017Y-121059493D01*
X127338011Y-121059488D01*
X127212488Y-120987017D01*
X127212489Y-120987017D01*
X127188234Y-120980518D01*
X127072475Y-120949500D01*
X126927525Y-120949500D01*
X126811766Y-120980518D01*
X126787511Y-120987017D01*
X126661988Y-121059488D01*
X126661982Y-121059493D01*
X126559493Y-121161982D01*
X126559488Y-121161988D01*
X126487017Y-121287511D01*
X126487016Y-121287515D01*
X126449500Y-121427525D01*
X125331870Y-121427525D01*
X133020510Y-113738885D01*
X133092984Y-113613355D01*
X133130500Y-113473344D01*
X133130500Y-113328396D01*
X133092984Y-113188385D01*
X133020510Y-113062855D01*
X132918015Y-112960360D01*
X132792485Y-112887886D01*
X132792486Y-112887886D01*
X132757482Y-112878507D01*
X132652474Y-112850370D01*
X132507526Y-112850370D01*
X132402517Y-112878507D01*
X132367514Y-112887886D01*
X132241986Y-112960359D01*
X132241983Y-112960361D01*
X123874181Y-121328164D01*
X123812858Y-121361649D01*
X123743166Y-121356665D01*
X123687233Y-121314793D01*
X123662816Y-121249329D01*
X123662500Y-121240483D01*
X123662500Y-121184365D01*
X123662499Y-121184350D01*
X123659600Y-121147510D01*
X123659599Y-121147504D01*
X123613784Y-120989808D01*
X123612790Y-120988127D01*
X123612411Y-120986635D01*
X123610685Y-120982646D01*
X123611328Y-120982367D01*
X123595604Y-120920404D01*
X123611124Y-120867544D01*
X123610685Y-120867354D01*
X123612226Y-120863792D01*
X123612790Y-120861873D01*
X123613782Y-120860195D01*
X123659600Y-120702486D01*
X123659795Y-120700001D01*
X123659795Y-120700000D01*
X122750000Y-120700000D01*
X122750000Y-122200000D01*
X122769544Y-122219544D01*
X122770022Y-122219685D01*
X122772209Y-122222209D01*
X122786319Y-122236319D01*
X122785309Y-122237328D01*
X122815777Y-122272489D01*
X122825721Y-122341647D01*
X122796696Y-122405203D01*
X122790664Y-122411681D01*
X120039164Y-125163181D01*
X119977841Y-125196666D01*
X119951483Y-125199500D01*
X115005078Y-125199500D01*
X114938039Y-125179815D01*
X114894593Y-125131794D01*
X114862286Y-125068388D01*
X114741971Y-124902786D01*
X114597213Y-124758028D01*
X114431613Y-124637715D01*
X114431612Y-124637714D01*
X114431610Y-124637713D01*
X114345218Y-124593694D01*
X114249223Y-124544781D01*
X114054534Y-124481522D01*
X113879995Y-124453878D01*
X113852352Y-124449500D01*
X113647648Y-124449500D01*
X113623329Y-124453351D01*
X113445465Y-124481522D01*
X113250776Y-124544781D01*
X113068386Y-124637715D01*
X112902786Y-124758028D01*
X112758028Y-124902786D01*
X112637713Y-125068388D01*
X112605407Y-125131794D01*
X112557433Y-125182591D01*
X112494922Y-125199500D01*
X108505078Y-125199500D01*
X108438039Y-125179815D01*
X108394593Y-125131794D01*
X108362286Y-125068388D01*
X108241971Y-124902786D01*
X108097213Y-124758028D01*
X107931613Y-124637715D01*
X107931612Y-124637714D01*
X107931610Y-124637713D01*
X107845218Y-124593694D01*
X107749223Y-124544781D01*
X107554534Y-124481522D01*
X107379995Y-124453878D01*
X107352352Y-124449500D01*
X107147648Y-124449500D01*
X107123329Y-124453351D01*
X106945465Y-124481522D01*
X106750776Y-124544781D01*
X106568386Y-124637715D01*
X106402786Y-124758028D01*
X106258028Y-124902786D01*
X106137715Y-125068386D01*
X106044781Y-125250776D01*
X105981522Y-125445465D01*
X105949500Y-125647648D01*
X105949500Y-125852351D01*
X105981523Y-126054537D01*
X106003512Y-126122214D01*
X106005507Y-126192055D01*
X105973262Y-126248212D01*
X104808294Y-127413181D01*
X104746971Y-127446666D01*
X104720613Y-127449500D01*
X103608690Y-127449500D01*
X103541651Y-127429815D01*
X103495896Y-127377011D01*
X103485952Y-127307853D01*
X103514977Y-127244297D01*
X103570371Y-127207569D01*
X103579031Y-127204755D01*
X103761349Y-127111859D01*
X103805921Y-127079474D01*
X103126447Y-126400000D01*
X103132661Y-126400000D01*
X103234394Y-126372741D01*
X103325606Y-126320080D01*
X103400080Y-126245606D01*
X103452741Y-126154394D01*
X103480000Y-126052661D01*
X103480000Y-126046448D01*
X104159474Y-126725922D01*
X104159474Y-126725921D01*
X104191859Y-126681349D01*
X104284755Y-126499031D01*
X104347990Y-126304417D01*
X104380000Y-126102317D01*
X104380000Y-125897682D01*
X104347990Y-125695582D01*
X104284755Y-125500968D01*
X104191859Y-125318650D01*
X104159474Y-125274077D01*
X104159474Y-125274076D01*
X103480000Y-125953551D01*
X103480000Y-125947339D01*
X103452741Y-125845606D01*
X103400080Y-125754394D01*
X103325606Y-125679920D01*
X103234394Y-125627259D01*
X103132661Y-125600000D01*
X103126446Y-125600000D01*
X103805922Y-124920524D01*
X103805921Y-124920523D01*
X103761359Y-124888147D01*
X103761350Y-124888141D01*
X103579031Y-124795244D01*
X103384417Y-124732009D01*
X103182317Y-124700000D01*
X102977683Y-124700000D01*
X102775582Y-124732009D01*
X102580968Y-124795244D01*
X102398644Y-124888143D01*
X102354077Y-124920523D01*
X102354077Y-124920524D01*
X103033554Y-125600000D01*
X103027339Y-125600000D01*
X102925606Y-125627259D01*
X102834394Y-125679920D01*
X102759920Y-125754394D01*
X102707259Y-125845606D01*
X102680000Y-125947339D01*
X102680000Y-125953553D01*
X102000524Y-125274077D01*
X102000523Y-125274077D01*
X101968143Y-125318644D01*
X101875244Y-125500968D01*
X101812009Y-125695582D01*
X101780000Y-125897682D01*
X101780000Y-126102317D01*
X101812009Y-126304417D01*
X101875244Y-126499031D01*
X101968141Y-126681350D01*
X101968147Y-126681359D01*
X102000523Y-126725921D01*
X102000524Y-126725922D01*
X102680000Y-126046446D01*
X102680000Y-126052661D01*
X102707259Y-126154394D01*
X102759920Y-126245606D01*
X102834394Y-126320080D01*
X102925606Y-126372741D01*
X103027339Y-126400000D01*
X103033553Y-126400000D01*
X102354076Y-127079474D01*
X102398650Y-127111859D01*
X102580968Y-127204755D01*
X102589629Y-127207569D01*
X102647304Y-127247007D01*
X102674502Y-127311366D01*
X102662587Y-127380212D01*
X102615342Y-127431688D01*
X102551310Y-127449500D01*
X76446385Y-127449500D01*
X76379346Y-127429815D01*
X76333591Y-127377011D01*
X76323647Y-127307853D01*
X76328453Y-127287186D01*
X76331186Y-127278776D01*
X76355925Y-127122580D01*
X76360500Y-127093699D01*
X76360500Y-126906300D01*
X76344284Y-126803919D01*
X76331186Y-126721224D01*
X76273279Y-126543007D01*
X76188207Y-126376042D01*
X76188204Y-126376038D01*
X76188204Y-126376037D01*
X76133322Y-126300500D01*
X76078062Y-126224441D01*
X75945559Y-126091938D01*
X75867633Y-126035321D01*
X75793962Y-125981795D01*
X75793959Y-125981794D01*
X75793960Y-125981794D01*
X75793958Y-125981793D01*
X75626993Y-125896721D01*
X75448776Y-125838814D01*
X75448770Y-125838813D01*
X75263699Y-125809500D01*
X75263694Y-125809500D01*
X75076306Y-125809500D01*
X75076301Y-125809500D01*
X74891229Y-125838813D01*
X74891227Y-125838813D01*
X74891224Y-125838814D01*
X74713007Y-125896721D01*
X74713004Y-125896722D01*
X74713002Y-125896723D01*
X74546040Y-125981794D01*
X74546037Y-125981795D01*
X74472367Y-126035321D01*
X74394441Y-126091938D01*
X74394439Y-126091940D01*
X74394438Y-126091940D01*
X74261940Y-126224438D01*
X74261940Y-126224439D01*
X74261938Y-126224441D01*
X74246561Y-126245606D01*
X74151795Y-126376037D01*
X74151788Y-126376049D01*
X74150489Y-126378600D01*
X74149741Y-126379391D01*
X74149252Y-126380190D01*
X74149084Y-126380087D01*
X74102509Y-126429391D01*
X74034687Y-126446180D01*
X73968554Y-126423635D01*
X73929525Y-126378588D01*
X73861600Y-126245276D01*
X73809703Y-126173848D01*
X73809703Y-126173847D01*
X73119494Y-126864056D01*
X73103381Y-126803919D01*
X73036502Y-126688080D01*
X72941920Y-126593498D01*
X72826081Y-126526619D01*
X72765940Y-126510504D01*
X73456151Y-125820295D01*
X73456150Y-125820293D01*
X73384728Y-125768403D01*
X73182772Y-125665500D01*
X72967201Y-125595457D01*
X72743335Y-125560000D01*
X72516665Y-125560000D01*
X72292798Y-125595457D01*
X72077227Y-125665500D01*
X71875278Y-125768399D01*
X71803848Y-125820295D01*
X71803848Y-125820296D01*
X72494057Y-126510504D01*
X72433919Y-126526619D01*
X72318080Y-126593498D01*
X72223498Y-126688080D01*
X72156619Y-126803919D01*
X72140505Y-126864057D01*
X71450296Y-126173848D01*
X71414229Y-126176687D01*
X71345852Y-126162323D01*
X71296095Y-126113272D01*
X71285216Y-126086942D01*
X71280500Y-126070334D01*
X71280500Y-126035326D01*
X71265966Y-125962260D01*
X71210601Y-125879399D01*
X71127740Y-125824034D01*
X71127739Y-125824033D01*
X71127735Y-125824032D01*
X71054677Y-125809500D01*
X71054674Y-125809500D01*
X69125326Y-125809500D01*
X69125323Y-125809500D01*
X69052264Y-125824032D01*
X69052260Y-125824033D01*
X68969399Y-125879399D01*
X68914033Y-125962260D01*
X68914032Y-125962264D01*
X68899500Y-126035321D01*
X56743135Y-126035321D01*
X50536819Y-119829005D01*
X50503334Y-119767682D01*
X50500500Y-119741324D01*
X50500500Y-116189098D01*
X50506737Y-116167855D01*
X50508317Y-116145767D01*
X50516390Y-116134981D01*
X50520185Y-116122059D01*
X50536916Y-116107560D01*
X50550188Y-116089832D01*
X50562810Y-116085123D01*
X50572989Y-116076304D01*
X50594904Y-116073152D01*
X50615652Y-116065414D01*
X50628814Y-116068277D01*
X50642147Y-116066360D01*
X50662289Y-116075558D01*
X50683925Y-116080265D01*
X50701651Y-116093534D01*
X50705703Y-116095385D01*
X50712165Y-116101401D01*
X50731284Y-116120520D01*
X50731286Y-116120521D01*
X50738355Y-116127590D01*
X51333635Y-116722870D01*
X51367120Y-116784193D01*
X51368427Y-116829949D01*
X51349500Y-116949448D01*
X51349500Y-117130551D01*
X51377829Y-117309410D01*
X51433787Y-117481636D01*
X51433788Y-117481639D01*
X51516006Y-117642997D01*
X51622441Y-117789494D01*
X51622445Y-117789499D01*
X51750500Y-117917554D01*
X51750505Y-117917558D01*
X51861450Y-117998163D01*
X51897006Y-118023996D01*
X51966174Y-118059239D01*
X52058360Y-118106211D01*
X52058363Y-118106212D01*
X52088778Y-118116094D01*
X52230591Y-118162171D01*
X52313429Y-118175291D01*
X52409449Y-118190500D01*
X52409454Y-118190500D01*
X52590551Y-118190500D01*
X52677259Y-118176765D01*
X52769409Y-118162171D01*
X52941639Y-118106211D01*
X53102994Y-118023996D01*
X53249501Y-117917553D01*
X53377553Y-117789501D01*
X53483996Y-117642994D01*
X53566211Y-117481639D01*
X53622171Y-117309409D01*
X53644788Y-117166611D01*
X53650500Y-117130551D01*
X53650500Y-116949448D01*
X53630361Y-116822302D01*
X53622171Y-116770591D01*
X53567143Y-116601229D01*
X53566212Y-116598363D01*
X53566211Y-116598360D01*
X53521800Y-116511201D01*
X53483996Y-116437006D01*
X53430278Y-116363069D01*
X53377558Y-116290505D01*
X53377554Y-116290500D01*
X53249499Y-116162445D01*
X53249494Y-116162441D01*
X53102997Y-116056006D01*
X53102996Y-116056005D01*
X53102994Y-116056004D01*
X53031312Y-116019480D01*
X52941639Y-115973788D01*
X52941636Y-115973787D01*
X52769410Y-115917829D01*
X52637727Y-115896972D01*
X52574592Y-115867043D01*
X52537661Y-115807731D01*
X52538659Y-115737868D01*
X52577269Y-115679636D01*
X52641233Y-115651522D01*
X52657125Y-115650499D01*
X53394856Y-115650499D01*
X53394864Y-115650499D01*
X53394879Y-115650497D01*
X53394882Y-115650497D01*
X53419987Y-115647586D01*
X53419988Y-115647585D01*
X53419991Y-115647585D01*
X53522765Y-115602206D01*
X53602206Y-115522765D01*
X53647585Y-115419991D01*
X53650500Y-115394865D01*
X53650500Y-115224500D01*
X53670185Y-115157461D01*
X53722989Y-115111706D01*
X53774500Y-115100500D01*
X57413331Y-115100500D01*
X57413347Y-115100501D01*
X57420943Y-115100501D01*
X57579054Y-115100501D01*
X57579057Y-115100501D01*
X57731785Y-115059577D01*
X57813889Y-115012174D01*
X57868716Y-114980520D01*
X57980520Y-114868716D01*
X57980520Y-114868714D01*
X57990724Y-114858511D01*
X57990727Y-114858506D01*
X65475844Y-107373389D01*
X74899500Y-107373389D01*
X74899500Y-107546611D01*
X74926598Y-107717701D01*
X74980127Y-107882445D01*
X75058768Y-108036788D01*
X75160586Y-108176928D01*
X75283072Y-108299414D01*
X75423212Y-108401232D01*
X75577555Y-108479873D01*
X75742299Y-108533402D01*
X75913389Y-108560500D01*
X75913390Y-108560500D01*
X76086610Y-108560500D01*
X76086611Y-108560500D01*
X76257701Y-108533402D01*
X76422445Y-108479873D01*
X76576788Y-108401232D01*
X76716928Y-108299414D01*
X76839414Y-108176928D01*
X76941232Y-108036788D01*
X77019873Y-107882445D01*
X77073402Y-107717701D01*
X77100500Y-107546611D01*
X77100500Y-107373389D01*
X77073402Y-107202299D01*
X77019873Y-107037555D01*
X76941232Y-106883212D01*
X76839414Y-106743072D01*
X76716928Y-106620586D01*
X76576788Y-106518768D01*
X76422445Y-106440127D01*
X76257701Y-106386598D01*
X76257699Y-106386597D01*
X76257698Y-106386597D01*
X76126271Y-106365781D01*
X76086611Y-106359500D01*
X75913389Y-106359500D01*
X75873728Y-106365781D01*
X75742302Y-106386597D01*
X75577552Y-106440128D01*
X75423211Y-106518768D01*
X75367159Y-106559493D01*
X75283072Y-106620586D01*
X75283070Y-106620588D01*
X75283069Y-106620588D01*
X75160588Y-106743069D01*
X75160588Y-106743070D01*
X75160586Y-106743072D01*
X75158015Y-106746611D01*
X75058768Y-106883211D01*
X74980128Y-107037552D01*
X74980127Y-107037554D01*
X74980127Y-107037555D01*
X74973000Y-107059488D01*
X74926597Y-107202302D01*
X74913101Y-107287515D01*
X74899500Y-107373389D01*
X65475844Y-107373389D01*
X74734489Y-98114745D01*
X74795810Y-98081262D01*
X74865502Y-98086246D01*
X74921435Y-98128118D01*
X74945852Y-98193582D01*
X74940099Y-98240744D01*
X74926598Y-98282299D01*
X74899500Y-98453389D01*
X74899500Y-98626611D01*
X74926598Y-98797701D01*
X74980127Y-98962445D01*
X75058768Y-99116788D01*
X75160586Y-99256928D01*
X75283072Y-99379414D01*
X75423212Y-99481232D01*
X75577555Y-99559873D01*
X75742299Y-99613402D01*
X75913389Y-99640500D01*
X75913390Y-99640500D01*
X76086610Y-99640500D01*
X76086611Y-99640500D01*
X76257701Y-99613402D01*
X76422445Y-99559873D01*
X76576788Y-99481232D01*
X76602614Y-99462467D01*
X76668420Y-99438988D01*
X76736474Y-99454813D01*
X76785169Y-99504919D01*
X76799500Y-99562786D01*
X76799500Y-104799902D01*
X76779815Y-104866941D01*
X76763181Y-104887583D01*
X76519481Y-105131282D01*
X76519479Y-105131285D01*
X76472600Y-105212484D01*
X76472598Y-105212486D01*
X76440425Y-105268209D01*
X76440424Y-105268210D01*
X76435251Y-105287515D01*
X76399499Y-105420943D01*
X76399499Y-105420945D01*
X76399499Y-105579054D01*
X76399498Y-105579054D01*
X76421720Y-105661988D01*
X76440423Y-105731785D01*
X76466305Y-105776613D01*
X76491694Y-105820588D01*
X76519479Y-105868714D01*
X76519481Y-105868717D01*
X76631284Y-105980520D01*
X76718095Y-106030639D01*
X76718097Y-106030641D01*
X76752494Y-106050500D01*
X76768215Y-106059577D01*
X76920943Y-106100501D01*
X76920946Y-106100501D01*
X77086653Y-106100501D01*
X77086669Y-106100500D01*
X81699903Y-106100500D01*
X81729343Y-106109144D01*
X81759330Y-106115668D01*
X81764345Y-106119422D01*
X81766942Y-106120185D01*
X81787584Y-106136819D01*
X81911892Y-106261127D01*
X81945377Y-106322450D01*
X81940393Y-106392142D01*
X81898521Y-106448075D01*
X81856307Y-106468582D01*
X81787514Y-106487016D01*
X81787511Y-106487017D01*
X81661988Y-106559488D01*
X81661982Y-106559493D01*
X81559493Y-106661982D01*
X81559488Y-106661988D01*
X81487017Y-106787511D01*
X81487016Y-106787515D01*
X81449500Y-106927525D01*
X81449500Y-107072475D01*
X81487016Y-107212485D01*
X81557887Y-107335238D01*
X81574500Y-107397236D01*
X81574500Y-107543982D01*
X81574500Y-107656018D01*
X81603497Y-107764237D01*
X81659515Y-107861263D01*
X81659517Y-107861265D01*
X82454839Y-108656587D01*
X82476045Y-108684943D01*
X82483111Y-108697912D01*
X82487016Y-108712485D01*
X82558650Y-108836559D01*
X82559387Y-108837911D01*
X82562687Y-108853151D01*
X82574500Y-108897236D01*
X82574500Y-109083982D01*
X82574500Y-109196018D01*
X82603497Y-109304237D01*
X82659515Y-109401263D01*
X83259486Y-110001234D01*
X83656072Y-110397819D01*
X83689557Y-110459142D01*
X83684573Y-110528834D01*
X83642701Y-110584767D01*
X83577237Y-110609184D01*
X83568391Y-110609500D01*
X81955323Y-110609500D01*
X81882264Y-110624032D01*
X81882260Y-110624033D01*
X81799399Y-110679399D01*
X81744033Y-110762260D01*
X81744032Y-110762264D01*
X81729500Y-110835321D01*
X81729500Y-112764678D01*
X81744032Y-112837735D01*
X81744033Y-112837739D01*
X81762391Y-112865214D01*
X81799399Y-112920601D01*
X81882260Y-112975966D01*
X81882264Y-112975967D01*
X81955321Y-112990499D01*
X81955324Y-112990500D01*
X82437893Y-112990500D01*
X82504932Y-113010185D01*
X82550687Y-113062989D01*
X82560631Y-113132147D01*
X82531606Y-113195703D01*
X82476213Y-113232429D01*
X82469616Y-113234573D01*
X82463002Y-113236722D01*
X82296040Y-113321794D01*
X82296037Y-113321795D01*
X82214384Y-113381121D01*
X82144441Y-113431938D01*
X82144439Y-113431940D01*
X82144438Y-113431940D01*
X82011940Y-113564438D01*
X82011940Y-113564439D01*
X82011938Y-113564441D01*
X82000628Y-113580008D01*
X81901795Y-113716037D01*
X81901794Y-113716040D01*
X81816723Y-113883002D01*
X81816722Y-113883004D01*
X81816721Y-113883007D01*
X81758814Y-114061224D01*
X81758813Y-114061227D01*
X81758813Y-114061229D01*
X81729500Y-114246300D01*
X81729500Y-114433699D01*
X81753795Y-114587087D01*
X81758814Y-114618776D01*
X81816721Y-114796993D01*
X81816722Y-114796996D01*
X81816723Y-114796997D01*
X81901794Y-114963959D01*
X81901795Y-114963962D01*
X81936822Y-115012171D01*
X82011938Y-115115559D01*
X82144441Y-115248062D01*
X82230025Y-115310243D01*
X82296037Y-115358204D01*
X82296038Y-115358204D01*
X82296042Y-115358207D01*
X82403188Y-115412800D01*
X82463002Y-115443277D01*
X82463004Y-115443277D01*
X82463007Y-115443279D01*
X82613168Y-115492070D01*
X82670842Y-115531507D01*
X82698040Y-115595866D01*
X82686125Y-115664712D01*
X82638881Y-115716188D01*
X82613171Y-115727928D01*
X82539328Y-115751922D01*
X82463002Y-115776722D01*
X82296040Y-115861794D01*
X82296037Y-115861795D01*
X82205570Y-115927525D01*
X82144441Y-115971938D01*
X82144439Y-115971940D01*
X82144438Y-115971940D01*
X82011940Y-116104438D01*
X82011940Y-116104439D01*
X82011938Y-116104441D01*
X81992435Y-116131285D01*
X81901795Y-116256037D01*
X81901794Y-116256040D01*
X81816723Y-116423002D01*
X81816722Y-116423004D01*
X81816721Y-116423007D01*
X81758814Y-116601224D01*
X81758813Y-116601227D01*
X81758813Y-116601229D01*
X81729500Y-116786300D01*
X81729500Y-116973699D01*
X81758813Y-117158770D01*
X81758814Y-117158776D01*
X81816721Y-117336993D01*
X81901023Y-117502447D01*
X81901794Y-117503959D01*
X81901795Y-117503962D01*
X81935075Y-117549767D01*
X82011938Y-117655559D01*
X82144441Y-117788062D01*
X82213190Y-117838011D01*
X82296037Y-117898204D01*
X82296038Y-117898204D01*
X82296042Y-117898207D01*
X82463007Y-117983279D01*
X82508818Y-117998164D01*
X82529219Y-118012113D01*
X82551703Y-118022381D01*
X82557555Y-118031488D01*
X82566493Y-118037599D01*
X82576115Y-118060367D01*
X82589477Y-118081159D01*
X82591836Y-118097566D01*
X82593692Y-118101958D01*
X82594500Y-118116094D01*
X82594500Y-118183904D01*
X82574815Y-118250943D01*
X82522011Y-118296698D01*
X82508821Y-118301834D01*
X82463005Y-118316721D01*
X82296040Y-118401794D01*
X82296037Y-118401795D01*
X82182477Y-118484302D01*
X82144441Y-118511938D01*
X82144439Y-118511940D01*
X82144438Y-118511940D01*
X82011940Y-118644438D01*
X82011940Y-118644439D01*
X82011938Y-118644441D01*
X81994066Y-118669040D01*
X81901795Y-118796037D01*
X81901794Y-118796040D01*
X81816723Y-118963002D01*
X81816722Y-118963004D01*
X81816721Y-118963007D01*
X81758814Y-119141224D01*
X81758813Y-119141227D01*
X81758813Y-119141229D01*
X81729500Y-119326300D01*
X81729500Y-119513699D01*
X81748124Y-119631282D01*
X81758814Y-119698776D01*
X81816721Y-119876993D01*
X81901023Y-120042447D01*
X81901794Y-120043959D01*
X81901795Y-120043962D01*
X81927293Y-120079056D01*
X82011938Y-120195559D01*
X82144441Y-120328062D01*
X82200398Y-120368717D01*
X82296037Y-120438204D01*
X82296038Y-120438204D01*
X82296042Y-120438207D01*
X82379083Y-120480518D01*
X82463002Y-120523277D01*
X82463004Y-120523277D01*
X82463007Y-120523279D01*
X82613168Y-120572070D01*
X82670842Y-120611507D01*
X82698040Y-120675866D01*
X82686125Y-120744712D01*
X82638881Y-120796188D01*
X82613171Y-120807928D01*
X82539328Y-120831922D01*
X82463002Y-120856722D01*
X82296040Y-120941794D01*
X82296037Y-120941795D01*
X82182477Y-121024302D01*
X82144441Y-121051938D01*
X82144439Y-121051940D01*
X82144438Y-121051940D01*
X82011940Y-121184438D01*
X82011940Y-121184439D01*
X82011938Y-121184441D01*
X81994066Y-121209040D01*
X81901795Y-121336037D01*
X81901794Y-121336040D01*
X81816723Y-121503002D01*
X81816722Y-121503004D01*
X81816721Y-121503007D01*
X81758814Y-121681224D01*
X81758813Y-121681227D01*
X81758813Y-121681229D01*
X81729500Y-121866300D01*
X81729500Y-122053699D01*
X81756190Y-122222209D01*
X81758814Y-122238776D01*
X81816721Y-122416993D01*
X81901023Y-122582447D01*
X81901794Y-122583959D01*
X81901795Y-122583962D01*
X81947587Y-122646988D01*
X82011938Y-122735559D01*
X82144441Y-122868062D01*
X82225152Y-122926702D01*
X82296037Y-122978204D01*
X82296038Y-122978204D01*
X82296042Y-122978207D01*
X82403188Y-123032800D01*
X82463002Y-123063277D01*
X82463004Y-123063277D01*
X82463007Y-123063279D01*
X82613168Y-123112070D01*
X82670842Y-123151507D01*
X82698040Y-123215866D01*
X82686125Y-123284712D01*
X82638881Y-123336188D01*
X82613171Y-123347928D01*
X82539328Y-123371922D01*
X82463002Y-123396722D01*
X82296040Y-123481794D01*
X82296037Y-123481795D01*
X82182477Y-123564302D01*
X82144441Y-123591938D01*
X82144439Y-123591940D01*
X82144438Y-123591940D01*
X82011940Y-123724438D01*
X82011940Y-123724439D01*
X82011938Y-123724441D01*
X81986998Y-123758768D01*
X81901795Y-123876037D01*
X81901794Y-123876040D01*
X81816723Y-124043002D01*
X81816722Y-124043004D01*
X81816721Y-124043007D01*
X81758814Y-124221224D01*
X81758813Y-124221227D01*
X81758813Y-124221229D01*
X81729500Y-124406300D01*
X81729500Y-124593699D01*
X81758813Y-124778770D01*
X81758814Y-124778776D01*
X81816721Y-124956993D01*
X81901023Y-125122447D01*
X81901794Y-125123959D01*
X81901795Y-125123962D01*
X81947587Y-125186988D01*
X82011938Y-125275559D01*
X82144441Y-125408062D01*
X82195922Y-125445465D01*
X82296037Y-125518204D01*
X82296038Y-125518204D01*
X82296042Y-125518207D01*
X82463007Y-125603279D01*
X82641224Y-125661186D01*
X82733765Y-125675843D01*
X82826301Y-125690500D01*
X82826306Y-125690500D01*
X83013699Y-125690500D01*
X83097822Y-125677175D01*
X83198776Y-125661186D01*
X83376993Y-125603279D01*
X83543958Y-125518207D01*
X83695559Y-125408062D01*
X83828062Y-125275559D01*
X83938207Y-125123958D01*
X84004828Y-124993204D01*
X84052802Y-124942409D01*
X84115313Y-124925500D01*
X86056016Y-124925500D01*
X86056018Y-124925500D01*
X86164237Y-124896503D01*
X86261263Y-124840485D01*
X86340485Y-124761263D01*
X86396503Y-124664237D01*
X86425500Y-124556018D01*
X86425500Y-117488310D01*
X86445185Y-117421271D01*
X86497989Y-117375516D01*
X86567147Y-117365572D01*
X86630703Y-117394597D01*
X86637166Y-117400615D01*
X92172812Y-122936260D01*
X92172814Y-122936263D01*
X92252036Y-123015485D01*
X92334818Y-123063279D01*
X92349062Y-123071503D01*
X92457280Y-123100500D01*
X92457281Y-123100500D01*
X92457282Y-123100500D01*
X93542717Y-123100500D01*
X93542719Y-123100500D01*
X93650938Y-123071503D01*
X93747964Y-123015485D01*
X96619875Y-120143574D01*
X96675893Y-120046548D01*
X96704890Y-119938329D01*
X96704890Y-119826292D01*
X96704890Y-113617846D01*
X96721502Y-113555848D01*
X96792374Y-113433095D01*
X96829890Y-113293085D01*
X96829890Y-113293081D01*
X96830951Y-113285025D01*
X96832286Y-113285200D01*
X96849575Y-113226322D01*
X96902379Y-113180567D01*
X96971537Y-113170623D01*
X97035093Y-113199648D01*
X97041571Y-113205680D01*
X103450265Y-119614374D01*
X103450275Y-119614385D01*
X103454605Y-119618715D01*
X103454606Y-119618716D01*
X103566410Y-119730520D01*
X103631702Y-119768216D01*
X103703341Y-119809577D01*
X103856068Y-119850500D01*
X103856069Y-119850500D01*
X104000902Y-119850500D01*
X104067941Y-119870185D01*
X104113696Y-119922989D01*
X104123640Y-119992147D01*
X104094615Y-120055703D01*
X104088583Y-120062181D01*
X104019481Y-120131282D01*
X104019475Y-120131290D01*
X103940426Y-120268209D01*
X103940423Y-120268216D01*
X103899500Y-120420943D01*
X103899500Y-120439324D01*
X103879815Y-120506363D01*
X103827011Y-120552118D01*
X103757853Y-120562062D01*
X103719206Y-120549809D01*
X103582450Y-120480129D01*
X103582447Y-120480128D01*
X103582445Y-120480127D01*
X103417701Y-120426598D01*
X103417699Y-120426597D01*
X103417698Y-120426597D01*
X103267326Y-120402781D01*
X103246611Y-120399500D01*
X103073389Y-120399500D01*
X103052674Y-120402781D01*
X102902302Y-120426597D01*
X102902299Y-120426598D01*
X102761115Y-120472472D01*
X102737552Y-120480128D01*
X102583211Y-120558768D01*
X102512009Y-120610500D01*
X102443072Y-120660586D01*
X102443070Y-120660588D01*
X102443069Y-120660588D01*
X102320588Y-120783069D01*
X102320588Y-120783070D01*
X102320586Y-120783072D01*
X102306577Y-120802354D01*
X102218768Y-120923211D01*
X102140128Y-121077552D01*
X102086597Y-121242302D01*
X102059500Y-121413389D01*
X102059500Y-121586610D01*
X102086598Y-121757702D01*
X102086598Y-121757705D01*
X102115585Y-121846916D01*
X102117580Y-121916757D01*
X102085335Y-121972915D01*
X98520071Y-125538181D01*
X98458748Y-125571666D01*
X98432390Y-125574500D01*
X94014303Y-125574500D01*
X93947264Y-125554815D01*
X93903819Y-125506795D01*
X93861232Y-125423212D01*
X93861230Y-125423209D01*
X93861229Y-125423207D01*
X93831672Y-125382526D01*
X93759414Y-125283072D01*
X93636928Y-125160586D01*
X93496788Y-125058768D01*
X93342445Y-124980127D01*
X93177701Y-124926598D01*
X93177699Y-124926597D01*
X93177698Y-124926597D01*
X93027326Y-124902781D01*
X93006611Y-124899500D01*
X92833389Y-124899500D01*
X92812674Y-124902781D01*
X92662302Y-124926597D01*
X92497552Y-124980128D01*
X92343211Y-125058768D01*
X92329968Y-125068390D01*
X92203072Y-125160586D01*
X92203070Y-125160588D01*
X92203069Y-125160588D01*
X92080588Y-125283069D01*
X92080588Y-125283070D01*
X92080586Y-125283072D01*
X92054737Y-125318650D01*
X91978768Y-125423211D01*
X91900128Y-125577552D01*
X91846597Y-125742302D01*
X91830236Y-125845606D01*
X91819500Y-125913389D01*
X91819500Y-126086611D01*
X91820344Y-126091938D01*
X91841329Y-126224438D01*
X91846598Y-126257701D01*
X91900127Y-126422445D01*
X91978768Y-126576788D01*
X92080586Y-126716928D01*
X92203072Y-126839414D01*
X92343212Y-126941232D01*
X92497555Y-127019873D01*
X92662299Y-127073402D01*
X92833389Y-127100500D01*
X92833390Y-127100500D01*
X93006610Y-127100500D01*
X93006611Y-127100500D01*
X93177701Y-127073402D01*
X93342445Y-127019873D01*
X93496788Y-126941232D01*
X93636928Y-126839414D01*
X93759414Y-126716928D01*
X93861232Y-126576788D01*
X93903819Y-126493204D01*
X93951792Y-126442410D01*
X94014303Y-126425500D01*
X98716016Y-126425500D01*
X98716018Y-126425500D01*
X98824237Y-126396503D01*
X98921263Y-126340485D01*
X102687085Y-122574661D01*
X102748406Y-122541178D01*
X102813081Y-122544412D01*
X102902299Y-122573402D01*
X103073389Y-122600500D01*
X103073390Y-122600500D01*
X103246610Y-122600500D01*
X103246611Y-122600500D01*
X103417701Y-122573402D01*
X103582445Y-122519873D01*
X103736788Y-122441232D01*
X103876928Y-122339414D01*
X103999414Y-122216928D01*
X104101232Y-122076788D01*
X104179873Y-121922445D01*
X104233402Y-121757701D01*
X104260500Y-121586611D01*
X104260500Y-121413389D01*
X104260500Y-121413388D01*
X104260118Y-121408538D01*
X104261176Y-121408454D01*
X104261222Y-121408094D01*
X104259308Y-121402961D01*
X104265648Y-121373815D01*
X104269467Y-121344236D01*
X104273303Y-121338623D01*
X104274160Y-121334688D01*
X104295304Y-121306442D01*
X104464930Y-121136816D01*
X104526253Y-121103334D01*
X104552610Y-121100500D01*
X104579055Y-121100500D01*
X104579057Y-121100500D01*
X104731784Y-121059577D01*
X104868716Y-120980520D01*
X104980520Y-120868716D01*
X105059577Y-120731784D01*
X105100500Y-120579057D01*
X105100500Y-120420943D01*
X105059577Y-120268216D01*
X105059573Y-120268209D01*
X104980524Y-120131290D01*
X104980518Y-120131282D01*
X104911417Y-120062181D01*
X104877932Y-120000858D01*
X104882916Y-119931166D01*
X104924788Y-119875233D01*
X104990252Y-119850816D01*
X104999098Y-119850500D01*
X106615579Y-119850500D01*
X106682618Y-119870185D01*
X106728373Y-119922989D01*
X106738317Y-119992147D01*
X106709292Y-120055703D01*
X106671874Y-120084985D01*
X106568386Y-120137715D01*
X106402786Y-120258028D01*
X106258028Y-120402786D01*
X106137715Y-120568386D01*
X106044781Y-120750776D01*
X105981522Y-120945465D01*
X105949500Y-121147648D01*
X105949500Y-121352351D01*
X105981522Y-121554534D01*
X106044781Y-121749223D01*
X106090022Y-121838011D01*
X106134207Y-121924730D01*
X106137715Y-121931613D01*
X106258028Y-122097213D01*
X106402786Y-122241971D01*
X106536908Y-122339414D01*
X106568390Y-122362287D01*
X106675764Y-122416997D01*
X106750776Y-122455218D01*
X106750778Y-122455218D01*
X106750781Y-122455220D01*
X106855137Y-122489127D01*
X106945465Y-122518477D01*
X107046557Y-122534488D01*
X107147648Y-122550500D01*
X107147649Y-122550500D01*
X107352351Y-122550500D01*
X107352352Y-122550500D01*
X107554534Y-122518477D01*
X107749219Y-122455220D01*
X107931610Y-122362287D01*
X108024590Y-122294732D01*
X108097213Y-122241971D01*
X108097215Y-122241968D01*
X108097219Y-122241966D01*
X108241966Y-122097219D01*
X108241968Y-122097215D01*
X108241971Y-122097213D01*
X108355820Y-121940511D01*
X108362287Y-121931610D01*
X108369117Y-121918204D01*
X108417091Y-121867409D01*
X108479602Y-121850500D01*
X112520398Y-121850500D01*
X112587437Y-121870185D01*
X112630882Y-121918204D01*
X112636821Y-121929859D01*
X112637715Y-121931614D01*
X112758028Y-122097213D01*
X112902786Y-122241971D01*
X113036908Y-122339414D01*
X113068390Y-122362287D01*
X113175764Y-122416997D01*
X113250776Y-122455218D01*
X113250778Y-122455218D01*
X113250781Y-122455220D01*
X113355137Y-122489127D01*
X113445465Y-122518477D01*
X113546557Y-122534488D01*
X113647648Y-122550500D01*
X113647649Y-122550500D01*
X113852351Y-122550500D01*
X113852352Y-122550500D01*
X114054534Y-122518477D01*
X114249219Y-122455220D01*
X114431610Y-122362287D01*
X114524590Y-122294732D01*
X114597213Y-122241971D01*
X114597215Y-122241968D01*
X114597219Y-122241966D01*
X114741966Y-122097219D01*
X114741968Y-122097215D01*
X114741971Y-122097213D01*
X114832277Y-121972915D01*
X114862287Y-121931610D01*
X114955220Y-121749219D01*
X114975702Y-121686179D01*
X115015140Y-121628506D01*
X115079499Y-121601308D01*
X115093633Y-121600500D01*
X116079055Y-121600500D01*
X116079057Y-121600500D01*
X116231784Y-121559577D01*
X116368716Y-121480520D01*
X116480520Y-121368716D01*
X116559577Y-121231784D01*
X116600500Y-121079057D01*
X116600500Y-120920943D01*
X116559577Y-120768216D01*
X116538543Y-120731783D01*
X116480524Y-120631290D01*
X116480518Y-120631282D01*
X116368717Y-120519481D01*
X116368709Y-120519475D01*
X116231790Y-120440426D01*
X116231786Y-120440424D01*
X116231784Y-120440423D01*
X116079057Y-120399500D01*
X116079056Y-120399500D01*
X114790047Y-120399500D01*
X114723008Y-120379815D01*
X114702366Y-120363181D01*
X114597213Y-120258028D01*
X114431613Y-120137715D01*
X114431612Y-120137714D01*
X114431610Y-120137713D01*
X114328126Y-120084985D01*
X114277330Y-120037010D01*
X114260535Y-119969189D01*
X114283073Y-119903054D01*
X114337788Y-119859603D01*
X114384421Y-119850500D01*
X117971614Y-119850500D01*
X118038653Y-119870185D01*
X118084408Y-119922989D01*
X118094352Y-119992147D01*
X118065327Y-120055703D01*
X118059557Y-120061898D01*
X118059488Y-120061988D01*
X117987017Y-120187511D01*
X117987016Y-120187515D01*
X117949500Y-120327525D01*
X117949500Y-120472475D01*
X117983805Y-120600500D01*
X117987017Y-120612488D01*
X118059488Y-120738011D01*
X118059493Y-120738017D01*
X118078057Y-120756581D01*
X118098335Y-120786926D01*
X118099433Y-120786293D01*
X118159512Y-120890353D01*
X118159514Y-120890355D01*
X118159515Y-120890357D01*
X119005421Y-121736263D01*
X119084643Y-121815485D01*
X119181669Y-121871503D01*
X119289888Y-121900500D01*
X119387960Y-121900500D01*
X119454999Y-121920185D01*
X119461593Y-121924730D01*
X119499613Y-121952790D01*
X119499615Y-121952791D01*
X119499618Y-121952793D01*
X119542345Y-121967744D01*
X119627799Y-121997646D01*
X119658230Y-122000500D01*
X119658234Y-122000500D01*
X120791770Y-122000500D01*
X120822199Y-121997646D01*
X120822201Y-121997646D01*
X120892876Y-121972915D01*
X120950382Y-121952793D01*
X121059650Y-121872150D01*
X121140293Y-121762882D01*
X121140294Y-121762876D01*
X121144633Y-121754669D01*
X121146627Y-121755723D01*
X121179867Y-121709375D01*
X121244818Y-121683625D01*
X121313380Y-121697078D01*
X121363786Y-121745463D01*
X121375267Y-121772507D01*
X121386215Y-121810193D01*
X121386217Y-121810196D01*
X121469814Y-121951552D01*
X121469821Y-121951561D01*
X121585938Y-122067678D01*
X121585947Y-122067685D01*
X121727303Y-122151282D01*
X121727306Y-122151283D01*
X121885004Y-122197099D01*
X121885010Y-122197100D01*
X121921850Y-122199999D01*
X121921866Y-122200000D01*
X122250000Y-122200000D01*
X122250000Y-120700000D01*
X120349000Y-120700000D01*
X120281961Y-120680315D01*
X120236206Y-120627511D01*
X120225000Y-120576000D01*
X120225000Y-120324000D01*
X120244685Y-120256961D01*
X120297489Y-120211206D01*
X120349000Y-120200000D01*
X123659795Y-120200000D01*
X123672587Y-120186161D01*
X123676855Y-120165848D01*
X123725909Y-120116093D01*
X123786107Y-120100500D01*
X124079055Y-120100500D01*
X124079057Y-120100500D01*
X124231784Y-120059577D01*
X124368716Y-119980520D01*
X124480520Y-119868716D01*
X124559577Y-119731784D01*
X124600500Y-119579057D01*
X124600500Y-119420943D01*
X124559577Y-119268216D01*
X124557894Y-119265301D01*
X124480524Y-119131290D01*
X124480518Y-119131282D01*
X124368717Y-119019481D01*
X124368709Y-119019475D01*
X124231790Y-118940426D01*
X124231786Y-118940424D01*
X124231784Y-118940423D01*
X124079057Y-118899500D01*
X124079056Y-118899500D01*
X124001678Y-118899500D01*
X123934639Y-118879815D01*
X123913997Y-118863181D01*
X123820297Y-118769481D01*
X123820296Y-118769480D01*
X123733484Y-118719360D01*
X123733484Y-118719359D01*
X123733480Y-118719358D01*
X123683365Y-118690423D01*
X123530637Y-118649499D01*
X123372523Y-118649499D01*
X123364927Y-118649499D01*
X123364911Y-118649500D01*
X122420943Y-118649500D01*
X122268216Y-118690423D01*
X122268209Y-118690426D01*
X122131290Y-118769475D01*
X122131282Y-118769481D01*
X122037583Y-118863181D01*
X121976260Y-118896666D01*
X121949902Y-118899500D01*
X121933230Y-118899500D01*
X121902800Y-118902353D01*
X121902798Y-118902353D01*
X121774619Y-118947206D01*
X121774617Y-118947207D01*
X121665350Y-119027850D01*
X121584707Y-119137117D01*
X121584706Y-119137119D01*
X121539853Y-119265298D01*
X121539853Y-119265300D01*
X121537000Y-119295730D01*
X121537000Y-119704269D01*
X121539853Y-119734699D01*
X121541464Y-119742073D01*
X121539028Y-119742604D01*
X121539111Y-119744234D01*
X121544488Y-119756784D01*
X121540850Y-119778444D01*
X121541965Y-119800378D01*
X121534930Y-119813687D01*
X121532915Y-119825689D01*
X121516119Y-119849279D01*
X121513138Y-119854921D01*
X121454270Y-119919703D01*
X121434814Y-119931567D01*
X121418158Y-119947118D01*
X121405554Y-119949409D01*
X121394617Y-119956080D01*
X121371835Y-119955541D01*
X121349416Y-119959619D01*
X121337572Y-119954732D01*
X121324766Y-119954430D01*
X121305891Y-119941660D01*
X121284828Y-119932970D01*
X121273185Y-119919534D01*
X121266896Y-119915279D01*
X121264350Y-119909338D01*
X121260135Y-119904473D01*
X121259963Y-119904607D01*
X121257505Y-119901438D01*
X121255771Y-119899437D01*
X121255186Y-119898449D01*
X121255178Y-119898438D01*
X121215950Y-119859211D01*
X121182464Y-119797888D01*
X121185858Y-119742575D01*
X121183536Y-119742068D01*
X121185147Y-119734693D01*
X121188000Y-119704269D01*
X121188000Y-119295730D01*
X121185146Y-119265300D01*
X121185146Y-119265298D01*
X121141731Y-119141229D01*
X121140293Y-119137118D01*
X121059650Y-119027850D01*
X120950382Y-118947207D01*
X120950380Y-118947206D01*
X120822200Y-118902353D01*
X120791770Y-118899500D01*
X120791766Y-118899500D01*
X120775098Y-118899500D01*
X120708059Y-118879815D01*
X120687417Y-118863181D01*
X120593717Y-118769481D01*
X120593709Y-118769475D01*
X120456790Y-118690426D01*
X120456786Y-118690424D01*
X120456784Y-118690423D01*
X120304057Y-118649500D01*
X120304056Y-118649500D01*
X116928386Y-118649500D01*
X116861347Y-118629815D01*
X116815592Y-118577011D01*
X116805648Y-118507853D01*
X116834673Y-118444297D01*
X116840705Y-118437819D01*
X116882023Y-118396501D01*
X116940509Y-118338015D01*
X117012984Y-118212485D01*
X117050500Y-118072475D01*
X117050500Y-118019179D01*
X117070185Y-117952140D01*
X117122989Y-117906385D01*
X117192147Y-117896441D01*
X117206575Y-117899400D01*
X117303982Y-117925500D01*
X117416019Y-117925500D01*
X119102763Y-117925500D01*
X119164763Y-117942113D01*
X119287511Y-118012982D01*
X119287512Y-118012982D01*
X119287515Y-118012984D01*
X119427525Y-118050500D01*
X119427528Y-118050500D01*
X119572472Y-118050500D01*
X119572475Y-118050500D01*
X119712485Y-118012984D01*
X119838015Y-117940509D01*
X119940509Y-117838015D01*
X120012984Y-117712485D01*
X120050500Y-117572475D01*
X120050500Y-117427525D01*
X120012984Y-117287515D01*
X119943179Y-117166610D01*
X119940511Y-117161988D01*
X119940506Y-117161982D01*
X119838017Y-117059493D01*
X119838011Y-117059488D01*
X119712488Y-116987017D01*
X119712489Y-116987017D01*
X119701006Y-116983940D01*
X119572475Y-116949500D01*
X119427525Y-116949500D01*
X119298993Y-116983940D01*
X119287511Y-116987017D01*
X119164763Y-117057887D01*
X119102763Y-117074500D01*
X117587610Y-117074500D01*
X117520571Y-117054815D01*
X117499929Y-117038181D01*
X112060727Y-111598979D01*
X112027242Y-111537656D01*
X112032226Y-111467964D01*
X112074098Y-111412031D01*
X112139562Y-111387614D01*
X112190680Y-111394725D01*
X113737337Y-111955601D01*
X113782745Y-111984492D01*
X118055174Y-116256921D01*
X118055184Y-116256932D01*
X118059514Y-116261262D01*
X118059515Y-116261263D01*
X118138737Y-116340485D01*
X118235730Y-116396484D01*
X118235763Y-116396503D01*
X118343981Y-116425500D01*
X118343982Y-116425500D01*
X126102763Y-116425500D01*
X126164763Y-116442113D01*
X126287511Y-116512982D01*
X126287512Y-116512982D01*
X126287515Y-116512984D01*
X126427525Y-116550500D01*
X126427528Y-116550500D01*
X126572472Y-116550500D01*
X126572475Y-116550500D01*
X126712485Y-116512984D01*
X126838015Y-116440509D01*
X126940509Y-116338015D01*
X127012984Y-116212485D01*
X127050500Y-116072475D01*
X127050500Y-115927525D01*
X127012984Y-115787515D01*
X126973319Y-115718814D01*
X126940511Y-115661988D01*
X126940506Y-115661982D01*
X126838017Y-115559493D01*
X126838011Y-115559488D01*
X126712488Y-115487017D01*
X126712489Y-115487017D01*
X126701006Y-115483940D01*
X126572475Y-115449500D01*
X126427525Y-115449500D01*
X126298993Y-115483940D01*
X126287511Y-115487017D01*
X126164763Y-115557887D01*
X126102763Y-115574500D01*
X118627609Y-115574500D01*
X118560570Y-115554815D01*
X118539928Y-115538181D01*
X117312228Y-114310481D01*
X117278743Y-114249158D01*
X117283727Y-114179466D01*
X117325599Y-114123533D01*
X117391063Y-114099116D01*
X117416101Y-114099862D01*
X117420941Y-114100499D01*
X117420943Y-114100500D01*
X117420945Y-114100500D01*
X117579055Y-114100500D01*
X117579057Y-114100500D01*
X117731784Y-114059577D01*
X117868716Y-113980520D01*
X117887417Y-113961819D01*
X117948740Y-113928334D01*
X117975098Y-113925500D01*
X118836016Y-113925500D01*
X118836019Y-113925500D01*
X118944237Y-113896503D01*
X119041264Y-113840485D01*
X119120485Y-113761264D01*
X119176503Y-113664237D01*
X119205500Y-113556019D01*
X119205500Y-113443982D01*
X119176503Y-113335763D01*
X119120485Y-113238737D01*
X117801819Y-111920071D01*
X117768334Y-111858748D01*
X117765500Y-111832390D01*
X117765500Y-111010421D01*
X117785185Y-110943382D01*
X117833203Y-110899937D01*
X117942994Y-110843996D01*
X118089501Y-110737553D01*
X118217553Y-110609501D01*
X118323996Y-110462994D01*
X118406211Y-110301639D01*
X118462171Y-110129409D01*
X118483397Y-109995394D01*
X118487527Y-109969321D01*
X118517456Y-109906186D01*
X118576768Y-109869255D01*
X118646630Y-109870253D01*
X118704863Y-109908863D01*
X118732473Y-109969321D01*
X118757829Y-110129410D01*
X118813787Y-110301636D01*
X118813788Y-110301639D01*
X118852950Y-110378497D01*
X118895518Y-110462041D01*
X118896006Y-110462997D01*
X119002441Y-110609494D01*
X119002445Y-110609499D01*
X119130500Y-110737554D01*
X119130505Y-110737558D01*
X119234986Y-110813467D01*
X119277006Y-110843996D01*
X119353094Y-110882765D01*
X119438360Y-110926211D01*
X119438363Y-110926212D01*
X119493400Y-110944094D01*
X119610591Y-110982171D01*
X119691060Y-110994916D01*
X119789449Y-111010500D01*
X119789454Y-111010500D01*
X119970551Y-111010500D01*
X120058225Y-110996613D01*
X120149409Y-110982171D01*
X120321639Y-110926211D01*
X120482994Y-110843996D01*
X120629501Y-110737553D01*
X120757553Y-110609501D01*
X120863996Y-110462994D01*
X120946211Y-110301639D01*
X121002171Y-110129409D01*
X121023397Y-109995394D01*
X121027527Y-109969321D01*
X121057456Y-109906186D01*
X121116768Y-109869255D01*
X121186630Y-109870253D01*
X121244863Y-109908863D01*
X121272473Y-109969321D01*
X121297829Y-110129410D01*
X121353787Y-110301636D01*
X121353788Y-110301639D01*
X121392950Y-110378497D01*
X121435518Y-110462041D01*
X121436006Y-110462997D01*
X121542441Y-110609494D01*
X121542445Y-110609499D01*
X121670500Y-110737554D01*
X121670505Y-110737558D01*
X121774986Y-110813467D01*
X121817006Y-110843996D01*
X121893094Y-110882765D01*
X121978360Y-110926211D01*
X121978363Y-110926212D01*
X122033400Y-110944094D01*
X122150591Y-110982171D01*
X122231060Y-110994916D01*
X122329449Y-111010500D01*
X122329454Y-111010500D01*
X122510551Y-111010500D01*
X122598225Y-110996613D01*
X122689409Y-110982171D01*
X122861639Y-110926211D01*
X123022994Y-110843996D01*
X123169501Y-110737553D01*
X123297553Y-110609501D01*
X123403996Y-110462994D01*
X123486211Y-110301639D01*
X123542171Y-110129409D01*
X123563397Y-109995394D01*
X123567527Y-109969321D01*
X123597456Y-109906186D01*
X123656768Y-109869255D01*
X123726630Y-109870253D01*
X123784863Y-109908863D01*
X123812473Y-109969321D01*
X123837829Y-110129410D01*
X123893787Y-110301636D01*
X123893788Y-110301639D01*
X123932950Y-110378497D01*
X123975518Y-110462041D01*
X123976006Y-110462997D01*
X124082441Y-110609494D01*
X124082445Y-110609499D01*
X124210500Y-110737554D01*
X124210505Y-110737558D01*
X124314986Y-110813467D01*
X124357006Y-110843996D01*
X124433094Y-110882765D01*
X124518360Y-110926211D01*
X124518363Y-110926212D01*
X124573400Y-110944094D01*
X124690591Y-110982171D01*
X124771060Y-110994916D01*
X124869449Y-111010500D01*
X124869454Y-111010500D01*
X125050551Y-111010500D01*
X125138225Y-110996613D01*
X125229409Y-110982171D01*
X125401639Y-110926211D01*
X125562994Y-110843996D01*
X125709501Y-110737553D01*
X125837553Y-110609501D01*
X125943996Y-110462994D01*
X126026211Y-110301639D01*
X126082171Y-110129409D01*
X126103027Y-109997729D01*
X126132956Y-109934595D01*
X126192267Y-109897663D01*
X126262130Y-109898661D01*
X126320363Y-109937271D01*
X126348477Y-110001234D01*
X126349500Y-110017127D01*
X126349500Y-110754856D01*
X126349502Y-110754882D01*
X126352413Y-110779987D01*
X126352415Y-110779991D01*
X126397793Y-110882764D01*
X126397794Y-110882765D01*
X126477235Y-110962206D01*
X126580009Y-111007585D01*
X126605135Y-111010500D01*
X128394864Y-111010499D01*
X128394879Y-111010497D01*
X128394882Y-111010497D01*
X128419987Y-111007586D01*
X128419988Y-111007585D01*
X128419991Y-111007585D01*
X128522765Y-110962206D01*
X128602206Y-110882765D01*
X128647585Y-110779991D01*
X128650500Y-110754865D01*
X128650500Y-110409500D01*
X128670185Y-110342461D01*
X128722989Y-110296706D01*
X128774500Y-110285500D01*
X132636016Y-110285500D01*
X132636018Y-110285500D01*
X132744237Y-110256503D01*
X132841263Y-110200485D01*
X134299986Y-108741761D01*
X134355568Y-108709671D01*
X134492485Y-108672984D01*
X134618015Y-108600509D01*
X134720509Y-108498015D01*
X134792984Y-108372485D01*
X134830500Y-108232475D01*
X134830500Y-107904164D01*
X134850185Y-107837125D01*
X134902989Y-107791370D01*
X134972147Y-107781426D01*
X135035703Y-107810451D01*
X135053680Y-107832227D01*
X135054543Y-107831566D01*
X135059489Y-107838012D01*
X135059491Y-107838015D01*
X135161985Y-107940509D01*
X135161986Y-107940510D01*
X135161988Y-107940511D01*
X135224750Y-107976746D01*
X135287515Y-108012984D01*
X135424429Y-108049670D01*
X135480015Y-108081763D01*
X138434515Y-111036263D01*
X138513737Y-111115485D01*
X138610763Y-111171503D01*
X138718981Y-111200500D01*
X138718982Y-111200500D01*
X140275500Y-111200500D01*
X140342539Y-111220185D01*
X140388294Y-111272989D01*
X140399500Y-111324500D01*
X140399500Y-112199903D01*
X140379815Y-112266942D01*
X140363181Y-112287584D01*
X133287584Y-119363181D01*
X133226261Y-119396666D01*
X133199903Y-119399500D01*
X128420943Y-119399500D01*
X128268216Y-119440423D01*
X128268209Y-119440426D01*
X128131290Y-119519475D01*
X128131282Y-119519481D01*
X128019481Y-119631282D01*
X128019475Y-119631290D01*
X127940426Y-119768209D01*
X127940424Y-119768213D01*
X127940423Y-119768216D01*
X127899500Y-119920943D01*
X127899500Y-120079057D01*
X127934563Y-120209912D01*
X127940423Y-120231783D01*
X127940426Y-120231790D01*
X128019475Y-120368709D01*
X128019478Y-120368713D01*
X128019480Y-120368716D01*
X128131284Y-120480520D01*
X128131286Y-120480521D01*
X128131290Y-120480524D01*
X128259968Y-120554815D01*
X128268216Y-120559577D01*
X128420943Y-120600500D01*
X132380214Y-120600500D01*
X132447253Y-120620185D01*
X132493008Y-120672989D01*
X132502952Y-120742147D01*
X132489885Y-120779900D01*
X132490128Y-120780001D01*
X132488442Y-120784071D01*
X132487603Y-120786496D01*
X132487018Y-120787507D01*
X132487017Y-120787510D01*
X132483040Y-120802354D01*
X132449500Y-120927525D01*
X132449500Y-121072475D01*
X132474373Y-121165301D01*
X132487017Y-121212488D01*
X132559488Y-121338011D01*
X132559490Y-121338013D01*
X132559491Y-121338015D01*
X132661985Y-121440509D01*
X132661986Y-121440510D01*
X132661988Y-121440511D01*
X132787511Y-121512982D01*
X132787512Y-121512982D01*
X132787515Y-121512984D01*
X132927525Y-121550500D01*
X132927528Y-121550500D01*
X133072472Y-121550500D01*
X133072475Y-121550500D01*
X133212485Y-121512984D01*
X133335237Y-121442113D01*
X133397237Y-121425500D01*
X140112390Y-121425500D01*
X140179429Y-121445185D01*
X140200071Y-121461819D01*
X140425335Y-121687083D01*
X140458820Y-121748406D01*
X140455585Y-121813081D01*
X140426598Y-121902295D01*
X140399500Y-122073389D01*
X140399500Y-122246610D01*
X140426485Y-122416993D01*
X140426598Y-122417701D01*
X140480127Y-122582445D01*
X140558768Y-122736788D01*
X140660586Y-122876928D01*
X140783072Y-122999414D01*
X140923212Y-123101232D01*
X141077555Y-123179873D01*
X141242299Y-123233402D01*
X141413389Y-123260500D01*
X141413390Y-123260500D01*
X141586610Y-123260500D01*
X141586611Y-123260500D01*
X141757701Y-123233402D01*
X141922445Y-123179873D01*
X142076788Y-123101232D01*
X142216928Y-122999414D01*
X142339414Y-122876928D01*
X142441232Y-122736788D01*
X142519873Y-122582445D01*
X142573402Y-122417701D01*
X142600500Y-122246611D01*
X142600500Y-122073389D01*
X142573402Y-121902299D01*
X142519873Y-121737555D01*
X142441232Y-121583212D01*
X142339414Y-121443072D01*
X142216928Y-121320586D01*
X142076788Y-121218768D01*
X141922445Y-121140127D01*
X141757701Y-121086598D01*
X141757699Y-121086597D01*
X141757698Y-121086597D01*
X141626271Y-121065781D01*
X141586611Y-121059500D01*
X141413389Y-121059500D01*
X141379171Y-121064919D01*
X141242295Y-121086598D01*
X141153081Y-121115585D01*
X141083240Y-121117580D01*
X141027083Y-121085335D01*
X140601265Y-120659517D01*
X140601263Y-120659515D01*
X140504237Y-120603497D01*
X140396018Y-120574500D01*
X140396017Y-120574500D01*
X134074098Y-120574500D01*
X134052872Y-120568267D01*
X134030805Y-120566697D01*
X134020001Y-120558615D01*
X134007059Y-120554815D01*
X133992573Y-120538097D01*
X133974857Y-120524845D01*
X133970137Y-120512205D01*
X133961304Y-120502011D01*
X133958155Y-120480114D01*
X133950417Y-120459389D01*
X133953279Y-120446205D01*
X133951360Y-120432853D01*
X133960550Y-120412729D01*
X133965245Y-120391111D01*
X133978530Y-120373357D01*
X133980385Y-120369297D01*
X133986386Y-120362849D01*
X133987822Y-120361411D01*
X133990706Y-120358527D01*
X133990709Y-120358526D01*
X133990724Y-120358511D01*
X133990727Y-120358506D01*
X141212416Y-113136819D01*
X141273739Y-113103334D01*
X141300097Y-113100500D01*
X142175500Y-113100500D01*
X142242539Y-113120185D01*
X142288294Y-113172989D01*
X142299500Y-113224500D01*
X142299500Y-115627389D01*
X142279815Y-115694428D01*
X142263181Y-115715070D01*
X141972915Y-116005335D01*
X141911592Y-116038820D01*
X141846916Y-116035585D01*
X141757704Y-116006598D01*
X141629383Y-115986274D01*
X141586611Y-115979500D01*
X141413389Y-115979500D01*
X141373728Y-115985781D01*
X141242302Y-116006597D01*
X141077552Y-116060128D01*
X140923211Y-116138768D01*
X140853939Y-116189098D01*
X140783072Y-116240586D01*
X140783070Y-116240588D01*
X140783069Y-116240588D01*
X140660588Y-116363069D01*
X140660588Y-116363070D01*
X140660586Y-116363072D01*
X140636311Y-116396484D01*
X140558768Y-116503211D01*
X140480128Y-116657552D01*
X140426597Y-116822302D01*
X140399500Y-116993389D01*
X140399500Y-117166610D01*
X140426485Y-117336993D01*
X140426598Y-117337701D01*
X140480127Y-117502445D01*
X140558768Y-117656788D01*
X140660586Y-117796928D01*
X140783072Y-117919414D01*
X140923212Y-118021232D01*
X141077555Y-118099873D01*
X141242299Y-118153402D01*
X141413389Y-118180500D01*
X141413390Y-118180500D01*
X141586610Y-118180500D01*
X141586611Y-118180500D01*
X141757701Y-118153402D01*
X141922445Y-118099873D01*
X142076788Y-118021232D01*
X142216928Y-117919414D01*
X142339414Y-117796928D01*
X142441232Y-117656788D01*
X142519873Y-117502445D01*
X142557569Y-117386426D01*
X142597007Y-117328752D01*
X142661365Y-117301554D01*
X142730212Y-117313469D01*
X142781687Y-117360713D01*
X142799500Y-117424746D01*
X142799500Y-117667389D01*
X142779815Y-117734428D01*
X142763181Y-117755070D01*
X141972915Y-118545335D01*
X141911592Y-118578820D01*
X141846916Y-118575585D01*
X141757704Y-118546598D01*
X141629383Y-118526274D01*
X141586611Y-118519500D01*
X141413389Y-118519500D01*
X141373728Y-118525781D01*
X141242302Y-118546597D01*
X141077552Y-118600128D01*
X140923211Y-118678768D01*
X140843256Y-118736859D01*
X140783072Y-118780586D01*
X140783070Y-118780588D01*
X140783069Y-118780588D01*
X140660588Y-118903069D01*
X140660588Y-118903070D01*
X140660586Y-118903072D01*
X140633449Y-118940423D01*
X140558768Y-119043211D01*
X140480128Y-119197552D01*
X140480127Y-119197554D01*
X140480127Y-119197555D01*
X140458116Y-119265298D01*
X140426597Y-119362302D01*
X140399500Y-119533389D01*
X140399500Y-119706610D01*
X140426549Y-119877395D01*
X140426598Y-119877701D01*
X140480127Y-120042445D01*
X140558768Y-120196788D01*
X140660586Y-120336928D01*
X140783072Y-120459414D01*
X140923212Y-120561232D01*
X141077555Y-120639873D01*
X141242299Y-120693402D01*
X141413389Y-120720500D01*
X141413390Y-120720500D01*
X141586610Y-120720500D01*
X141586611Y-120720500D01*
X141757701Y-120693402D01*
X141922445Y-120639873D01*
X142076788Y-120561232D01*
X142216928Y-120459414D01*
X142339414Y-120336928D01*
X142441232Y-120196788D01*
X142519873Y-120042445D01*
X142573402Y-119877701D01*
X142600500Y-119706611D01*
X142600500Y-119533389D01*
X142573402Y-119362299D01*
X142544412Y-119273081D01*
X142542418Y-119203241D01*
X142574661Y-119147085D01*
X143565484Y-118156264D01*
X143567137Y-118153402D01*
X143621503Y-118059237D01*
X143650500Y-117951018D01*
X143650500Y-110511875D01*
X143637402Y-110462994D01*
X143621503Y-110403656D01*
X143606977Y-110378497D01*
X143565485Y-110306630D01*
X143486263Y-110227408D01*
X143486262Y-110227407D01*
X143481932Y-110223077D01*
X143481921Y-110223067D01*
X140753372Y-107494517D01*
X140753371Y-107494516D01*
X140753370Y-107494515D01*
X140662607Y-107442113D01*
X140656346Y-107438498D01*
X140656345Y-107438497D01*
X140656344Y-107438497D01*
X140548125Y-107409500D01*
X140548124Y-107409500D01*
X139555581Y-107409500D01*
X139488542Y-107389815D01*
X139442787Y-107337011D01*
X139432843Y-107267853D01*
X139445096Y-107229206D01*
X139493111Y-107134968D01*
X139519873Y-107082445D01*
X139573402Y-106917701D01*
X139600500Y-106746611D01*
X139600500Y-106573389D01*
X139573402Y-106402299D01*
X139519873Y-106237555D01*
X139441232Y-106083212D01*
X139339414Y-105943072D01*
X139216928Y-105820586D01*
X139076788Y-105718768D01*
X138922445Y-105640127D01*
X138757701Y-105586598D01*
X138757699Y-105586597D01*
X138757698Y-105586597D01*
X138626271Y-105565781D01*
X138586611Y-105559500D01*
X138413389Y-105559500D01*
X138379171Y-105564919D01*
X138242295Y-105586598D01*
X138153081Y-105615585D01*
X138083240Y-105617580D01*
X138027083Y-105585335D01*
X136101265Y-103659517D01*
X136101263Y-103659515D01*
X136004237Y-103603497D01*
X135896018Y-103574500D01*
X135896017Y-103574500D01*
X135887958Y-103573439D01*
X135888139Y-103572062D01*
X135835237Y-103557887D01*
X135712488Y-103487017D01*
X135712489Y-103487017D01*
X135701006Y-103483940D01*
X135572475Y-103449500D01*
X135427525Y-103449500D01*
X135298993Y-103483940D01*
X135287511Y-103487017D01*
X135161988Y-103559488D01*
X135161982Y-103559493D01*
X135059493Y-103661982D01*
X135054543Y-103668434D01*
X135052453Y-103666830D01*
X135011319Y-103706051D01*
X134942712Y-103719273D01*
X134877847Y-103693305D01*
X134837320Y-103636390D01*
X134830500Y-103595835D01*
X134830500Y-96413389D01*
X137399500Y-96413389D01*
X137399500Y-96586611D01*
X137426598Y-96757701D01*
X137480127Y-96922445D01*
X137558768Y-97076788D01*
X137660586Y-97216928D01*
X137783072Y-97339414D01*
X137923212Y-97441232D01*
X138077555Y-97519873D01*
X138242299Y-97573402D01*
X138413389Y-97600500D01*
X138413390Y-97600500D01*
X138586610Y-97600500D01*
X138586611Y-97600500D01*
X138757701Y-97573402D01*
X138922445Y-97519873D01*
X139076788Y-97441232D01*
X139216928Y-97339414D01*
X139339414Y-97216928D01*
X139441232Y-97076788D01*
X139519873Y-96922445D01*
X139573402Y-96757701D01*
X139600500Y-96586611D01*
X139600500Y-96413389D01*
X139573402Y-96242299D01*
X139570424Y-96233136D01*
X139568428Y-96163298D01*
X139600672Y-96107139D01*
X142769487Y-92938324D01*
X142823535Y-92908065D01*
X142823200Y-92907033D01*
X143037410Y-92837432D01*
X143233760Y-92737386D01*
X143297513Y-92691066D01*
X143297514Y-92691066D01*
X143036819Y-92430371D01*
X143003334Y-92369048D01*
X143000500Y-92342690D01*
X143000500Y-91986308D01*
X143020185Y-91919269D01*
X143072989Y-91873514D01*
X143142147Y-91863570D01*
X143205703Y-91892595D01*
X143212181Y-91898627D01*
X143651066Y-92337514D01*
X143651066Y-92337513D01*
X143697386Y-92273760D01*
X143797432Y-92077410D01*
X143865526Y-91867835D01*
X143900000Y-91650181D01*
X143900000Y-91429818D01*
X143865526Y-91212164D01*
X143797432Y-91002589D01*
X143697388Y-90806243D01*
X143651066Y-90742485D01*
X143651065Y-90742485D01*
X143212181Y-91181371D01*
X143150858Y-91214856D01*
X143081167Y-91209872D01*
X143025233Y-91168001D01*
X143000816Y-91102536D01*
X143000500Y-91093690D01*
X143000500Y-90737308D01*
X143020185Y-90670269D01*
X143036819Y-90649627D01*
X143297513Y-90388932D01*
X143293208Y-90334229D01*
X143307572Y-90265851D01*
X143356623Y-90216094D01*
X143416826Y-90200499D01*
X143444856Y-90200499D01*
X143444864Y-90200499D01*
X143444879Y-90200497D01*
X143444882Y-90200497D01*
X143469987Y-90197586D01*
X143469988Y-90197585D01*
X143469991Y-90197585D01*
X143572765Y-90152206D01*
X143652206Y-90072765D01*
X143697585Y-89969991D01*
X143700500Y-89944865D01*
X143700499Y-88055136D01*
X143700497Y-88055117D01*
X143697586Y-88030012D01*
X143697585Y-88030010D01*
X143697585Y-88030009D01*
X143652206Y-87927235D01*
X143572765Y-87847794D01*
X143572763Y-87847793D01*
X143469992Y-87802415D01*
X143444865Y-87799500D01*
X141555143Y-87799500D01*
X141555117Y-87799502D01*
X141530012Y-87802413D01*
X141530008Y-87802415D01*
X141427235Y-87847793D01*
X141347794Y-87927234D01*
X141302415Y-88030006D01*
X141302415Y-88030008D01*
X141299500Y-88055131D01*
X141299500Y-88375500D01*
X141279815Y-88442539D01*
X141227011Y-88488294D01*
X141175500Y-88499500D01*
X140164108Y-88499500D01*
X140036812Y-88533608D01*
X139922686Y-88599500D01*
X139922683Y-88599502D01*
X139829502Y-88692683D01*
X139829500Y-88692686D01*
X139763608Y-88806812D01*
X139729500Y-88934108D01*
X139729500Y-89065892D01*
X139744711Y-89122662D01*
X139763609Y-89193188D01*
X139763610Y-89193191D01*
X139787886Y-89235237D01*
X139804500Y-89297238D01*
X139804500Y-94436324D01*
X139784815Y-94503363D01*
X139768181Y-94524005D01*
X138892861Y-95399324D01*
X138831538Y-95432809D01*
X138766869Y-95429576D01*
X138757704Y-95426599D01*
X138757698Y-95426597D01*
X138626271Y-95405781D01*
X138586611Y-95399500D01*
X138413389Y-95399500D01*
X138373728Y-95405781D01*
X138242302Y-95426597D01*
X138077552Y-95480128D01*
X137923211Y-95558768D01*
X137843256Y-95616859D01*
X137783072Y-95660586D01*
X137783070Y-95660588D01*
X137783069Y-95660588D01*
X137660588Y-95783069D01*
X137660588Y-95783070D01*
X137660586Y-95783072D01*
X137616859Y-95843256D01*
X137558768Y-95923211D01*
X137480128Y-96077552D01*
X137426597Y-96242302D01*
X137406181Y-96371206D01*
X137399500Y-96413389D01*
X134830500Y-96413389D01*
X134830500Y-83683363D01*
X134830500Y-83683361D01*
X134792984Y-83543351D01*
X134720510Y-83417821D01*
X127672179Y-76369490D01*
X127546649Y-76297016D01*
X127546644Y-76297014D01*
X127511192Y-76287514D01*
X127511192Y-76287515D01*
X127455554Y-76272607D01*
X127406639Y-76259500D01*
X127406638Y-76259500D01*
X117128387Y-76259500D01*
X117061348Y-76239815D01*
X117015593Y-76187011D01*
X117005649Y-76117853D01*
X117034674Y-76054297D01*
X117040706Y-76047819D01*
X119218624Y-73869901D01*
X125940510Y-67148014D01*
X126012984Y-67022485D01*
X126050500Y-66882474D01*
X126050500Y-66737526D01*
X126050500Y-58924500D01*
X126070185Y-58857461D01*
X126122989Y-58811706D01*
X126174500Y-58800500D01*
X126772472Y-58800500D01*
X126772474Y-58800500D01*
X126772475Y-58800500D01*
X126912485Y-58762984D01*
X127038015Y-58690510D01*
X128291705Y-57436817D01*
X128353028Y-57403333D01*
X128379386Y-57400499D01*
X129594855Y-57400499D01*
X129594863Y-57400499D01*
X129594878Y-57400497D01*
X129594881Y-57400497D01*
X129619986Y-57397586D01*
X129619987Y-57397585D01*
X129619990Y-57397585D01*
X129722764Y-57352206D01*
X129802205Y-57272765D01*
X129847584Y-57169991D01*
X129850499Y-57144865D01*
X129850498Y-55355136D01*
X129849758Y-55348752D01*
X129847585Y-55330012D01*
X129847584Y-55330010D01*
X129847584Y-55330009D01*
X129802205Y-55227235D01*
X129722764Y-55147794D01*
X129654936Y-55117845D01*
X129619991Y-55102415D01*
X129594867Y-55099500D01*
X128857127Y-55099500D01*
X128790088Y-55079815D01*
X128744333Y-55027011D01*
X128734389Y-54957853D01*
X128763414Y-54894297D01*
X128822192Y-54856523D01*
X128837729Y-54853027D01*
X128861013Y-54849338D01*
X128969408Y-54832171D01*
X129141638Y-54776211D01*
X129302993Y-54693996D01*
X129449500Y-54587553D01*
X129577552Y-54459501D01*
X129683995Y-54312994D01*
X129766210Y-54151639D01*
X129822170Y-53979409D01*
X129836764Y-53887259D01*
X129850499Y-53800551D01*
X129850499Y-53619448D01*
X129828432Y-53480127D01*
X129822170Y-53440591D01*
X129766210Y-53268361D01*
X129766210Y-53268360D01*
X129727603Y-53192591D01*
X129683995Y-53107006D01*
X129590338Y-52978097D01*
X129577557Y-52960505D01*
X129577553Y-52960500D01*
X129449498Y-52832445D01*
X129449493Y-52832441D01*
X129302994Y-52726004D01*
X129171313Y-52658908D01*
X129120518Y-52610934D01*
X129103723Y-52543113D01*
X129126261Y-52476978D01*
X129180976Y-52433527D01*
X129189294Y-52430492D01*
X129218216Y-52421095D01*
X129407553Y-52324622D01*
X129461715Y-52285270D01*
X129461716Y-52285270D01*
X128829407Y-51652962D01*
X128892992Y-51635925D01*
X129007006Y-51570099D01*
X129100098Y-51477007D01*
X129165924Y-51362993D01*
X129182961Y-51299409D01*
X129815269Y-51931717D01*
X129815269Y-51931716D01*
X129854621Y-51877554D01*
X129951094Y-51688217D01*
X130016756Y-51486130D01*
X130016756Y-51486127D01*
X130049999Y-51276246D01*
X130049999Y-51063753D01*
X130016756Y-50853872D01*
X130016756Y-50853869D01*
X129954680Y-50662818D01*
X129952685Y-50592977D01*
X129988765Y-50533144D01*
X130051466Y-50502316D01*
X130072611Y-50500500D01*
X149375500Y-50500500D01*
X149442539Y-50520185D01*
G37*
G04 #@! TD.AperFunction*
G04 #@! TA.AperFunction,Conductor*
G36*
X93552151Y-95677938D02*
G01*
X93592680Y-95734852D01*
X93599500Y-95775409D01*
X93599500Y-109033692D01*
X93579815Y-109100731D01*
X93527011Y-109146486D01*
X93457853Y-109156430D01*
X93394297Y-109127405D01*
X93387819Y-109121373D01*
X93364728Y-109098282D01*
X93364727Y-109098282D01*
X93325380Y-109152439D01*
X93228905Y-109341781D01*
X93219506Y-109370708D01*
X93180068Y-109428383D01*
X93115709Y-109455581D01*
X93046862Y-109443666D01*
X92995387Y-109396421D01*
X92991090Y-109388684D01*
X92967191Y-109341781D01*
X92923996Y-109257006D01*
X92848033Y-109152451D01*
X92817558Y-109110505D01*
X92817554Y-109110500D01*
X92689499Y-108982445D01*
X92689494Y-108982441D01*
X92542997Y-108876006D01*
X92542996Y-108876005D01*
X92542994Y-108876004D01*
X92466906Y-108837235D01*
X92381639Y-108793788D01*
X92381636Y-108793787D01*
X92209410Y-108737829D01*
X92030551Y-108709500D01*
X92030546Y-108709500D01*
X91849454Y-108709500D01*
X91849449Y-108709500D01*
X91670589Y-108737829D01*
X91498363Y-108793787D01*
X91498360Y-108793788D01*
X91337002Y-108876006D01*
X91190505Y-108982441D01*
X91190500Y-108982445D01*
X91062445Y-109110500D01*
X91062441Y-109110505D01*
X90956006Y-109257002D01*
X90873788Y-109418360D01*
X90873787Y-109418363D01*
X90817829Y-109590589D01*
X90789500Y-109769448D01*
X90789500Y-109950551D01*
X90817829Y-110129410D01*
X90873787Y-110301636D01*
X90873788Y-110301639D01*
X90912950Y-110378497D01*
X90955518Y-110462041D01*
X90956006Y-110462997D01*
X91062441Y-110609494D01*
X91062445Y-110609499D01*
X91190500Y-110737554D01*
X91190505Y-110737558D01*
X91294986Y-110813467D01*
X91337006Y-110843996D01*
X91413094Y-110882765D01*
X91498360Y-110926211D01*
X91498363Y-110926212D01*
X91553400Y-110944094D01*
X91670591Y-110982171D01*
X91751060Y-110994916D01*
X91849449Y-111010500D01*
X91849454Y-111010500D01*
X92030551Y-111010500D01*
X92118225Y-110996613D01*
X92209409Y-110982171D01*
X92381639Y-110926211D01*
X92542994Y-110843996D01*
X92689501Y-110737553D01*
X92817553Y-110609501D01*
X92923996Y-110462994D01*
X92991090Y-110331314D01*
X93039065Y-110280519D01*
X93106886Y-110263724D01*
X93173021Y-110286262D01*
X93216472Y-110340977D01*
X93219506Y-110349292D01*
X93228904Y-110378217D01*
X93325375Y-110567550D01*
X93364728Y-110621716D01*
X93796724Y-110189720D01*
X93858047Y-110156235D01*
X93927738Y-110161219D01*
X93983672Y-110203090D01*
X93991792Y-110215400D01*
X93998724Y-110227408D01*
X93999480Y-110228716D01*
X94111284Y-110340520D01*
X94124594Y-110348205D01*
X94172811Y-110398770D01*
X94186036Y-110467377D01*
X94160069Y-110532242D01*
X94150278Y-110543274D01*
X93718282Y-110975270D01*
X93772449Y-111014624D01*
X93961782Y-111111095D01*
X94163870Y-111176757D01*
X94373754Y-111210000D01*
X94586246Y-111210000D01*
X94796120Y-111176758D01*
X94887280Y-111147139D01*
X94957121Y-111145144D01*
X95013280Y-111177389D01*
X96294320Y-112458429D01*
X96327805Y-112519752D01*
X96322821Y-112589444D01*
X96280949Y-112645377D01*
X96215485Y-112669794D01*
X96207020Y-112670096D01*
X96206918Y-112670109D01*
X96066901Y-112707627D01*
X95941378Y-112780098D01*
X95941372Y-112780103D01*
X95838883Y-112882592D01*
X95838878Y-112882598D01*
X95766407Y-113008121D01*
X95766406Y-113008125D01*
X95728890Y-113148135D01*
X95728890Y-113293085D01*
X95766406Y-113433095D01*
X95837277Y-113555848D01*
X95853890Y-113617846D01*
X95853890Y-119654701D01*
X95834205Y-119721740D01*
X95817571Y-119742382D01*
X94276384Y-121283568D01*
X94215061Y-121317053D01*
X94145369Y-121312069D01*
X94089436Y-121270197D01*
X94070772Y-121234206D01*
X94064495Y-121214887D01*
X94019873Y-121077555D01*
X93941232Y-120923212D01*
X93839414Y-120783072D01*
X93716928Y-120660586D01*
X93715451Y-120659513D01*
X93651613Y-120613131D01*
X93608948Y-120557801D01*
X93600500Y-120512814D01*
X93600500Y-116420946D01*
X93600500Y-116420943D01*
X93584994Y-116363072D01*
X93559577Y-116268215D01*
X93524711Y-116207826D01*
X93480520Y-116131284D01*
X93368716Y-116019480D01*
X93368715Y-116019479D01*
X93364385Y-116015149D01*
X93364374Y-116015139D01*
X83611416Y-106262181D01*
X83577931Y-106200858D01*
X83582915Y-106131166D01*
X83624787Y-106075233D01*
X83690251Y-106050816D01*
X83699097Y-106050500D01*
X85072472Y-106050500D01*
X85072475Y-106050500D01*
X85212485Y-106012984D01*
X85338015Y-105940509D01*
X85440509Y-105838015D01*
X85512984Y-105712485D01*
X85550500Y-105572475D01*
X85550500Y-105427525D01*
X85512984Y-105287515D01*
X85501838Y-105268210D01*
X85440511Y-105161988D01*
X85440506Y-105161982D01*
X85338017Y-105059493D01*
X85338011Y-105059488D01*
X85212488Y-104987017D01*
X85212489Y-104987017D01*
X85164226Y-104974085D01*
X85072475Y-104949500D01*
X84927525Y-104949500D01*
X84835774Y-104974085D01*
X84787511Y-104987017D01*
X84661988Y-105059488D01*
X84661982Y-105059493D01*
X84558295Y-105163181D01*
X84496972Y-105196666D01*
X84470614Y-105199500D01*
X84201610Y-105199500D01*
X84134571Y-105179815D01*
X84088816Y-105127011D01*
X84078872Y-105057853D01*
X84107897Y-104994297D01*
X84113929Y-104987819D01*
X88152248Y-100949500D01*
X93340485Y-95761263D01*
X93368114Y-95713407D01*
X93418679Y-95665194D01*
X93487286Y-95651970D01*
X93552151Y-95677938D01*
G37*
G04 #@! TD.AperFunction*
G04 #@! TA.AperFunction,Conductor*
G36*
X78705703Y-62405384D02*
G01*
X78712181Y-62411416D01*
X87363181Y-71062416D01*
X87396666Y-71123739D01*
X87399500Y-71150097D01*
X87399500Y-71920943D01*
X87399500Y-72079057D01*
X87438853Y-72225922D01*
X87440423Y-72231783D01*
X87440426Y-72231790D01*
X87519475Y-72368709D01*
X87519478Y-72368713D01*
X87519480Y-72368716D01*
X87631284Y-72480520D01*
X87631286Y-72480521D01*
X87631290Y-72480524D01*
X87768209Y-72559573D01*
X87768216Y-72559577D01*
X87818684Y-72573099D01*
X87878344Y-72609464D01*
X87908873Y-72672311D01*
X87909706Y-72678091D01*
X87910122Y-72681561D01*
X87965639Y-72822343D01*
X88057077Y-72942922D01*
X88177656Y-73034360D01*
X88177657Y-73034360D01*
X88177658Y-73034361D01*
X88318436Y-73089877D01*
X88406898Y-73100500D01*
X89199903Y-73100500D01*
X89266942Y-73120185D01*
X89287584Y-73136819D01*
X93563181Y-77412416D01*
X93596666Y-77473739D01*
X93599500Y-77500097D01*
X93599500Y-83674265D01*
X93579815Y-83741304D01*
X93575818Y-83747150D01*
X93496006Y-83857002D01*
X93413788Y-84018360D01*
X93413787Y-84018363D01*
X93357829Y-84190589D01*
X93332473Y-84350678D01*
X93302544Y-84413813D01*
X93243232Y-84450744D01*
X93173369Y-84449746D01*
X93115137Y-84411136D01*
X93087527Y-84350678D01*
X93063461Y-84198737D01*
X93062171Y-84190591D01*
X93018530Y-84056275D01*
X93006212Y-84018363D01*
X93006211Y-84018360D01*
X92967191Y-83941780D01*
X92923996Y-83857006D01*
X92910197Y-83838013D01*
X92817558Y-83710505D01*
X92817554Y-83710500D01*
X92689499Y-83582445D01*
X92689494Y-83582441D01*
X92542997Y-83476006D01*
X92542996Y-83476005D01*
X92542994Y-83476004D01*
X92491300Y-83449664D01*
X92381639Y-83393788D01*
X92381636Y-83393787D01*
X92209410Y-83337829D01*
X92030551Y-83309500D01*
X92030546Y-83309500D01*
X91849454Y-83309500D01*
X91849449Y-83309500D01*
X91670589Y-83337829D01*
X91498363Y-83393787D01*
X91498360Y-83393788D01*
X91337002Y-83476006D01*
X91190505Y-83582441D01*
X91190500Y-83582445D01*
X91062445Y-83710500D01*
X91062441Y-83710505D01*
X90956006Y-83857002D01*
X90873788Y-84018360D01*
X90873787Y-84018363D01*
X90817829Y-84190589D01*
X90789500Y-84369448D01*
X90789500Y-84550551D01*
X90817829Y-84729410D01*
X90873787Y-84901636D01*
X90873788Y-84901639D01*
X90956006Y-85062997D01*
X91062441Y-85209494D01*
X91062445Y-85209499D01*
X91190500Y-85337554D01*
X91190505Y-85337558D01*
X91281221Y-85403466D01*
X91337006Y-85443996D01*
X91426966Y-85489833D01*
X91498360Y-85526211D01*
X91498363Y-85526212D01*
X91553400Y-85544094D01*
X91670591Y-85582171D01*
X91753429Y-85595291D01*
X91849449Y-85610500D01*
X91849454Y-85610500D01*
X92030551Y-85610500D01*
X92117259Y-85596765D01*
X92209409Y-85582171D01*
X92381639Y-85526211D01*
X92542994Y-85443996D01*
X92689501Y-85337553D01*
X92817553Y-85209501D01*
X92923996Y-85062994D01*
X93006211Y-84901639D01*
X93062171Y-84729409D01*
X93076422Y-84639425D01*
X93087527Y-84569321D01*
X93117456Y-84506186D01*
X93176768Y-84469255D01*
X93246630Y-84470253D01*
X93304863Y-84508863D01*
X93332473Y-84569321D01*
X93357829Y-84729410D01*
X93413787Y-84901636D01*
X93413788Y-84901639D01*
X93496004Y-85062994D01*
X93575819Y-85172850D01*
X93599298Y-85238653D01*
X93599500Y-85245733D01*
X93599500Y-93774189D01*
X93579815Y-93841228D01*
X93527011Y-93886983D01*
X93457853Y-93896927D01*
X93394297Y-93867902D01*
X93377126Y-93849678D01*
X93373566Y-93845039D01*
X93271076Y-93742549D01*
X93271070Y-93742544D01*
X93145547Y-93670073D01*
X93145548Y-93670073D01*
X93132232Y-93666505D01*
X93005534Y-93632556D01*
X92860584Y-93632556D01*
X92733886Y-93666505D01*
X92720570Y-93670073D01*
X92595047Y-93742544D01*
X92595041Y-93742549D01*
X92492552Y-93845038D01*
X92492547Y-93845044D01*
X92420076Y-93970567D01*
X92383389Y-94107484D01*
X92351295Y-94163071D01*
X82613737Y-103900631D01*
X82534517Y-103979850D01*
X82534513Y-103979856D01*
X82478498Y-104076876D01*
X82478497Y-104076879D01*
X82449500Y-104185098D01*
X82449500Y-104851347D01*
X82429815Y-104918386D01*
X82377011Y-104964141D01*
X82307853Y-104974085D01*
X82263500Y-104958734D01*
X82231785Y-104940423D01*
X82079057Y-104899499D01*
X81920943Y-104899499D01*
X81913347Y-104899499D01*
X81913331Y-104899500D01*
X78124500Y-104899500D01*
X78057461Y-104879815D01*
X78011706Y-104827011D01*
X78000500Y-104775500D01*
X78000500Y-94400097D01*
X78020185Y-94333058D01*
X78036819Y-94312416D01*
X79451553Y-92897682D01*
X82200000Y-92897682D01*
X82200000Y-93102317D01*
X82232009Y-93304417D01*
X82295244Y-93499031D01*
X82388141Y-93681350D01*
X82388147Y-93681359D01*
X82420523Y-93725921D01*
X82420524Y-93725922D01*
X83100000Y-93046446D01*
X83100000Y-93052661D01*
X83127259Y-93154394D01*
X83179920Y-93245606D01*
X83254394Y-93320080D01*
X83345606Y-93372741D01*
X83447339Y-93400000D01*
X83453553Y-93400000D01*
X82774076Y-94079474D01*
X82818650Y-94111859D01*
X83000968Y-94204755D01*
X83195582Y-94267990D01*
X83397683Y-94300000D01*
X83602317Y-94300000D01*
X83804417Y-94267990D01*
X83999031Y-94204755D01*
X84181349Y-94111859D01*
X84225921Y-94079474D01*
X83546447Y-93400000D01*
X83552661Y-93400000D01*
X83654394Y-93372741D01*
X83745606Y-93320080D01*
X83820080Y-93245606D01*
X83872741Y-93154394D01*
X83900000Y-93052661D01*
X83900000Y-93046447D01*
X84579474Y-93725921D01*
X84611859Y-93681349D01*
X84704755Y-93499031D01*
X84767990Y-93304417D01*
X84800000Y-93102317D01*
X84800000Y-92897682D01*
X84767990Y-92695582D01*
X84704755Y-92500968D01*
X84611859Y-92318650D01*
X84579474Y-92274077D01*
X84579474Y-92274076D01*
X83900000Y-92953551D01*
X83900000Y-92947339D01*
X83872741Y-92845606D01*
X83820080Y-92754394D01*
X83745606Y-92679920D01*
X83654394Y-92627259D01*
X83552661Y-92600000D01*
X83546446Y-92600000D01*
X84225922Y-91920524D01*
X84225921Y-91920523D01*
X84181359Y-91888147D01*
X84181350Y-91888141D01*
X83999031Y-91795244D01*
X83804417Y-91732009D01*
X83602317Y-91700000D01*
X83397683Y-91700000D01*
X83195582Y-91732009D01*
X83000968Y-91795244D01*
X82818644Y-91888143D01*
X82774077Y-91920523D01*
X82774077Y-91920524D01*
X83453554Y-92600000D01*
X83447339Y-92600000D01*
X83345606Y-92627259D01*
X83254394Y-92679920D01*
X83179920Y-92754394D01*
X83127259Y-92845606D01*
X83100000Y-92947339D01*
X83100000Y-92953553D01*
X82420524Y-92274077D01*
X82420523Y-92274077D01*
X82388143Y-92318644D01*
X82295244Y-92500968D01*
X82232009Y-92695582D01*
X82200000Y-92897682D01*
X79451553Y-92897682D01*
X80469133Y-91880102D01*
X81845253Y-90503982D01*
X83226574Y-89122660D01*
X83287895Y-89089177D01*
X83333647Y-89087870D01*
X83413389Y-89100500D01*
X83413391Y-89100500D01*
X83586610Y-89100500D01*
X83586611Y-89100500D01*
X83757701Y-89073402D01*
X83922445Y-89019873D01*
X84076788Y-88941232D01*
X84216928Y-88839414D01*
X84339414Y-88716928D01*
X84441232Y-88576788D01*
X84519873Y-88422445D01*
X84573402Y-88257701D01*
X84600500Y-88086611D01*
X84600500Y-87913389D01*
X84573402Y-87742299D01*
X84519873Y-87577555D01*
X84441232Y-87423212D01*
X84339414Y-87283072D01*
X84216928Y-87160586D01*
X84076788Y-87058768D01*
X83922445Y-86980127D01*
X83757701Y-86926598D01*
X83757699Y-86926597D01*
X83757698Y-86926597D01*
X83626271Y-86905781D01*
X83586611Y-86899500D01*
X83413389Y-86899500D01*
X83373728Y-86905781D01*
X83242302Y-86926597D01*
X83077552Y-86980128D01*
X82923211Y-87058768D01*
X82843256Y-87116859D01*
X82783072Y-87160586D01*
X82783070Y-87160588D01*
X82783069Y-87160588D01*
X82660588Y-87283069D01*
X82660588Y-87283070D01*
X82660586Y-87283072D01*
X82656047Y-87289320D01*
X82558768Y-87423211D01*
X82480128Y-87577552D01*
X82426597Y-87742302D01*
X82399500Y-87913389D01*
X82399500Y-88086615D01*
X82412128Y-88166347D01*
X82403173Y-88235641D01*
X82377336Y-88273426D01*
X77033962Y-93616801D01*
X77033954Y-93616809D01*
X77031286Y-93619478D01*
X77031284Y-93619480D01*
X76919480Y-93731284D01*
X76901021Y-93763257D01*
X76894774Y-93774076D01*
X76894774Y-93774077D01*
X76853803Y-93845041D01*
X76840423Y-93868215D01*
X76799499Y-94020943D01*
X76799499Y-94020945D01*
X76799499Y-94189046D01*
X76799500Y-94189059D01*
X76799500Y-94775500D01*
X76779815Y-94842539D01*
X76727011Y-94888294D01*
X76675500Y-94899500D01*
X75125323Y-94899500D01*
X75052264Y-94914032D01*
X75052260Y-94914033D01*
X74969399Y-94969399D01*
X74914033Y-95052260D01*
X74914032Y-95052264D01*
X74899500Y-95125321D01*
X74899500Y-96199903D01*
X74879815Y-96266942D01*
X74863181Y-96287584D01*
X57287584Y-113863181D01*
X57226261Y-113896666D01*
X57199903Y-113899500D01*
X53774499Y-113899500D01*
X53707460Y-113879815D01*
X53661705Y-113827011D01*
X53650499Y-113775500D01*
X53650499Y-113605143D01*
X53650499Y-113605136D01*
X53649974Y-113600610D01*
X53647586Y-113580012D01*
X53647585Y-113580010D01*
X53647585Y-113580009D01*
X53602206Y-113477235D01*
X53522765Y-113397794D01*
X53485004Y-113381121D01*
X53419992Y-113352415D01*
X53394868Y-113349500D01*
X53394865Y-113349500D01*
X51824500Y-113349500D01*
X51757461Y-113329815D01*
X51711706Y-113277011D01*
X51700500Y-113225500D01*
X51700500Y-97099234D01*
X51720185Y-97032195D01*
X51736814Y-97011558D01*
X56863114Y-91885258D01*
X67899500Y-91885258D01*
X67899500Y-92114741D01*
X67920478Y-92274076D01*
X67929452Y-92342238D01*
X67953067Y-92430371D01*
X67988842Y-92563887D01*
X68076650Y-92775876D01*
X68076657Y-92775890D01*
X68191392Y-92974617D01*
X68331081Y-93156661D01*
X68331089Y-93156670D01*
X68493330Y-93318911D01*
X68493338Y-93318918D01*
X68675382Y-93458607D01*
X68675385Y-93458608D01*
X68675388Y-93458611D01*
X68874112Y-93573344D01*
X68874117Y-93573346D01*
X68874123Y-93573349D01*
X68965480Y-93611190D01*
X69086113Y-93661158D01*
X69307762Y-93720548D01*
X69535266Y-93750500D01*
X69535273Y-93750500D01*
X69764727Y-93750500D01*
X69764734Y-93750500D01*
X69992238Y-93720548D01*
X70213887Y-93661158D01*
X70425888Y-93573344D01*
X70624612Y-93458611D01*
X70806661Y-93318919D01*
X70806665Y-93318914D01*
X70806670Y-93318911D01*
X70968911Y-93156670D01*
X70968914Y-93156665D01*
X70968919Y-93156661D01*
X71108611Y-92974612D01*
X71223344Y-92775888D01*
X71311158Y-92563887D01*
X71370548Y-92342238D01*
X71400500Y-92114734D01*
X71400500Y-91885266D01*
X71370548Y-91657762D01*
X71311158Y-91436113D01*
X71270216Y-91337271D01*
X71262747Y-91267801D01*
X71294022Y-91205322D01*
X71297068Y-91202165D01*
X72368713Y-90130521D01*
X72368716Y-90130520D01*
X72480520Y-90018716D01*
X72530639Y-89931904D01*
X72559577Y-89881785D01*
X72600501Y-89729057D01*
X72600501Y-89674500D01*
X72620186Y-89607461D01*
X72672990Y-89561706D01*
X72724501Y-89550500D01*
X74072472Y-89550500D01*
X74072475Y-89550500D01*
X74212485Y-89512984D01*
X74338015Y-89440509D01*
X74440509Y-89338015D01*
X74512984Y-89212485D01*
X74550500Y-89072475D01*
X74550500Y-84427525D01*
X74512984Y-84287515D01*
X74461728Y-84198737D01*
X74440510Y-84161986D01*
X73866205Y-83587681D01*
X73832720Y-83526358D01*
X73837704Y-83456666D01*
X73866205Y-83412319D01*
X76191705Y-81086819D01*
X76253028Y-81053334D01*
X76279386Y-81050500D01*
X91072472Y-81050500D01*
X91072475Y-81050500D01*
X91212485Y-81012984D01*
X91338015Y-80940509D01*
X91440509Y-80838015D01*
X91512984Y-80712485D01*
X91550500Y-80572475D01*
X91550500Y-80427525D01*
X91512984Y-80287515D01*
X91440509Y-80161985D01*
X91338015Y-80059491D01*
X91338013Y-80059490D01*
X91338011Y-80059488D01*
X91212488Y-79987017D01*
X91212489Y-79987017D01*
X91201006Y-79983940D01*
X91072475Y-79949500D01*
X75927525Y-79949500D01*
X75843519Y-79972009D01*
X75787513Y-79987016D01*
X75787512Y-79987017D01*
X75661989Y-80059487D01*
X75661984Y-80059491D01*
X72644544Y-83076930D01*
X72644543Y-83076930D01*
X72644544Y-83076931D01*
X72559488Y-83161987D01*
X72487016Y-83287514D01*
X72482230Y-83305375D01*
X72449500Y-83427526D01*
X72449500Y-83572474D01*
X72487016Y-83712485D01*
X72559490Y-83838015D01*
X72988482Y-84267007D01*
X73413181Y-84691705D01*
X73446666Y-84753028D01*
X73449500Y-84779386D01*
X73449500Y-88325500D01*
X73429815Y-88392539D01*
X73377011Y-88438294D01*
X73325500Y-88449500D01*
X72278363Y-88449500D01*
X72239820Y-88441834D01*
X72239635Y-88442527D01*
X72231785Y-88440423D01*
X72231784Y-88440423D01*
X72079057Y-88399500D01*
X71920943Y-88399500D01*
X71768216Y-88440423D01*
X71768209Y-88440426D01*
X71631290Y-88519475D01*
X71631282Y-88519481D01*
X71519481Y-88631282D01*
X71519475Y-88631290D01*
X71440426Y-88768209D01*
X71440423Y-88768216D01*
X71399500Y-88920943D01*
X71399500Y-89349902D01*
X71379815Y-89416941D01*
X71363181Y-89437583D01*
X70447860Y-90352903D01*
X70386537Y-90386388D01*
X70316845Y-90381404D01*
X70312743Y-90379789D01*
X70213887Y-90338842D01*
X70213885Y-90338841D01*
X70213884Y-90338841D01*
X70148035Y-90321197D01*
X69992238Y-90279452D01*
X69943110Y-90272984D01*
X69764741Y-90249500D01*
X69764734Y-90249500D01*
X69535266Y-90249500D01*
X69535258Y-90249500D01*
X69318715Y-90278009D01*
X69307762Y-90279452D01*
X69214076Y-90304554D01*
X69086112Y-90338842D01*
X68874123Y-90426650D01*
X68874109Y-90426657D01*
X68675382Y-90541392D01*
X68493338Y-90681081D01*
X68331081Y-90843338D01*
X68191392Y-91025382D01*
X68076657Y-91224109D01*
X68076650Y-91224123D01*
X67988842Y-91436112D01*
X67929453Y-91657759D01*
X67929451Y-91657770D01*
X67899500Y-91885258D01*
X56863114Y-91885258D01*
X72859262Y-75889109D01*
X72866272Y-75882963D01*
X73379788Y-75369448D01*
X76849500Y-75369448D01*
X76849500Y-75550551D01*
X76877829Y-75729410D01*
X76933787Y-75901636D01*
X76933788Y-75901639D01*
X77016006Y-76062997D01*
X77122441Y-76209494D01*
X77122445Y-76209499D01*
X77250500Y-76337554D01*
X77250505Y-76337558D01*
X77294458Y-76369491D01*
X77397006Y-76443996D01*
X77502484Y-76497740D01*
X77558360Y-76526211D01*
X77558363Y-76526212D01*
X77644476Y-76554191D01*
X77730591Y-76582171D01*
X77834716Y-76598662D01*
X77862270Y-76603027D01*
X77925405Y-76632956D01*
X77962336Y-76692268D01*
X77961338Y-76762130D01*
X77922728Y-76820363D01*
X77858765Y-76848477D01*
X77842872Y-76849500D01*
X77105143Y-76849500D01*
X77105117Y-76849502D01*
X77080012Y-76852413D01*
X77080008Y-76852415D01*
X76977235Y-76897793D01*
X76897794Y-76977234D01*
X76852415Y-77080006D01*
X76852415Y-77080008D01*
X76849500Y-77105131D01*
X76849500Y-78894856D01*
X76849502Y-78894882D01*
X76852413Y-78919987D01*
X76852415Y-78919991D01*
X76897793Y-79022764D01*
X76897794Y-79022765D01*
X76977235Y-79102206D01*
X77080009Y-79147585D01*
X77105135Y-79150500D01*
X78894864Y-79150499D01*
X78894879Y-79150497D01*
X78894882Y-79150497D01*
X78919987Y-79147586D01*
X78919988Y-79147585D01*
X78919991Y-79147585D01*
X79022765Y-79102206D01*
X79102206Y-79022765D01*
X79147585Y-78919991D01*
X79150500Y-78894865D01*
X79150499Y-77105136D01*
X79150091Y-77101614D01*
X79147586Y-77080012D01*
X79147585Y-77080010D01*
X79147585Y-77080009D01*
X79102206Y-76977235D01*
X79022765Y-76897794D01*
X79022763Y-76897793D01*
X78919992Y-76852415D01*
X78894868Y-76849500D01*
X78157128Y-76849500D01*
X78090089Y-76829815D01*
X78044334Y-76777011D01*
X78034390Y-76707853D01*
X78063415Y-76644297D01*
X78122193Y-76606523D01*
X78137730Y-76603027D01*
X78161014Y-76599338D01*
X78269409Y-76582171D01*
X78441639Y-76526211D01*
X78602994Y-76443996D01*
X78611559Y-76437772D01*
X78619648Y-76431897D01*
X78749494Y-76337558D01*
X78749492Y-76337558D01*
X78749501Y-76337553D01*
X78877553Y-76209501D01*
X78983996Y-76062994D01*
X79066211Y-75901639D01*
X79122171Y-75729409D01*
X79136765Y-75637259D01*
X79150500Y-75550551D01*
X79150500Y-75397682D01*
X87700000Y-75397682D01*
X87700000Y-75602317D01*
X87732009Y-75804417D01*
X87795244Y-75999031D01*
X87888141Y-76181350D01*
X87888147Y-76181359D01*
X87920523Y-76225921D01*
X87920524Y-76225922D01*
X88600000Y-75546446D01*
X88600000Y-75552661D01*
X88627259Y-75654394D01*
X88679920Y-75745606D01*
X88754394Y-75820080D01*
X88845606Y-75872741D01*
X88947339Y-75900000D01*
X88953553Y-75900000D01*
X88274076Y-76579474D01*
X88318650Y-76611859D01*
X88500968Y-76704755D01*
X88695582Y-76767990D01*
X88897683Y-76800000D01*
X89102317Y-76800000D01*
X89304417Y-76767990D01*
X89499031Y-76704755D01*
X89681349Y-76611859D01*
X89725921Y-76579474D01*
X89046447Y-75900000D01*
X89052661Y-75900000D01*
X89154394Y-75872741D01*
X89245606Y-75820080D01*
X89320080Y-75745606D01*
X89372741Y-75654394D01*
X89400000Y-75552661D01*
X89400000Y-75546447D01*
X90079474Y-76225921D01*
X90111859Y-76181349D01*
X90204755Y-75999031D01*
X90267990Y-75804417D01*
X90300000Y-75602317D01*
X90300000Y-75397682D01*
X90267990Y-75195582D01*
X90204755Y-75000968D01*
X90111859Y-74818650D01*
X90079474Y-74774077D01*
X90079474Y-74774076D01*
X89400000Y-75453551D01*
X89400000Y-75447339D01*
X89372741Y-75345606D01*
X89320080Y-75254394D01*
X89245606Y-75179920D01*
X89154394Y-75127259D01*
X89052661Y-75100000D01*
X89046446Y-75100000D01*
X89725922Y-74420524D01*
X89725921Y-74420523D01*
X89681359Y-74388147D01*
X89681350Y-74388141D01*
X89499031Y-74295244D01*
X89304417Y-74232009D01*
X89102317Y-74200000D01*
X88897683Y-74200000D01*
X88695582Y-74232009D01*
X88500968Y-74295244D01*
X88318644Y-74388143D01*
X88274077Y-74420523D01*
X88274077Y-74420524D01*
X88953554Y-75100000D01*
X88947339Y-75100000D01*
X88845606Y-75127259D01*
X88754394Y-75179920D01*
X88679920Y-75254394D01*
X88627259Y-75345606D01*
X88600000Y-75447339D01*
X88600000Y-75453553D01*
X87920524Y-74774077D01*
X87920523Y-74774077D01*
X87888143Y-74818644D01*
X87795244Y-75000968D01*
X87732009Y-75195582D01*
X87700000Y-75397682D01*
X79150500Y-75397682D01*
X79150500Y-75369448D01*
X79122961Y-75195582D01*
X79122171Y-75190591D01*
X79092737Y-75100000D01*
X79066212Y-75018363D01*
X79066211Y-75018360D01*
X79037740Y-74962484D01*
X78983996Y-74857006D01*
X78896026Y-74735925D01*
X78877558Y-74710505D01*
X78877554Y-74710500D01*
X78749499Y-74582445D01*
X78729756Y-74568101D01*
X78729754Y-74568099D01*
X78602997Y-74476006D01*
X78602996Y-74476005D01*
X78602994Y-74476004D01*
X78545633Y-74446777D01*
X78441639Y-74393788D01*
X78441636Y-74393787D01*
X78269410Y-74337829D01*
X78090551Y-74309500D01*
X78090546Y-74309500D01*
X77909454Y-74309500D01*
X77909449Y-74309500D01*
X77730589Y-74337829D01*
X77558363Y-74393787D01*
X77558360Y-74393788D01*
X77397002Y-74476006D01*
X77250505Y-74582441D01*
X77250500Y-74582445D01*
X77122445Y-74710500D01*
X77122441Y-74710505D01*
X77016006Y-74857002D01*
X76933788Y-75018360D01*
X76933787Y-75018363D01*
X76877829Y-75190589D01*
X76849500Y-75369448D01*
X73379788Y-75369448D01*
X73472335Y-75276901D01*
X76895681Y-71853553D01*
X77608506Y-71140727D01*
X77608511Y-71140724D01*
X77618714Y-71130520D01*
X77618716Y-71130520D01*
X77730520Y-71018716D01*
X77809577Y-70881784D01*
X77850500Y-70729057D01*
X77850500Y-64674500D01*
X77870185Y-64607461D01*
X77922989Y-64561706D01*
X77974500Y-64550500D01*
X78274676Y-64550500D01*
X78274677Y-64550499D01*
X78347740Y-64535966D01*
X78430601Y-64480601D01*
X78485966Y-64397740D01*
X78500500Y-64324674D01*
X78500500Y-62499097D01*
X78520185Y-62432058D01*
X78572989Y-62386303D01*
X78642147Y-62376359D01*
X78705703Y-62405384D01*
G37*
G04 #@! TD.AperFunction*
G04 #@! TA.AperFunction,Conductor*
G36*
X95786630Y-84470253D02*
G01*
X95844863Y-84508863D01*
X95872473Y-84569321D01*
X95897829Y-84729410D01*
X95953787Y-84901636D01*
X95953788Y-84901639D01*
X96036006Y-85062997D01*
X96142441Y-85209494D01*
X96142445Y-85209499D01*
X96270504Y-85337558D01*
X96361220Y-85403466D01*
X96403886Y-85458795D01*
X96410637Y-85524235D01*
X95584684Y-90463751D01*
X95584685Y-90463752D01*
X95583701Y-90469639D01*
X95574500Y-90503982D01*
X95574500Y-90524670D01*
X95571704Y-90541392D01*
X95571088Y-90545078D01*
X95573928Y-90574531D01*
X95574500Y-90586432D01*
X95574500Y-91102763D01*
X95557887Y-91164763D01*
X95487017Y-91287511D01*
X95487016Y-91287515D01*
X95449500Y-91427525D01*
X95449500Y-91572475D01*
X95469321Y-91646446D01*
X95487017Y-91712488D01*
X95559488Y-91838011D01*
X95559490Y-91838013D01*
X95559491Y-91838015D01*
X95661985Y-91940509D01*
X95661986Y-91940510D01*
X95661988Y-91940511D01*
X95787511Y-92012982D01*
X95787512Y-92012982D01*
X95787515Y-92012984D01*
X95857053Y-92031616D01*
X95916710Y-92067980D01*
X95947240Y-92130826D01*
X95938946Y-92200202D01*
X95894461Y-92254080D01*
X95886958Y-92258776D01*
X95791433Y-92313928D01*
X95791424Y-92313935D01*
X95688935Y-92416424D01*
X95688930Y-92416430D01*
X95616459Y-92541953D01*
X95616458Y-92541957D01*
X95578942Y-92681967D01*
X95578942Y-92826917D01*
X95616458Y-92966927D01*
X95616459Y-92966930D01*
X95688930Y-93092453D01*
X95688932Y-93092455D01*
X95688933Y-93092457D01*
X95791427Y-93194951D01*
X95791428Y-93194952D01*
X95791430Y-93194953D01*
X95916953Y-93267424D01*
X95916954Y-93267424D01*
X95916957Y-93267426D01*
X96056967Y-93304942D01*
X96056970Y-93304942D01*
X96201914Y-93304942D01*
X96201917Y-93304942D01*
X96341927Y-93267426D01*
X96467457Y-93194951D01*
X96569951Y-93092457D01*
X96642426Y-92966927D01*
X96679113Y-92830010D01*
X96711203Y-92774428D01*
X102187923Y-87297707D01*
X102249244Y-87264224D01*
X102318936Y-87269208D01*
X102353999Y-87289318D01*
X126894322Y-107316070D01*
X126918737Y-107340485D01*
X126937547Y-107351345D01*
X126954374Y-107365077D01*
X126980150Y-107376670D01*
X126980151Y-107376671D01*
X126985861Y-107379239D01*
X127015763Y-107396503D01*
X127036741Y-107402124D01*
X127056551Y-107411034D01*
X127090634Y-107416564D01*
X127123982Y-107425500D01*
X127145700Y-107425500D01*
X127167140Y-107428979D01*
X127195261Y-107426131D01*
X127207756Y-107425500D01*
X131102763Y-107425500D01*
X131164763Y-107442113D01*
X131287511Y-107512982D01*
X131287512Y-107512982D01*
X131287515Y-107512984D01*
X131427525Y-107550500D01*
X131427528Y-107550500D01*
X131572472Y-107550500D01*
X131572475Y-107550500D01*
X131712485Y-107512984D01*
X131838015Y-107440509D01*
X131940509Y-107338015D01*
X132012984Y-107212485D01*
X132050500Y-107072475D01*
X132050500Y-106927525D01*
X132012984Y-106787515D01*
X131989367Y-106746610D01*
X131940511Y-106661988D01*
X131940506Y-106661982D01*
X131838017Y-106559493D01*
X131838011Y-106559488D01*
X131712488Y-106487017D01*
X131712489Y-106487017D01*
X131701006Y-106483940D01*
X131572475Y-106449500D01*
X131427525Y-106449500D01*
X131298993Y-106483940D01*
X131287511Y-106487017D01*
X131164763Y-106557887D01*
X131102763Y-106574500D01*
X127375760Y-106574500D01*
X127308721Y-106554815D01*
X127297360Y-106546570D01*
X127263292Y-106518768D01*
X102978286Y-86700374D01*
X102938793Y-86642738D01*
X102936730Y-86572899D01*
X102969004Y-86516626D01*
X103665485Y-85820147D01*
X103721503Y-85723121D01*
X103750500Y-85614902D01*
X103750500Y-85502865D01*
X103750500Y-85479201D01*
X103770185Y-85412162D01*
X103822989Y-85366407D01*
X103892147Y-85356463D01*
X103947384Y-85378882D01*
X104037006Y-85443996D01*
X104106099Y-85479201D01*
X104198360Y-85526211D01*
X104198363Y-85526212D01*
X104253400Y-85544094D01*
X104370591Y-85582171D01*
X104453429Y-85595291D01*
X104549449Y-85610500D01*
X104549454Y-85610500D01*
X104730551Y-85610500D01*
X104817259Y-85596765D01*
X104909409Y-85582171D01*
X105081639Y-85526211D01*
X105242994Y-85443996D01*
X105389501Y-85337553D01*
X105517553Y-85209501D01*
X105623996Y-85062994D01*
X105679937Y-84953203D01*
X105690385Y-84942140D01*
X105696708Y-84928297D01*
X105713887Y-84917256D01*
X105727910Y-84902409D01*
X105743591Y-84898167D01*
X105755486Y-84890523D01*
X105790421Y-84885500D01*
X106029579Y-84885500D01*
X106096618Y-84905185D01*
X106140062Y-84953203D01*
X106143526Y-84960000D01*
X106196006Y-85062998D01*
X106302441Y-85209494D01*
X106302445Y-85209499D01*
X106430500Y-85337554D01*
X106430505Y-85337558D01*
X106521221Y-85403466D01*
X106577006Y-85443996D01*
X106666966Y-85489833D01*
X106738360Y-85526211D01*
X106738363Y-85526212D01*
X106793400Y-85544094D01*
X106910591Y-85582171D01*
X106993429Y-85595291D01*
X107089449Y-85610500D01*
X107089454Y-85610500D01*
X107270551Y-85610500D01*
X107398305Y-85590265D01*
X107449409Y-85582171D01*
X107566600Y-85544093D01*
X107636438Y-85542099D01*
X107692596Y-85574344D01*
X117782490Y-95664237D01*
X127879513Y-105761260D01*
X127879515Y-105761263D01*
X127958737Y-105840485D01*
X128007635Y-105868716D01*
X128016794Y-105874004D01*
X128055757Y-105896500D01*
X128055758Y-105896501D01*
X128055760Y-105896501D01*
X128055763Y-105896503D01*
X128163981Y-105925500D01*
X128163982Y-105925500D01*
X132102763Y-105925500D01*
X132164763Y-105942113D01*
X132287511Y-106012982D01*
X132287512Y-106012982D01*
X132287515Y-106012984D01*
X132427525Y-106050500D01*
X132427528Y-106050500D01*
X132572472Y-106050500D01*
X132572475Y-106050500D01*
X132712485Y-106012984D01*
X132838015Y-105940509D01*
X132940509Y-105838015D01*
X133012984Y-105712485D01*
X133050500Y-105572475D01*
X133050500Y-105427525D01*
X133012984Y-105287515D01*
X133001838Y-105268210D01*
X132940511Y-105161988D01*
X132940506Y-105161982D01*
X132838017Y-105059493D01*
X132838011Y-105059488D01*
X132712488Y-104987017D01*
X132712489Y-104987017D01*
X132664226Y-104974085D01*
X132572475Y-104949500D01*
X132427525Y-104949500D01*
X132335774Y-104974085D01*
X132287511Y-104987017D01*
X132164763Y-105057887D01*
X132102763Y-105074500D01*
X128447609Y-105074500D01*
X128380570Y-105054815D01*
X128359928Y-105038181D01*
X108946580Y-85624832D01*
X108913095Y-85563509D01*
X108918079Y-85493817D01*
X108959951Y-85437884D01*
X109025415Y-85413467D01*
X109093688Y-85428319D01*
X109107146Y-85436833D01*
X109115793Y-85443114D01*
X109117006Y-85443996D01*
X109206966Y-85489833D01*
X109278360Y-85526211D01*
X109278363Y-85526212D01*
X109333400Y-85544094D01*
X109450591Y-85582171D01*
X109533429Y-85595291D01*
X109629449Y-85610500D01*
X109629454Y-85610500D01*
X109810551Y-85610500D01*
X109897259Y-85596765D01*
X109989409Y-85582171D01*
X110161639Y-85526211D01*
X110322994Y-85443996D01*
X110469501Y-85337553D01*
X110597553Y-85209501D01*
X110703996Y-85062994D01*
X110759937Y-84953203D01*
X110770385Y-84942140D01*
X110776708Y-84928297D01*
X110793887Y-84917256D01*
X110807910Y-84902409D01*
X110823591Y-84898167D01*
X110835486Y-84890523D01*
X110870421Y-84885500D01*
X111109579Y-84885500D01*
X111176618Y-84905185D01*
X111220062Y-84953203D01*
X111223526Y-84960000D01*
X111276006Y-85062998D01*
X111382441Y-85209494D01*
X111382445Y-85209499D01*
X111510500Y-85337554D01*
X111510505Y-85337558D01*
X111601221Y-85403466D01*
X111657006Y-85443996D01*
X111746966Y-85489833D01*
X111818360Y-85526211D01*
X111818363Y-85526212D01*
X111873400Y-85544094D01*
X111990591Y-85582171D01*
X112073429Y-85595291D01*
X112169449Y-85610500D01*
X112169454Y-85610500D01*
X112350551Y-85610500D01*
X112437259Y-85596765D01*
X112529409Y-85582171D01*
X112701639Y-85526211D01*
X112862994Y-85443996D01*
X113009501Y-85337553D01*
X113137553Y-85209501D01*
X113243996Y-85062994D01*
X113299937Y-84953203D01*
X113310385Y-84942140D01*
X113316708Y-84928297D01*
X113333887Y-84917256D01*
X113347910Y-84902409D01*
X113363591Y-84898167D01*
X113375486Y-84890523D01*
X113410421Y-84885500D01*
X113649579Y-84885500D01*
X113716618Y-84905185D01*
X113760062Y-84953203D01*
X113763526Y-84960000D01*
X113816006Y-85062998D01*
X113922441Y-85209494D01*
X113922445Y-85209499D01*
X114050500Y-85337554D01*
X114050505Y-85337558D01*
X114141221Y-85403466D01*
X114197006Y-85443996D01*
X114286966Y-85489833D01*
X114358360Y-85526211D01*
X114358363Y-85526212D01*
X114413400Y-85544094D01*
X114530591Y-85582171D01*
X114613429Y-85595291D01*
X114709449Y-85610500D01*
X114709454Y-85610500D01*
X114890551Y-85610500D01*
X115018305Y-85590265D01*
X115069409Y-85582171D01*
X115186600Y-85544093D01*
X115256438Y-85542099D01*
X115312596Y-85574344D01*
X131578737Y-101840485D01*
X131675763Y-101896503D01*
X131783982Y-101925500D01*
X131896018Y-101925500D01*
X132782763Y-101925500D01*
X132844763Y-101942113D01*
X132967511Y-102012982D01*
X132967512Y-102012982D01*
X132967515Y-102012984D01*
X133107525Y-102050500D01*
X133107528Y-102050500D01*
X133252472Y-102050500D01*
X133252475Y-102050500D01*
X133392485Y-102012984D01*
X133518015Y-101940509D01*
X133518019Y-101940504D01*
X133524461Y-101935562D01*
X133525280Y-101936630D01*
X133579142Y-101907220D01*
X133648834Y-101912204D01*
X133704767Y-101954076D01*
X133729184Y-102019540D01*
X133729500Y-102028386D01*
X133729500Y-108057390D01*
X133709815Y-108124429D01*
X133693181Y-108145071D01*
X132440071Y-109398181D01*
X132378748Y-109431666D01*
X132352390Y-109434500D01*
X128774499Y-109434500D01*
X128707460Y-109414815D01*
X128661705Y-109362011D01*
X128650499Y-109310500D01*
X128650499Y-108965143D01*
X128650499Y-108965136D01*
X128650497Y-108965117D01*
X128647586Y-108940012D01*
X128647585Y-108940010D01*
X128647585Y-108940009D01*
X128602206Y-108837235D01*
X128522765Y-108757794D01*
X128522763Y-108757793D01*
X128419992Y-108712415D01*
X128394865Y-108709500D01*
X126605143Y-108709500D01*
X126605117Y-108709502D01*
X126580012Y-108712413D01*
X126580008Y-108712415D01*
X126477235Y-108757793D01*
X126397794Y-108837234D01*
X126352415Y-108940006D01*
X126352415Y-108940008D01*
X126349500Y-108965131D01*
X126349500Y-109702871D01*
X126329815Y-109769910D01*
X126277011Y-109815665D01*
X126207853Y-109825609D01*
X126144297Y-109796584D01*
X126106523Y-109737806D01*
X126103027Y-109722269D01*
X126094274Y-109667007D01*
X126082171Y-109590591D01*
X126039708Y-109459901D01*
X126026212Y-109418363D01*
X126026211Y-109418360D01*
X125987191Y-109341781D01*
X125943996Y-109257006D01*
X125868033Y-109152451D01*
X125837558Y-109110505D01*
X125837554Y-109110500D01*
X125709499Y-108982445D01*
X125709494Y-108982441D01*
X125562997Y-108876006D01*
X125562996Y-108876005D01*
X125562994Y-108876004D01*
X125486906Y-108837235D01*
X125401639Y-108793788D01*
X125401636Y-108793787D01*
X125229410Y-108737829D01*
X125050551Y-108709500D01*
X125050546Y-108709500D01*
X124869454Y-108709500D01*
X124869449Y-108709500D01*
X124690589Y-108737829D01*
X124518363Y-108793787D01*
X124518360Y-108793788D01*
X124357002Y-108876006D01*
X124210505Y-108982441D01*
X124210500Y-108982445D01*
X124082445Y-109110500D01*
X124082441Y-109110505D01*
X123976006Y-109257002D01*
X123893788Y-109418360D01*
X123893787Y-109418363D01*
X123837829Y-109590589D01*
X123812473Y-109750678D01*
X123782544Y-109813813D01*
X123723232Y-109850744D01*
X123653369Y-109849746D01*
X123595137Y-109811136D01*
X123567527Y-109750678D01*
X123553740Y-109663639D01*
X123542171Y-109590591D01*
X123499708Y-109459901D01*
X123486212Y-109418363D01*
X123486211Y-109418360D01*
X123447191Y-109341781D01*
X123403996Y-109257006D01*
X123328033Y-109152451D01*
X123297558Y-109110505D01*
X123297554Y-109110500D01*
X123169499Y-108982445D01*
X123169494Y-108982441D01*
X123022997Y-108876006D01*
X123022996Y-108876005D01*
X123022994Y-108876004D01*
X122946906Y-108837235D01*
X122861639Y-108793788D01*
X122861636Y-108793787D01*
X122689410Y-108737829D01*
X122510551Y-108709500D01*
X122510546Y-108709500D01*
X122329454Y-108709500D01*
X122329449Y-108709500D01*
X122150589Y-108737829D01*
X121978363Y-108793787D01*
X121978360Y-108793788D01*
X121817002Y-108876006D01*
X121670505Y-108982441D01*
X121670500Y-108982445D01*
X121542445Y-109110500D01*
X121542441Y-109110505D01*
X121436006Y-109257002D01*
X121353788Y-109418360D01*
X121353787Y-109418363D01*
X121297829Y-109590589D01*
X121272473Y-109750678D01*
X121242544Y-109813813D01*
X121183232Y-109850744D01*
X121113369Y-109849746D01*
X121055137Y-109811136D01*
X121027527Y-109750678D01*
X121013740Y-109663639D01*
X121002171Y-109590591D01*
X120959708Y-109459901D01*
X120946212Y-109418363D01*
X120946211Y-109418360D01*
X120907191Y-109341781D01*
X120863996Y-109257006D01*
X120788033Y-109152451D01*
X120757558Y-109110505D01*
X120757554Y-109110500D01*
X120629499Y-108982445D01*
X120629494Y-108982441D01*
X120482997Y-108876006D01*
X120482996Y-108876005D01*
X120482994Y-108876004D01*
X120406906Y-108837235D01*
X120321639Y-108793788D01*
X120321636Y-108793787D01*
X120149410Y-108737829D01*
X119970551Y-108709500D01*
X119970546Y-108709500D01*
X119789454Y-108709500D01*
X119789449Y-108709500D01*
X119610589Y-108737829D01*
X119438363Y-108793787D01*
X119438360Y-108793788D01*
X119277002Y-108876006D01*
X119130505Y-108982441D01*
X119130500Y-108982445D01*
X119002445Y-109110500D01*
X119002441Y-109110505D01*
X118896006Y-109257002D01*
X118813788Y-109418360D01*
X118813787Y-109418363D01*
X118757829Y-109590589D01*
X118732473Y-109750678D01*
X118702544Y-109813813D01*
X118643232Y-109850744D01*
X118573369Y-109849746D01*
X118515137Y-109811136D01*
X118487527Y-109750678D01*
X118473740Y-109663639D01*
X118462171Y-109590591D01*
X118419708Y-109459901D01*
X118406212Y-109418363D01*
X118406211Y-109418360D01*
X118367191Y-109341781D01*
X118323996Y-109257006D01*
X118248033Y-109152451D01*
X118217558Y-109110505D01*
X118217554Y-109110500D01*
X118089499Y-108982445D01*
X118089494Y-108982441D01*
X117942997Y-108876006D01*
X117942996Y-108876005D01*
X117942994Y-108876004D01*
X117866906Y-108837235D01*
X117781639Y-108793788D01*
X117781636Y-108793787D01*
X117609410Y-108737829D01*
X117430551Y-108709500D01*
X117430546Y-108709500D01*
X117249454Y-108709500D01*
X117249449Y-108709500D01*
X117070589Y-108737829D01*
X116898363Y-108793787D01*
X116898360Y-108793788D01*
X116737002Y-108876006D01*
X116590505Y-108982441D01*
X116590500Y-108982445D01*
X116462445Y-109110500D01*
X116462441Y-109110505D01*
X116356006Y-109257002D01*
X116273788Y-109418360D01*
X116273787Y-109418363D01*
X116217829Y-109590589D01*
X116192473Y-109750678D01*
X116162544Y-109813813D01*
X116103232Y-109850744D01*
X116033369Y-109849746D01*
X115975137Y-109811136D01*
X115947527Y-109750678D01*
X115933740Y-109663639D01*
X115922171Y-109590591D01*
X115879708Y-109459901D01*
X115866212Y-109418363D01*
X115866211Y-109418360D01*
X115827191Y-109341781D01*
X115783996Y-109257006D01*
X115708033Y-109152451D01*
X115677558Y-109110505D01*
X115677554Y-109110500D01*
X115549499Y-108982445D01*
X115549494Y-108982441D01*
X115402997Y-108876006D01*
X115402996Y-108876005D01*
X115402994Y-108876004D01*
X115326906Y-108837235D01*
X115241639Y-108793788D01*
X115241636Y-108793787D01*
X115069410Y-108737829D01*
X114890551Y-108709500D01*
X114890546Y-108709500D01*
X114709454Y-108709500D01*
X114709449Y-108709500D01*
X114530589Y-108737829D01*
X114358363Y-108793787D01*
X114358360Y-108793788D01*
X114197002Y-108876006D01*
X114050505Y-108982441D01*
X114050500Y-108982445D01*
X113922445Y-109110500D01*
X113922441Y-109110505D01*
X113816006Y-109257002D01*
X113733788Y-109418360D01*
X113733787Y-109418363D01*
X113677829Y-109590589D01*
X113652473Y-109750678D01*
X113622544Y-109813813D01*
X113563232Y-109850744D01*
X113493369Y-109849746D01*
X113435137Y-109811136D01*
X113407527Y-109750678D01*
X113393740Y-109663639D01*
X113382171Y-109590591D01*
X113339708Y-109459901D01*
X113326212Y-109418363D01*
X113326211Y-109418360D01*
X113287191Y-109341781D01*
X113243996Y-109257006D01*
X113168033Y-109152451D01*
X113137558Y-109110505D01*
X113137554Y-109110500D01*
X113009499Y-108982445D01*
X113009494Y-108982441D01*
X112862997Y-108876006D01*
X112862996Y-108876005D01*
X112862994Y-108876004D01*
X112786906Y-108837235D01*
X112701639Y-108793788D01*
X112701636Y-108793787D01*
X112529410Y-108737829D01*
X112350551Y-108709500D01*
X112350546Y-108709500D01*
X112169454Y-108709500D01*
X112169449Y-108709500D01*
X111990589Y-108737829D01*
X111818363Y-108793787D01*
X111818360Y-108793788D01*
X111657002Y-108876006D01*
X111510505Y-108982441D01*
X111510500Y-108982445D01*
X111382445Y-109110500D01*
X111382441Y-109110505D01*
X111276006Y-109257001D01*
X111274733Y-109259500D01*
X111220062Y-109366796D01*
X111209614Y-109377859D01*
X111203292Y-109391703D01*
X111186112Y-109402743D01*
X111172090Y-109417591D01*
X111156408Y-109421832D01*
X111144514Y-109429477D01*
X111109579Y-109434500D01*
X110870421Y-109434500D01*
X110803382Y-109414815D01*
X110759937Y-109366796D01*
X110703996Y-109257006D01*
X110703994Y-109257003D01*
X110703993Y-109257001D01*
X110597558Y-109110505D01*
X110597554Y-109110500D01*
X110469499Y-108982445D01*
X110469494Y-108982441D01*
X110322997Y-108876006D01*
X110322996Y-108876005D01*
X110322994Y-108876004D01*
X110246906Y-108837235D01*
X110161639Y-108793788D01*
X110161636Y-108793787D01*
X109989410Y-108737829D01*
X109810551Y-108709500D01*
X109810546Y-108709500D01*
X109629454Y-108709500D01*
X109629449Y-108709500D01*
X109450589Y-108737829D01*
X109278363Y-108793787D01*
X109278360Y-108793788D01*
X109117002Y-108876006D01*
X108970505Y-108982441D01*
X108970500Y-108982445D01*
X108842443Y-109110502D01*
X108771330Y-109208384D01*
X108716000Y-109251051D01*
X108671011Y-109259500D01*
X108228989Y-109259500D01*
X108161950Y-109239815D01*
X108128670Y-109208384D01*
X108057556Y-109110502D01*
X107929499Y-108982445D01*
X107929494Y-108982441D01*
X107782997Y-108876006D01*
X107782996Y-108876005D01*
X107782994Y-108876004D01*
X107706906Y-108837235D01*
X107621639Y-108793788D01*
X107621636Y-108793787D01*
X107449410Y-108737829D01*
X107270551Y-108709500D01*
X107270546Y-108709500D01*
X107089454Y-108709500D01*
X107089449Y-108709500D01*
X106910589Y-108737829D01*
X106738363Y-108793787D01*
X106738360Y-108793788D01*
X106577002Y-108876006D01*
X106430505Y-108982441D01*
X106430500Y-108982445D01*
X106302443Y-109110502D01*
X106231330Y-109208384D01*
X106176000Y-109251051D01*
X106131011Y-109259500D01*
X105688989Y-109259500D01*
X105621950Y-109239815D01*
X105588670Y-109208384D01*
X105517556Y-109110502D01*
X105389499Y-108982445D01*
X105389494Y-108982441D01*
X105242997Y-108876006D01*
X105242996Y-108876005D01*
X105242994Y-108876004D01*
X105166906Y-108837235D01*
X105081639Y-108793788D01*
X105081636Y-108793787D01*
X104909410Y-108737829D01*
X104730551Y-108709500D01*
X104730546Y-108709500D01*
X104549454Y-108709500D01*
X104549449Y-108709500D01*
X104370589Y-108737829D01*
X104198363Y-108793787D01*
X104198360Y-108793788D01*
X104037002Y-108876006D01*
X103890505Y-108982441D01*
X103890500Y-108982445D01*
X103762443Y-109110502D01*
X103691330Y-109208384D01*
X103636000Y-109251051D01*
X103591011Y-109259500D01*
X103148989Y-109259500D01*
X103081950Y-109239815D01*
X103048670Y-109208384D01*
X102977556Y-109110502D01*
X102849499Y-108982445D01*
X102849494Y-108982441D01*
X102702997Y-108876006D01*
X102702996Y-108876005D01*
X102702994Y-108876004D01*
X102626906Y-108837235D01*
X102541639Y-108793788D01*
X102541636Y-108793787D01*
X102369410Y-108737829D01*
X102190551Y-108709500D01*
X102190546Y-108709500D01*
X102009454Y-108709500D01*
X102009449Y-108709500D01*
X101830589Y-108737829D01*
X101658363Y-108793787D01*
X101658360Y-108793788D01*
X101497002Y-108876006D01*
X101350505Y-108982441D01*
X101350500Y-108982445D01*
X101222443Y-109110502D01*
X101151330Y-109208384D01*
X101096000Y-109251051D01*
X101051011Y-109259500D01*
X100608989Y-109259500D01*
X100541950Y-109239815D01*
X100508670Y-109208384D01*
X100437556Y-109110502D01*
X100309499Y-108982445D01*
X100309494Y-108982441D01*
X100162997Y-108876006D01*
X100162996Y-108876005D01*
X100162994Y-108876004D01*
X100086906Y-108837235D01*
X100001639Y-108793788D01*
X100001636Y-108793787D01*
X99829410Y-108737829D01*
X99650551Y-108709500D01*
X99650546Y-108709500D01*
X99469454Y-108709500D01*
X99469449Y-108709500D01*
X99290589Y-108737829D01*
X99118363Y-108793787D01*
X99118360Y-108793788D01*
X98957002Y-108876006D01*
X98810505Y-108982441D01*
X98810500Y-108982445D01*
X98682443Y-109110502D01*
X98611330Y-109208384D01*
X98556000Y-109251051D01*
X98511011Y-109259500D01*
X98068989Y-109259500D01*
X98001950Y-109239815D01*
X97968670Y-109208384D01*
X97897556Y-109110502D01*
X97769499Y-108982445D01*
X97769494Y-108982441D01*
X97622997Y-108876006D01*
X97622996Y-108876005D01*
X97622994Y-108876004D01*
X97546906Y-108837235D01*
X97461639Y-108793788D01*
X97461636Y-108793787D01*
X97289410Y-108737829D01*
X97110551Y-108709500D01*
X97110546Y-108709500D01*
X96929454Y-108709500D01*
X96929449Y-108709500D01*
X96750589Y-108737829D01*
X96578363Y-108793787D01*
X96578360Y-108793788D01*
X96417002Y-108876006D01*
X96270505Y-108982441D01*
X96270500Y-108982445D01*
X96142443Y-109110502D01*
X96071330Y-109208384D01*
X96066997Y-109211725D01*
X96064724Y-109216703D01*
X96039624Y-109232833D01*
X96016000Y-109251051D01*
X96009326Y-109252304D01*
X96005946Y-109254477D01*
X95971011Y-109259500D01*
X95765157Y-109259500D01*
X95698118Y-109239815D01*
X95654672Y-109191794D01*
X95634626Y-109152451D01*
X95634622Y-109152445D01*
X95595271Y-109098282D01*
X95470373Y-109223181D01*
X95409049Y-109256666D01*
X95382691Y-109259500D01*
X95026308Y-109259500D01*
X94959269Y-109239815D01*
X94913514Y-109187011D01*
X94903570Y-109117853D01*
X94932595Y-109054297D01*
X94938627Y-109047819D01*
X95241716Y-108744728D01*
X95187550Y-108705375D01*
X94998224Y-108608907D01*
X94886181Y-108572502D01*
X94828506Y-108533064D01*
X94801308Y-108468705D01*
X94800500Y-108454571D01*
X94800500Y-85655662D01*
X94820185Y-85588623D01*
X94872989Y-85542868D01*
X94886180Y-85537731D01*
X94921639Y-85526211D01*
X95082994Y-85443996D01*
X95229501Y-85337553D01*
X95357553Y-85209501D01*
X95463996Y-85062994D01*
X95546211Y-84901639D01*
X95602171Y-84729409D01*
X95616422Y-84639425D01*
X95627527Y-84569321D01*
X95657456Y-84506186D01*
X95716768Y-84469255D01*
X95786630Y-84470253D01*
G37*
G04 #@! TD.AperFunction*
G04 #@! TA.AperFunction,Conductor*
G36*
X114342539Y-77070185D02*
G01*
X114388294Y-77122989D01*
X114399500Y-77174500D01*
X114399500Y-77684678D01*
X114414032Y-77757735D01*
X114414033Y-77757739D01*
X114432405Y-77785235D01*
X114469399Y-77840601D01*
X114552260Y-77895966D01*
X114552264Y-77895967D01*
X114625321Y-77910499D01*
X114625324Y-77910500D01*
X114625326Y-77910500D01*
X116374676Y-77910500D01*
X116374677Y-77910499D01*
X116447740Y-77895966D01*
X116530601Y-77840601D01*
X116585966Y-77757740D01*
X116600500Y-77684674D01*
X116600500Y-77484500D01*
X116620185Y-77417461D01*
X116672989Y-77371706D01*
X116724500Y-77360500D01*
X127054777Y-77360500D01*
X127121816Y-77380185D01*
X127142458Y-77396819D01*
X133693181Y-83947542D01*
X133726666Y-84008865D01*
X133729500Y-84035223D01*
X133729500Y-100971614D01*
X133709815Y-101038653D01*
X133657011Y-101084408D01*
X133587853Y-101094352D01*
X133524297Y-101065327D01*
X133518101Y-101059557D01*
X133518011Y-101059488D01*
X133392488Y-100987017D01*
X133392489Y-100987017D01*
X133381006Y-100983940D01*
X133252475Y-100949500D01*
X133107525Y-100949500D01*
X132978993Y-100983940D01*
X132967511Y-100987017D01*
X132844763Y-101057887D01*
X132782763Y-101074500D01*
X132067610Y-101074500D01*
X132000571Y-101054815D01*
X131979929Y-101038181D01*
X116566580Y-85624832D01*
X116533095Y-85563509D01*
X116538079Y-85493817D01*
X116579951Y-85437884D01*
X116645415Y-85413467D01*
X116713688Y-85428319D01*
X116727146Y-85436833D01*
X116735793Y-85443114D01*
X116737006Y-85443996D01*
X116826966Y-85489833D01*
X116898360Y-85526211D01*
X116898363Y-85526212D01*
X116953400Y-85544094D01*
X117070591Y-85582171D01*
X117153429Y-85595291D01*
X117249449Y-85610500D01*
X117249454Y-85610500D01*
X117430551Y-85610500D01*
X117517259Y-85596765D01*
X117609409Y-85582171D01*
X117781639Y-85526211D01*
X117942994Y-85443996D01*
X118089501Y-85337553D01*
X118217553Y-85209501D01*
X118323996Y-85062994D01*
X118406211Y-84901639D01*
X118462171Y-84729409D01*
X118476422Y-84639425D01*
X118487527Y-84569321D01*
X118517456Y-84506186D01*
X118576768Y-84469255D01*
X118646630Y-84470253D01*
X118704863Y-84508863D01*
X118732473Y-84569321D01*
X118757829Y-84729410D01*
X118813787Y-84901636D01*
X118813788Y-84901639D01*
X118896006Y-85062997D01*
X119002441Y-85209494D01*
X119002445Y-85209499D01*
X119130500Y-85337554D01*
X119130505Y-85337558D01*
X119221221Y-85403466D01*
X119277006Y-85443996D01*
X119366966Y-85489833D01*
X119438360Y-85526211D01*
X119438363Y-85526212D01*
X119493400Y-85544094D01*
X119610591Y-85582171D01*
X119693429Y-85595291D01*
X119789449Y-85610500D01*
X119789454Y-85610500D01*
X119970551Y-85610500D01*
X120057259Y-85596765D01*
X120149409Y-85582171D01*
X120321639Y-85526211D01*
X120482994Y-85443996D01*
X120629501Y-85337553D01*
X120757553Y-85209501D01*
X120863996Y-85062994D01*
X120946211Y-84901639D01*
X121002171Y-84729409D01*
X121016422Y-84639425D01*
X121027527Y-84569321D01*
X121057456Y-84506186D01*
X121116768Y-84469255D01*
X121186630Y-84470253D01*
X121244863Y-84508863D01*
X121272473Y-84569321D01*
X121297829Y-84729410D01*
X121353787Y-84901636D01*
X121353788Y-84901639D01*
X121436006Y-85062997D01*
X121542441Y-85209494D01*
X121542445Y-85209499D01*
X121670500Y-85337554D01*
X121670505Y-85337558D01*
X121761221Y-85403466D01*
X121817006Y-85443996D01*
X121906966Y-85489833D01*
X121978360Y-85526211D01*
X121978363Y-85526212D01*
X122033400Y-85544094D01*
X122150591Y-85582171D01*
X122233429Y-85595291D01*
X122329449Y-85610500D01*
X122329454Y-85610500D01*
X122510551Y-85610500D01*
X122597259Y-85596765D01*
X122689409Y-85582171D01*
X122861639Y-85526211D01*
X123022994Y-85443996D01*
X123129787Y-85366407D01*
X123169495Y-85337558D01*
X123169497Y-85337555D01*
X123169501Y-85337553D01*
X123297553Y-85209501D01*
X123403996Y-85062994D01*
X123471090Y-84931314D01*
X123519065Y-84880519D01*
X123586886Y-84863724D01*
X123653021Y-84886262D01*
X123696472Y-84940977D01*
X123699506Y-84949292D01*
X123708904Y-84978217D01*
X123805375Y-85167550D01*
X123844728Y-85221716D01*
X124477037Y-84589408D01*
X124494075Y-84652993D01*
X124559901Y-84767007D01*
X124652993Y-84860099D01*
X124767007Y-84925925D01*
X124830590Y-84942962D01*
X124198282Y-85575269D01*
X124198282Y-85575270D01*
X124252449Y-85614624D01*
X124441782Y-85711095D01*
X124643870Y-85776757D01*
X124853754Y-85810000D01*
X125066246Y-85810000D01*
X125276127Y-85776757D01*
X125276130Y-85776757D01*
X125478217Y-85711095D01*
X125667554Y-85614622D01*
X125721716Y-85575270D01*
X125721717Y-85575270D01*
X125089408Y-84942962D01*
X125152993Y-84925925D01*
X125267007Y-84860099D01*
X125360099Y-84767007D01*
X125425925Y-84652993D01*
X125442962Y-84589408D01*
X126075270Y-85221717D01*
X126075270Y-85221716D01*
X126114622Y-85167554D01*
X126211095Y-84978217D01*
X126220492Y-84949295D01*
X126259928Y-84891618D01*
X126324286Y-84864419D01*
X126393133Y-84876331D01*
X126444610Y-84923574D01*
X126448908Y-84931314D01*
X126516004Y-85062995D01*
X126622441Y-85209494D01*
X126622445Y-85209499D01*
X126750500Y-85337554D01*
X126750505Y-85337558D01*
X126841221Y-85403466D01*
X126897006Y-85443996D01*
X126986966Y-85489833D01*
X127058360Y-85526211D01*
X127058363Y-85526212D01*
X127113400Y-85544094D01*
X127230591Y-85582171D01*
X127313429Y-85595291D01*
X127409449Y-85610500D01*
X127409454Y-85610500D01*
X127590551Y-85610500D01*
X127677259Y-85596765D01*
X127769409Y-85582171D01*
X127941639Y-85526211D01*
X128102994Y-85443996D01*
X128249501Y-85337553D01*
X128377553Y-85209501D01*
X128483996Y-85062994D01*
X128566211Y-84901639D01*
X128622171Y-84729409D01*
X128636765Y-84637259D01*
X128650500Y-84550551D01*
X128650500Y-84369448D01*
X128623461Y-84198737D01*
X128622171Y-84190591D01*
X128578530Y-84056275D01*
X128566212Y-84018363D01*
X128566211Y-84018360D01*
X128527191Y-83941780D01*
X128483996Y-83857006D01*
X128470197Y-83838013D01*
X128377558Y-83710505D01*
X128377554Y-83710500D01*
X128249499Y-83582445D01*
X128249494Y-83582441D01*
X128102997Y-83476006D01*
X128102996Y-83476005D01*
X128102994Y-83476004D01*
X128051300Y-83449664D01*
X127941639Y-83393788D01*
X127941636Y-83393787D01*
X127769410Y-83337829D01*
X127590551Y-83309500D01*
X127590546Y-83309500D01*
X127409454Y-83309500D01*
X127409449Y-83309500D01*
X127230589Y-83337829D01*
X127058363Y-83393787D01*
X127058360Y-83393788D01*
X126897002Y-83476006D01*
X126750505Y-83582441D01*
X126750500Y-83582445D01*
X126622445Y-83710500D01*
X126622441Y-83710505D01*
X126516004Y-83857004D01*
X126448908Y-83988685D01*
X126400933Y-84039480D01*
X126333112Y-84056275D01*
X126266977Y-84033737D01*
X126223527Y-83979021D01*
X126220492Y-83970705D01*
X126211094Y-83941780D01*
X126114624Y-83752449D01*
X126075270Y-83698282D01*
X126075269Y-83698282D01*
X125442962Y-84330590D01*
X125425925Y-84267007D01*
X125360099Y-84152993D01*
X125267007Y-84059901D01*
X125152993Y-83994075D01*
X125089409Y-83977037D01*
X125721716Y-83344728D01*
X125667550Y-83305375D01*
X125478217Y-83208904D01*
X125276129Y-83143242D01*
X125066246Y-83110000D01*
X124853754Y-83110000D01*
X124643872Y-83143242D01*
X124643869Y-83143242D01*
X124441782Y-83208904D01*
X124252439Y-83305380D01*
X124198282Y-83344727D01*
X124198282Y-83344728D01*
X124830591Y-83977037D01*
X124767007Y-83994075D01*
X124652993Y-84059901D01*
X124559901Y-84152993D01*
X124494075Y-84267007D01*
X124477037Y-84330591D01*
X123844728Y-83698282D01*
X123844727Y-83698282D01*
X123805380Y-83752439D01*
X123708905Y-83941781D01*
X123699506Y-83970708D01*
X123660068Y-84028383D01*
X123595709Y-84055581D01*
X123526862Y-84043666D01*
X123475387Y-83996421D01*
X123471090Y-83988684D01*
X123447191Y-83941780D01*
X123403996Y-83857006D01*
X123390197Y-83838013D01*
X123297558Y-83710505D01*
X123297554Y-83710500D01*
X123169499Y-83582445D01*
X123169494Y-83582441D01*
X123045432Y-83492305D01*
X123022996Y-83476005D01*
X122861639Y-83393788D01*
X122861636Y-83393787D01*
X122689410Y-83337829D01*
X122510551Y-83309500D01*
X122510546Y-83309500D01*
X122329454Y-83309500D01*
X122329449Y-83309500D01*
X122150589Y-83337829D01*
X121978363Y-83393787D01*
X121978360Y-83393788D01*
X121817002Y-83476006D01*
X121670505Y-83582441D01*
X121670500Y-83582445D01*
X121542445Y-83710500D01*
X121542441Y-83710505D01*
X121436006Y-83857002D01*
X121353788Y-84018360D01*
X121353787Y-84018363D01*
X121297829Y-84190589D01*
X121272473Y-84350678D01*
X121242544Y-84413813D01*
X121183232Y-84450744D01*
X121113369Y-84449746D01*
X121055137Y-84411136D01*
X121027527Y-84350678D01*
X121003461Y-84198737D01*
X121002171Y-84190591D01*
X120958530Y-84056275D01*
X120946212Y-84018363D01*
X120946211Y-84018360D01*
X120907191Y-83941780D01*
X120863996Y-83857006D01*
X120850197Y-83838013D01*
X120757558Y-83710505D01*
X120757554Y-83710500D01*
X120629499Y-83582445D01*
X120629494Y-83582441D01*
X120482997Y-83476006D01*
X120482996Y-83476005D01*
X120482994Y-83476004D01*
X120431300Y-83449664D01*
X120321639Y-83393788D01*
X120321636Y-83393787D01*
X120149410Y-83337829D01*
X119970551Y-83309500D01*
X119970546Y-83309500D01*
X119789454Y-83309500D01*
X119789449Y-83309500D01*
X119610589Y-83337829D01*
X119438363Y-83393787D01*
X119438360Y-83393788D01*
X119277002Y-83476006D01*
X119130505Y-83582441D01*
X119130500Y-83582445D01*
X119002445Y-83710500D01*
X119002441Y-83710505D01*
X118896006Y-83857002D01*
X118813788Y-84018360D01*
X118813787Y-84018363D01*
X118757829Y-84190589D01*
X118732473Y-84350678D01*
X118702544Y-84413813D01*
X118643232Y-84450744D01*
X118573369Y-84449746D01*
X118515137Y-84411136D01*
X118487527Y-84350678D01*
X118463461Y-84198737D01*
X118462171Y-84190591D01*
X118418530Y-84056275D01*
X118406212Y-84018363D01*
X118406211Y-84018360D01*
X118367191Y-83941780D01*
X118323996Y-83857006D01*
X118310197Y-83838013D01*
X118217558Y-83710505D01*
X118217554Y-83710500D01*
X118089499Y-83582445D01*
X118089494Y-83582441D01*
X117942997Y-83476006D01*
X117942996Y-83476005D01*
X117942994Y-83476004D01*
X117891300Y-83449664D01*
X117781639Y-83393788D01*
X117781636Y-83393787D01*
X117609410Y-83337829D01*
X117430551Y-83309500D01*
X117430546Y-83309500D01*
X117249454Y-83309500D01*
X117249449Y-83309500D01*
X117070589Y-83337829D01*
X116898363Y-83393787D01*
X116898360Y-83393788D01*
X116737002Y-83476006D01*
X116590505Y-83582441D01*
X116590500Y-83582445D01*
X116462445Y-83710500D01*
X116462441Y-83710505D01*
X116356006Y-83857002D01*
X116273788Y-84018360D01*
X116273787Y-84018363D01*
X116217829Y-84190589D01*
X116192473Y-84350678D01*
X116162544Y-84413813D01*
X116103232Y-84450744D01*
X116033369Y-84449746D01*
X115975137Y-84411136D01*
X115947527Y-84350678D01*
X115923461Y-84198737D01*
X115922171Y-84190591D01*
X115878530Y-84056275D01*
X115866212Y-84018363D01*
X115866211Y-84018360D01*
X115827191Y-83941780D01*
X115783996Y-83857006D01*
X115770197Y-83838013D01*
X115677558Y-83710505D01*
X115677554Y-83710500D01*
X115549499Y-83582445D01*
X115549494Y-83582441D01*
X115402997Y-83476006D01*
X115402996Y-83476005D01*
X115402994Y-83476004D01*
X115351300Y-83449664D01*
X115241639Y-83393788D01*
X115241636Y-83393787D01*
X115069410Y-83337829D01*
X114890551Y-83309500D01*
X114890546Y-83309500D01*
X114709454Y-83309500D01*
X114709449Y-83309500D01*
X114530589Y-83337829D01*
X114358363Y-83393787D01*
X114358360Y-83393788D01*
X114197002Y-83476006D01*
X114050505Y-83582441D01*
X114050500Y-83582445D01*
X113922445Y-83710500D01*
X113922441Y-83710505D01*
X113816006Y-83857001D01*
X113790299Y-83907453D01*
X113760062Y-83966796D01*
X113749614Y-83977859D01*
X113743292Y-83991703D01*
X113726112Y-84002743D01*
X113712090Y-84017591D01*
X113696408Y-84021832D01*
X113684514Y-84029477D01*
X113649579Y-84034500D01*
X113410421Y-84034500D01*
X113343382Y-84014815D01*
X113299937Y-83966796D01*
X113243996Y-83857006D01*
X113243994Y-83857003D01*
X113243993Y-83857001D01*
X113137558Y-83710505D01*
X113137554Y-83710500D01*
X113009499Y-83582445D01*
X113009494Y-83582441D01*
X112862997Y-83476006D01*
X112862996Y-83476005D01*
X112862994Y-83476004D01*
X112811300Y-83449664D01*
X112701639Y-83393788D01*
X112701636Y-83393787D01*
X112529410Y-83337829D01*
X112350551Y-83309500D01*
X112350546Y-83309500D01*
X112169454Y-83309500D01*
X112169449Y-83309500D01*
X111990589Y-83337829D01*
X111818363Y-83393787D01*
X111818360Y-83393788D01*
X111657002Y-83476006D01*
X111510505Y-83582441D01*
X111510500Y-83582445D01*
X111382445Y-83710500D01*
X111382441Y-83710505D01*
X111276006Y-83857001D01*
X111250299Y-83907453D01*
X111220062Y-83966796D01*
X111209614Y-83977859D01*
X111203292Y-83991703D01*
X111186112Y-84002743D01*
X111172090Y-84017591D01*
X111156408Y-84021832D01*
X111144514Y-84029477D01*
X111109579Y-84034500D01*
X110870421Y-84034500D01*
X110803382Y-84014815D01*
X110759937Y-83966796D01*
X110703996Y-83857006D01*
X110703994Y-83857003D01*
X110703993Y-83857001D01*
X110597558Y-83710505D01*
X110597554Y-83710500D01*
X110469499Y-83582445D01*
X110469494Y-83582441D01*
X110322997Y-83476006D01*
X110322996Y-83476005D01*
X110322994Y-83476004D01*
X110271300Y-83449664D01*
X110161639Y-83393788D01*
X110161636Y-83393787D01*
X109989410Y-83337829D01*
X109810551Y-83309500D01*
X109810546Y-83309500D01*
X109629454Y-83309500D01*
X109629449Y-83309500D01*
X109450589Y-83337829D01*
X109278363Y-83393787D01*
X109278360Y-83393788D01*
X109117002Y-83476006D01*
X108970505Y-83582441D01*
X108970500Y-83582445D01*
X108842445Y-83710500D01*
X108842441Y-83710505D01*
X108736006Y-83857002D01*
X108653788Y-84018360D01*
X108653787Y-84018363D01*
X108597829Y-84190589D01*
X108572473Y-84350678D01*
X108542544Y-84413813D01*
X108483232Y-84450744D01*
X108413369Y-84449746D01*
X108355137Y-84411136D01*
X108327527Y-84350678D01*
X108303461Y-84198737D01*
X108302171Y-84190591D01*
X108258530Y-84056275D01*
X108246212Y-84018363D01*
X108246211Y-84018360D01*
X108207191Y-83941780D01*
X108163996Y-83857006D01*
X108150197Y-83838013D01*
X108057558Y-83710505D01*
X108057554Y-83710500D01*
X107929499Y-83582445D01*
X107929494Y-83582441D01*
X107782997Y-83476006D01*
X107782996Y-83476005D01*
X107782994Y-83476004D01*
X107731300Y-83449664D01*
X107621639Y-83393788D01*
X107621636Y-83393787D01*
X107449410Y-83337829D01*
X107270551Y-83309500D01*
X107270546Y-83309500D01*
X107089454Y-83309500D01*
X107089449Y-83309500D01*
X106910589Y-83337829D01*
X106738363Y-83393787D01*
X106738360Y-83393788D01*
X106577002Y-83476006D01*
X106430505Y-83582441D01*
X106430500Y-83582445D01*
X106302445Y-83710500D01*
X106302441Y-83710505D01*
X106196006Y-83857001D01*
X106170299Y-83907453D01*
X106140062Y-83966796D01*
X106129614Y-83977859D01*
X106123292Y-83991703D01*
X106106112Y-84002743D01*
X106092090Y-84017591D01*
X106076408Y-84021832D01*
X106064514Y-84029477D01*
X106029579Y-84034500D01*
X105790421Y-84034500D01*
X105723382Y-84014815D01*
X105679937Y-83966796D01*
X105623996Y-83857006D01*
X105623994Y-83857003D01*
X105623993Y-83857001D01*
X105517558Y-83710505D01*
X105517554Y-83710500D01*
X105389499Y-83582445D01*
X105389494Y-83582441D01*
X105242997Y-83476006D01*
X105242996Y-83476005D01*
X105242994Y-83476004D01*
X105191300Y-83449664D01*
X105081639Y-83393788D01*
X105081636Y-83393787D01*
X104909410Y-83337829D01*
X104797917Y-83320170D01*
X104734782Y-83290241D01*
X104697851Y-83230929D01*
X104698849Y-83161067D01*
X104729632Y-83110018D01*
X109282083Y-78557568D01*
X109337665Y-78525478D01*
X109474582Y-78488791D01*
X109600112Y-78416316D01*
X109702606Y-78313822D01*
X109775081Y-78188292D01*
X109812597Y-78048282D01*
X109812597Y-77903332D01*
X109775081Y-77763322D01*
X109775079Y-77763318D01*
X109772977Y-77755472D01*
X109776253Y-77754594D01*
X109770448Y-77700757D01*
X109801702Y-77638268D01*
X109861780Y-77602596D01*
X109908514Y-77600419D01*
X109908538Y-77600118D01*
X109910932Y-77600306D01*
X109911886Y-77600262D01*
X109913389Y-77600500D01*
X109913391Y-77600500D01*
X110086610Y-77600500D01*
X110086611Y-77600500D01*
X110257701Y-77573402D01*
X110422445Y-77519873D01*
X110576788Y-77441232D01*
X110716928Y-77339414D01*
X110839414Y-77216928D01*
X110923195Y-77101614D01*
X110978526Y-77058949D01*
X111023513Y-77050500D01*
X114275500Y-77050500D01*
X114342539Y-77070185D01*
G37*
G04 #@! TD.AperFunction*
G04 #@! TA.AperFunction,Conductor*
G36*
X51835359Y-92355258D02*
G01*
X51917437Y-92478097D01*
X52021903Y-92582563D01*
X52144742Y-92664641D01*
X52175974Y-92677578D01*
X51273633Y-93579917D01*
X51273633Y-93579918D01*
X51386475Y-93666505D01*
X51386483Y-93666511D01*
X51613517Y-93797590D01*
X51613528Y-93797595D01*
X51855744Y-93897924D01*
X52108979Y-93965777D01*
X52108990Y-93965779D01*
X52368905Y-93999999D01*
X52368920Y-94000000D01*
X52631080Y-94000000D01*
X52631094Y-93999999D01*
X52751232Y-93984182D01*
X52820267Y-93994947D01*
X52872523Y-94041327D01*
X52891409Y-94108596D01*
X52870929Y-94175396D01*
X52855099Y-94194802D01*
X50731286Y-96318616D01*
X50712181Y-96337721D01*
X50650858Y-96371206D01*
X50581166Y-96366222D01*
X50525233Y-96324350D01*
X50500816Y-96258886D01*
X50500500Y-96250040D01*
X50500500Y-92999538D01*
X50520185Y-92932499D01*
X50572989Y-92886744D01*
X50642147Y-92876800D01*
X50705703Y-92905825D01*
X50731887Y-92937538D01*
X50833488Y-93113516D01*
X50833494Y-93113524D01*
X50920080Y-93226365D01*
X51822421Y-92324024D01*
X51835359Y-92355258D01*
G37*
G04 #@! TD.AperFunction*
G04 #@! TA.AperFunction,Conductor*
G36*
X127394426Y-50520185D02*
G01*
X127440181Y-50572989D01*
X127450125Y-50642147D01*
X127445318Y-50662818D01*
X127383241Y-50853869D01*
X127383241Y-50853872D01*
X127349999Y-51063753D01*
X127349999Y-51276246D01*
X127383241Y-51486127D01*
X127383241Y-51486130D01*
X127448903Y-51688217D01*
X127545374Y-51877550D01*
X127584727Y-51931716D01*
X128217035Y-51299407D01*
X128234074Y-51362993D01*
X128299900Y-51477007D01*
X128392992Y-51570099D01*
X128507006Y-51635925D01*
X128570589Y-51652962D01*
X127938281Y-52285269D01*
X127938281Y-52285270D01*
X127992448Y-52324624D01*
X128181779Y-52421094D01*
X128210704Y-52430492D01*
X128268380Y-52469929D01*
X128295579Y-52534287D01*
X128283666Y-52603134D01*
X128236423Y-52654610D01*
X128228684Y-52658908D01*
X128097003Y-52726004D01*
X127950504Y-52832441D01*
X127950499Y-52832445D01*
X127822444Y-52960500D01*
X127822440Y-52960505D01*
X127716005Y-53107002D01*
X127698277Y-53141795D01*
X127650302Y-53192591D01*
X127587792Y-53209500D01*
X127434107Y-53209500D01*
X127306812Y-53243608D01*
X127192686Y-53309500D01*
X127192683Y-53309502D01*
X125534648Y-54967538D01*
X125473325Y-55001023D01*
X125403633Y-54996039D01*
X125359286Y-54967538D01*
X123026265Y-52634517D01*
X123026263Y-52634515D01*
X122961579Y-52597169D01*
X122929239Y-52578498D01*
X122929238Y-52578497D01*
X122929237Y-52578497D01*
X122821018Y-52549500D01*
X119424342Y-52549500D01*
X119312306Y-52549500D01*
X119204087Y-52578497D01*
X119204084Y-52578498D01*
X119107064Y-52634513D01*
X119107058Y-52634517D01*
X118134517Y-53607058D01*
X118134513Y-53607064D01*
X118078498Y-53704084D01*
X118078497Y-53704087D01*
X118049500Y-53812306D01*
X118049500Y-61418982D01*
X118049500Y-61531018D01*
X118078497Y-61639237D01*
X118134515Y-61736263D01*
X118134517Y-61736265D01*
X119418236Y-63019984D01*
X119450329Y-63075569D01*
X119484095Y-63201583D01*
X119487017Y-63212488D01*
X119559488Y-63338011D01*
X119559490Y-63338013D01*
X119559491Y-63338015D01*
X119661985Y-63440509D01*
X119661986Y-63440510D01*
X119661988Y-63440511D01*
X119787511Y-63512982D01*
X119787512Y-63512982D01*
X119787515Y-63512984D01*
X119927525Y-63550500D01*
X119927528Y-63550500D01*
X120072472Y-63550500D01*
X120072475Y-63550500D01*
X120212485Y-63512984D01*
X120338015Y-63440509D01*
X120440509Y-63338015D01*
X120512984Y-63212485D01*
X120550500Y-63072475D01*
X120550500Y-62927525D01*
X120512984Y-62787515D01*
X120440509Y-62661985D01*
X120338015Y-62559491D01*
X120338013Y-62559490D01*
X120338011Y-62559488D01*
X120212488Y-62487017D01*
X120212489Y-62487017D01*
X120192485Y-62481657D01*
X120075569Y-62450329D01*
X120019984Y-62418236D01*
X118936819Y-61335071D01*
X118903334Y-61273748D01*
X118900500Y-61247390D01*
X118900500Y-60297308D01*
X118920185Y-60230269D01*
X118936819Y-60209627D01*
X119600000Y-59546446D01*
X119600000Y-59552661D01*
X119627259Y-59654394D01*
X119679920Y-59745606D01*
X119754394Y-59820080D01*
X119845606Y-59872741D01*
X119947339Y-59900000D01*
X119953553Y-59900000D01*
X119274076Y-60579474D01*
X119318650Y-60611859D01*
X119500968Y-60704755D01*
X119695582Y-60767990D01*
X119897683Y-60800000D01*
X120102317Y-60800000D01*
X120304417Y-60767990D01*
X120499031Y-60704755D01*
X120681349Y-60611859D01*
X120725921Y-60579474D01*
X120046447Y-59900000D01*
X120052661Y-59900000D01*
X120154394Y-59872741D01*
X120245606Y-59820080D01*
X120320080Y-59745606D01*
X120372741Y-59654394D01*
X120400000Y-59552661D01*
X120400000Y-59546447D01*
X121079474Y-60225921D01*
X121111859Y-60181349D01*
X121204755Y-59999031D01*
X121267990Y-59804417D01*
X121300000Y-59602317D01*
X121300000Y-59397682D01*
X121267990Y-59195582D01*
X121204755Y-59000968D01*
X121111859Y-58818650D01*
X121079474Y-58774077D01*
X121079474Y-58774076D01*
X120400000Y-59453551D01*
X120400000Y-59447339D01*
X120372741Y-59345606D01*
X120320080Y-59254394D01*
X120245606Y-59179920D01*
X120154394Y-59127259D01*
X120052661Y-59100000D01*
X120046446Y-59100000D01*
X120725922Y-58420524D01*
X120725921Y-58420523D01*
X120681359Y-58388147D01*
X120681350Y-58388141D01*
X120499031Y-58295244D01*
X120304417Y-58232009D01*
X120102317Y-58200000D01*
X119897683Y-58200000D01*
X119695582Y-58232009D01*
X119500968Y-58295244D01*
X119318644Y-58388143D01*
X119274077Y-58420523D01*
X119274077Y-58420524D01*
X119953554Y-59100000D01*
X119947339Y-59100000D01*
X119845606Y-59127259D01*
X119754394Y-59179920D01*
X119679920Y-59254394D01*
X119627259Y-59345606D01*
X119600000Y-59447339D01*
X119600000Y-59453552D01*
X118936819Y-58790371D01*
X118922115Y-58763443D01*
X118905523Y-58737625D01*
X118904631Y-58731424D01*
X118903334Y-58729048D01*
X118900500Y-58702690D01*
X118900500Y-55240583D01*
X118920185Y-55173544D01*
X118972989Y-55127789D01*
X119042147Y-55117845D01*
X119105703Y-55146870D01*
X119124815Y-55167694D01*
X119160586Y-55216928D01*
X119283072Y-55339414D01*
X119423212Y-55441232D01*
X119577555Y-55519873D01*
X119742299Y-55573402D01*
X119913389Y-55600500D01*
X119913390Y-55600500D01*
X120086610Y-55600500D01*
X120086611Y-55600500D01*
X120227392Y-55578202D01*
X120296683Y-55587156D01*
X120334469Y-55612994D01*
X123411985Y-58690510D01*
X123537515Y-58762984D01*
X123677525Y-58800500D01*
X123677526Y-58800500D01*
X123822474Y-58800500D01*
X124825500Y-58800500D01*
X124892539Y-58820185D01*
X124938294Y-58872989D01*
X124949500Y-58924500D01*
X124949500Y-66530612D01*
X124929815Y-66597651D01*
X124913181Y-66618293D01*
X117061596Y-74469877D01*
X117000273Y-74503362D01*
X116930581Y-74498378D01*
X116874648Y-74456506D01*
X116850231Y-74391042D01*
X116850267Y-74381119D01*
X116850000Y-74381119D01*
X116850000Y-74163753D01*
X116816757Y-73953872D01*
X116816757Y-73953869D01*
X116751095Y-73751782D01*
X116654624Y-73562449D01*
X116615270Y-73508282D01*
X116615269Y-73508282D01*
X115982962Y-74140590D01*
X115965925Y-74077007D01*
X115900099Y-73962993D01*
X115807007Y-73869901D01*
X115692993Y-73804075D01*
X115629409Y-73787037D01*
X116261716Y-73154728D01*
X116207550Y-73115375D01*
X116018217Y-73018904D01*
X115919287Y-72986760D01*
X115861611Y-72947323D01*
X115834413Y-72882964D01*
X115846328Y-72814118D01*
X115893572Y-72762642D01*
X115919290Y-72750897D01*
X115922445Y-72749873D01*
X116076788Y-72671232D01*
X116216928Y-72569414D01*
X116339414Y-72446928D01*
X116441232Y-72306788D01*
X116519873Y-72152445D01*
X116573402Y-71987701D01*
X116600500Y-71816611D01*
X116600500Y-71643389D01*
X116573402Y-71472299D01*
X116519873Y-71307555D01*
X116441232Y-71153212D01*
X116339414Y-71013072D01*
X116216928Y-70890586D01*
X116076788Y-70788768D01*
X115922445Y-70710127D01*
X115757701Y-70656598D01*
X115757699Y-70656597D01*
X115757698Y-70656597D01*
X115626271Y-70635781D01*
X115586611Y-70629500D01*
X115413389Y-70629500D01*
X115373728Y-70635781D01*
X115242302Y-70656597D01*
X115077552Y-70710128D01*
X114923211Y-70788768D01*
X114882091Y-70818644D01*
X114783072Y-70890586D01*
X114783070Y-70890588D01*
X114783069Y-70890588D01*
X114660588Y-71013069D01*
X114660588Y-71013070D01*
X114660586Y-71013072D01*
X114628614Y-71057078D01*
X114558768Y-71153211D01*
X114480128Y-71307552D01*
X114426597Y-71472302D01*
X114422210Y-71500001D01*
X114399500Y-71643389D01*
X114399500Y-71816611D01*
X114405351Y-71853553D01*
X114416024Y-71920943D01*
X114426598Y-71987701D01*
X114480127Y-72152445D01*
X114558768Y-72306788D01*
X114660586Y-72446928D01*
X114783072Y-72569414D01*
X114923212Y-72671232D01*
X115077555Y-72749873D01*
X115080708Y-72750897D01*
X115081752Y-72751611D01*
X115082048Y-72751734D01*
X115082022Y-72751795D01*
X115138383Y-72790330D01*
X115165585Y-72854688D01*
X115153674Y-72923535D01*
X115106433Y-72975013D01*
X115080712Y-72986760D01*
X114981783Y-73018904D01*
X114792439Y-73115380D01*
X114738282Y-73154727D01*
X114738282Y-73154728D01*
X115370591Y-73787037D01*
X115307007Y-73804075D01*
X115192993Y-73869901D01*
X115099901Y-73962993D01*
X115034075Y-74077007D01*
X115017037Y-74140591D01*
X114384728Y-73508282D01*
X114384727Y-73508282D01*
X114345380Y-73562439D01*
X114248904Y-73751782D01*
X114183242Y-73953869D01*
X114183242Y-73953872D01*
X114150000Y-74163753D01*
X114150000Y-74376246D01*
X114183242Y-74586127D01*
X114183242Y-74586130D01*
X114248904Y-74788217D01*
X114345375Y-74977550D01*
X114384728Y-75031716D01*
X115017037Y-74399408D01*
X115034075Y-74462993D01*
X115099901Y-74577007D01*
X115192993Y-74670099D01*
X115307007Y-74735925D01*
X115370590Y-74752962D01*
X114738282Y-75385269D01*
X114738282Y-75385270D01*
X114792450Y-75424624D01*
X114891345Y-75475015D01*
X114942141Y-75522990D01*
X114958936Y-75590811D01*
X114936398Y-75656946D01*
X114881683Y-75700397D01*
X114835050Y-75709500D01*
X114625323Y-75709500D01*
X114552264Y-75724032D01*
X114552260Y-75724033D01*
X114469399Y-75779399D01*
X114414032Y-75862262D01*
X114409603Y-75872956D01*
X114365760Y-75927358D01*
X114299466Y-75949421D01*
X114295043Y-75949500D01*
X111023513Y-75949500D01*
X110956474Y-75929815D01*
X110923195Y-75898386D01*
X110854922Y-75804417D01*
X110839414Y-75783072D01*
X110716928Y-75660586D01*
X110576788Y-75558768D01*
X110422445Y-75480127D01*
X110257701Y-75426598D01*
X110257699Y-75426597D01*
X110257698Y-75426597D01*
X110126271Y-75405781D01*
X110086611Y-75399500D01*
X109913389Y-75399500D01*
X109772607Y-75421797D01*
X109703314Y-75412842D01*
X109665529Y-75387005D01*
X108548524Y-74270000D01*
X107338015Y-73059490D01*
X107212485Y-72987016D01*
X107212486Y-72987016D01*
X107177482Y-72977637D01*
X107072475Y-72949500D01*
X102072475Y-72949500D01*
X100427525Y-72949500D01*
X100343519Y-72972009D01*
X100287513Y-72987016D01*
X100287512Y-72987017D01*
X100161989Y-73059487D01*
X100161984Y-73059491D01*
X97059491Y-76161983D01*
X97059489Y-76161986D01*
X97045041Y-76187011D01*
X97003191Y-76259500D01*
X97002614Y-76260499D01*
X97002613Y-76260500D01*
X96987017Y-76287512D01*
X96987016Y-76287513D01*
X96984470Y-76297016D01*
X96949500Y-76427525D01*
X96949500Y-76572475D01*
X96959689Y-76610500D01*
X96987016Y-76712485D01*
X97059490Y-76838015D01*
X97161985Y-76940510D01*
X97287515Y-77012984D01*
X97427525Y-77050500D01*
X97427526Y-77050500D01*
X97427528Y-77050500D01*
X97572472Y-77050500D01*
X97572474Y-77050500D01*
X97572475Y-77050500D01*
X97712485Y-77012984D01*
X97838015Y-76940510D01*
X100691705Y-74086818D01*
X100753028Y-74053334D01*
X100779386Y-74050500D01*
X101927525Y-74050500D01*
X106720613Y-74050500D01*
X106787652Y-74070185D01*
X106808294Y-74086819D01*
X107848734Y-75127259D01*
X108887005Y-76165529D01*
X108920490Y-76226852D01*
X108921797Y-76272607D01*
X108899500Y-76413388D01*
X108899500Y-76413389D01*
X108899500Y-76586611D01*
X108926598Y-76757701D01*
X108980127Y-76922445D01*
X109058768Y-77076788D01*
X109160586Y-77216928D01*
X109160588Y-77216930D01*
X109179197Y-77235539D01*
X109212682Y-77296862D01*
X109207698Y-77366554D01*
X109165826Y-77422487D01*
X109123611Y-77442994D01*
X109049613Y-77462822D01*
X109049608Y-77462824D01*
X108924085Y-77535295D01*
X108924079Y-77535300D01*
X108821590Y-77637789D01*
X108821585Y-77637795D01*
X108749114Y-77763318D01*
X108749113Y-77763322D01*
X108713571Y-77895967D01*
X108712427Y-77900235D01*
X108680333Y-77955822D01*
X103063737Y-83572419D01*
X103039286Y-83596870D01*
X102977963Y-83630355D01*
X102908271Y-83625371D01*
X102863924Y-83596870D01*
X102849499Y-83582445D01*
X102849494Y-83582441D01*
X102702997Y-83476006D01*
X102702996Y-83476005D01*
X102702994Y-83476004D01*
X102651300Y-83449664D01*
X102541639Y-83393788D01*
X102541636Y-83393787D01*
X102369410Y-83337829D01*
X102190551Y-83309500D01*
X102190546Y-83309500D01*
X102009454Y-83309500D01*
X102009449Y-83309500D01*
X101830589Y-83337829D01*
X101658363Y-83393787D01*
X101658360Y-83393788D01*
X101497002Y-83476006D01*
X101350505Y-83582441D01*
X101350500Y-83582445D01*
X101222445Y-83710500D01*
X101222441Y-83710505D01*
X101116006Y-83857002D01*
X101033788Y-84018360D01*
X101033787Y-84018363D01*
X100977829Y-84190589D01*
X100952473Y-84350678D01*
X100922544Y-84413813D01*
X100863232Y-84450744D01*
X100793369Y-84449746D01*
X100735137Y-84411136D01*
X100707527Y-84350678D01*
X100683461Y-84198737D01*
X100682171Y-84190591D01*
X100638530Y-84056275D01*
X100626212Y-84018363D01*
X100626211Y-84018360D01*
X100587191Y-83941780D01*
X100543996Y-83857006D01*
X100530197Y-83838013D01*
X100437558Y-83710505D01*
X100437554Y-83710500D01*
X100309499Y-83582445D01*
X100309494Y-83582441D01*
X100162997Y-83476006D01*
X100162996Y-83476005D01*
X100162994Y-83476004D01*
X100111300Y-83449664D01*
X100001639Y-83393788D01*
X100001636Y-83393787D01*
X99829410Y-83337829D01*
X99650551Y-83309500D01*
X99650546Y-83309500D01*
X99469454Y-83309500D01*
X99469449Y-83309500D01*
X99290589Y-83337829D01*
X99118363Y-83393787D01*
X99118360Y-83393788D01*
X98957002Y-83476006D01*
X98810505Y-83582441D01*
X98810500Y-83582445D01*
X98682445Y-83710500D01*
X98682441Y-83710505D01*
X98576006Y-83857002D01*
X98493788Y-84018360D01*
X98493787Y-84018363D01*
X98437829Y-84190589D01*
X98412473Y-84350678D01*
X98382544Y-84413813D01*
X98323232Y-84450744D01*
X98253369Y-84449746D01*
X98195137Y-84411136D01*
X98167527Y-84350678D01*
X98143461Y-84198737D01*
X98142171Y-84190591D01*
X98098530Y-84056275D01*
X98086212Y-84018363D01*
X98086211Y-84018360D01*
X98047191Y-83941780D01*
X98003996Y-83857006D01*
X97990197Y-83838013D01*
X97897558Y-83710505D01*
X97897554Y-83710500D01*
X97769499Y-83582445D01*
X97769494Y-83582441D01*
X97622997Y-83476006D01*
X97622996Y-83476005D01*
X97622994Y-83476004D01*
X97571300Y-83449664D01*
X97461639Y-83393788D01*
X97461636Y-83393787D01*
X97289410Y-83337829D01*
X97110551Y-83309500D01*
X97110546Y-83309500D01*
X96929454Y-83309500D01*
X96929449Y-83309500D01*
X96750589Y-83337829D01*
X96578363Y-83393787D01*
X96578360Y-83393788D01*
X96417002Y-83476006D01*
X96270505Y-83582441D01*
X96270500Y-83582445D01*
X96142445Y-83710500D01*
X96142441Y-83710505D01*
X96036006Y-83857002D01*
X95953788Y-84018360D01*
X95953787Y-84018363D01*
X95897829Y-84190589D01*
X95872473Y-84350678D01*
X95842544Y-84413813D01*
X95783232Y-84450744D01*
X95713369Y-84449746D01*
X95655137Y-84411136D01*
X95627527Y-84350678D01*
X95603461Y-84198737D01*
X95602171Y-84190591D01*
X95558530Y-84056275D01*
X95546212Y-84018363D01*
X95546211Y-84018360D01*
X95507191Y-83941780D01*
X95463996Y-83857006D01*
X95450197Y-83838013D01*
X95357558Y-83710505D01*
X95357554Y-83710500D01*
X95229499Y-83582445D01*
X95229494Y-83582441D01*
X95082997Y-83476006D01*
X95082996Y-83476005D01*
X95082994Y-83476004D01*
X95031300Y-83449664D01*
X94921639Y-83393788D01*
X94921636Y-83393787D01*
X94886182Y-83382268D01*
X94828506Y-83342831D01*
X94801308Y-83278472D01*
X94800500Y-83264337D01*
X94800500Y-77289060D01*
X94800501Y-77289047D01*
X94800501Y-77120944D01*
X94796260Y-77105117D01*
X94759577Y-76968216D01*
X94743580Y-76940508D01*
X94680524Y-76831290D01*
X94680518Y-76831282D01*
X92706238Y-74857002D01*
X90661415Y-72812180D01*
X90627931Y-72750858D01*
X90632915Y-72681166D01*
X90674787Y-72625233D01*
X90740251Y-72600816D01*
X90749097Y-72600500D01*
X99413331Y-72600500D01*
X99413347Y-72600501D01*
X99420943Y-72600501D01*
X99579054Y-72600501D01*
X99579057Y-72600501D01*
X99731785Y-72559577D01*
X99781904Y-72530639D01*
X99868716Y-72480520D01*
X99980520Y-72368716D01*
X99980520Y-72368714D01*
X99990728Y-72358507D01*
X99990729Y-72358504D01*
X100951552Y-71397682D01*
X108700000Y-71397682D01*
X108700000Y-71602317D01*
X108732009Y-71804417D01*
X108795244Y-71999031D01*
X108888141Y-72181350D01*
X108888147Y-72181359D01*
X108920523Y-72225921D01*
X108920524Y-72225922D01*
X109600000Y-71546446D01*
X109600000Y-71552661D01*
X109627259Y-71654394D01*
X109679920Y-71745606D01*
X109754394Y-71820080D01*
X109845606Y-71872741D01*
X109947339Y-71900000D01*
X109953553Y-71900000D01*
X109274076Y-72579474D01*
X109318650Y-72611859D01*
X109500968Y-72704755D01*
X109695582Y-72767990D01*
X109897683Y-72800000D01*
X110102317Y-72800000D01*
X110304417Y-72767990D01*
X110499031Y-72704755D01*
X110681349Y-72611859D01*
X110725921Y-72579474D01*
X110046447Y-71900000D01*
X110052661Y-71900000D01*
X110154394Y-71872741D01*
X110245606Y-71820080D01*
X110320080Y-71745606D01*
X110372741Y-71654394D01*
X110400000Y-71552661D01*
X110400000Y-71546447D01*
X111079474Y-72225921D01*
X111111859Y-72181349D01*
X111204755Y-71999031D01*
X111267990Y-71804417D01*
X111297339Y-71619119D01*
X111297339Y-71619118D01*
X111300000Y-71602318D01*
X111300000Y-71397682D01*
X111267990Y-71195582D01*
X111204755Y-71000968D01*
X111111859Y-70818650D01*
X111079474Y-70774077D01*
X111079474Y-70774076D01*
X110400000Y-71453551D01*
X110400000Y-71447339D01*
X110372741Y-71345606D01*
X110320080Y-71254394D01*
X110245606Y-71179920D01*
X110154394Y-71127259D01*
X110052661Y-71100000D01*
X110046446Y-71100000D01*
X110725922Y-70420524D01*
X110725921Y-70420523D01*
X110681359Y-70388147D01*
X110681350Y-70388141D01*
X110499031Y-70295244D01*
X110304417Y-70232009D01*
X110102317Y-70200000D01*
X109897683Y-70200000D01*
X109695582Y-70232009D01*
X109500968Y-70295244D01*
X109318644Y-70388143D01*
X109274077Y-70420523D01*
X109274077Y-70420524D01*
X109953554Y-71100000D01*
X109947339Y-71100000D01*
X109845606Y-71127259D01*
X109754394Y-71179920D01*
X109679920Y-71254394D01*
X109627259Y-71345606D01*
X109600000Y-71447339D01*
X109600000Y-71453553D01*
X108920524Y-70774077D01*
X108920523Y-70774077D01*
X108888143Y-70818644D01*
X108795244Y-71000968D01*
X108732009Y-71195582D01*
X108700000Y-71397682D01*
X100951552Y-71397682D01*
X103245846Y-69103389D01*
X114399500Y-69103389D01*
X114399500Y-69276611D01*
X114426598Y-69447701D01*
X114480127Y-69612445D01*
X114558768Y-69766788D01*
X114660586Y-69906928D01*
X114783072Y-70029414D01*
X114923212Y-70131232D01*
X115077555Y-70209873D01*
X115242299Y-70263402D01*
X115413389Y-70290500D01*
X115413390Y-70290500D01*
X115586610Y-70290500D01*
X115586611Y-70290500D01*
X115757701Y-70263402D01*
X115922445Y-70209873D01*
X116076788Y-70131232D01*
X116216928Y-70029414D01*
X116339414Y-69906928D01*
X116441232Y-69766788D01*
X116519873Y-69612445D01*
X116573402Y-69447701D01*
X116600500Y-69276611D01*
X116600500Y-69103389D01*
X116573402Y-68932299D01*
X116519873Y-68767555D01*
X116441232Y-68613212D01*
X116339414Y-68473072D01*
X116216928Y-68350586D01*
X116076788Y-68248768D01*
X115922445Y-68170127D01*
X115757701Y-68116598D01*
X115757699Y-68116597D01*
X115757698Y-68116597D01*
X115626271Y-68095781D01*
X115586611Y-68089500D01*
X115413389Y-68089500D01*
X115373728Y-68095781D01*
X115242302Y-68116597D01*
X115077552Y-68170128D01*
X114923211Y-68248768D01*
X114843256Y-68306859D01*
X114783072Y-68350586D01*
X114783070Y-68350588D01*
X114783069Y-68350588D01*
X114660588Y-68473069D01*
X114660588Y-68473070D01*
X114660586Y-68473072D01*
X114616859Y-68533256D01*
X114558768Y-68613211D01*
X114480128Y-68767552D01*
X114426597Y-68932302D01*
X114414159Y-69010836D01*
X114399500Y-69103389D01*
X103245846Y-69103389D01*
X105480520Y-66868716D01*
X105480520Y-66868714D01*
X105490724Y-66858511D01*
X105490727Y-66858506D01*
X107230520Y-65118716D01*
X107309577Y-64981784D01*
X107350501Y-64829057D01*
X107350501Y-64670942D01*
X107350501Y-64663347D01*
X107350500Y-64663329D01*
X107350500Y-64472596D01*
X107370185Y-64405557D01*
X107401614Y-64372278D01*
X107405403Y-64369524D01*
X107405405Y-64369524D01*
X107564646Y-64253828D01*
X107703828Y-64114646D01*
X107819524Y-63955405D01*
X107908884Y-63780025D01*
X107969709Y-63592826D01*
X107982355Y-63512982D01*
X108000500Y-63398422D01*
X108000500Y-63201578D01*
X107980542Y-63075571D01*
X107969709Y-63007174D01*
X107969707Y-63007168D01*
X107968975Y-63002546D01*
X107977929Y-62933252D01*
X108003764Y-62895469D01*
X109868713Y-61030521D01*
X109868716Y-61030520D01*
X109980520Y-60918716D01*
X110030639Y-60831904D01*
X110059577Y-60781785D01*
X110100500Y-60629058D01*
X110100500Y-60470943D01*
X110100500Y-56897682D01*
X112200000Y-56897682D01*
X112200000Y-57102317D01*
X112232009Y-57304417D01*
X112295244Y-57499031D01*
X112388141Y-57681350D01*
X112388147Y-57681359D01*
X112420523Y-57725921D01*
X112420524Y-57725922D01*
X113100000Y-57046446D01*
X113100000Y-57052661D01*
X113127259Y-57154394D01*
X113179920Y-57245606D01*
X113254394Y-57320080D01*
X113345606Y-57372741D01*
X113447339Y-57400000D01*
X113453553Y-57400000D01*
X112774076Y-58079474D01*
X112818650Y-58111859D01*
X113000968Y-58204755D01*
X113195582Y-58267990D01*
X113397683Y-58300000D01*
X113602317Y-58300000D01*
X113804417Y-58267990D01*
X113999031Y-58204755D01*
X114181349Y-58111859D01*
X114225921Y-58079474D01*
X113546447Y-57400000D01*
X113552661Y-57400000D01*
X113654394Y-57372741D01*
X113745606Y-57320080D01*
X113820080Y-57245606D01*
X113872741Y-57154394D01*
X113900000Y-57052661D01*
X113900000Y-57046447D01*
X114579474Y-57725921D01*
X114611859Y-57681349D01*
X114704755Y-57499031D01*
X114767990Y-57304417D01*
X114800000Y-57102317D01*
X114800000Y-56897682D01*
X114767990Y-56695582D01*
X114704755Y-56500968D01*
X114611859Y-56318650D01*
X114579474Y-56274077D01*
X114579474Y-56274076D01*
X113900000Y-56953551D01*
X113900000Y-56947339D01*
X113872741Y-56845606D01*
X113820080Y-56754394D01*
X113745606Y-56679920D01*
X113654394Y-56627259D01*
X113552661Y-56600000D01*
X113546446Y-56600000D01*
X114225922Y-55920524D01*
X114225921Y-55920523D01*
X114181359Y-55888147D01*
X114181350Y-55888141D01*
X113999031Y-55795244D01*
X113804417Y-55732009D01*
X113602317Y-55700000D01*
X113397683Y-55700000D01*
X113195582Y-55732009D01*
X113000968Y-55795244D01*
X112818644Y-55888143D01*
X112774077Y-55920523D01*
X112774077Y-55920524D01*
X113453554Y-56600000D01*
X113447339Y-56600000D01*
X113345606Y-56627259D01*
X113254394Y-56679920D01*
X113179920Y-56754394D01*
X113127259Y-56845606D01*
X113100000Y-56947339D01*
X113100000Y-56953553D01*
X112420524Y-56274077D01*
X112420523Y-56274077D01*
X112388143Y-56318644D01*
X112295244Y-56500968D01*
X112232009Y-56695582D01*
X112200000Y-56897682D01*
X110100500Y-56897682D01*
X110100500Y-52724500D01*
X110120185Y-52657461D01*
X110172989Y-52611706D01*
X110224500Y-52600500D01*
X112512815Y-52600500D01*
X112579854Y-52620185D01*
X112613131Y-52651612D01*
X112660586Y-52716928D01*
X112783072Y-52839414D01*
X112923212Y-52941232D01*
X113077555Y-53019873D01*
X113242299Y-53073402D01*
X113413389Y-53100500D01*
X113413390Y-53100500D01*
X113586610Y-53100500D01*
X113586611Y-53100500D01*
X113757701Y-53073402D01*
X113922445Y-53019873D01*
X114076788Y-52941232D01*
X114216928Y-52839414D01*
X114339414Y-52716928D01*
X114441232Y-52576788D01*
X114519873Y-52422445D01*
X114573402Y-52257701D01*
X114600500Y-52086611D01*
X114600500Y-51913389D01*
X114573402Y-51742299D01*
X114519873Y-51577555D01*
X114441232Y-51423212D01*
X114339414Y-51283072D01*
X114216928Y-51160586D01*
X114076788Y-51058768D01*
X113922445Y-50980127D01*
X113757701Y-50926598D01*
X113757699Y-50926597D01*
X113757698Y-50926597D01*
X113604062Y-50902264D01*
X113586611Y-50899500D01*
X113413389Y-50899500D01*
X113395938Y-50902264D01*
X113242302Y-50926597D01*
X113077552Y-50980128D01*
X112923211Y-51058768D01*
X112860716Y-51104174D01*
X112783072Y-51160586D01*
X112783070Y-51160588D01*
X112783069Y-51160588D01*
X112660588Y-51283069D01*
X112660588Y-51283070D01*
X112660586Y-51283072D01*
X112613133Y-51348386D01*
X112557803Y-51391051D01*
X112512815Y-51399500D01*
X109420943Y-51399500D01*
X109268216Y-51440423D01*
X109268209Y-51440426D01*
X109131290Y-51519475D01*
X109131282Y-51519481D01*
X109019481Y-51631282D01*
X109019475Y-51631290D01*
X108940426Y-51768209D01*
X108940423Y-51768216D01*
X108899500Y-51920943D01*
X108899500Y-60249902D01*
X108879815Y-60316941D01*
X108863181Y-60337583D01*
X107154532Y-62046231D01*
X107093209Y-62079716D01*
X107047453Y-62081023D01*
X106848422Y-62049500D01*
X106848417Y-62049500D01*
X106651583Y-62049500D01*
X106651578Y-62049500D01*
X106457173Y-62080290D01*
X106269970Y-62141117D01*
X106094594Y-62230476D01*
X106003741Y-62296485D01*
X105935354Y-62346172D01*
X105935352Y-62346174D01*
X105935351Y-62346174D01*
X105796174Y-62485351D01*
X105796174Y-62485352D01*
X105796172Y-62485354D01*
X105746485Y-62553741D01*
X105680476Y-62644594D01*
X105591117Y-62819970D01*
X105530290Y-63007173D01*
X105499500Y-63201577D01*
X105499500Y-63398422D01*
X105530290Y-63592826D01*
X105591117Y-63780029D01*
X105680476Y-63955405D01*
X105796172Y-64114646D01*
X105935354Y-64253828D01*
X106032870Y-64324678D01*
X106085241Y-64362728D01*
X106127906Y-64418059D01*
X106133885Y-64487672D01*
X106101279Y-64549467D01*
X106100036Y-64550727D01*
X104631286Y-66019478D01*
X104631284Y-66019480D01*
X99287584Y-71363181D01*
X99226261Y-71396666D01*
X99199903Y-71399500D01*
X90206239Y-71399500D01*
X90139200Y-71379815D01*
X90093445Y-71327011D01*
X90090885Y-71320990D01*
X90034362Y-71177660D01*
X90034361Y-71177658D01*
X89942922Y-71057077D01*
X89822343Y-70965639D01*
X89681561Y-70910122D01*
X89635926Y-70904642D01*
X89593102Y-70899500D01*
X89593097Y-70899500D01*
X88724501Y-70899500D01*
X88657462Y-70879815D01*
X88611707Y-70827011D01*
X88600501Y-70775500D01*
X88600501Y-70770945D01*
X88600501Y-70770943D01*
X88559577Y-70618215D01*
X88530639Y-70568095D01*
X88480520Y-70481284D01*
X88368716Y-70369480D01*
X88368715Y-70369479D01*
X88364385Y-70365149D01*
X88364374Y-70365139D01*
X73581182Y-55581947D01*
X75750000Y-55581947D01*
X75750000Y-55818052D01*
X75786934Y-56051247D01*
X75859897Y-56275802D01*
X75967087Y-56486174D01*
X76027338Y-56569104D01*
X76027340Y-56569105D01*
X76685387Y-55911058D01*
X76690889Y-55931591D01*
X76769881Y-56068408D01*
X76881592Y-56180119D01*
X77018409Y-56259111D01*
X77038940Y-56264612D01*
X76380893Y-56922658D01*
X76463828Y-56982914D01*
X76674197Y-57090102D01*
X76898752Y-57163065D01*
X76898751Y-57163065D01*
X77131948Y-57200000D01*
X77368052Y-57200000D01*
X77601247Y-57163065D01*
X77825802Y-57090102D01*
X78036163Y-56982918D01*
X78036169Y-56982914D01*
X78119104Y-56922658D01*
X78119105Y-56922658D01*
X77461058Y-56264612D01*
X77481591Y-56259111D01*
X77618408Y-56180119D01*
X77730119Y-56068408D01*
X77809111Y-55931591D01*
X77814612Y-55911059D01*
X78472658Y-56569105D01*
X78472658Y-56569104D01*
X78532914Y-56486169D01*
X78532918Y-56486163D01*
X78640102Y-56275802D01*
X78713065Y-56051247D01*
X78750000Y-55818052D01*
X78750000Y-55581947D01*
X105250000Y-55581947D01*
X105250000Y-55818052D01*
X105286934Y-56051247D01*
X105359897Y-56275802D01*
X105467087Y-56486174D01*
X105527338Y-56569104D01*
X105527340Y-56569105D01*
X106185387Y-55911058D01*
X106190889Y-55931591D01*
X106269881Y-56068408D01*
X106381592Y-56180119D01*
X106518409Y-56259111D01*
X106538940Y-56264612D01*
X105880893Y-56922658D01*
X105963828Y-56982914D01*
X106174197Y-57090102D01*
X106398752Y-57163065D01*
X106398751Y-57163065D01*
X106631948Y-57200000D01*
X106868052Y-57200000D01*
X107101247Y-57163065D01*
X107325802Y-57090102D01*
X107536163Y-56982918D01*
X107536169Y-56982914D01*
X107619104Y-56922658D01*
X107619105Y-56922658D01*
X106961058Y-56264612D01*
X106981591Y-56259111D01*
X107118408Y-56180119D01*
X107230119Y-56068408D01*
X107309111Y-55931591D01*
X107314612Y-55911059D01*
X107972658Y-56569105D01*
X107972658Y-56569104D01*
X108032914Y-56486169D01*
X108032918Y-56486163D01*
X108140102Y-56275802D01*
X108213065Y-56051247D01*
X108250000Y-55818052D01*
X108250000Y-55581947D01*
X108213065Y-55348752D01*
X108140102Y-55124197D01*
X108032914Y-54913828D01*
X107972658Y-54830894D01*
X107972658Y-54830893D01*
X107314612Y-55488940D01*
X107309111Y-55468409D01*
X107230119Y-55331592D01*
X107118408Y-55219881D01*
X106981591Y-55140889D01*
X106961059Y-55135387D01*
X107619105Y-54477340D01*
X107619104Y-54477338D01*
X107536174Y-54417087D01*
X107325802Y-54309897D01*
X107101247Y-54236934D01*
X107101248Y-54236934D01*
X106868052Y-54200000D01*
X106631948Y-54200000D01*
X106398752Y-54236934D01*
X106174197Y-54309897D01*
X105963830Y-54417084D01*
X105880894Y-54477340D01*
X106538941Y-55135387D01*
X106518409Y-55140889D01*
X106381592Y-55219881D01*
X106269881Y-55331592D01*
X106190889Y-55468409D01*
X106185387Y-55488941D01*
X105527340Y-54830894D01*
X105467084Y-54913830D01*
X105359897Y-55124197D01*
X105286934Y-55348752D01*
X105250000Y-55581947D01*
X78750000Y-55581947D01*
X78713065Y-55348752D01*
X78640102Y-55124197D01*
X78532914Y-54913828D01*
X78472658Y-54830894D01*
X78472658Y-54830893D01*
X77814612Y-55488940D01*
X77809111Y-55468409D01*
X77730119Y-55331592D01*
X77618408Y-55219881D01*
X77481591Y-55140889D01*
X77461059Y-55135387D01*
X78119105Y-54477340D01*
X78119104Y-54477339D01*
X78036174Y-54417087D01*
X77825802Y-54309897D01*
X77601247Y-54236934D01*
X77601248Y-54236934D01*
X77368052Y-54200000D01*
X77131948Y-54200000D01*
X76898752Y-54236934D01*
X76674197Y-54309897D01*
X76463830Y-54417084D01*
X76380894Y-54477340D01*
X77038941Y-55135387D01*
X77018409Y-55140889D01*
X76881592Y-55219881D01*
X76769881Y-55331592D01*
X76690889Y-55468409D01*
X76685387Y-55488941D01*
X76027340Y-54830894D01*
X75967084Y-54913830D01*
X75859897Y-55124197D01*
X75786934Y-55348752D01*
X75750000Y-55581947D01*
X73581182Y-55581947D01*
X71436819Y-53437584D01*
X71403334Y-53376261D01*
X71400500Y-53349903D01*
X71400500Y-50975323D01*
X71400499Y-50975321D01*
X71385967Y-50902264D01*
X71385966Y-50902260D01*
X71359729Y-50862993D01*
X71330601Y-50819399D01*
X71247740Y-50764034D01*
X71247739Y-50764033D01*
X71247735Y-50764032D01*
X71174677Y-50749500D01*
X71174674Y-50749500D01*
X68125326Y-50749500D01*
X68125323Y-50749500D01*
X68052264Y-50764032D01*
X68052260Y-50764033D01*
X67969399Y-50819399D01*
X67914033Y-50902260D01*
X67914032Y-50902264D01*
X67899500Y-50975321D01*
X67899500Y-54024678D01*
X67914032Y-54097735D01*
X67914033Y-54097739D01*
X67914034Y-54097740D01*
X67969399Y-54180601D01*
X68052260Y-54235966D01*
X68052264Y-54235967D01*
X68125321Y-54250499D01*
X68125324Y-54250500D01*
X68125326Y-54250500D01*
X70499903Y-54250500D01*
X70566942Y-54270185D01*
X70587584Y-54286819D01*
X78138584Y-61837819D01*
X78172069Y-61899142D01*
X78167085Y-61968834D01*
X78125213Y-62024767D01*
X78059749Y-62049184D01*
X78050903Y-62049500D01*
X76225323Y-62049500D01*
X76152264Y-62064032D01*
X76152260Y-62064033D01*
X76069399Y-62119399D01*
X76014033Y-62202260D01*
X76014032Y-62202264D01*
X75999500Y-62275321D01*
X75999500Y-64324678D01*
X76014032Y-64397735D01*
X76014033Y-64397739D01*
X76014034Y-64397740D01*
X76069399Y-64480601D01*
X76152260Y-64535966D01*
X76152264Y-64535967D01*
X76225321Y-64550499D01*
X76225324Y-64550500D01*
X76225326Y-64550500D01*
X76525500Y-64550500D01*
X76592539Y-64570185D01*
X76638294Y-64622989D01*
X76649500Y-64674500D01*
X76649500Y-70349902D01*
X76629815Y-70416941D01*
X76613181Y-70437583D01*
X72140732Y-74910031D01*
X72133716Y-74916185D01*
X54694802Y-92355098D01*
X54633479Y-92388583D01*
X54563787Y-92383599D01*
X54507854Y-92341727D01*
X54483437Y-92276263D01*
X54484182Y-92251231D01*
X54499999Y-92131094D01*
X54500000Y-92131080D01*
X54500000Y-91868919D01*
X54499999Y-91868905D01*
X54465779Y-91608990D01*
X54465777Y-91608979D01*
X54397924Y-91355744D01*
X54297595Y-91113528D01*
X54297590Y-91113517D01*
X54166511Y-90886483D01*
X54166505Y-90886475D01*
X54079918Y-90773633D01*
X54079917Y-90773633D01*
X53177578Y-91675974D01*
X53164641Y-91644742D01*
X53082563Y-91521903D01*
X52978097Y-91417437D01*
X52855258Y-91335359D01*
X52824023Y-91322421D01*
X53726365Y-90420080D01*
X53613524Y-90333494D01*
X53613516Y-90333488D01*
X53386482Y-90202409D01*
X53386471Y-90202404D01*
X53144255Y-90102075D01*
X52891020Y-90034222D01*
X52891009Y-90034220D01*
X52631094Y-90000000D01*
X52368905Y-90000000D01*
X52108990Y-90034220D01*
X52108979Y-90034222D01*
X51855744Y-90102075D01*
X51613528Y-90202404D01*
X51613517Y-90202409D01*
X51386471Y-90333496D01*
X51273633Y-90420079D01*
X51273633Y-90420080D01*
X52175974Y-91322421D01*
X52144742Y-91335359D01*
X52021903Y-91417437D01*
X51917437Y-91521903D01*
X51835359Y-91644742D01*
X51822421Y-91675974D01*
X50920080Y-90773633D01*
X50920079Y-90773633D01*
X50833498Y-90886468D01*
X50731887Y-91062462D01*
X50681319Y-91110677D01*
X50612712Y-91123899D01*
X50547848Y-91097931D01*
X50507320Y-91041017D01*
X50500500Y-91000461D01*
X50500500Y-53499538D01*
X50520185Y-53432499D01*
X50572989Y-53386744D01*
X50642147Y-53376800D01*
X50705703Y-53405825D01*
X50731887Y-53437538D01*
X50833488Y-53613516D01*
X50833494Y-53613524D01*
X50920080Y-53726365D01*
X51822421Y-52824024D01*
X51835359Y-52855258D01*
X51917437Y-52978097D01*
X52021903Y-53082563D01*
X52144742Y-53164641D01*
X52175974Y-53177577D01*
X51273633Y-54079917D01*
X51273633Y-54079918D01*
X51386475Y-54166505D01*
X51386483Y-54166511D01*
X51613517Y-54297590D01*
X51613528Y-54297595D01*
X51855744Y-54397924D01*
X52108979Y-54465777D01*
X52108990Y-54465779D01*
X52368905Y-54499999D01*
X52368920Y-54500000D01*
X52631080Y-54500000D01*
X52631094Y-54499999D01*
X52891009Y-54465779D01*
X52891020Y-54465777D01*
X53144255Y-54397924D01*
X53386471Y-54297595D01*
X53386482Y-54297590D01*
X53613516Y-54166511D01*
X53613534Y-54166499D01*
X53726365Y-54079919D01*
X53726365Y-54079917D01*
X52824025Y-53177578D01*
X52855258Y-53164641D01*
X52978097Y-53082563D01*
X53082563Y-52978097D01*
X53164641Y-52855258D01*
X53177577Y-52824025D01*
X54079917Y-53726365D01*
X54079919Y-53726365D01*
X54166499Y-53613534D01*
X54166511Y-53613516D01*
X54297590Y-53386482D01*
X54297595Y-53386471D01*
X54397924Y-53144255D01*
X54465777Y-52891020D01*
X54465779Y-52891009D01*
X54499999Y-52631094D01*
X54500000Y-52631080D01*
X54500000Y-52368919D01*
X54499999Y-52368905D01*
X54465779Y-52108990D01*
X54465777Y-52108979D01*
X54397924Y-51855744D01*
X54297595Y-51613528D01*
X54297590Y-51613517D01*
X54166511Y-51386483D01*
X54166505Y-51386475D01*
X54079918Y-51273633D01*
X54079917Y-51273633D01*
X53177577Y-52175973D01*
X53164641Y-52144742D01*
X53082563Y-52021903D01*
X52978097Y-51917437D01*
X52855258Y-51835359D01*
X52824023Y-51822421D01*
X53726365Y-50920080D01*
X53613524Y-50833494D01*
X53613516Y-50833488D01*
X53437538Y-50731887D01*
X53389322Y-50681320D01*
X53376100Y-50612713D01*
X53402068Y-50547848D01*
X53458982Y-50507320D01*
X53499538Y-50500500D01*
X127327387Y-50500500D01*
X127394426Y-50520185D01*
G37*
G04 #@! TD.AperFunction*
G04 #@! TA.AperFunction,Conductor*
G36*
X51567501Y-50520185D02*
G01*
X51613256Y-50572989D01*
X51623200Y-50642147D01*
X51594175Y-50705703D01*
X51562462Y-50731887D01*
X51386471Y-50833496D01*
X51273633Y-50920079D01*
X51273633Y-50920080D01*
X52175974Y-51822421D01*
X52144742Y-51835359D01*
X52021903Y-51917437D01*
X51917437Y-52021903D01*
X51835359Y-52144742D01*
X51822421Y-52175974D01*
X50920080Y-51273633D01*
X50920079Y-51273633D01*
X50833498Y-51386468D01*
X50731887Y-51562462D01*
X50681319Y-51610677D01*
X50612712Y-51623899D01*
X50547848Y-51597931D01*
X50507320Y-51541017D01*
X50500500Y-51500461D01*
X50500500Y-50624500D01*
X50520185Y-50557461D01*
X50572989Y-50511706D01*
X50624500Y-50500500D01*
X51500462Y-50500500D01*
X51567501Y-50520185D01*
G37*
G04 #@! TD.AperFunction*
G04 #@! TD*
M02*
