%TF.GenerationSoftware,KiCad,Pcbnew,10.0.3*%
%TF.CreationDate,2026-09-19T02:37:33+05:30*%
%TF.ProjectId,fall_sensor,66616c6c-5f73-4656-9e73-6f722e6b6963,rev?*%
%TF.SameCoordinates,Original*%
%TF.FileFunction,Soldermask,Bot*%
%TF.FilePolarity,Negative*%
%FSLAX46Y46*%
G04 Gerber Fmt 4.6, Leading zero omitted, Abs format (unit mm)*
G04 Created by KiCad (PCBNEW 10.0.3) date 2026-09-19 02:37:33*
%MOMM*%
%LPD*%
G01*
G04 APERTURE LIST*
G04 Aperture macros list*
%AMRoundRect*
0 Rectangle with rounded corners*
0 $1 Rounding radius*
0 $2 $3 $4 $5 $6 $7 $8 $9 X,Y pos of 4 corners*
0 Add a 4 corners polygon primitive as box body*
4,1,4,$2,$3,$4,$5,$6,$7,$8,$9,$2,$3,0*
0 Add four circle primitives for the rounded corners*
1,1,$1+$1,$2,$3*
1,1,$1+$1,$4,$5*
1,1,$1+$1,$6,$7*
1,1,$1+$1,$8,$9*
0 Add four rect primitives between the rounded corners*
20,1,$1+$1,$2,$3,$4,$5,0*
20,1,$1+$1,$4,$5,$6,$7,0*
20,1,$1+$1,$6,$7,$8,$9,0*
20,1,$1+$1,$8,$9,$2,$3,0*%
G04 Aperture macros list end*
%ADD10C,1.600000*%
%ADD11R,1.700000X1.700000*%
%ADD12C,1.700000*%
%ADD13R,3.000000X3.000000*%
%ADD14C,3.000000*%
%ADD15R,1.880000X1.880000*%
%ADD16C,1.880000*%
%ADD17R,2.000000X2.000000*%
%ADD18C,2.000000*%
%ADD19RoundRect,0.250000X-0.550000X0.550000X-0.550000X-0.550000X0.550000X-0.550000X0.550000X0.550000X0*%
%ADD20R,1.800000X1.800000*%
%ADD21C,1.800000*%
G04 APERTURE END LIST*
D10*
%TO.C,R2*%
X92920000Y-126000000D03*
X103080000Y-126000000D03*
%TD*%
%TO.C,C4*%
X113500000Y-52000000D03*
X113500000Y-57000000D03*
%TD*%
D11*
%TO.C,U1*%
X127500000Y-109860000D03*
D12*
X124960000Y-109860000D03*
X122420000Y-109860000D03*
X119880000Y-109860000D03*
X117340000Y-109860000D03*
X114800000Y-109860000D03*
X112260000Y-109860000D03*
X109720000Y-109860000D03*
X107180000Y-109860000D03*
X104640000Y-109860000D03*
X102100000Y-109860000D03*
X99560000Y-109860000D03*
X97020000Y-109860000D03*
X94480000Y-109860000D03*
X91940000Y-109860000D03*
X127500000Y-84460000D03*
X124960000Y-84460000D03*
X122420000Y-84460000D03*
X119880000Y-84460000D03*
X117340000Y-84460000D03*
X114800000Y-84460000D03*
X112260000Y-84460000D03*
X109720000Y-84460000D03*
X107180000Y-84460000D03*
X104640000Y-84460000D03*
X102100000Y-84460000D03*
X99560000Y-84460000D03*
X97020000Y-84460000D03*
X94480000Y-84460000D03*
X91940000Y-84460000D03*
%TD*%
D13*
%TO.C,U7*%
X69650000Y-52500000D03*
D14*
X52500000Y-52500000D03*
X69650000Y-92000000D03*
X52500000Y-92000000D03*
%TD*%
D15*
%TO.C,U2*%
X82920000Y-111800000D03*
D16*
X82920000Y-114340000D03*
X82920000Y-116880000D03*
X82920000Y-119420000D03*
X82920000Y-121960000D03*
X82920000Y-124500000D03*
X72630000Y-127000000D03*
X75170000Y-127000000D03*
D15*
X70090000Y-127000000D03*
%TD*%
D11*
%TO.C,SW2*%
X52500000Y-114500000D03*
D12*
X52500000Y-117040000D03*
%TD*%
D17*
%TO.C,U3*%
X77250000Y-63300000D03*
D18*
X77250000Y-55700000D03*
X106750000Y-63300000D03*
X106750000Y-55700000D03*
%TD*%
D12*
%TO.C,U4*%
X76000000Y-98540000D03*
X76000000Y-107460000D03*
D11*
X76000000Y-96000000D03*
D12*
X76000000Y-110000000D03*
%TD*%
D11*
%TO.C,BT1*%
X78000000Y-78000000D03*
D12*
X78000000Y-75460000D03*
%TD*%
D10*
%TO.C,R3*%
X138500000Y-106660000D03*
X138500000Y-96500000D03*
%TD*%
%TO.C,C1*%
X83500000Y-88000000D03*
X83500000Y-93000000D03*
%TD*%
D19*
%TO.C,C3*%
X89000000Y-72000000D03*
D10*
X89000000Y-75500000D03*
%TD*%
D11*
%TO.C,RADAR1*%
X141500000Y-112000000D03*
D12*
X141500000Y-114540000D03*
X141500000Y-117080000D03*
X141500000Y-119620000D03*
X141500000Y-122160000D03*
X141500000Y-124700000D03*
%TD*%
D20*
%TO.C,D1*%
X142500000Y-89000000D03*
D21*
X142500000Y-91540000D03*
%TD*%
D11*
%TO.C,U5*%
X115500000Y-76810000D03*
D12*
X115500000Y-74270000D03*
X115500000Y-71730000D03*
X115500000Y-69190000D03*
%TD*%
D18*
%TO.C,SW1*%
X107250000Y-121250000D03*
X113750000Y-121250000D03*
X107250000Y-125750000D03*
X113750000Y-125750000D03*
%TD*%
D11*
%TO.C,PIR1*%
X128699999Y-57150000D03*
D12*
X128699999Y-54610000D03*
X128699999Y-52070000D03*
%TD*%
D10*
%TO.C,C7*%
X110000000Y-76500000D03*
X110000000Y-71500000D03*
%TD*%
%TO.C,R1*%
X93000000Y-121500000D03*
X103160000Y-121500000D03*
%TD*%
%TO.C,C8*%
X120000000Y-54500000D03*
X120000000Y-59500000D03*
%TD*%
M02*
