G04 #@! TF.GenerationSoftware,KiCad,Pcbnew,10.0.3*
G04 #@! TF.CreationDate,2026-09-19T00:45:16+05:30*
G04 #@! TF.ProjectId,fall_sensor,66616c6c-5f73-4656-9e73-6f722e6b6963,rev?*
G04 #@! TF.SameCoordinates,Original*
G04 #@! TF.FileFunction,Other,User*
%FSLAX46Y46*%
G04 Gerber Fmt 4.6, Leading zero omitted, Abs format (unit mm)*
G04 Created by KiCad (PCBNEW 10.0.3) date 2026-09-19 00:45:16*
%MOMM*%
%LPD*%
G01*
G04 APERTURE LIST*
%ADD10C,0.050000*%
G04 APERTURE END LIST*
G04 #@! TO.C,R2*
D10*
X91870000Y-124500000D02*
X104130000Y-124500000D01*
X104130000Y-127500000D01*
X91870000Y-127500000D01*
X91870000Y-124500000D01*
G04 #@! TO.C,C4*
X112000000Y-50950000D02*
X115000000Y-50950000D01*
X115000000Y-58050000D01*
X112000000Y-58050000D01*
X112000000Y-50950000D01*
G04 #@! TO.C,U7*
X50280000Y-50410000D02*
X71870000Y-50410000D01*
X50280000Y-94090000D02*
X50280000Y-50410000D01*
X71870000Y-50410000D02*
X71870000Y-94090000D01*
X71870000Y-94090000D02*
X50280000Y-94090000D01*
G04 #@! TO.C,U2*
X57670000Y-112750000D02*
X66670000Y-112750000D01*
X57670000Y-125750000D02*
X57670000Y-112750000D01*
X66670000Y-109250000D02*
X85170000Y-109250000D01*
X66670000Y-112750000D02*
X66670000Y-109250000D01*
X66670000Y-125750000D02*
X57670000Y-125750000D01*
X66670000Y-129250000D02*
X66670000Y-125750000D01*
X85170000Y-109250000D02*
X85170000Y-129250000D01*
X85170000Y-129250000D02*
X66670000Y-129250000D01*
G04 #@! TO.C,SW2*
X50730000Y-112730000D02*
X54270000Y-112730000D01*
X54270000Y-118820000D01*
X50730000Y-118820000D01*
X50730000Y-112730000D01*
G04 #@! TO.C,BT1*
X76230000Y-73680000D02*
X79770000Y-73680000D01*
X79770000Y-79770000D01*
X76230000Y-79770000D01*
X76230000Y-73680000D01*
G04 #@! TO.C,R3*
X137000000Y-95450000D02*
X140000000Y-95450000D01*
X140000000Y-107710000D01*
X137000000Y-107710000D01*
X137000000Y-95450000D01*
G04 #@! TO.C,C1*
X82000000Y-86950000D02*
X85000000Y-86950000D01*
X85000000Y-94050000D01*
X82000000Y-94050000D01*
X82000000Y-86950000D01*
G04 #@! TO.C,C3*
X93250000Y-73750000D02*
G75*
G02*
X84750000Y-73750000I-4250000J0D01*
G01*
X84750000Y-73750000D02*
G75*
G02*
X93250000Y-73750000I4250000J0D01*
G01*
G04 #@! TO.C,RADAR1*
X-2500000Y4500000D02*
X20500000Y4500000D01*
X-2500000Y-18500000D02*
X-2500000Y4500000D01*
X20500000Y4500000D02*
X20500000Y-18500000D01*
X20500000Y-18500000D02*
X-2500000Y-18500000D01*
G04 #@! TO.C,D1*
X141350000Y-86790000D02*
X146190000Y-86790000D01*
X146190000Y-91210000D01*
X141350000Y-91210000D01*
X141350000Y-86790000D01*
G04 #@! TO.C,SW1*
X105750000Y-119750000D02*
X106000000Y-119750000D01*
X105750000Y-120000000D02*
X105750000Y-119750000D01*
X105750000Y-127000000D02*
X105750000Y-120000000D01*
X105750000Y-127000000D02*
X105750000Y-127250000D01*
X105750000Y-127250000D02*
X106000000Y-127250000D01*
X106000000Y-119750000D02*
X115000000Y-119750000D01*
X115000000Y-119750000D02*
X115250000Y-119750000D01*
X115000000Y-127250000D02*
X106000000Y-127250000D01*
X115000000Y-127250000D02*
X115250000Y-127250000D01*
X115250000Y-119750000D02*
X115250000Y-120000000D01*
X115250000Y-120000000D02*
X115250000Y-127000000D01*
X115250000Y-127250000D02*
X115250000Y-127000000D01*
G04 #@! TO.C,U6*
X119312500Y-118950000D02*
X120312500Y-118950000D01*
X119312500Y-121950000D02*
X119312500Y-118950000D01*
X120312500Y-118750000D02*
X122412500Y-118750000D01*
X120312500Y-118950000D02*
X120312500Y-118750000D01*
X120312500Y-121950000D02*
X119312500Y-121950000D01*
X120312500Y-122150000D02*
X120312500Y-121950000D01*
X122412500Y-118750000D02*
X122412500Y-118950000D01*
X122412500Y-118950000D02*
X123412500Y-118950000D01*
X122412500Y-121950000D02*
X122412500Y-122150000D01*
X122412500Y-122150000D02*
X120312500Y-122150000D01*
X123412500Y-118950000D02*
X123412500Y-121950000D01*
X123412500Y-121950000D02*
X122412500Y-121950000D01*
G04 #@! TO.C,C7*
X108500000Y-70450000D02*
X111500000Y-70450000D01*
X111500000Y-77550000D01*
X108500000Y-77550000D01*
X108500000Y-70450000D01*
G04 #@! TO.C,R1*
X91950000Y-120000000D02*
X104210000Y-120000000D01*
X104210000Y-123000000D01*
X91950000Y-123000000D01*
X91950000Y-120000000D01*
G04 #@! TD*
M02*
