%TF.GenerationSoftware,KiCad,Pcbnew,10.0.3*%
%TF.CreationDate,2026-08-11T00:17:46+05:30*%
%TF.ProjectId,fall_sensor,66616c6c-5f73-4656-9e73-6f722e6b6963,rev?*%
%TF.SameCoordinates,Original*%
%TF.FileFunction,Legend,Bot*%
%TF.FilePolarity,Positive*%
%FSLAX46Y46*%
G04 Gerber Fmt 4.6, Leading zero omitted, Abs format (unit mm)*
G04 Created by KiCad (PCBNEW 10.0.3) date 2026-08-11 00:17:46*
%MOMM*%
%LPD*%
G01*
G04 APERTURE LIST*
%ADD10C,0.150000*%
%ADD11C,0.120000*%
G04 APERTURE END LIST*
D10*
X117859580Y-56833333D02*
X117907200Y-56785714D01*
X117907200Y-56785714D02*
X117954819Y-56642857D01*
X117954819Y-56642857D02*
X117954819Y-56547619D01*
X117954819Y-56547619D02*
X117907200Y-56404762D01*
X117907200Y-56404762D02*
X117811961Y-56309524D01*
X117811961Y-56309524D02*
X117716723Y-56261905D01*
X117716723Y-56261905D02*
X117526247Y-56214286D01*
X117526247Y-56214286D02*
X117383390Y-56214286D01*
X117383390Y-56214286D02*
X117192914Y-56261905D01*
X117192914Y-56261905D02*
X117097676Y-56309524D01*
X117097676Y-56309524D02*
X117002438Y-56404762D01*
X117002438Y-56404762D02*
X116954819Y-56547619D01*
X116954819Y-56547619D02*
X116954819Y-56642857D01*
X116954819Y-56642857D02*
X117002438Y-56785714D01*
X117002438Y-56785714D02*
X117050057Y-56833333D01*
X117383390Y-57404762D02*
X117335771Y-57309524D01*
X117335771Y-57309524D02*
X117288152Y-57261905D01*
X117288152Y-57261905D02*
X117192914Y-57214286D01*
X117192914Y-57214286D02*
X117145295Y-57214286D01*
X117145295Y-57214286D02*
X117050057Y-57261905D01*
X117050057Y-57261905D02*
X117002438Y-57309524D01*
X117002438Y-57309524D02*
X116954819Y-57404762D01*
X116954819Y-57404762D02*
X116954819Y-57595238D01*
X116954819Y-57595238D02*
X117002438Y-57690476D01*
X117002438Y-57690476D02*
X117050057Y-57738095D01*
X117050057Y-57738095D02*
X117145295Y-57785714D01*
X117145295Y-57785714D02*
X117192914Y-57785714D01*
X117192914Y-57785714D02*
X117288152Y-57738095D01*
X117288152Y-57738095D02*
X117335771Y-57690476D01*
X117335771Y-57690476D02*
X117383390Y-57595238D01*
X117383390Y-57595238D02*
X117383390Y-57404762D01*
X117383390Y-57404762D02*
X117431009Y-57309524D01*
X117431009Y-57309524D02*
X117478628Y-57261905D01*
X117478628Y-57261905D02*
X117573866Y-57214286D01*
X117573866Y-57214286D02*
X117764342Y-57214286D01*
X117764342Y-57214286D02*
X117859580Y-57261905D01*
X117859580Y-57261905D02*
X117907200Y-57309524D01*
X117907200Y-57309524D02*
X117954819Y-57404762D01*
X117954819Y-57404762D02*
X117954819Y-57595238D01*
X117954819Y-57595238D02*
X117907200Y-57690476D01*
X117907200Y-57690476D02*
X117859580Y-57738095D01*
X117859580Y-57738095D02*
X117764342Y-57785714D01*
X117764342Y-57785714D02*
X117573866Y-57785714D01*
X117573866Y-57785714D02*
X117478628Y-57738095D01*
X117478628Y-57738095D02*
X117431009Y-57690476D01*
X117431009Y-57690476D02*
X117383390Y-57595238D01*
%TO.C,C8*%
D11*
X118630000Y-54380000D02*
X118630000Y-59620000D01*
X118630000Y-59620000D02*
X118967000Y-59620000D01*
X118967000Y-54380000D02*
X118630000Y-54380000D01*
X121033000Y-59620000D02*
X121370000Y-59620000D01*
X121370000Y-54380000D02*
X121033000Y-54380000D01*
X121370000Y-59620000D02*
X121370000Y-54380000D01*
%TD*%
M02*
