%TF.GenerationSoftware,KiCad,Pcbnew,10.0.3*%
%TF.CreationDate,2026-08-11T00:17:46+05:30*%
%TF.ProjectId,fall_sensor,66616c6c-5f73-4656-9e73-6f722e6b6963,rev?*%
%TF.SameCoordinates,Original*%
%TF.FileFunction,Legend,Top*%
%TF.FilePolarity,Positive*%
%FSLAX46Y46*%
G04 Gerber Fmt 4.6, Leading zero omitted, Abs format (unit mm)*
G04 Created by KiCad (PCBNEW 10.0.3) date 2026-08-11 00:17:46*
%MOMM*%
%LPD*%
G01*
G04 APERTURE LIST*
%ADD10C,0.150000*%
%ADD11C,0.120000*%
G04 APERTURE END LIST*
D10*
X89109580Y-89916666D02*
X89157200Y-89964285D01*
X89157200Y-89964285D02*
X89204819Y-90107142D01*
X89204819Y-90107142D02*
X89204819Y-90202380D01*
X89204819Y-90202380D02*
X89157200Y-90345237D01*
X89157200Y-90345237D02*
X89061961Y-90440475D01*
X89061961Y-90440475D02*
X88966723Y-90488094D01*
X88966723Y-90488094D02*
X88776247Y-90535713D01*
X88776247Y-90535713D02*
X88633390Y-90535713D01*
X88633390Y-90535713D02*
X88442914Y-90488094D01*
X88442914Y-90488094D02*
X88347676Y-90440475D01*
X88347676Y-90440475D02*
X88252438Y-90345237D01*
X88252438Y-90345237D02*
X88204819Y-90202380D01*
X88204819Y-90202380D02*
X88204819Y-90107142D01*
X88204819Y-90107142D02*
X88252438Y-89964285D01*
X88252438Y-89964285D02*
X88300057Y-89916666D01*
X89204819Y-88964285D02*
X89204819Y-89535713D01*
X89204819Y-89249999D02*
X88204819Y-89249999D01*
X88204819Y-89249999D02*
X88347676Y-89345237D01*
X88347676Y-89345237D02*
X88442914Y-89440475D01*
X88442914Y-89440475D02*
X88490533Y-89535713D01*
X95609580Y-74666666D02*
X95657200Y-74714285D01*
X95657200Y-74714285D02*
X95704819Y-74857142D01*
X95704819Y-74857142D02*
X95704819Y-74952380D01*
X95704819Y-74952380D02*
X95657200Y-75095237D01*
X95657200Y-75095237D02*
X95561961Y-75190475D01*
X95561961Y-75190475D02*
X95466723Y-75238094D01*
X95466723Y-75238094D02*
X95276247Y-75285713D01*
X95276247Y-75285713D02*
X95133390Y-75285713D01*
X95133390Y-75285713D02*
X94942914Y-75238094D01*
X94942914Y-75238094D02*
X94847676Y-75190475D01*
X94847676Y-75190475D02*
X94752438Y-75095237D01*
X94752438Y-75095237D02*
X94704819Y-74952380D01*
X94704819Y-74952380D02*
X94704819Y-74857142D01*
X94704819Y-74857142D02*
X94752438Y-74714285D01*
X94752438Y-74714285D02*
X94800057Y-74666666D01*
X94704819Y-74333332D02*
X94704819Y-73714285D01*
X94704819Y-73714285D02*
X95085771Y-74047618D01*
X95085771Y-74047618D02*
X95085771Y-73904761D01*
X95085771Y-73904761D02*
X95133390Y-73809523D01*
X95133390Y-73809523D02*
X95181009Y-73761904D01*
X95181009Y-73761904D02*
X95276247Y-73714285D01*
X95276247Y-73714285D02*
X95514342Y-73714285D01*
X95514342Y-73714285D02*
X95609580Y-73761904D01*
X95609580Y-73761904D02*
X95657200Y-73809523D01*
X95657200Y-73809523D02*
X95704819Y-73904761D01*
X95704819Y-73904761D02*
X95704819Y-74190475D01*
X95704819Y-74190475D02*
X95657200Y-74285713D01*
X95657200Y-74285713D02*
X95609580Y-74333332D01*
X97657769Y-124290014D02*
X97324436Y-123813823D01*
X97086341Y-124290014D02*
X97086341Y-123290014D01*
X97086341Y-123290014D02*
X97467293Y-123290014D01*
X97467293Y-123290014D02*
X97562531Y-123337633D01*
X97562531Y-123337633D02*
X97610150Y-123385252D01*
X97610150Y-123385252D02*
X97657769Y-123480490D01*
X97657769Y-123480490D02*
X97657769Y-123623347D01*
X97657769Y-123623347D02*
X97610150Y-123718585D01*
X97610150Y-123718585D02*
X97562531Y-123766204D01*
X97562531Y-123766204D02*
X97467293Y-123813823D01*
X97467293Y-123813823D02*
X97086341Y-123813823D01*
X98038722Y-123385252D02*
X98086341Y-123337633D01*
X98086341Y-123337633D02*
X98181579Y-123290014D01*
X98181579Y-123290014D02*
X98419674Y-123290014D01*
X98419674Y-123290014D02*
X98514912Y-123337633D01*
X98514912Y-123337633D02*
X98562531Y-123385252D01*
X98562531Y-123385252D02*
X98610150Y-123480490D01*
X98610150Y-123480490D02*
X98610150Y-123575728D01*
X98610150Y-123575728D02*
X98562531Y-123718585D01*
X98562531Y-123718585D02*
X97991103Y-124290014D01*
X97991103Y-124290014D02*
X98610150Y-124290014D01*
X113859580Y-54666666D02*
X113907200Y-54714285D01*
X113907200Y-54714285D02*
X113954819Y-54857142D01*
X113954819Y-54857142D02*
X113954819Y-54952380D01*
X113954819Y-54952380D02*
X113907200Y-55095237D01*
X113907200Y-55095237D02*
X113811961Y-55190475D01*
X113811961Y-55190475D02*
X113716723Y-55238094D01*
X113716723Y-55238094D02*
X113526247Y-55285713D01*
X113526247Y-55285713D02*
X113383390Y-55285713D01*
X113383390Y-55285713D02*
X113192914Y-55238094D01*
X113192914Y-55238094D02*
X113097676Y-55190475D01*
X113097676Y-55190475D02*
X113002438Y-55095237D01*
X113002438Y-55095237D02*
X112954819Y-54952380D01*
X112954819Y-54952380D02*
X112954819Y-54857142D01*
X112954819Y-54857142D02*
X113002438Y-54714285D01*
X113002438Y-54714285D02*
X113050057Y-54666666D01*
X113288152Y-53809523D02*
X113954819Y-53809523D01*
X112907200Y-54047618D02*
X113621485Y-54285713D01*
X113621485Y-54285713D02*
X113621485Y-53666666D01*
X114038095Y-112114819D02*
X114038095Y-112924342D01*
X114038095Y-112924342D02*
X114085714Y-113019580D01*
X114085714Y-113019580D02*
X114133333Y-113067200D01*
X114133333Y-113067200D02*
X114228571Y-113114819D01*
X114228571Y-113114819D02*
X114419047Y-113114819D01*
X114419047Y-113114819D02*
X114514285Y-113067200D01*
X114514285Y-113067200D02*
X114561904Y-113019580D01*
X114561904Y-113019580D02*
X114609523Y-112924342D01*
X114609523Y-112924342D02*
X114609523Y-112114819D01*
X115609523Y-113114819D02*
X115038095Y-113114819D01*
X115323809Y-113114819D02*
X115323809Y-112114819D01*
X115323809Y-112114819D02*
X115228571Y-112257676D01*
X115228571Y-112257676D02*
X115133333Y-112352914D01*
X115133333Y-112352914D02*
X115038095Y-112400533D01*
X73954819Y-74761904D02*
X74764342Y-74761904D01*
X74764342Y-74761904D02*
X74859580Y-74714285D01*
X74859580Y-74714285D02*
X74907200Y-74666666D01*
X74907200Y-74666666D02*
X74954819Y-74571428D01*
X74954819Y-74571428D02*
X74954819Y-74380952D01*
X74954819Y-74380952D02*
X74907200Y-74285714D01*
X74907200Y-74285714D02*
X74859580Y-74238095D01*
X74859580Y-74238095D02*
X74764342Y-74190476D01*
X74764342Y-74190476D02*
X73954819Y-74190476D01*
X73954819Y-73809523D02*
X73954819Y-73142857D01*
X73954819Y-73142857D02*
X74954819Y-73571428D01*
X55166667Y-114407200D02*
X55309524Y-114454819D01*
X55309524Y-114454819D02*
X55547619Y-114454819D01*
X55547619Y-114454819D02*
X55642857Y-114407200D01*
X55642857Y-114407200D02*
X55690476Y-114359580D01*
X55690476Y-114359580D02*
X55738095Y-114264342D01*
X55738095Y-114264342D02*
X55738095Y-114169104D01*
X55738095Y-114169104D02*
X55690476Y-114073866D01*
X55690476Y-114073866D02*
X55642857Y-114026247D01*
X55642857Y-114026247D02*
X55547619Y-113978628D01*
X55547619Y-113978628D02*
X55357143Y-113931009D01*
X55357143Y-113931009D02*
X55261905Y-113883390D01*
X55261905Y-113883390D02*
X55214286Y-113835771D01*
X55214286Y-113835771D02*
X55166667Y-113740533D01*
X55166667Y-113740533D02*
X55166667Y-113645295D01*
X55166667Y-113645295D02*
X55214286Y-113550057D01*
X55214286Y-113550057D02*
X55261905Y-113502438D01*
X55261905Y-113502438D02*
X55357143Y-113454819D01*
X55357143Y-113454819D02*
X55595238Y-113454819D01*
X55595238Y-113454819D02*
X55738095Y-113502438D01*
X56071429Y-113454819D02*
X56309524Y-114454819D01*
X56309524Y-114454819D02*
X56500000Y-113740533D01*
X56500000Y-113740533D02*
X56690476Y-114454819D01*
X56690476Y-114454819D02*
X56928572Y-113454819D01*
X57261905Y-113550057D02*
X57309524Y-113502438D01*
X57309524Y-113502438D02*
X57404762Y-113454819D01*
X57404762Y-113454819D02*
X57642857Y-113454819D01*
X57642857Y-113454819D02*
X57738095Y-113502438D01*
X57738095Y-113502438D02*
X57785714Y-113550057D01*
X57785714Y-113550057D02*
X57833333Y-113645295D01*
X57833333Y-113645295D02*
X57833333Y-113740533D01*
X57833333Y-113740533D02*
X57785714Y-113883390D01*
X57785714Y-113883390D02*
X57214286Y-114454819D01*
X57214286Y-114454819D02*
X57833333Y-114454819D01*
X95238095Y-68954819D02*
X95238095Y-69764342D01*
X95238095Y-69764342D02*
X95285714Y-69859580D01*
X95285714Y-69859580D02*
X95333333Y-69907200D01*
X95333333Y-69907200D02*
X95428571Y-69954819D01*
X95428571Y-69954819D02*
X95619047Y-69954819D01*
X95619047Y-69954819D02*
X95714285Y-69907200D01*
X95714285Y-69907200D02*
X95761904Y-69859580D01*
X95761904Y-69859580D02*
X95809523Y-69764342D01*
X95809523Y-69764342D02*
X95809523Y-68954819D01*
X96190476Y-68954819D02*
X96809523Y-68954819D01*
X96809523Y-68954819D02*
X96476190Y-69335771D01*
X96476190Y-69335771D02*
X96619047Y-69335771D01*
X96619047Y-69335771D02*
X96714285Y-69383390D01*
X96714285Y-69383390D02*
X96761904Y-69431009D01*
X96761904Y-69431009D02*
X96809523Y-69526247D01*
X96809523Y-69526247D02*
X96809523Y-69764342D01*
X96809523Y-69764342D02*
X96761904Y-69859580D01*
X96761904Y-69859580D02*
X96714285Y-69907200D01*
X96714285Y-69907200D02*
X96619047Y-69954819D01*
X96619047Y-69954819D02*
X96333333Y-69954819D01*
X96333333Y-69954819D02*
X96238095Y-69907200D01*
X96238095Y-69907200D02*
X96190476Y-69859580D01*
X74083333Y-80109580D02*
X74035714Y-80157200D01*
X74035714Y-80157200D02*
X73892857Y-80204819D01*
X73892857Y-80204819D02*
X73797619Y-80204819D01*
X73797619Y-80204819D02*
X73654762Y-80157200D01*
X73654762Y-80157200D02*
X73559524Y-80061961D01*
X73559524Y-80061961D02*
X73511905Y-79966723D01*
X73511905Y-79966723D02*
X73464286Y-79776247D01*
X73464286Y-79776247D02*
X73464286Y-79633390D01*
X73464286Y-79633390D02*
X73511905Y-79442914D01*
X73511905Y-79442914D02*
X73559524Y-79347676D01*
X73559524Y-79347676D02*
X73654762Y-79252438D01*
X73654762Y-79252438D02*
X73797619Y-79204819D01*
X73797619Y-79204819D02*
X73892857Y-79204819D01*
X73892857Y-79204819D02*
X74035714Y-79252438D01*
X74035714Y-79252438D02*
X74083333Y-79300057D01*
X74940476Y-79204819D02*
X74750000Y-79204819D01*
X74750000Y-79204819D02*
X74654762Y-79252438D01*
X74654762Y-79252438D02*
X74607143Y-79300057D01*
X74607143Y-79300057D02*
X74511905Y-79442914D01*
X74511905Y-79442914D02*
X74464286Y-79633390D01*
X74464286Y-79633390D02*
X74464286Y-80014342D01*
X74464286Y-80014342D02*
X74511905Y-80109580D01*
X74511905Y-80109580D02*
X74559524Y-80157200D01*
X74559524Y-80157200D02*
X74654762Y-80204819D01*
X74654762Y-80204819D02*
X74845238Y-80204819D01*
X74845238Y-80204819D02*
X74940476Y-80157200D01*
X74940476Y-80157200D02*
X74988095Y-80109580D01*
X74988095Y-80109580D02*
X75035714Y-80014342D01*
X75035714Y-80014342D02*
X75035714Y-79776247D01*
X75035714Y-79776247D02*
X74988095Y-79681009D01*
X74988095Y-79681009D02*
X74940476Y-79633390D01*
X74940476Y-79633390D02*
X74845238Y-79585771D01*
X74845238Y-79585771D02*
X74654762Y-79585771D01*
X74654762Y-79585771D02*
X74559524Y-79633390D01*
X74559524Y-79633390D02*
X74511905Y-79681009D01*
X74511905Y-79681009D02*
X74464286Y-79776247D01*
X110859580Y-80166666D02*
X110907200Y-80214285D01*
X110907200Y-80214285D02*
X110954819Y-80357142D01*
X110954819Y-80357142D02*
X110954819Y-80452380D01*
X110954819Y-80452380D02*
X110907200Y-80595237D01*
X110907200Y-80595237D02*
X110811961Y-80690475D01*
X110811961Y-80690475D02*
X110716723Y-80738094D01*
X110716723Y-80738094D02*
X110526247Y-80785713D01*
X110526247Y-80785713D02*
X110383390Y-80785713D01*
X110383390Y-80785713D02*
X110192914Y-80738094D01*
X110192914Y-80738094D02*
X110097676Y-80690475D01*
X110097676Y-80690475D02*
X110002438Y-80595237D01*
X110002438Y-80595237D02*
X109954819Y-80452380D01*
X109954819Y-80452380D02*
X109954819Y-80357142D01*
X109954819Y-80357142D02*
X110002438Y-80214285D01*
X110002438Y-80214285D02*
X110050057Y-80166666D01*
X109954819Y-79261904D02*
X109954819Y-79738094D01*
X109954819Y-79738094D02*
X110431009Y-79785713D01*
X110431009Y-79785713D02*
X110383390Y-79738094D01*
X110383390Y-79738094D02*
X110335771Y-79642856D01*
X110335771Y-79642856D02*
X110335771Y-79404761D01*
X110335771Y-79404761D02*
X110383390Y-79309523D01*
X110383390Y-79309523D02*
X110431009Y-79261904D01*
X110431009Y-79261904D02*
X110526247Y-79214285D01*
X110526247Y-79214285D02*
X110764342Y-79214285D01*
X110764342Y-79214285D02*
X110859580Y-79261904D01*
X110859580Y-79261904D02*
X110907200Y-79309523D01*
X110907200Y-79309523D02*
X110954819Y-79404761D01*
X110954819Y-79404761D02*
X110954819Y-79642856D01*
X110954819Y-79642856D02*
X110907200Y-79738094D01*
X110907200Y-79738094D02*
X110859580Y-79785713D01*
X78109580Y-90416666D02*
X78157200Y-90464285D01*
X78157200Y-90464285D02*
X78204819Y-90607142D01*
X78204819Y-90607142D02*
X78204819Y-90702380D01*
X78204819Y-90702380D02*
X78157200Y-90845237D01*
X78157200Y-90845237D02*
X78061961Y-90940475D01*
X78061961Y-90940475D02*
X77966723Y-90988094D01*
X77966723Y-90988094D02*
X77776247Y-91035713D01*
X77776247Y-91035713D02*
X77633390Y-91035713D01*
X77633390Y-91035713D02*
X77442914Y-90988094D01*
X77442914Y-90988094D02*
X77347676Y-90940475D01*
X77347676Y-90940475D02*
X77252438Y-90845237D01*
X77252438Y-90845237D02*
X77204819Y-90702380D01*
X77204819Y-90702380D02*
X77204819Y-90607142D01*
X77204819Y-90607142D02*
X77252438Y-90464285D01*
X77252438Y-90464285D02*
X77300057Y-90416666D01*
X78204819Y-89940475D02*
X78204819Y-89749999D01*
X78204819Y-89749999D02*
X78157200Y-89654761D01*
X78157200Y-89654761D02*
X78109580Y-89607142D01*
X78109580Y-89607142D02*
X77966723Y-89511904D01*
X77966723Y-89511904D02*
X77776247Y-89464285D01*
X77776247Y-89464285D02*
X77395295Y-89464285D01*
X77395295Y-89464285D02*
X77300057Y-89511904D01*
X77300057Y-89511904D02*
X77252438Y-89559523D01*
X77252438Y-89559523D02*
X77204819Y-89654761D01*
X77204819Y-89654761D02*
X77204819Y-89845237D01*
X77204819Y-89845237D02*
X77252438Y-89940475D01*
X77252438Y-89940475D02*
X77300057Y-89988094D01*
X77300057Y-89988094D02*
X77395295Y-90035713D01*
X77395295Y-90035713D02*
X77633390Y-90035713D01*
X77633390Y-90035713D02*
X77728628Y-89988094D01*
X77728628Y-89988094D02*
X77776247Y-89940475D01*
X77776247Y-89940475D02*
X77823866Y-89845237D01*
X77823866Y-89845237D02*
X77823866Y-89654761D01*
X77823866Y-89654761D02*
X77776247Y-89559523D01*
X77776247Y-89559523D02*
X77728628Y-89511904D01*
X77728628Y-89511904D02*
X77633390Y-89464285D01*
X78954819Y-108761904D02*
X79764342Y-108761904D01*
X79764342Y-108761904D02*
X79859580Y-108714285D01*
X79859580Y-108714285D02*
X79907200Y-108666666D01*
X79907200Y-108666666D02*
X79954819Y-108571428D01*
X79954819Y-108571428D02*
X79954819Y-108380952D01*
X79954819Y-108380952D02*
X79907200Y-108285714D01*
X79907200Y-108285714D02*
X79859580Y-108238095D01*
X79859580Y-108238095D02*
X79764342Y-108190476D01*
X79764342Y-108190476D02*
X78954819Y-108190476D01*
X79288152Y-107285714D02*
X79954819Y-107285714D01*
X78907200Y-107523809D02*
X79621485Y-107761904D01*
X79621485Y-107761904D02*
X79621485Y-107142857D01*
X51714285Y-122431009D02*
X51857142Y-122478628D01*
X51857142Y-122478628D02*
X51904761Y-122526247D01*
X51904761Y-122526247D02*
X51952380Y-122621485D01*
X51952380Y-122621485D02*
X51952380Y-122764342D01*
X51952380Y-122764342D02*
X51904761Y-122859580D01*
X51904761Y-122859580D02*
X51857142Y-122907200D01*
X51857142Y-122907200D02*
X51761904Y-122954819D01*
X51761904Y-122954819D02*
X51380952Y-122954819D01*
X51380952Y-122954819D02*
X51380952Y-121954819D01*
X51380952Y-121954819D02*
X51714285Y-121954819D01*
X51714285Y-121954819D02*
X51809523Y-122002438D01*
X51809523Y-122002438D02*
X51857142Y-122050057D01*
X51857142Y-122050057D02*
X51904761Y-122145295D01*
X51904761Y-122145295D02*
X51904761Y-122240533D01*
X51904761Y-122240533D02*
X51857142Y-122335771D01*
X51857142Y-122335771D02*
X51809523Y-122383390D01*
X51809523Y-122383390D02*
X51714285Y-122431009D01*
X51714285Y-122431009D02*
X51380952Y-122431009D01*
X52238095Y-121954819D02*
X52809523Y-121954819D01*
X52523809Y-122954819D02*
X52523809Y-121954819D01*
X53666666Y-122954819D02*
X53095238Y-122954819D01*
X53380952Y-122954819D02*
X53380952Y-121954819D01*
X53380952Y-121954819D02*
X53285714Y-122097676D01*
X53285714Y-122097676D02*
X53190476Y-122192914D01*
X53190476Y-122192914D02*
X53095238Y-122240533D01*
X62738095Y-126454819D02*
X62738095Y-127264342D01*
X62738095Y-127264342D02*
X62785714Y-127359580D01*
X62785714Y-127359580D02*
X62833333Y-127407200D01*
X62833333Y-127407200D02*
X62928571Y-127454819D01*
X62928571Y-127454819D02*
X63119047Y-127454819D01*
X63119047Y-127454819D02*
X63214285Y-127407200D01*
X63214285Y-127407200D02*
X63261904Y-127359580D01*
X63261904Y-127359580D02*
X63309523Y-127264342D01*
X63309523Y-127264342D02*
X63309523Y-126454819D01*
X63738095Y-126550057D02*
X63785714Y-126502438D01*
X63785714Y-126502438D02*
X63880952Y-126454819D01*
X63880952Y-126454819D02*
X64119047Y-126454819D01*
X64119047Y-126454819D02*
X64214285Y-126502438D01*
X64214285Y-126502438D02*
X64261904Y-126550057D01*
X64261904Y-126550057D02*
X64309523Y-126645295D01*
X64309523Y-126645295D02*
X64309523Y-126740533D01*
X64309523Y-126740533D02*
X64261904Y-126883390D01*
X64261904Y-126883390D02*
X63690476Y-127454819D01*
X63690476Y-127454819D02*
X64309523Y-127454819D01*
X136584819Y-101746666D02*
X136108628Y-102079999D01*
X136584819Y-102318094D02*
X135584819Y-102318094D01*
X135584819Y-102318094D02*
X135584819Y-101937142D01*
X135584819Y-101937142D02*
X135632438Y-101841904D01*
X135632438Y-101841904D02*
X135680057Y-101794285D01*
X135680057Y-101794285D02*
X135775295Y-101746666D01*
X135775295Y-101746666D02*
X135918152Y-101746666D01*
X135918152Y-101746666D02*
X136013390Y-101794285D01*
X136013390Y-101794285D02*
X136061009Y-101841904D01*
X136061009Y-101841904D02*
X136108628Y-101937142D01*
X136108628Y-101937142D02*
X136108628Y-102318094D01*
X135584819Y-101413332D02*
X135584819Y-100794285D01*
X135584819Y-100794285D02*
X135965771Y-101127618D01*
X135965771Y-101127618D02*
X135965771Y-100984761D01*
X135965771Y-100984761D02*
X136013390Y-100889523D01*
X136013390Y-100889523D02*
X136061009Y-100841904D01*
X136061009Y-100841904D02*
X136156247Y-100794285D01*
X136156247Y-100794285D02*
X136394342Y-100794285D01*
X136394342Y-100794285D02*
X136489580Y-100841904D01*
X136489580Y-100841904D02*
X136537200Y-100889523D01*
X136537200Y-100889523D02*
X136584819Y-100984761D01*
X136584819Y-100984761D02*
X136584819Y-101270475D01*
X136584819Y-101270475D02*
X136537200Y-101365713D01*
X136537200Y-101365713D02*
X136489580Y-101413332D01*
X84359580Y-98666666D02*
X84407200Y-98714285D01*
X84407200Y-98714285D02*
X84454819Y-98857142D01*
X84454819Y-98857142D02*
X84454819Y-98952380D01*
X84454819Y-98952380D02*
X84407200Y-99095237D01*
X84407200Y-99095237D02*
X84311961Y-99190475D01*
X84311961Y-99190475D02*
X84216723Y-99238094D01*
X84216723Y-99238094D02*
X84026247Y-99285713D01*
X84026247Y-99285713D02*
X83883390Y-99285713D01*
X83883390Y-99285713D02*
X83692914Y-99238094D01*
X83692914Y-99238094D02*
X83597676Y-99190475D01*
X83597676Y-99190475D02*
X83502438Y-99095237D01*
X83502438Y-99095237D02*
X83454819Y-98952380D01*
X83454819Y-98952380D02*
X83454819Y-98857142D01*
X83454819Y-98857142D02*
X83502438Y-98714285D01*
X83502438Y-98714285D02*
X83550057Y-98666666D01*
X83550057Y-98285713D02*
X83502438Y-98238094D01*
X83502438Y-98238094D02*
X83454819Y-98142856D01*
X83454819Y-98142856D02*
X83454819Y-97904761D01*
X83454819Y-97904761D02*
X83502438Y-97809523D01*
X83502438Y-97809523D02*
X83550057Y-97761904D01*
X83550057Y-97761904D02*
X83645295Y-97714285D01*
X83645295Y-97714285D02*
X83740533Y-97714285D01*
X83740533Y-97714285D02*
X83883390Y-97761904D01*
X83883390Y-97761904D02*
X84454819Y-98333332D01*
X84454819Y-98333332D02*
X84454819Y-97714285D01*
X133976190Y-128454819D02*
X133642857Y-127978628D01*
X133404762Y-128454819D02*
X133404762Y-127454819D01*
X133404762Y-127454819D02*
X133785714Y-127454819D01*
X133785714Y-127454819D02*
X133880952Y-127502438D01*
X133880952Y-127502438D02*
X133928571Y-127550057D01*
X133928571Y-127550057D02*
X133976190Y-127645295D01*
X133976190Y-127645295D02*
X133976190Y-127788152D01*
X133976190Y-127788152D02*
X133928571Y-127883390D01*
X133928571Y-127883390D02*
X133880952Y-127931009D01*
X133880952Y-127931009D02*
X133785714Y-127978628D01*
X133785714Y-127978628D02*
X133404762Y-127978628D01*
X134357143Y-128169104D02*
X134833333Y-128169104D01*
X134261905Y-128454819D02*
X134595238Y-127454819D01*
X134595238Y-127454819D02*
X134928571Y-128454819D01*
X135261905Y-128454819D02*
X135261905Y-127454819D01*
X135261905Y-127454819D02*
X135500000Y-127454819D01*
X135500000Y-127454819D02*
X135642857Y-127502438D01*
X135642857Y-127502438D02*
X135738095Y-127597676D01*
X135738095Y-127597676D02*
X135785714Y-127692914D01*
X135785714Y-127692914D02*
X135833333Y-127883390D01*
X135833333Y-127883390D02*
X135833333Y-128026247D01*
X135833333Y-128026247D02*
X135785714Y-128216723D01*
X135785714Y-128216723D02*
X135738095Y-128311961D01*
X135738095Y-128311961D02*
X135642857Y-128407200D01*
X135642857Y-128407200D02*
X135500000Y-128454819D01*
X135500000Y-128454819D02*
X135261905Y-128454819D01*
X136214286Y-128169104D02*
X136690476Y-128169104D01*
X136119048Y-128454819D02*
X136452381Y-127454819D01*
X136452381Y-127454819D02*
X136785714Y-128454819D01*
X137690476Y-128454819D02*
X137357143Y-127978628D01*
X137119048Y-128454819D02*
X137119048Y-127454819D01*
X137119048Y-127454819D02*
X137500000Y-127454819D01*
X137500000Y-127454819D02*
X137595238Y-127502438D01*
X137595238Y-127502438D02*
X137642857Y-127550057D01*
X137642857Y-127550057D02*
X137690476Y-127645295D01*
X137690476Y-127645295D02*
X137690476Y-127788152D01*
X137690476Y-127788152D02*
X137642857Y-127883390D01*
X137642857Y-127883390D02*
X137595238Y-127931009D01*
X137595238Y-127931009D02*
X137500000Y-127978628D01*
X137500000Y-127978628D02*
X137119048Y-127978628D01*
X138642857Y-128454819D02*
X138071429Y-128454819D01*
X138357143Y-128454819D02*
X138357143Y-127454819D01*
X138357143Y-127454819D02*
X138261905Y-127597676D01*
X138261905Y-127597676D02*
X138166667Y-127692914D01*
X138166667Y-127692914D02*
X138071429Y-127740533D01*
X138341905Y-87244819D02*
X138341905Y-86244819D01*
X138341905Y-86244819D02*
X138580000Y-86244819D01*
X138580000Y-86244819D02*
X138722857Y-86292438D01*
X138722857Y-86292438D02*
X138818095Y-86387676D01*
X138818095Y-86387676D02*
X138865714Y-86482914D01*
X138865714Y-86482914D02*
X138913333Y-86673390D01*
X138913333Y-86673390D02*
X138913333Y-86816247D01*
X138913333Y-86816247D02*
X138865714Y-87006723D01*
X138865714Y-87006723D02*
X138818095Y-87101961D01*
X138818095Y-87101961D02*
X138722857Y-87197200D01*
X138722857Y-87197200D02*
X138580000Y-87244819D01*
X138580000Y-87244819D02*
X138341905Y-87244819D01*
X139865714Y-87244819D02*
X139294286Y-87244819D01*
X139580000Y-87244819D02*
X139580000Y-86244819D01*
X139580000Y-86244819D02*
X139484762Y-86387676D01*
X139484762Y-86387676D02*
X139389524Y-86482914D01*
X139389524Y-86482914D02*
X139294286Y-86530533D01*
X112414819Y-73761904D02*
X113224342Y-73761904D01*
X113224342Y-73761904D02*
X113319580Y-73714285D01*
X113319580Y-73714285D02*
X113367200Y-73666666D01*
X113367200Y-73666666D02*
X113414819Y-73571428D01*
X113414819Y-73571428D02*
X113414819Y-73380952D01*
X113414819Y-73380952D02*
X113367200Y-73285714D01*
X113367200Y-73285714D02*
X113319580Y-73238095D01*
X113319580Y-73238095D02*
X113224342Y-73190476D01*
X113224342Y-73190476D02*
X112414819Y-73190476D01*
X112414819Y-72238095D02*
X112414819Y-72714285D01*
X112414819Y-72714285D02*
X112891009Y-72761904D01*
X112891009Y-72761904D02*
X112843390Y-72714285D01*
X112843390Y-72714285D02*
X112795771Y-72619047D01*
X112795771Y-72619047D02*
X112795771Y-72380952D01*
X112795771Y-72380952D02*
X112843390Y-72285714D01*
X112843390Y-72285714D02*
X112891009Y-72238095D01*
X112891009Y-72238095D02*
X112986247Y-72190476D01*
X112986247Y-72190476D02*
X113224342Y-72190476D01*
X113224342Y-72190476D02*
X113319580Y-72238095D01*
X113319580Y-72238095D02*
X113367200Y-72285714D01*
X113367200Y-72285714D02*
X113414819Y-72380952D01*
X113414819Y-72380952D02*
X113414819Y-72619047D01*
X113414819Y-72619047D02*
X113367200Y-72714285D01*
X113367200Y-72714285D02*
X113319580Y-72761904D01*
X109166667Y-119657200D02*
X109309524Y-119704819D01*
X109309524Y-119704819D02*
X109547619Y-119704819D01*
X109547619Y-119704819D02*
X109642857Y-119657200D01*
X109642857Y-119657200D02*
X109690476Y-119609580D01*
X109690476Y-119609580D02*
X109738095Y-119514342D01*
X109738095Y-119514342D02*
X109738095Y-119419104D01*
X109738095Y-119419104D02*
X109690476Y-119323866D01*
X109690476Y-119323866D02*
X109642857Y-119276247D01*
X109642857Y-119276247D02*
X109547619Y-119228628D01*
X109547619Y-119228628D02*
X109357143Y-119181009D01*
X109357143Y-119181009D02*
X109261905Y-119133390D01*
X109261905Y-119133390D02*
X109214286Y-119085771D01*
X109214286Y-119085771D02*
X109166667Y-118990533D01*
X109166667Y-118990533D02*
X109166667Y-118895295D01*
X109166667Y-118895295D02*
X109214286Y-118800057D01*
X109214286Y-118800057D02*
X109261905Y-118752438D01*
X109261905Y-118752438D02*
X109357143Y-118704819D01*
X109357143Y-118704819D02*
X109595238Y-118704819D01*
X109595238Y-118704819D02*
X109738095Y-118752438D01*
X110071429Y-118704819D02*
X110309524Y-119704819D01*
X110309524Y-119704819D02*
X110500000Y-118990533D01*
X110500000Y-118990533D02*
X110690476Y-119704819D01*
X110690476Y-119704819D02*
X110928572Y-118704819D01*
X111833333Y-119704819D02*
X111261905Y-119704819D01*
X111547619Y-119704819D02*
X111547619Y-118704819D01*
X111547619Y-118704819D02*
X111452381Y-118847676D01*
X111452381Y-118847676D02*
X111357143Y-118942914D01*
X111357143Y-118942914D02*
X111261905Y-118990533D01*
X120600595Y-117504819D02*
X120600595Y-118314342D01*
X120600595Y-118314342D02*
X120648214Y-118409580D01*
X120648214Y-118409580D02*
X120695833Y-118457200D01*
X120695833Y-118457200D02*
X120791071Y-118504819D01*
X120791071Y-118504819D02*
X120981547Y-118504819D01*
X120981547Y-118504819D02*
X121076785Y-118457200D01*
X121076785Y-118457200D02*
X121124404Y-118409580D01*
X121124404Y-118409580D02*
X121172023Y-118314342D01*
X121172023Y-118314342D02*
X121172023Y-117504819D01*
X122076785Y-117504819D02*
X121886309Y-117504819D01*
X121886309Y-117504819D02*
X121791071Y-117552438D01*
X121791071Y-117552438D02*
X121743452Y-117600057D01*
X121743452Y-117600057D02*
X121648214Y-117742914D01*
X121648214Y-117742914D02*
X121600595Y-117933390D01*
X121600595Y-117933390D02*
X121600595Y-118314342D01*
X121600595Y-118314342D02*
X121648214Y-118409580D01*
X121648214Y-118409580D02*
X121695833Y-118457200D01*
X121695833Y-118457200D02*
X121791071Y-118504819D01*
X121791071Y-118504819D02*
X121981547Y-118504819D01*
X121981547Y-118504819D02*
X122076785Y-118457200D01*
X122076785Y-118457200D02*
X122124404Y-118409580D01*
X122124404Y-118409580D02*
X122172023Y-118314342D01*
X122172023Y-118314342D02*
X122172023Y-118076247D01*
X122172023Y-118076247D02*
X122124404Y-117981009D01*
X122124404Y-117981009D02*
X122076785Y-117933390D01*
X122076785Y-117933390D02*
X121981547Y-117885771D01*
X121981547Y-117885771D02*
X121791071Y-117885771D01*
X121791071Y-117885771D02*
X121695833Y-117933390D01*
X121695833Y-117933390D02*
X121648214Y-117981009D01*
X121648214Y-117981009D02*
X121600595Y-118076247D01*
X123414819Y-58456189D02*
X122414819Y-58456189D01*
X122414819Y-58456189D02*
X122414819Y-58075237D01*
X122414819Y-58075237D02*
X122462438Y-57979999D01*
X122462438Y-57979999D02*
X122510057Y-57932380D01*
X122510057Y-57932380D02*
X122605295Y-57884761D01*
X122605295Y-57884761D02*
X122748152Y-57884761D01*
X122748152Y-57884761D02*
X122843390Y-57932380D01*
X122843390Y-57932380D02*
X122891009Y-57979999D01*
X122891009Y-57979999D02*
X122938628Y-58075237D01*
X122938628Y-58075237D02*
X122938628Y-58456189D01*
X123414819Y-57456189D02*
X122414819Y-57456189D01*
X123414819Y-56408571D02*
X122938628Y-56741904D01*
X123414819Y-56979999D02*
X122414819Y-56979999D01*
X122414819Y-56979999D02*
X122414819Y-56599047D01*
X122414819Y-56599047D02*
X122462438Y-56503809D01*
X122462438Y-56503809D02*
X122510057Y-56456190D01*
X122510057Y-56456190D02*
X122605295Y-56408571D01*
X122605295Y-56408571D02*
X122748152Y-56408571D01*
X122748152Y-56408571D02*
X122843390Y-56456190D01*
X122843390Y-56456190D02*
X122891009Y-56503809D01*
X122891009Y-56503809D02*
X122938628Y-56599047D01*
X122938628Y-56599047D02*
X122938628Y-56979999D01*
X123414819Y-55456190D02*
X123414819Y-56027618D01*
X123414819Y-55741904D02*
X122414819Y-55741904D01*
X122414819Y-55741904D02*
X122557676Y-55837142D01*
X122557676Y-55837142D02*
X122652914Y-55932380D01*
X122652914Y-55932380D02*
X122700533Y-56027618D01*
X107359580Y-70666666D02*
X107407200Y-70714285D01*
X107407200Y-70714285D02*
X107454819Y-70857142D01*
X107454819Y-70857142D02*
X107454819Y-70952380D01*
X107454819Y-70952380D02*
X107407200Y-71095237D01*
X107407200Y-71095237D02*
X107311961Y-71190475D01*
X107311961Y-71190475D02*
X107216723Y-71238094D01*
X107216723Y-71238094D02*
X107026247Y-71285713D01*
X107026247Y-71285713D02*
X106883390Y-71285713D01*
X106883390Y-71285713D02*
X106692914Y-71238094D01*
X106692914Y-71238094D02*
X106597676Y-71190475D01*
X106597676Y-71190475D02*
X106502438Y-71095237D01*
X106502438Y-71095237D02*
X106454819Y-70952380D01*
X106454819Y-70952380D02*
X106454819Y-70857142D01*
X106454819Y-70857142D02*
X106502438Y-70714285D01*
X106502438Y-70714285D02*
X106550057Y-70666666D01*
X106454819Y-70333332D02*
X106454819Y-69666666D01*
X106454819Y-69666666D02*
X107454819Y-70095237D01*
X97913333Y-118954819D02*
X97580000Y-118478628D01*
X97341905Y-118954819D02*
X97341905Y-117954819D01*
X97341905Y-117954819D02*
X97722857Y-117954819D01*
X97722857Y-117954819D02*
X97818095Y-118002438D01*
X97818095Y-118002438D02*
X97865714Y-118050057D01*
X97865714Y-118050057D02*
X97913333Y-118145295D01*
X97913333Y-118145295D02*
X97913333Y-118288152D01*
X97913333Y-118288152D02*
X97865714Y-118383390D01*
X97865714Y-118383390D02*
X97818095Y-118431009D01*
X97818095Y-118431009D02*
X97722857Y-118478628D01*
X97722857Y-118478628D02*
X97341905Y-118478628D01*
X98865714Y-118954819D02*
X98294286Y-118954819D01*
X98580000Y-118954819D02*
X98580000Y-117954819D01*
X98580000Y-117954819D02*
X98484762Y-118097676D01*
X98484762Y-118097676D02*
X98389524Y-118192914D01*
X98389524Y-118192914D02*
X98294286Y-118240533D01*
%TO.C,C1*%
D11*
X82460000Y-90470000D02*
X79483000Y-90470000D01*
X82460000Y-90510000D02*
X79491000Y-90510000D01*
X82460000Y-90550000D02*
X79498000Y-90550000D01*
X82460000Y-90590000D02*
X79507000Y-90590000D01*
X82460000Y-90630000D02*
X79515000Y-90630000D01*
X82460000Y-90670000D02*
X79524000Y-90670000D01*
X82460000Y-90710000D02*
X79533000Y-90710000D01*
X82460000Y-90750000D02*
X79543000Y-90750000D01*
X82460000Y-90790000D02*
X79553000Y-90790000D01*
X82460000Y-90830000D02*
X79564000Y-90830000D01*
X82460000Y-90870000D02*
X79575000Y-90870000D01*
X82460000Y-90910000D02*
X79587000Y-90910000D01*
X82460000Y-90950000D02*
X79599000Y-90950000D01*
X82460000Y-90990000D02*
X79611000Y-90990000D01*
X82460000Y-91030000D02*
X79624000Y-91030000D01*
X82460000Y-91070000D02*
X79637000Y-91070000D01*
X82460000Y-91110000D02*
X79651000Y-91110000D01*
X82460000Y-91150000D02*
X79665000Y-91150000D01*
X82460000Y-91190000D02*
X79680000Y-91190000D01*
X82460000Y-91230000D02*
X79695000Y-91230000D01*
X82460000Y-91270000D02*
X79711000Y-91270000D01*
X82460000Y-91310000D02*
X79727000Y-91310000D01*
X82460000Y-91350000D02*
X79743000Y-91350000D01*
X82460000Y-91390000D02*
X79760000Y-91390000D01*
X82460000Y-91430000D02*
X79778000Y-91430000D01*
X82460000Y-91470000D02*
X79796000Y-91470000D01*
X82460000Y-91510000D02*
X79815000Y-91510000D01*
X82460000Y-91550000D02*
X79834000Y-91550000D01*
X82460000Y-91590000D02*
X79854000Y-91590000D01*
X82460000Y-91630000D02*
X79874000Y-91630000D01*
X82460000Y-91670000D02*
X79895000Y-91670000D01*
X82460000Y-91710000D02*
X79916000Y-91710000D01*
X82460000Y-91750000D02*
X79938000Y-91750000D01*
X82460000Y-91790000D02*
X79961000Y-91790000D01*
X82460000Y-91830000D02*
X79984000Y-91830000D01*
X82460000Y-91870000D02*
X80007000Y-91870000D01*
X82460000Y-91910000D02*
X80032000Y-91910000D01*
X82460000Y-91950000D02*
X80057000Y-91950000D01*
X82460000Y-91990000D02*
X80082000Y-91990000D01*
X82460000Y-92030000D02*
X80108000Y-92030000D01*
X82460000Y-92070000D02*
X80135000Y-92070000D01*
X82460000Y-92110000D02*
X80163000Y-92110000D01*
X82460000Y-92150000D02*
X80191000Y-92150000D01*
X82460000Y-92190000D02*
X80220000Y-92190000D01*
X82460000Y-92230000D02*
X80250000Y-92230000D01*
X82460000Y-92270000D02*
X80281000Y-92270000D01*
X82460000Y-92310000D02*
X80312000Y-92310000D01*
X82460000Y-92350000D02*
X80344000Y-92350000D01*
X82460000Y-92390000D02*
X80377000Y-92390000D01*
X82460000Y-92430000D02*
X80411000Y-92430000D01*
X82460000Y-92470000D02*
X80445000Y-92470000D01*
X82460000Y-92510000D02*
X80481000Y-92510000D01*
X84033000Y-93830000D02*
X82967000Y-93830000D01*
X84268000Y-93790000D02*
X82732000Y-93790000D01*
X84447000Y-93750000D02*
X82553000Y-93750000D01*
X84597000Y-93710000D02*
X82403000Y-93710000D01*
X84728000Y-93670000D02*
X82272000Y-93670000D01*
X84846000Y-93630000D02*
X82154000Y-93630000D01*
X84953000Y-93590000D02*
X82047000Y-93590000D01*
X85052000Y-93550000D02*
X81948000Y-93550000D01*
X85144000Y-93510000D02*
X81856000Y-93510000D01*
X85231000Y-93470000D02*
X81769000Y-93470000D01*
X85313000Y-93430000D02*
X81687000Y-93430000D01*
X85390000Y-93390000D02*
X81610000Y-93390000D01*
X85464000Y-93350000D02*
X81536000Y-93350000D01*
X85534000Y-93310000D02*
X81466000Y-93310000D01*
X85601000Y-93270000D02*
X81399000Y-93270000D01*
X85665000Y-93230000D02*
X81335000Y-93230000D01*
X85727000Y-93190000D02*
X81273000Y-93190000D01*
X85787000Y-93150000D02*
X81213000Y-93150000D01*
X85815000Y-85340302D02*
X85815000Y-86140302D01*
X85844000Y-93110000D02*
X81156000Y-93110000D01*
X85900000Y-93070000D02*
X81100000Y-93070000D01*
X85953000Y-93030000D02*
X81047000Y-93030000D01*
X86005000Y-92990000D02*
X80995000Y-92990000D01*
X86055000Y-92950000D02*
X80945000Y-92950000D01*
X86104000Y-92910000D02*
X80896000Y-92910000D01*
X86151000Y-92870000D02*
X80849000Y-92870000D01*
X86196000Y-92830000D02*
X80804000Y-92830000D01*
X86215000Y-85740302D02*
X85415000Y-85740302D01*
X86241000Y-92790000D02*
X80759000Y-92790000D01*
X86284000Y-92750000D02*
X80716000Y-92750000D01*
X86326000Y-92710000D02*
X80674000Y-92710000D01*
X86367000Y-92670000D02*
X80633000Y-92670000D01*
X86406000Y-92630000D02*
X80594000Y-92630000D01*
X86445000Y-92590000D02*
X80555000Y-92590000D01*
X86482000Y-92550000D02*
X80518000Y-92550000D01*
X86519000Y-92510000D02*
X84540000Y-92510000D01*
X86555000Y-92470000D02*
X84540000Y-92470000D01*
X86589000Y-92430000D02*
X84540000Y-92430000D01*
X86623000Y-92390000D02*
X84540000Y-92390000D01*
X86656000Y-92350000D02*
X84540000Y-92350000D01*
X86688000Y-92310000D02*
X84540000Y-92310000D01*
X86719000Y-92270000D02*
X84540000Y-92270000D01*
X86750000Y-92230000D02*
X84540000Y-92230000D01*
X86780000Y-92190000D02*
X84540000Y-92190000D01*
X86809000Y-92150000D02*
X84540000Y-92150000D01*
X86837000Y-92110000D02*
X84540000Y-92110000D01*
X86865000Y-92070000D02*
X84540000Y-92070000D01*
X86892000Y-92030000D02*
X84540000Y-92030000D01*
X86918000Y-91990000D02*
X84540000Y-91990000D01*
X86943000Y-91950000D02*
X84540000Y-91950000D01*
X86968000Y-91910000D02*
X84540000Y-91910000D01*
X86993000Y-91870000D02*
X84540000Y-91870000D01*
X87016000Y-91830000D02*
X84540000Y-91830000D01*
X87039000Y-91790000D02*
X84540000Y-91790000D01*
X87062000Y-91750000D02*
X84540000Y-91750000D01*
X87084000Y-91710000D02*
X84540000Y-91710000D01*
X87105000Y-91670000D02*
X84540000Y-91670000D01*
X87126000Y-91630000D02*
X84540000Y-91630000D01*
X87146000Y-91590000D02*
X84540000Y-91590000D01*
X87166000Y-91550000D02*
X84540000Y-91550000D01*
X87185000Y-91510000D02*
X84540000Y-91510000D01*
X87204000Y-91470000D02*
X84540000Y-91470000D01*
X87222000Y-91430000D02*
X84540000Y-91430000D01*
X87240000Y-91390000D02*
X84540000Y-91390000D01*
X87257000Y-91350000D02*
X84540000Y-91350000D01*
X87273000Y-91310000D02*
X84540000Y-91310000D01*
X87289000Y-91270000D02*
X84540000Y-91270000D01*
X87305000Y-91230000D02*
X84540000Y-91230000D01*
X87320000Y-91190000D02*
X84540000Y-91190000D01*
X87335000Y-91150000D02*
X84540000Y-91150000D01*
X87349000Y-91110000D02*
X84540000Y-91110000D01*
X87363000Y-91070000D02*
X84540000Y-91070000D01*
X87376000Y-91030000D02*
X84540000Y-91030000D01*
X87389000Y-90990000D02*
X84540000Y-90990000D01*
X87401000Y-90950000D02*
X84540000Y-90950000D01*
X87413000Y-90910000D02*
X84540000Y-90910000D01*
X87425000Y-90870000D02*
X84540000Y-90870000D01*
X87436000Y-90830000D02*
X84540000Y-90830000D01*
X87447000Y-90790000D02*
X84540000Y-90790000D01*
X87457000Y-90750000D02*
X84540000Y-90750000D01*
X87467000Y-90710000D02*
X84540000Y-90710000D01*
X87476000Y-90670000D02*
X84540000Y-90670000D01*
X87485000Y-90630000D02*
X84540000Y-90630000D01*
X87493000Y-90590000D02*
X84540000Y-90590000D01*
X87502000Y-90550000D02*
X84540000Y-90550000D01*
X87509000Y-90510000D02*
X84540000Y-90510000D01*
X87517000Y-90470000D02*
X84540000Y-90470000D01*
X87523000Y-90430000D02*
X79477000Y-90430000D01*
X87530000Y-90390000D02*
X79470000Y-90390000D01*
X87536000Y-90350000D02*
X79464000Y-90350000D01*
X87542000Y-90310000D02*
X79458000Y-90310000D01*
X87547000Y-90270000D02*
X79453000Y-90270000D01*
X87552000Y-90230000D02*
X79448000Y-90230000D01*
X87556000Y-90190000D02*
X79444000Y-90190000D01*
X87561000Y-90150000D02*
X79439000Y-90150000D01*
X87564000Y-90110000D02*
X79436000Y-90110000D01*
X87568000Y-90070000D02*
X79432000Y-90070000D01*
X87570000Y-90030000D02*
X79430000Y-90030000D01*
X87573000Y-89990000D02*
X79427000Y-89990000D01*
X87575000Y-89950000D02*
X79425000Y-89950000D01*
X87577000Y-89910000D02*
X79423000Y-89910000D01*
X87578000Y-89870000D02*
X79422000Y-89870000D01*
X87579000Y-89830000D02*
X79421000Y-89830000D01*
X87580000Y-89750000D02*
X79420000Y-89750000D01*
X87580000Y-89790000D02*
X79420000Y-89790000D01*
X87620000Y-89750000D02*
G75*
G02*
X79380000Y-89750000I-4120000J0D01*
G01*
X79380000Y-89750000D02*
G75*
G02*
X87620000Y-89750000I4120000J0D01*
G01*
%TO.C,C3*%
X87760000Y-75780000D02*
X84083000Y-75780000D01*
X87760000Y-75820000D02*
X84093000Y-75820000D01*
X87760000Y-75860000D02*
X84104000Y-75860000D01*
X87760000Y-75900000D02*
X84115000Y-75900000D01*
X87760000Y-75940000D02*
X84127000Y-75940000D01*
X87760000Y-75980000D02*
X84139000Y-75980000D01*
X87760000Y-76020000D02*
X84151000Y-76020000D01*
X87760000Y-76060000D02*
X84163000Y-76060000D01*
X87760000Y-76100000D02*
X84176000Y-76100000D01*
X87760000Y-76140000D02*
X84190000Y-76140000D01*
X87760000Y-76180000D02*
X84203000Y-76180000D01*
X87760000Y-76220000D02*
X84218000Y-76220000D01*
X87760000Y-76260000D02*
X84232000Y-76260000D01*
X87760000Y-76300000D02*
X84247000Y-76300000D01*
X87760000Y-76340000D02*
X84262000Y-76340000D01*
X87760000Y-76380000D02*
X84278000Y-76380000D01*
X87760000Y-76420000D02*
X84294000Y-76420000D01*
X87760000Y-76460000D02*
X84310000Y-76460000D01*
X87760000Y-76500000D02*
X84327000Y-76500000D01*
X87760000Y-76540000D02*
X84344000Y-76540000D01*
X87760000Y-76580000D02*
X84362000Y-76580000D01*
X87760000Y-76620000D02*
X84380000Y-76620000D01*
X87760000Y-76660000D02*
X84398000Y-76660000D01*
X87760000Y-76700000D02*
X84417000Y-76700000D01*
X87760000Y-76740000D02*
X84436000Y-76740000D01*
X87760000Y-76780000D02*
X84456000Y-76780000D01*
X87760000Y-76820000D02*
X84476000Y-76820000D01*
X87760000Y-76860000D02*
X84496000Y-76860000D01*
X87760000Y-76900000D02*
X84517000Y-76900000D01*
X87760000Y-76940000D02*
X84539000Y-76940000D01*
X87760000Y-76980000D02*
X84561000Y-76980000D01*
X87760000Y-77020000D02*
X84583000Y-77020000D01*
X87760000Y-77060000D02*
X84606000Y-77060000D01*
X87760000Y-77100000D02*
X84629000Y-77100000D01*
X87760000Y-77140000D02*
X84653000Y-77140000D01*
X87760000Y-77180000D02*
X84677000Y-77180000D01*
X87760000Y-77220000D02*
X84702000Y-77220000D01*
X87760000Y-77260000D02*
X84728000Y-77260000D01*
X87760000Y-77300000D02*
X84753000Y-77300000D01*
X87760000Y-77340000D02*
X84780000Y-77340000D01*
X87760000Y-77380000D02*
X84807000Y-77380000D01*
X87760000Y-77420000D02*
X84834000Y-77420000D01*
X87760000Y-77460000D02*
X84862000Y-77460000D01*
X87760000Y-77500000D02*
X84891000Y-77500000D01*
X87760000Y-77540000D02*
X84920000Y-77540000D01*
X87760000Y-77580000D02*
X84950000Y-77580000D01*
X87760000Y-77620000D02*
X84980000Y-77620000D01*
X87760000Y-77660000D02*
X85012000Y-77660000D01*
X87760000Y-77700000D02*
X85043000Y-77700000D01*
X87760000Y-77740000D02*
X85076000Y-77740000D01*
X87760000Y-77780000D02*
X85109000Y-77780000D01*
X87760000Y-77820000D02*
X85142000Y-77820000D01*
X87760000Y-77860000D02*
X85177000Y-77860000D01*
X87760000Y-77900000D02*
X85212000Y-77900000D01*
X87760000Y-77940000D02*
X85248000Y-77940000D01*
X87760000Y-77980000D02*
X85284000Y-77980000D01*
X87760000Y-78020000D02*
X85322000Y-78020000D01*
X87760000Y-78060000D02*
X85360000Y-78060000D01*
X87760000Y-78100000D02*
X85399000Y-78100000D01*
X87760000Y-78140000D02*
X85439000Y-78140000D01*
X87760000Y-78180000D02*
X85480000Y-78180000D01*
X87760000Y-78220000D02*
X85522000Y-78220000D01*
X89599000Y-79580000D02*
X88401000Y-79580000D01*
X89862000Y-79540000D02*
X88138000Y-79540000D01*
X90062000Y-79500000D02*
X87938000Y-79500000D01*
X90230000Y-79460000D02*
X87770000Y-79460000D01*
X90377000Y-79420000D02*
X87623000Y-79420000D01*
X90509000Y-79380000D02*
X87491000Y-79380000D01*
X90630000Y-79340000D02*
X87370000Y-79340000D01*
X90742000Y-79300000D02*
X87258000Y-79300000D01*
X90846000Y-79260000D02*
X87154000Y-79260000D01*
X90944000Y-79220000D02*
X87056000Y-79220000D01*
X91037000Y-79180000D02*
X86963000Y-79180000D01*
X91124000Y-79140000D02*
X86876000Y-79140000D01*
X91208000Y-79100000D02*
X86792000Y-79100000D01*
X91288000Y-79060000D02*
X86712000Y-79060000D01*
X91365000Y-79020000D02*
X86635000Y-79020000D01*
X91439000Y-78980000D02*
X86561000Y-78980000D01*
X91510000Y-78940000D02*
X86490000Y-78940000D01*
X91578000Y-78900000D02*
X86422000Y-78900000D01*
X91644000Y-78860000D02*
X86356000Y-78860000D01*
X91708000Y-78820000D02*
X86292000Y-78820000D01*
X91770000Y-78780000D02*
X86230000Y-78780000D01*
X91830000Y-78740000D02*
X86170000Y-78740000D01*
X91875000Y-69020354D02*
X91875000Y-70020354D01*
X91888000Y-78700000D02*
X86112000Y-78700000D01*
X91945000Y-78660000D02*
X86055000Y-78660000D01*
X92000000Y-78620000D02*
X86000000Y-78620000D01*
X92053000Y-78580000D02*
X85947000Y-78580000D01*
X92105000Y-78540000D02*
X85895000Y-78540000D01*
X92156000Y-78500000D02*
X85844000Y-78500000D01*
X92205000Y-78460000D02*
X85795000Y-78460000D01*
X92254000Y-78420000D02*
X85746000Y-78420000D01*
X92301000Y-78380000D02*
X85699000Y-78380000D01*
X92347000Y-78340000D02*
X85653000Y-78340000D01*
X92375000Y-69520354D02*
X91375000Y-69520354D01*
X92391000Y-78300000D02*
X85609000Y-78300000D01*
X92435000Y-78260000D02*
X85565000Y-78260000D01*
X92478000Y-78220000D02*
X90240000Y-78220000D01*
X92520000Y-78180000D02*
X90240000Y-78180000D01*
X92561000Y-78140000D02*
X90240000Y-78140000D01*
X92601000Y-78100000D02*
X90240000Y-78100000D01*
X92640000Y-78060000D02*
X90240000Y-78060000D01*
X92678000Y-78020000D02*
X90240000Y-78020000D01*
X92716000Y-77980000D02*
X90240000Y-77980000D01*
X92752000Y-77940000D02*
X90240000Y-77940000D01*
X92788000Y-77900000D02*
X90240000Y-77900000D01*
X92823000Y-77860000D02*
X90240000Y-77860000D01*
X92858000Y-77820000D02*
X90240000Y-77820000D01*
X92891000Y-77780000D02*
X90240000Y-77780000D01*
X92924000Y-77740000D02*
X90240000Y-77740000D01*
X92957000Y-77700000D02*
X90240000Y-77700000D01*
X92988000Y-77660000D02*
X90240000Y-77660000D01*
X93020000Y-77620000D02*
X90240000Y-77620000D01*
X93050000Y-77580000D02*
X90240000Y-77580000D01*
X93080000Y-77540000D02*
X90240000Y-77540000D01*
X93109000Y-77500000D02*
X90240000Y-77500000D01*
X93138000Y-77460000D02*
X90240000Y-77460000D01*
X93166000Y-77420000D02*
X90240000Y-77420000D01*
X93193000Y-77380000D02*
X90240000Y-77380000D01*
X93220000Y-77340000D02*
X90240000Y-77340000D01*
X93247000Y-77300000D02*
X90240000Y-77300000D01*
X93272000Y-77260000D02*
X90240000Y-77260000D01*
X93298000Y-77220000D02*
X90240000Y-77220000D01*
X93323000Y-77180000D02*
X90240000Y-77180000D01*
X93347000Y-77140000D02*
X90240000Y-77140000D01*
X93371000Y-77100000D02*
X90240000Y-77100000D01*
X93394000Y-77060000D02*
X90240000Y-77060000D01*
X93417000Y-77020000D02*
X90240000Y-77020000D01*
X93439000Y-76980000D02*
X90240000Y-76980000D01*
X93461000Y-76940000D02*
X90240000Y-76940000D01*
X93483000Y-76900000D02*
X90240000Y-76900000D01*
X93504000Y-76860000D02*
X90240000Y-76860000D01*
X93524000Y-76820000D02*
X90240000Y-76820000D01*
X93544000Y-76780000D02*
X90240000Y-76780000D01*
X93564000Y-76740000D02*
X90240000Y-76740000D01*
X93583000Y-76700000D02*
X90240000Y-76700000D01*
X93602000Y-76660000D02*
X90240000Y-76660000D01*
X93620000Y-76620000D02*
X90240000Y-76620000D01*
X93638000Y-76580000D02*
X90240000Y-76580000D01*
X93656000Y-76540000D02*
X90240000Y-76540000D01*
X93673000Y-76500000D02*
X90240000Y-76500000D01*
X93690000Y-76460000D02*
X90240000Y-76460000D01*
X93706000Y-76420000D02*
X90240000Y-76420000D01*
X93722000Y-76380000D02*
X90240000Y-76380000D01*
X93738000Y-76340000D02*
X90240000Y-76340000D01*
X93753000Y-76300000D02*
X90240000Y-76300000D01*
X93768000Y-76260000D02*
X90240000Y-76260000D01*
X93782000Y-76220000D02*
X90240000Y-76220000D01*
X93797000Y-76180000D02*
X90240000Y-76180000D01*
X93810000Y-76140000D02*
X90240000Y-76140000D01*
X93824000Y-76100000D02*
X90240000Y-76100000D01*
X93837000Y-76060000D02*
X90240000Y-76060000D01*
X93849000Y-76020000D02*
X90240000Y-76020000D01*
X93861000Y-75980000D02*
X90240000Y-75980000D01*
X93873000Y-75940000D02*
X90240000Y-75940000D01*
X93885000Y-75900000D02*
X90240000Y-75900000D01*
X93896000Y-75860000D02*
X90240000Y-75860000D01*
X93907000Y-75820000D02*
X90240000Y-75820000D01*
X93917000Y-75780000D02*
X90240000Y-75780000D01*
X93928000Y-75740000D02*
X84072000Y-75740000D01*
X93937000Y-75700000D02*
X84063000Y-75700000D01*
X93947000Y-75660000D02*
X84053000Y-75660000D01*
X93956000Y-75620000D02*
X84044000Y-75620000D01*
X93965000Y-75580000D02*
X84035000Y-75580000D01*
X93973000Y-75540000D02*
X84027000Y-75540000D01*
X93981000Y-75500000D02*
X84019000Y-75500000D01*
X93989000Y-75460000D02*
X84011000Y-75460000D01*
X93997000Y-75420000D02*
X84003000Y-75420000D01*
X94004000Y-75380000D02*
X83996000Y-75380000D01*
X94011000Y-75340000D02*
X83989000Y-75340000D01*
X94017000Y-75300000D02*
X83983000Y-75300000D01*
X94023000Y-75260000D02*
X83977000Y-75260000D01*
X94029000Y-75220000D02*
X83971000Y-75220000D01*
X94035000Y-75180000D02*
X83965000Y-75180000D01*
X94040000Y-75140000D02*
X83960000Y-75140000D01*
X94045000Y-75100000D02*
X83955000Y-75100000D01*
X94049000Y-75060000D02*
X83951000Y-75060000D01*
X94054000Y-75020000D02*
X83946000Y-75020000D01*
X94057000Y-74980000D02*
X83943000Y-74980000D01*
X94061000Y-74940000D02*
X83939000Y-74940000D01*
X94064000Y-74900000D02*
X83936000Y-74900000D01*
X94067000Y-74860000D02*
X83933000Y-74860000D01*
X94070000Y-74820000D02*
X83930000Y-74820000D01*
X94072000Y-74780000D02*
X83928000Y-74780000D01*
X94074000Y-74740000D02*
X83926000Y-74740000D01*
X94076000Y-74700000D02*
X83924000Y-74700000D01*
X94077000Y-74660000D02*
X83923000Y-74660000D01*
X94079000Y-74580000D02*
X83921000Y-74580000D01*
X94079000Y-74620000D02*
X83921000Y-74620000D01*
X94080000Y-74500000D02*
X83920000Y-74500000D01*
X94080000Y-74540000D02*
X83920000Y-74540000D01*
X94120000Y-74500000D02*
G75*
G02*
X83880000Y-74500000I-5120000J0D01*
G01*
X83880000Y-74500000D02*
G75*
G02*
X94120000Y-74500000I5120000J0D01*
G01*
%TO.C,R2*%
X93960000Y-126000000D02*
X94730000Y-126000000D01*
X102040000Y-126000000D02*
X101270000Y-126000000D01*
X94730000Y-124630000D02*
X101270000Y-124630000D01*
X101270000Y-127370000D01*
X94730000Y-127370000D01*
X94730000Y-124630000D01*
%TO.C,C4*%
X109630000Y-51880000D02*
X109967000Y-51880000D01*
X109630000Y-57120000D02*
X109630000Y-51880000D01*
X109967000Y-57120000D02*
X109630000Y-57120000D01*
X112033000Y-51880000D02*
X112370000Y-51880000D01*
X112370000Y-51880000D02*
X112370000Y-57120000D01*
X112370000Y-57120000D02*
X112033000Y-57120000D01*
%TO.C,U1*%
X95180000Y-82660000D02*
X134380000Y-82660000D01*
X95180000Y-111660000D02*
X95180000Y-82660000D01*
X134380000Y-82660000D02*
X134380000Y-111660000D01*
X134380000Y-111660000D02*
X95180000Y-111660000D01*
%TO.C,U7*%
X51000000Y-51000000D02*
X70000000Y-51000000D01*
X51000000Y-94000000D02*
X51000000Y-51000000D01*
X70000000Y-51000000D02*
X70000000Y-94000000D01*
X70000000Y-94000000D02*
X51000000Y-94000000D01*
%TO.C,SW2*%
X51120000Y-113120000D02*
X52500000Y-113120000D01*
X51120000Y-114500000D02*
X51120000Y-113120000D01*
X51120000Y-115770000D02*
X51120000Y-118420000D01*
X51120000Y-115770000D02*
X53880000Y-115770000D01*
X51120000Y-118420000D02*
X53880000Y-118420000D01*
X53880000Y-115770000D02*
X53880000Y-118420000D01*
%TO.C,U3*%
X71000000Y-51000000D02*
X108000000Y-51000000D01*
X71000000Y-68000000D02*
X71000000Y-51000000D01*
X108000000Y-51000000D02*
X108000000Y-68000000D01*
X108000000Y-68000000D02*
X71000000Y-68000000D01*
%TO.C,C6*%
X71445225Y-82025000D02*
X71945225Y-82025000D01*
X71695225Y-81775000D02*
X71695225Y-82275000D01*
X74250000Y-80920000D02*
X74250000Y-86080000D01*
X74290000Y-80920000D02*
X74290000Y-86080000D01*
X74330000Y-80921000D02*
X74330000Y-86079000D01*
X74370000Y-80923000D02*
X74370000Y-86077000D01*
X74410000Y-80925000D02*
X74410000Y-86075000D01*
X74450000Y-80928000D02*
X74450000Y-86072000D01*
X74490000Y-80931000D02*
X74490000Y-82460000D01*
X74490000Y-84540000D02*
X74490000Y-86069000D01*
X74530000Y-80935000D02*
X74530000Y-82460000D01*
X74530000Y-84540000D02*
X74530000Y-86065000D01*
X74570000Y-80940000D02*
X74570000Y-82460000D01*
X74570000Y-84540000D02*
X74570000Y-86060000D01*
X74610000Y-80945000D02*
X74610000Y-82460000D01*
X74610000Y-84540000D02*
X74610000Y-86055000D01*
X74650000Y-80951000D02*
X74650000Y-82460000D01*
X74650000Y-84540000D02*
X74650000Y-86049000D01*
X74690000Y-80957000D02*
X74690000Y-82460000D01*
X74690000Y-84540000D02*
X74690000Y-86043000D01*
X74730000Y-80964000D02*
X74730000Y-82460000D01*
X74730000Y-84540000D02*
X74730000Y-86036000D01*
X74770000Y-80972000D02*
X74770000Y-82460000D01*
X74770000Y-84540000D02*
X74770000Y-86028000D01*
X74810000Y-80981000D02*
X74810000Y-82460000D01*
X74810000Y-84540000D02*
X74810000Y-86019000D01*
X74850000Y-80990000D02*
X74850000Y-82460000D01*
X74850000Y-84540000D02*
X74850000Y-86010000D01*
X74890000Y-80999000D02*
X74890000Y-82460000D01*
X74890000Y-84540000D02*
X74890000Y-86001000D01*
X74930000Y-81010000D02*
X74930000Y-82460000D01*
X74930000Y-84540000D02*
X74930000Y-85990000D01*
X74970000Y-81021000D02*
X74970000Y-82460000D01*
X74970000Y-84540000D02*
X74970000Y-85979000D01*
X75010000Y-81033000D02*
X75010000Y-82460000D01*
X75010000Y-84540000D02*
X75010000Y-85967000D01*
X75050000Y-81045000D02*
X75050000Y-82460000D01*
X75050000Y-84540000D02*
X75050000Y-85955000D01*
X75090000Y-81058000D02*
X75090000Y-82460000D01*
X75090000Y-84540000D02*
X75090000Y-85942000D01*
X75130000Y-81072000D02*
X75130000Y-82460000D01*
X75130000Y-84540000D02*
X75130000Y-85928000D01*
X75170000Y-81087000D02*
X75170000Y-82460000D01*
X75170000Y-84540000D02*
X75170000Y-85913000D01*
X75210000Y-81102000D02*
X75210000Y-82460000D01*
X75210000Y-84540000D02*
X75210000Y-85898000D01*
X75250000Y-81118000D02*
X75250000Y-82460000D01*
X75250000Y-84540000D02*
X75250000Y-85882000D01*
X75290000Y-81135000D02*
X75290000Y-82460000D01*
X75290000Y-84540000D02*
X75290000Y-85865000D01*
X75330000Y-81153000D02*
X75330000Y-82460000D01*
X75330000Y-84540000D02*
X75330000Y-85847000D01*
X75370000Y-81171000D02*
X75370000Y-82460000D01*
X75370000Y-84540000D02*
X75370000Y-85829000D01*
X75410000Y-81191000D02*
X75410000Y-82460000D01*
X75410000Y-84540000D02*
X75410000Y-85809000D01*
X75450000Y-81211000D02*
X75450000Y-82460000D01*
X75450000Y-84540000D02*
X75450000Y-85789000D01*
X75490000Y-81232000D02*
X75490000Y-82460000D01*
X75490000Y-84540000D02*
X75490000Y-85768000D01*
X75530000Y-81254000D02*
X75530000Y-82460000D01*
X75530000Y-84540000D02*
X75530000Y-85746000D01*
X75570000Y-81277000D02*
X75570000Y-82460000D01*
X75570000Y-84540000D02*
X75570000Y-85723000D01*
X75610000Y-81301000D02*
X75610000Y-82460000D01*
X75610000Y-84540000D02*
X75610000Y-85699000D01*
X75650000Y-81325000D02*
X75650000Y-82460000D01*
X75650000Y-84540000D02*
X75650000Y-85675000D01*
X75690000Y-81351000D02*
X75690000Y-82460000D01*
X75690000Y-84540000D02*
X75690000Y-85649000D01*
X75730000Y-81378000D02*
X75730000Y-82460000D01*
X75730000Y-84540000D02*
X75730000Y-85622000D01*
X75770000Y-81406000D02*
X75770000Y-82460000D01*
X75770000Y-84540000D02*
X75770000Y-85594000D01*
X75810000Y-81435000D02*
X75810000Y-82460000D01*
X75810000Y-84540000D02*
X75810000Y-85565000D01*
X75850000Y-81465000D02*
X75850000Y-82460000D01*
X75850000Y-84540000D02*
X75850000Y-85535000D01*
X75890000Y-81497000D02*
X75890000Y-82460000D01*
X75890000Y-84540000D02*
X75890000Y-85503000D01*
X75930000Y-81530000D02*
X75930000Y-82460000D01*
X75930000Y-84540000D02*
X75930000Y-85470000D01*
X75970000Y-81564000D02*
X75970000Y-82460000D01*
X75970000Y-84540000D02*
X75970000Y-85436000D01*
X76010000Y-81599000D02*
X76010000Y-82460000D01*
X76010000Y-84540000D02*
X76010000Y-85401000D01*
X76050000Y-81636000D02*
X76050000Y-82460000D01*
X76050000Y-84540000D02*
X76050000Y-85364000D01*
X76090000Y-81675000D02*
X76090000Y-82460000D01*
X76090000Y-84540000D02*
X76090000Y-85325000D01*
X76130000Y-81715000D02*
X76130000Y-82460000D01*
X76130000Y-84540000D02*
X76130000Y-85285000D01*
X76170000Y-81757000D02*
X76170000Y-82460000D01*
X76170000Y-84540000D02*
X76170000Y-85243000D01*
X76210000Y-81801000D02*
X76210000Y-82460000D01*
X76210000Y-84540000D02*
X76210000Y-85199000D01*
X76250000Y-81848000D02*
X76250000Y-82460000D01*
X76250000Y-84540000D02*
X76250000Y-85152000D01*
X76290000Y-81896000D02*
X76290000Y-82460000D01*
X76290000Y-84540000D02*
X76290000Y-85104000D01*
X76330000Y-81947000D02*
X76330000Y-82460000D01*
X76330000Y-84540000D02*
X76330000Y-85053000D01*
X76370000Y-82001000D02*
X76370000Y-82460000D01*
X76370000Y-84540000D02*
X76370000Y-84999000D01*
X76410000Y-82057000D02*
X76410000Y-82460000D01*
X76410000Y-84540000D02*
X76410000Y-84943000D01*
X76450000Y-82117000D02*
X76450000Y-82460000D01*
X76450000Y-84540000D02*
X76450000Y-84883000D01*
X76490000Y-82181000D02*
X76490000Y-82460000D01*
X76490000Y-84540000D02*
X76490000Y-84819000D01*
X76530000Y-82249000D02*
X76530000Y-82460000D01*
X76530000Y-84540000D02*
X76530000Y-84751000D01*
X76570000Y-82323000D02*
X76570000Y-84677000D01*
X76610000Y-82402000D02*
X76610000Y-84598000D01*
X76650000Y-82489000D02*
X76650000Y-84511000D01*
X76690000Y-82586000D02*
X76690000Y-84414000D01*
X76730000Y-82695000D02*
X76730000Y-84305000D01*
X76770000Y-82823000D02*
X76770000Y-84177000D01*
X76810000Y-82983000D02*
X76810000Y-84017000D01*
X76850000Y-83217000D02*
X76850000Y-83783000D01*
X76870000Y-83500000D02*
G75*
G02*
X71630000Y-83500000I-2620000J0D01*
G01*
X71630000Y-83500000D02*
G75*
G02*
X76870000Y-83500000I2620000J0D01*
G01*
%TO.C,C5*%
X100760000Y-77280000D02*
X97083000Y-77280000D01*
X100760000Y-77320000D02*
X97093000Y-77320000D01*
X100760000Y-77360000D02*
X97104000Y-77360000D01*
X100760000Y-77400000D02*
X97115000Y-77400000D01*
X100760000Y-77440000D02*
X97127000Y-77440000D01*
X100760000Y-77480000D02*
X97139000Y-77480000D01*
X100760000Y-77520000D02*
X97151000Y-77520000D01*
X100760000Y-77560000D02*
X97163000Y-77560000D01*
X100760000Y-77600000D02*
X97176000Y-77600000D01*
X100760000Y-77640000D02*
X97190000Y-77640000D01*
X100760000Y-77680000D02*
X97203000Y-77680000D01*
X100760000Y-77720000D02*
X97218000Y-77720000D01*
X100760000Y-77760000D02*
X97232000Y-77760000D01*
X100760000Y-77800000D02*
X97247000Y-77800000D01*
X100760000Y-77840000D02*
X97262000Y-77840000D01*
X100760000Y-77880000D02*
X97278000Y-77880000D01*
X100760000Y-77920000D02*
X97294000Y-77920000D01*
X100760000Y-77960000D02*
X97310000Y-77960000D01*
X100760000Y-78000000D02*
X97327000Y-78000000D01*
X100760000Y-78040000D02*
X97344000Y-78040000D01*
X100760000Y-78080000D02*
X97362000Y-78080000D01*
X100760000Y-78120000D02*
X97380000Y-78120000D01*
X100760000Y-78160000D02*
X97398000Y-78160000D01*
X100760000Y-78200000D02*
X97417000Y-78200000D01*
X100760000Y-78240000D02*
X97436000Y-78240000D01*
X100760000Y-78280000D02*
X97456000Y-78280000D01*
X100760000Y-78320000D02*
X97476000Y-78320000D01*
X100760000Y-78360000D02*
X97496000Y-78360000D01*
X100760000Y-78400000D02*
X97517000Y-78400000D01*
X100760000Y-78440000D02*
X97539000Y-78440000D01*
X100760000Y-78480000D02*
X97561000Y-78480000D01*
X100760000Y-78520000D02*
X97583000Y-78520000D01*
X100760000Y-78560000D02*
X97606000Y-78560000D01*
X100760000Y-78600000D02*
X97629000Y-78600000D01*
X100760000Y-78640000D02*
X97653000Y-78640000D01*
X100760000Y-78680000D02*
X97677000Y-78680000D01*
X100760000Y-78720000D02*
X97702000Y-78720000D01*
X100760000Y-78760000D02*
X97728000Y-78760000D01*
X100760000Y-78800000D02*
X97753000Y-78800000D01*
X100760000Y-78840000D02*
X97780000Y-78840000D01*
X100760000Y-78880000D02*
X97807000Y-78880000D01*
X100760000Y-78920000D02*
X97834000Y-78920000D01*
X100760000Y-78960000D02*
X97862000Y-78960000D01*
X100760000Y-79000000D02*
X97891000Y-79000000D01*
X100760000Y-79040000D02*
X97920000Y-79040000D01*
X100760000Y-79080000D02*
X97950000Y-79080000D01*
X100760000Y-79120000D02*
X97980000Y-79120000D01*
X100760000Y-79160000D02*
X98012000Y-79160000D01*
X100760000Y-79200000D02*
X98043000Y-79200000D01*
X100760000Y-79240000D02*
X98076000Y-79240000D01*
X100760000Y-79280000D02*
X98109000Y-79280000D01*
X100760000Y-79320000D02*
X98142000Y-79320000D01*
X100760000Y-79360000D02*
X98177000Y-79360000D01*
X100760000Y-79400000D02*
X98212000Y-79400000D01*
X100760000Y-79440000D02*
X98248000Y-79440000D01*
X100760000Y-79480000D02*
X98284000Y-79480000D01*
X100760000Y-79520000D02*
X98322000Y-79520000D01*
X100760000Y-79560000D02*
X98360000Y-79560000D01*
X100760000Y-79600000D02*
X98399000Y-79600000D01*
X100760000Y-79640000D02*
X98439000Y-79640000D01*
X100760000Y-79680000D02*
X98480000Y-79680000D01*
X100760000Y-79720000D02*
X98522000Y-79720000D01*
X102599000Y-81080000D02*
X101401000Y-81080000D01*
X102862000Y-81040000D02*
X101138000Y-81040000D01*
X103062000Y-81000000D02*
X100938000Y-81000000D01*
X103230000Y-80960000D02*
X100770000Y-80960000D01*
X103377000Y-80920000D02*
X100623000Y-80920000D01*
X103509000Y-80880000D02*
X100491000Y-80880000D01*
X103630000Y-80840000D02*
X100370000Y-80840000D01*
X103742000Y-80800000D02*
X100258000Y-80800000D01*
X103846000Y-80760000D02*
X100154000Y-80760000D01*
X103944000Y-80720000D02*
X100056000Y-80720000D01*
X104037000Y-80680000D02*
X99963000Y-80680000D01*
X104124000Y-80640000D02*
X99876000Y-80640000D01*
X104208000Y-80600000D02*
X99792000Y-80600000D01*
X104288000Y-80560000D02*
X99712000Y-80560000D01*
X104365000Y-80520000D02*
X99635000Y-80520000D01*
X104439000Y-80480000D02*
X99561000Y-80480000D01*
X104510000Y-80440000D02*
X99490000Y-80440000D01*
X104578000Y-80400000D02*
X99422000Y-80400000D01*
X104644000Y-80360000D02*
X99356000Y-80360000D01*
X104708000Y-80320000D02*
X99292000Y-80320000D01*
X104770000Y-80280000D02*
X99230000Y-80280000D01*
X104830000Y-80240000D02*
X99170000Y-80240000D01*
X104875000Y-70520354D02*
X104875000Y-71520354D01*
X104888000Y-80200000D02*
X99112000Y-80200000D01*
X104945000Y-80160000D02*
X99055000Y-80160000D01*
X105000000Y-80120000D02*
X99000000Y-80120000D01*
X105053000Y-80080000D02*
X98947000Y-80080000D01*
X105105000Y-80040000D02*
X98895000Y-80040000D01*
X105156000Y-80000000D02*
X98844000Y-80000000D01*
X105205000Y-79960000D02*
X98795000Y-79960000D01*
X105254000Y-79920000D02*
X98746000Y-79920000D01*
X105301000Y-79880000D02*
X98699000Y-79880000D01*
X105347000Y-79840000D02*
X98653000Y-79840000D01*
X105375000Y-71020354D02*
X104375000Y-71020354D01*
X105391000Y-79800000D02*
X98609000Y-79800000D01*
X105435000Y-79760000D02*
X98565000Y-79760000D01*
X105478000Y-79720000D02*
X103240000Y-79720000D01*
X105520000Y-79680000D02*
X103240000Y-79680000D01*
X105561000Y-79640000D02*
X103240000Y-79640000D01*
X105601000Y-79600000D02*
X103240000Y-79600000D01*
X105640000Y-79560000D02*
X103240000Y-79560000D01*
X105678000Y-79520000D02*
X103240000Y-79520000D01*
X105716000Y-79480000D02*
X103240000Y-79480000D01*
X105752000Y-79440000D02*
X103240000Y-79440000D01*
X105788000Y-79400000D02*
X103240000Y-79400000D01*
X105823000Y-79360000D02*
X103240000Y-79360000D01*
X105858000Y-79320000D02*
X103240000Y-79320000D01*
X105891000Y-79280000D02*
X103240000Y-79280000D01*
X105924000Y-79240000D02*
X103240000Y-79240000D01*
X105957000Y-79200000D02*
X103240000Y-79200000D01*
X105988000Y-79160000D02*
X103240000Y-79160000D01*
X106020000Y-79120000D02*
X103240000Y-79120000D01*
X106050000Y-79080000D02*
X103240000Y-79080000D01*
X106080000Y-79040000D02*
X103240000Y-79040000D01*
X106109000Y-79000000D02*
X103240000Y-79000000D01*
X106138000Y-78960000D02*
X103240000Y-78960000D01*
X106166000Y-78920000D02*
X103240000Y-78920000D01*
X106193000Y-78880000D02*
X103240000Y-78880000D01*
X106220000Y-78840000D02*
X103240000Y-78840000D01*
X106247000Y-78800000D02*
X103240000Y-78800000D01*
X106272000Y-78760000D02*
X103240000Y-78760000D01*
X106298000Y-78720000D02*
X103240000Y-78720000D01*
X106323000Y-78680000D02*
X103240000Y-78680000D01*
X106347000Y-78640000D02*
X103240000Y-78640000D01*
X106371000Y-78600000D02*
X103240000Y-78600000D01*
X106394000Y-78560000D02*
X103240000Y-78560000D01*
X106417000Y-78520000D02*
X103240000Y-78520000D01*
X106439000Y-78480000D02*
X103240000Y-78480000D01*
X106461000Y-78440000D02*
X103240000Y-78440000D01*
X106483000Y-78400000D02*
X103240000Y-78400000D01*
X106504000Y-78360000D02*
X103240000Y-78360000D01*
X106524000Y-78320000D02*
X103240000Y-78320000D01*
X106544000Y-78280000D02*
X103240000Y-78280000D01*
X106564000Y-78240000D02*
X103240000Y-78240000D01*
X106583000Y-78200000D02*
X103240000Y-78200000D01*
X106602000Y-78160000D02*
X103240000Y-78160000D01*
X106620000Y-78120000D02*
X103240000Y-78120000D01*
X106638000Y-78080000D02*
X103240000Y-78080000D01*
X106656000Y-78040000D02*
X103240000Y-78040000D01*
X106673000Y-78000000D02*
X103240000Y-78000000D01*
X106690000Y-77960000D02*
X103240000Y-77960000D01*
X106706000Y-77920000D02*
X103240000Y-77920000D01*
X106722000Y-77880000D02*
X103240000Y-77880000D01*
X106738000Y-77840000D02*
X103240000Y-77840000D01*
X106753000Y-77800000D02*
X103240000Y-77800000D01*
X106768000Y-77760000D02*
X103240000Y-77760000D01*
X106782000Y-77720000D02*
X103240000Y-77720000D01*
X106797000Y-77680000D02*
X103240000Y-77680000D01*
X106810000Y-77640000D02*
X103240000Y-77640000D01*
X106824000Y-77600000D02*
X103240000Y-77600000D01*
X106837000Y-77560000D02*
X103240000Y-77560000D01*
X106849000Y-77520000D02*
X103240000Y-77520000D01*
X106861000Y-77480000D02*
X103240000Y-77480000D01*
X106873000Y-77440000D02*
X103240000Y-77440000D01*
X106885000Y-77400000D02*
X103240000Y-77400000D01*
X106896000Y-77360000D02*
X103240000Y-77360000D01*
X106907000Y-77320000D02*
X103240000Y-77320000D01*
X106917000Y-77280000D02*
X103240000Y-77280000D01*
X106928000Y-77240000D02*
X97072000Y-77240000D01*
X106937000Y-77200000D02*
X97063000Y-77200000D01*
X106947000Y-77160000D02*
X97053000Y-77160000D01*
X106956000Y-77120000D02*
X97044000Y-77120000D01*
X106965000Y-77080000D02*
X97035000Y-77080000D01*
X106973000Y-77040000D02*
X97027000Y-77040000D01*
X106981000Y-77000000D02*
X97019000Y-77000000D01*
X106989000Y-76960000D02*
X97011000Y-76960000D01*
X106997000Y-76920000D02*
X97003000Y-76920000D01*
X107004000Y-76880000D02*
X96996000Y-76880000D01*
X107011000Y-76840000D02*
X96989000Y-76840000D01*
X107017000Y-76800000D02*
X96983000Y-76800000D01*
X107023000Y-76760000D02*
X96977000Y-76760000D01*
X107029000Y-76720000D02*
X96971000Y-76720000D01*
X107035000Y-76680000D02*
X96965000Y-76680000D01*
X107040000Y-76640000D02*
X96960000Y-76640000D01*
X107045000Y-76600000D02*
X96955000Y-76600000D01*
X107049000Y-76560000D02*
X96951000Y-76560000D01*
X107054000Y-76520000D02*
X96946000Y-76520000D01*
X107057000Y-76480000D02*
X96943000Y-76480000D01*
X107061000Y-76440000D02*
X96939000Y-76440000D01*
X107064000Y-76400000D02*
X96936000Y-76400000D01*
X107067000Y-76360000D02*
X96933000Y-76360000D01*
X107070000Y-76320000D02*
X96930000Y-76320000D01*
X107072000Y-76280000D02*
X96928000Y-76280000D01*
X107074000Y-76240000D02*
X96926000Y-76240000D01*
X107076000Y-76200000D02*
X96924000Y-76200000D01*
X107077000Y-76160000D02*
X96923000Y-76160000D01*
X107079000Y-76080000D02*
X96921000Y-76080000D01*
X107079000Y-76120000D02*
X96921000Y-76120000D01*
X107080000Y-76000000D02*
X96920000Y-76000000D01*
X107080000Y-76040000D02*
X96920000Y-76040000D01*
X107120000Y-76000000D02*
G75*
G02*
X96880000Y-76000000I-5120000J0D01*
G01*
X96880000Y-76000000D02*
G75*
G02*
X107120000Y-76000000I5120000J0D01*
G01*
%TO.C,C9*%
X72960000Y-90490000D02*
X71431000Y-90490000D01*
X72960000Y-90530000D02*
X71435000Y-90530000D01*
X72960000Y-90570000D02*
X71440000Y-90570000D01*
X72960000Y-90610000D02*
X71445000Y-90610000D01*
X72960000Y-90650000D02*
X71451000Y-90650000D01*
X72960000Y-90690000D02*
X71457000Y-90690000D01*
X72960000Y-90730000D02*
X71464000Y-90730000D01*
X72960000Y-90770000D02*
X71472000Y-90770000D01*
X72960000Y-90810000D02*
X71481000Y-90810000D01*
X72960000Y-90850000D02*
X71490000Y-90850000D01*
X72960000Y-90890000D02*
X71499000Y-90890000D01*
X72960000Y-90930000D02*
X71510000Y-90930000D01*
X72960000Y-90970000D02*
X71521000Y-90970000D01*
X72960000Y-91010000D02*
X71533000Y-91010000D01*
X72960000Y-91050000D02*
X71545000Y-91050000D01*
X72960000Y-91090000D02*
X71558000Y-91090000D01*
X72960000Y-91130000D02*
X71572000Y-91130000D01*
X72960000Y-91170000D02*
X71587000Y-91170000D01*
X72960000Y-91210000D02*
X71602000Y-91210000D01*
X72960000Y-91250000D02*
X71618000Y-91250000D01*
X72960000Y-91290000D02*
X71635000Y-91290000D01*
X72960000Y-91330000D02*
X71653000Y-91330000D01*
X72960000Y-91370000D02*
X71671000Y-91370000D01*
X72960000Y-91410000D02*
X71691000Y-91410000D01*
X72960000Y-91450000D02*
X71711000Y-91450000D01*
X72960000Y-91490000D02*
X71732000Y-91490000D01*
X72960000Y-91530000D02*
X71754000Y-91530000D01*
X72960000Y-91570000D02*
X71777000Y-91570000D01*
X72960000Y-91610000D02*
X71801000Y-91610000D01*
X72960000Y-91650000D02*
X71825000Y-91650000D01*
X72960000Y-91690000D02*
X71851000Y-91690000D01*
X72960000Y-91730000D02*
X71878000Y-91730000D01*
X72960000Y-91770000D02*
X71906000Y-91770000D01*
X72960000Y-91810000D02*
X71935000Y-91810000D01*
X72960000Y-91850000D02*
X71965000Y-91850000D01*
X72960000Y-91890000D02*
X71997000Y-91890000D01*
X72960000Y-91930000D02*
X72030000Y-91930000D01*
X72960000Y-91970000D02*
X72064000Y-91970000D01*
X72960000Y-92010000D02*
X72099000Y-92010000D01*
X72960000Y-92050000D02*
X72136000Y-92050000D01*
X72960000Y-92090000D02*
X72175000Y-92090000D01*
X72960000Y-92130000D02*
X72215000Y-92130000D01*
X72960000Y-92170000D02*
X72257000Y-92170000D01*
X72960000Y-92210000D02*
X72301000Y-92210000D01*
X72960000Y-92250000D02*
X72348000Y-92250000D01*
X72960000Y-92290000D02*
X72396000Y-92290000D01*
X72960000Y-92330000D02*
X72447000Y-92330000D01*
X72960000Y-92370000D02*
X72501000Y-92370000D01*
X72960000Y-92410000D02*
X72557000Y-92410000D01*
X72960000Y-92450000D02*
X72617000Y-92450000D01*
X72960000Y-92490000D02*
X72681000Y-92490000D01*
X72960000Y-92530000D02*
X72749000Y-92530000D01*
X74283000Y-92850000D02*
X73717000Y-92850000D01*
X74517000Y-92810000D02*
X73483000Y-92810000D01*
X74677000Y-92770000D02*
X73323000Y-92770000D01*
X74805000Y-92730000D02*
X73195000Y-92730000D01*
X74914000Y-92690000D02*
X73086000Y-92690000D01*
X75011000Y-92650000D02*
X72989000Y-92650000D01*
X75098000Y-92610000D02*
X72902000Y-92610000D01*
X75177000Y-92570000D02*
X72823000Y-92570000D01*
X75251000Y-92530000D02*
X75040000Y-92530000D01*
X75319000Y-92490000D02*
X75040000Y-92490000D01*
X75383000Y-92450000D02*
X75040000Y-92450000D01*
X75443000Y-92410000D02*
X75040000Y-92410000D01*
X75475000Y-87445225D02*
X75475000Y-87945225D01*
X75499000Y-92370000D02*
X75040000Y-92370000D01*
X75553000Y-92330000D02*
X75040000Y-92330000D01*
X75604000Y-92290000D02*
X75040000Y-92290000D01*
X75652000Y-92250000D02*
X75040000Y-92250000D01*
X75699000Y-92210000D02*
X75040000Y-92210000D01*
X75725000Y-87695225D02*
X75225000Y-87695225D01*
X75743000Y-92170000D02*
X75040000Y-92170000D01*
X75785000Y-92130000D02*
X75040000Y-92130000D01*
X75825000Y-92090000D02*
X75040000Y-92090000D01*
X75864000Y-92050000D02*
X75040000Y-92050000D01*
X75901000Y-92010000D02*
X75040000Y-92010000D01*
X75936000Y-91970000D02*
X75040000Y-91970000D01*
X75970000Y-91930000D02*
X75040000Y-91930000D01*
X76003000Y-91890000D02*
X75040000Y-91890000D01*
X76035000Y-91850000D02*
X75040000Y-91850000D01*
X76065000Y-91810000D02*
X75040000Y-91810000D01*
X76094000Y-91770000D02*
X75040000Y-91770000D01*
X76122000Y-91730000D02*
X75040000Y-91730000D01*
X76149000Y-91690000D02*
X75040000Y-91690000D01*
X76175000Y-91650000D02*
X75040000Y-91650000D01*
X76199000Y-91610000D02*
X75040000Y-91610000D01*
X76223000Y-91570000D02*
X75040000Y-91570000D01*
X76246000Y-91530000D02*
X75040000Y-91530000D01*
X76268000Y-91490000D02*
X75040000Y-91490000D01*
X76289000Y-91450000D02*
X75040000Y-91450000D01*
X76309000Y-91410000D02*
X75040000Y-91410000D01*
X76329000Y-91370000D02*
X75040000Y-91370000D01*
X76347000Y-91330000D02*
X75040000Y-91330000D01*
X76365000Y-91290000D02*
X75040000Y-91290000D01*
X76382000Y-91250000D02*
X75040000Y-91250000D01*
X76398000Y-91210000D02*
X75040000Y-91210000D01*
X76413000Y-91170000D02*
X75040000Y-91170000D01*
X76428000Y-91130000D02*
X75040000Y-91130000D01*
X76442000Y-91090000D02*
X75040000Y-91090000D01*
X76455000Y-91050000D02*
X75040000Y-91050000D01*
X76467000Y-91010000D02*
X75040000Y-91010000D01*
X76479000Y-90970000D02*
X75040000Y-90970000D01*
X76490000Y-90930000D02*
X75040000Y-90930000D01*
X76501000Y-90890000D02*
X75040000Y-90890000D01*
X76510000Y-90850000D02*
X75040000Y-90850000D01*
X76519000Y-90810000D02*
X75040000Y-90810000D01*
X76528000Y-90770000D02*
X75040000Y-90770000D01*
X76536000Y-90730000D02*
X75040000Y-90730000D01*
X76543000Y-90690000D02*
X75040000Y-90690000D01*
X76549000Y-90650000D02*
X75040000Y-90650000D01*
X76555000Y-90610000D02*
X75040000Y-90610000D01*
X76560000Y-90570000D02*
X75040000Y-90570000D01*
X76565000Y-90530000D02*
X75040000Y-90530000D01*
X76569000Y-90490000D02*
X75040000Y-90490000D01*
X76572000Y-90450000D02*
X71428000Y-90450000D01*
X76575000Y-90410000D02*
X71425000Y-90410000D01*
X76577000Y-90370000D02*
X71423000Y-90370000D01*
X76579000Y-90330000D02*
X71421000Y-90330000D01*
X76580000Y-90250000D02*
X71420000Y-90250000D01*
X76580000Y-90290000D02*
X71420000Y-90290000D01*
X76620000Y-90250000D02*
G75*
G02*
X71380000Y-90250000I-2620000J0D01*
G01*
X71380000Y-90250000D02*
G75*
G02*
X76620000Y-90250000I2620000J0D01*
G01*
%TO.C,U4*%
X51000000Y-94500000D02*
X78000000Y-94500000D01*
X51000000Y-111500000D02*
X51000000Y-94500000D01*
X78000000Y-94500000D02*
X78000000Y-111500000D01*
X78000000Y-111500000D02*
X51000000Y-111500000D01*
%TO.C,BT1*%
X51120000Y-126730000D02*
X51120000Y-124080000D01*
X53880000Y-124080000D02*
X51120000Y-124080000D01*
X53880000Y-126730000D02*
X51120000Y-126730000D01*
X53880000Y-126730000D02*
X53880000Y-124080000D01*
X53880000Y-128000000D02*
X53880000Y-129380000D01*
X53880000Y-129380000D02*
X52500000Y-129380000D01*
%TO.C,U2*%
X56000000Y-116000000D02*
X66000000Y-116000000D01*
X56000000Y-125000000D02*
X56000000Y-116000000D01*
X66000000Y-112500000D02*
X90000000Y-112500000D01*
X66000000Y-125000000D02*
X56000000Y-125000000D01*
X66000000Y-128500000D02*
X66000000Y-112500000D01*
X90000000Y-112500000D02*
X90000000Y-128500000D01*
X90000000Y-128500000D02*
X66000000Y-128500000D01*
%TO.C,R3*%
X138500000Y-97540000D02*
X138500000Y-98310000D01*
X138500000Y-105620000D02*
X138500000Y-104850000D01*
X137130000Y-98310000D02*
X139870000Y-98310000D01*
X139870000Y-104850000D01*
X137130000Y-104850000D01*
X137130000Y-98310000D01*
%TO.C,C2*%
X79630000Y-96380000D02*
X79967000Y-96380000D01*
X79630000Y-101620000D02*
X79630000Y-96380000D01*
X79967000Y-101620000D02*
X79630000Y-101620000D01*
X82033000Y-96380000D02*
X82370000Y-96380000D01*
X82370000Y-96380000D02*
X82370000Y-101620000D01*
X82370000Y-101620000D02*
X82033000Y-101620000D01*
%TO.C,RADAR1*%
X140000000Y-109000000D02*
X160000000Y-109000000D01*
X140000000Y-129000000D02*
X140000000Y-109000000D01*
X160000000Y-109000000D02*
X160000000Y-129000000D01*
X160000000Y-129000000D02*
X140000000Y-129000000D01*
%TO.C,D1*%
X139940000Y-87764000D02*
X139940000Y-87920000D01*
X139940000Y-90080000D02*
X139940000Y-90236000D01*
X139940000Y-87764484D02*
G75*
G02*
X143171437Y-87920000I1560000J-1235516D01*
G01*
X140459039Y-87920000D02*
G75*
G02*
X142540961Y-87920000I1040961J-1080000D01*
G01*
X142540961Y-90080000D02*
G75*
G02*
X140459039Y-90080000I-1040961J1080000D01*
G01*
X143171437Y-90080000D02*
G75*
G02*
X139940000Y-90235516I-1671437J1080000D01*
G01*
%TO.C,U5*%
X114000000Y-66190000D02*
X148000000Y-66190000D01*
X114000000Y-79810000D02*
X114000000Y-66190000D01*
X148000000Y-66190000D02*
X148000000Y-79810000D01*
X148000000Y-79810000D02*
X114000000Y-79810000D01*
X146500000Y-73000000D02*
G75*
G02*
X138500000Y-73000000I-4000000J0D01*
G01*
X138500000Y-73000000D02*
G75*
G02*
X146500000Y-73000000I4000000J0D01*
G01*
%TO.C,SW1*%
X107000000Y-122750000D02*
X107000000Y-124250000D01*
X108250000Y-126750000D02*
X112750000Y-126750000D01*
X112750000Y-120250000D02*
X108250000Y-120250000D01*
X114000000Y-124250000D02*
X114000000Y-122750000D01*
%TO.C,U6*%
X120452500Y-118890000D02*
X122272500Y-118890000D01*
X120452500Y-118940000D02*
X120452500Y-118890000D01*
X120452500Y-122010000D02*
X120452500Y-121960000D01*
X122272500Y-118890000D02*
X122272500Y-118940000D01*
X122272500Y-121960000D02*
X122272500Y-122010000D01*
X122272500Y-122010000D02*
X120452500Y-122010000D01*
X119912500Y-118940000D02*
X119672500Y-118610000D01*
X120152500Y-118610000D01*
X119912500Y-118940000D01*
G36*
X119912500Y-118940000D02*
G01*
X119672500Y-118610000D01*
X120152500Y-118610000D01*
X119912500Y-118940000D01*
G37*
%TO.C,PIR1*%
X124000000Y-51750000D02*
X147000000Y-51750000D01*
X124000000Y-62250000D02*
X124000000Y-51750000D01*
X147000000Y-51750000D02*
X147000000Y-62250000D01*
X147000000Y-62250000D02*
X124000000Y-62250000D01*
X143500000Y-56980000D02*
G75*
G02*
X131500000Y-56980000I-6000000J0D01*
G01*
X131500000Y-56980000D02*
G75*
G02*
X143500000Y-56980000I6000000J0D01*
G01*
%TO.C,C7*%
X108630000Y-71380000D02*
X108967000Y-71380000D01*
X108630000Y-76620000D02*
X108630000Y-71380000D01*
X108967000Y-76620000D02*
X108630000Y-76620000D01*
X111033000Y-71380000D02*
X111370000Y-71380000D01*
X111370000Y-71380000D02*
X111370000Y-76620000D01*
X111370000Y-76620000D02*
X111033000Y-76620000D01*
%TO.C,R1*%
X94040000Y-121500000D02*
X94810000Y-121500000D01*
X102120000Y-121500000D02*
X101350000Y-121500000D01*
X94810000Y-120130000D02*
X101350000Y-120130000D01*
X101350000Y-122870000D01*
X94810000Y-122870000D01*
X94810000Y-120130000D01*
%TD*%
M02*
