%TF.GenerationSoftware,KiCad,Pcbnew,10.0.3*%
%TF.CreationDate,2026-09-01T14:46:18+05:30*%
%TF.ProjectId,fall_sensor,66616c6c-5f73-4656-9e73-6f722e6b6963,rev?*%
%TF.SameCoordinates,Original*%
%TF.FileFunction,Legend,Top*%
%TF.FilePolarity,Positive*%
%FSLAX46Y46*%
G04 Gerber Fmt 4.6, Leading zero omitted, Abs format (unit mm)*
G04 Created by KiCad (PCBNEW 10.0.3) date 2026-09-01 14:46:18*
%MOMM*%
%LPD*%
G01*
G04 APERTURE LIST*
%ADD10C,0.150000*%
%ADD11C,0.120000*%
G04 APERTURE END LIST*
D10*
X97657769Y-124290014D02*
X97324436Y-123813823D01*
X97086341Y-124290014D02*
X97086341Y-123290014D01*
X97086341Y-123290014D02*
X97467293Y-123290014D01*
X97467293Y-123290014D02*
X97562531Y-123337633D01*
X97562531Y-123337633D02*
X97610150Y-123385252D01*
X97610150Y-123385252D02*
X97657769Y-123480490D01*
X97657769Y-123480490D02*
X97657769Y-123623347D01*
X97657769Y-123623347D02*
X97610150Y-123718585D01*
X97610150Y-123718585D02*
X97562531Y-123766204D01*
X97562531Y-123766204D02*
X97467293Y-123813823D01*
X97467293Y-123813823D02*
X97086341Y-123813823D01*
X98038722Y-123385252D02*
X98086341Y-123337633D01*
X98086341Y-123337633D02*
X98181579Y-123290014D01*
X98181579Y-123290014D02*
X98419674Y-123290014D01*
X98419674Y-123290014D02*
X98514912Y-123337633D01*
X98514912Y-123337633D02*
X98562531Y-123385252D01*
X98562531Y-123385252D02*
X98610150Y-123480490D01*
X98610150Y-123480490D02*
X98610150Y-123575728D01*
X98610150Y-123575728D02*
X98562531Y-123718585D01*
X98562531Y-123718585D02*
X97991103Y-124290014D01*
X97991103Y-124290014D02*
X98610150Y-124290014D01*
X113859580Y-54666666D02*
X113907200Y-54714285D01*
X113907200Y-54714285D02*
X113954819Y-54857142D01*
X113954819Y-54857142D02*
X113954819Y-54952380D01*
X113954819Y-54952380D02*
X113907200Y-55095237D01*
X113907200Y-55095237D02*
X113811961Y-55190475D01*
X113811961Y-55190475D02*
X113716723Y-55238094D01*
X113716723Y-55238094D02*
X113526247Y-55285713D01*
X113526247Y-55285713D02*
X113383390Y-55285713D01*
X113383390Y-55285713D02*
X113192914Y-55238094D01*
X113192914Y-55238094D02*
X113097676Y-55190475D01*
X113097676Y-55190475D02*
X113002438Y-55095237D01*
X113002438Y-55095237D02*
X112954819Y-54952380D01*
X112954819Y-54952380D02*
X112954819Y-54857142D01*
X112954819Y-54857142D02*
X113002438Y-54714285D01*
X113002438Y-54714285D02*
X113050057Y-54666666D01*
X113288152Y-53809523D02*
X113954819Y-53809523D01*
X112907200Y-54047618D02*
X113621485Y-54285713D01*
X113621485Y-54285713D02*
X113621485Y-53666666D01*
X114038095Y-112114819D02*
X114038095Y-112924342D01*
X114038095Y-112924342D02*
X114085714Y-113019580D01*
X114085714Y-113019580D02*
X114133333Y-113067200D01*
X114133333Y-113067200D02*
X114228571Y-113114819D01*
X114228571Y-113114819D02*
X114419047Y-113114819D01*
X114419047Y-113114819D02*
X114514285Y-113067200D01*
X114514285Y-113067200D02*
X114561904Y-113019580D01*
X114561904Y-113019580D02*
X114609523Y-112924342D01*
X114609523Y-112924342D02*
X114609523Y-112114819D01*
X115609523Y-113114819D02*
X115038095Y-113114819D01*
X115323809Y-113114819D02*
X115323809Y-112114819D01*
X115323809Y-112114819D02*
X115228571Y-112257676D01*
X115228571Y-112257676D02*
X115133333Y-112352914D01*
X115133333Y-112352914D02*
X115038095Y-112400533D01*
X73954819Y-74761904D02*
X74764342Y-74761904D01*
X74764342Y-74761904D02*
X74859580Y-74714285D01*
X74859580Y-74714285D02*
X74907200Y-74666666D01*
X74907200Y-74666666D02*
X74954819Y-74571428D01*
X74954819Y-74571428D02*
X74954819Y-74380952D01*
X74954819Y-74380952D02*
X74907200Y-74285714D01*
X74907200Y-74285714D02*
X74859580Y-74238095D01*
X74859580Y-74238095D02*
X74764342Y-74190476D01*
X74764342Y-74190476D02*
X73954819Y-74190476D01*
X73954819Y-73809523D02*
X73954819Y-73142857D01*
X73954819Y-73142857D02*
X74954819Y-73571428D01*
X55166667Y-114407200D02*
X55309524Y-114454819D01*
X55309524Y-114454819D02*
X55547619Y-114454819D01*
X55547619Y-114454819D02*
X55642857Y-114407200D01*
X55642857Y-114407200D02*
X55690476Y-114359580D01*
X55690476Y-114359580D02*
X55738095Y-114264342D01*
X55738095Y-114264342D02*
X55738095Y-114169104D01*
X55738095Y-114169104D02*
X55690476Y-114073866D01*
X55690476Y-114073866D02*
X55642857Y-114026247D01*
X55642857Y-114026247D02*
X55547619Y-113978628D01*
X55547619Y-113978628D02*
X55357143Y-113931009D01*
X55357143Y-113931009D02*
X55261905Y-113883390D01*
X55261905Y-113883390D02*
X55214286Y-113835771D01*
X55214286Y-113835771D02*
X55166667Y-113740533D01*
X55166667Y-113740533D02*
X55166667Y-113645295D01*
X55166667Y-113645295D02*
X55214286Y-113550057D01*
X55214286Y-113550057D02*
X55261905Y-113502438D01*
X55261905Y-113502438D02*
X55357143Y-113454819D01*
X55357143Y-113454819D02*
X55595238Y-113454819D01*
X55595238Y-113454819D02*
X55738095Y-113502438D01*
X56071429Y-113454819D02*
X56309524Y-114454819D01*
X56309524Y-114454819D02*
X56500000Y-113740533D01*
X56500000Y-113740533D02*
X56690476Y-114454819D01*
X56690476Y-114454819D02*
X56928572Y-113454819D01*
X57261905Y-113550057D02*
X57309524Y-113502438D01*
X57309524Y-113502438D02*
X57404762Y-113454819D01*
X57404762Y-113454819D02*
X57642857Y-113454819D01*
X57642857Y-113454819D02*
X57738095Y-113502438D01*
X57738095Y-113502438D02*
X57785714Y-113550057D01*
X57785714Y-113550057D02*
X57833333Y-113645295D01*
X57833333Y-113645295D02*
X57833333Y-113740533D01*
X57833333Y-113740533D02*
X57785714Y-113883390D01*
X57785714Y-113883390D02*
X57214286Y-114454819D01*
X57214286Y-114454819D02*
X57833333Y-114454819D01*
X95238095Y-68954819D02*
X95238095Y-69764342D01*
X95238095Y-69764342D02*
X95285714Y-69859580D01*
X95285714Y-69859580D02*
X95333333Y-69907200D01*
X95333333Y-69907200D02*
X95428571Y-69954819D01*
X95428571Y-69954819D02*
X95619047Y-69954819D01*
X95619047Y-69954819D02*
X95714285Y-69907200D01*
X95714285Y-69907200D02*
X95761904Y-69859580D01*
X95761904Y-69859580D02*
X95809523Y-69764342D01*
X95809523Y-69764342D02*
X95809523Y-68954819D01*
X96190476Y-68954819D02*
X96809523Y-68954819D01*
X96809523Y-68954819D02*
X96476190Y-69335771D01*
X96476190Y-69335771D02*
X96619047Y-69335771D01*
X96619047Y-69335771D02*
X96714285Y-69383390D01*
X96714285Y-69383390D02*
X96761904Y-69431009D01*
X96761904Y-69431009D02*
X96809523Y-69526247D01*
X96809523Y-69526247D02*
X96809523Y-69764342D01*
X96809523Y-69764342D02*
X96761904Y-69859580D01*
X96761904Y-69859580D02*
X96714285Y-69907200D01*
X96714285Y-69907200D02*
X96619047Y-69954819D01*
X96619047Y-69954819D02*
X96333333Y-69954819D01*
X96333333Y-69954819D02*
X96238095Y-69907200D01*
X96238095Y-69907200D02*
X96190476Y-69859580D01*
X78954819Y-108761904D02*
X79764342Y-108761904D01*
X79764342Y-108761904D02*
X79859580Y-108714285D01*
X79859580Y-108714285D02*
X79907200Y-108666666D01*
X79907200Y-108666666D02*
X79954819Y-108571428D01*
X79954819Y-108571428D02*
X79954819Y-108380952D01*
X79954819Y-108380952D02*
X79907200Y-108285714D01*
X79907200Y-108285714D02*
X79859580Y-108238095D01*
X79859580Y-108238095D02*
X79764342Y-108190476D01*
X79764342Y-108190476D02*
X78954819Y-108190476D01*
X79288152Y-107285714D02*
X79954819Y-107285714D01*
X78907200Y-107523809D02*
X79621485Y-107761904D01*
X79621485Y-107761904D02*
X79621485Y-107142857D01*
X51714285Y-122431009D02*
X51857142Y-122478628D01*
X51857142Y-122478628D02*
X51904761Y-122526247D01*
X51904761Y-122526247D02*
X51952380Y-122621485D01*
X51952380Y-122621485D02*
X51952380Y-122764342D01*
X51952380Y-122764342D02*
X51904761Y-122859580D01*
X51904761Y-122859580D02*
X51857142Y-122907200D01*
X51857142Y-122907200D02*
X51761904Y-122954819D01*
X51761904Y-122954819D02*
X51380952Y-122954819D01*
X51380952Y-122954819D02*
X51380952Y-121954819D01*
X51380952Y-121954819D02*
X51714285Y-121954819D01*
X51714285Y-121954819D02*
X51809523Y-122002438D01*
X51809523Y-122002438D02*
X51857142Y-122050057D01*
X51857142Y-122050057D02*
X51904761Y-122145295D01*
X51904761Y-122145295D02*
X51904761Y-122240533D01*
X51904761Y-122240533D02*
X51857142Y-122335771D01*
X51857142Y-122335771D02*
X51809523Y-122383390D01*
X51809523Y-122383390D02*
X51714285Y-122431009D01*
X51714285Y-122431009D02*
X51380952Y-122431009D01*
X52238095Y-121954819D02*
X52809523Y-121954819D01*
X52523809Y-122954819D02*
X52523809Y-121954819D01*
X53666666Y-122954819D02*
X53095238Y-122954819D01*
X53380952Y-122954819D02*
X53380952Y-121954819D01*
X53380952Y-121954819D02*
X53285714Y-122097676D01*
X53285714Y-122097676D02*
X53190476Y-122192914D01*
X53190476Y-122192914D02*
X53095238Y-122240533D01*
X62738095Y-126454819D02*
X62738095Y-127264342D01*
X62738095Y-127264342D02*
X62785714Y-127359580D01*
X62785714Y-127359580D02*
X62833333Y-127407200D01*
X62833333Y-127407200D02*
X62928571Y-127454819D01*
X62928571Y-127454819D02*
X63119047Y-127454819D01*
X63119047Y-127454819D02*
X63214285Y-127407200D01*
X63214285Y-127407200D02*
X63261904Y-127359580D01*
X63261904Y-127359580D02*
X63309523Y-127264342D01*
X63309523Y-127264342D02*
X63309523Y-126454819D01*
X63738095Y-126550057D02*
X63785714Y-126502438D01*
X63785714Y-126502438D02*
X63880952Y-126454819D01*
X63880952Y-126454819D02*
X64119047Y-126454819D01*
X64119047Y-126454819D02*
X64214285Y-126502438D01*
X64214285Y-126502438D02*
X64261904Y-126550057D01*
X64261904Y-126550057D02*
X64309523Y-126645295D01*
X64309523Y-126645295D02*
X64309523Y-126740533D01*
X64309523Y-126740533D02*
X64261904Y-126883390D01*
X64261904Y-126883390D02*
X63690476Y-127454819D01*
X63690476Y-127454819D02*
X64309523Y-127454819D01*
X136584819Y-101746666D02*
X136108628Y-102079999D01*
X136584819Y-102318094D02*
X135584819Y-102318094D01*
X135584819Y-102318094D02*
X135584819Y-101937142D01*
X135584819Y-101937142D02*
X135632438Y-101841904D01*
X135632438Y-101841904D02*
X135680057Y-101794285D01*
X135680057Y-101794285D02*
X135775295Y-101746666D01*
X135775295Y-101746666D02*
X135918152Y-101746666D01*
X135918152Y-101746666D02*
X136013390Y-101794285D01*
X136013390Y-101794285D02*
X136061009Y-101841904D01*
X136061009Y-101841904D02*
X136108628Y-101937142D01*
X136108628Y-101937142D02*
X136108628Y-102318094D01*
X135584819Y-101413332D02*
X135584819Y-100794285D01*
X135584819Y-100794285D02*
X135965771Y-101127618D01*
X135965771Y-101127618D02*
X135965771Y-100984761D01*
X135965771Y-100984761D02*
X136013390Y-100889523D01*
X136013390Y-100889523D02*
X136061009Y-100841904D01*
X136061009Y-100841904D02*
X136156247Y-100794285D01*
X136156247Y-100794285D02*
X136394342Y-100794285D01*
X136394342Y-100794285D02*
X136489580Y-100841904D01*
X136489580Y-100841904D02*
X136537200Y-100889523D01*
X136537200Y-100889523D02*
X136584819Y-100984761D01*
X136584819Y-100984761D02*
X136584819Y-101270475D01*
X136584819Y-101270475D02*
X136537200Y-101365713D01*
X136537200Y-101365713D02*
X136489580Y-101413332D01*
X86859580Y-94166666D02*
X86907200Y-94214285D01*
X86907200Y-94214285D02*
X86954819Y-94357142D01*
X86954819Y-94357142D02*
X86954819Y-94452380D01*
X86954819Y-94452380D02*
X86907200Y-94595237D01*
X86907200Y-94595237D02*
X86811961Y-94690475D01*
X86811961Y-94690475D02*
X86716723Y-94738094D01*
X86716723Y-94738094D02*
X86526247Y-94785713D01*
X86526247Y-94785713D02*
X86383390Y-94785713D01*
X86383390Y-94785713D02*
X86192914Y-94738094D01*
X86192914Y-94738094D02*
X86097676Y-94690475D01*
X86097676Y-94690475D02*
X86002438Y-94595237D01*
X86002438Y-94595237D02*
X85954819Y-94452380D01*
X85954819Y-94452380D02*
X85954819Y-94357142D01*
X85954819Y-94357142D02*
X86002438Y-94214285D01*
X86002438Y-94214285D02*
X86050057Y-94166666D01*
X86954819Y-93214285D02*
X86954819Y-93785713D01*
X86954819Y-93499999D02*
X85954819Y-93499999D01*
X85954819Y-93499999D02*
X86097676Y-93595237D01*
X86097676Y-93595237D02*
X86192914Y-93690475D01*
X86192914Y-93690475D02*
X86240533Y-93785713D01*
X94609580Y-73916666D02*
X94657200Y-73964285D01*
X94657200Y-73964285D02*
X94704819Y-74107142D01*
X94704819Y-74107142D02*
X94704819Y-74202380D01*
X94704819Y-74202380D02*
X94657200Y-74345237D01*
X94657200Y-74345237D02*
X94561961Y-74440475D01*
X94561961Y-74440475D02*
X94466723Y-74488094D01*
X94466723Y-74488094D02*
X94276247Y-74535713D01*
X94276247Y-74535713D02*
X94133390Y-74535713D01*
X94133390Y-74535713D02*
X93942914Y-74488094D01*
X93942914Y-74488094D02*
X93847676Y-74440475D01*
X93847676Y-74440475D02*
X93752438Y-74345237D01*
X93752438Y-74345237D02*
X93704819Y-74202380D01*
X93704819Y-74202380D02*
X93704819Y-74107142D01*
X93704819Y-74107142D02*
X93752438Y-73964285D01*
X93752438Y-73964285D02*
X93800057Y-73916666D01*
X93704819Y-73583332D02*
X93704819Y-72964285D01*
X93704819Y-72964285D02*
X94085771Y-73297618D01*
X94085771Y-73297618D02*
X94085771Y-73154761D01*
X94085771Y-73154761D02*
X94133390Y-73059523D01*
X94133390Y-73059523D02*
X94181009Y-73011904D01*
X94181009Y-73011904D02*
X94276247Y-72964285D01*
X94276247Y-72964285D02*
X94514342Y-72964285D01*
X94514342Y-72964285D02*
X94609580Y-73011904D01*
X94609580Y-73011904D02*
X94657200Y-73059523D01*
X94657200Y-73059523D02*
X94704819Y-73154761D01*
X94704819Y-73154761D02*
X94704819Y-73440475D01*
X94704819Y-73440475D02*
X94657200Y-73535713D01*
X94657200Y-73535713D02*
X94609580Y-73583332D01*
X133976190Y-128454819D02*
X133642857Y-127978628D01*
X133404762Y-128454819D02*
X133404762Y-127454819D01*
X133404762Y-127454819D02*
X133785714Y-127454819D01*
X133785714Y-127454819D02*
X133880952Y-127502438D01*
X133880952Y-127502438D02*
X133928571Y-127550057D01*
X133928571Y-127550057D02*
X133976190Y-127645295D01*
X133976190Y-127645295D02*
X133976190Y-127788152D01*
X133976190Y-127788152D02*
X133928571Y-127883390D01*
X133928571Y-127883390D02*
X133880952Y-127931009D01*
X133880952Y-127931009D02*
X133785714Y-127978628D01*
X133785714Y-127978628D02*
X133404762Y-127978628D01*
X134357143Y-128169104D02*
X134833333Y-128169104D01*
X134261905Y-128454819D02*
X134595238Y-127454819D01*
X134595238Y-127454819D02*
X134928571Y-128454819D01*
X135261905Y-128454819D02*
X135261905Y-127454819D01*
X135261905Y-127454819D02*
X135500000Y-127454819D01*
X135500000Y-127454819D02*
X135642857Y-127502438D01*
X135642857Y-127502438D02*
X135738095Y-127597676D01*
X135738095Y-127597676D02*
X135785714Y-127692914D01*
X135785714Y-127692914D02*
X135833333Y-127883390D01*
X135833333Y-127883390D02*
X135833333Y-128026247D01*
X135833333Y-128026247D02*
X135785714Y-128216723D01*
X135785714Y-128216723D02*
X135738095Y-128311961D01*
X135738095Y-128311961D02*
X135642857Y-128407200D01*
X135642857Y-128407200D02*
X135500000Y-128454819D01*
X135500000Y-128454819D02*
X135261905Y-128454819D01*
X136214286Y-128169104D02*
X136690476Y-128169104D01*
X136119048Y-128454819D02*
X136452381Y-127454819D01*
X136452381Y-127454819D02*
X136785714Y-128454819D01*
X137690476Y-128454819D02*
X137357143Y-127978628D01*
X137119048Y-128454819D02*
X137119048Y-127454819D01*
X137119048Y-127454819D02*
X137500000Y-127454819D01*
X137500000Y-127454819D02*
X137595238Y-127502438D01*
X137595238Y-127502438D02*
X137642857Y-127550057D01*
X137642857Y-127550057D02*
X137690476Y-127645295D01*
X137690476Y-127645295D02*
X137690476Y-127788152D01*
X137690476Y-127788152D02*
X137642857Y-127883390D01*
X137642857Y-127883390D02*
X137595238Y-127931009D01*
X137595238Y-127931009D02*
X137500000Y-127978628D01*
X137500000Y-127978628D02*
X137119048Y-127978628D01*
X138642857Y-128454819D02*
X138071429Y-128454819D01*
X138357143Y-128454819D02*
X138357143Y-127454819D01*
X138357143Y-127454819D02*
X138261905Y-127597676D01*
X138261905Y-127597676D02*
X138166667Y-127692914D01*
X138166667Y-127692914D02*
X138071429Y-127740533D01*
X138341905Y-87244819D02*
X138341905Y-86244819D01*
X138341905Y-86244819D02*
X138580000Y-86244819D01*
X138580000Y-86244819D02*
X138722857Y-86292438D01*
X138722857Y-86292438D02*
X138818095Y-86387676D01*
X138818095Y-86387676D02*
X138865714Y-86482914D01*
X138865714Y-86482914D02*
X138913333Y-86673390D01*
X138913333Y-86673390D02*
X138913333Y-86816247D01*
X138913333Y-86816247D02*
X138865714Y-87006723D01*
X138865714Y-87006723D02*
X138818095Y-87101961D01*
X138818095Y-87101961D02*
X138722857Y-87197200D01*
X138722857Y-87197200D02*
X138580000Y-87244819D01*
X138580000Y-87244819D02*
X138341905Y-87244819D01*
X139865714Y-87244819D02*
X139294286Y-87244819D01*
X139580000Y-87244819D02*
X139580000Y-86244819D01*
X139580000Y-86244819D02*
X139484762Y-86387676D01*
X139484762Y-86387676D02*
X139389524Y-86482914D01*
X139389524Y-86482914D02*
X139294286Y-86530533D01*
X112414819Y-73761904D02*
X113224342Y-73761904D01*
X113224342Y-73761904D02*
X113319580Y-73714285D01*
X113319580Y-73714285D02*
X113367200Y-73666666D01*
X113367200Y-73666666D02*
X113414819Y-73571428D01*
X113414819Y-73571428D02*
X113414819Y-73380952D01*
X113414819Y-73380952D02*
X113367200Y-73285714D01*
X113367200Y-73285714D02*
X113319580Y-73238095D01*
X113319580Y-73238095D02*
X113224342Y-73190476D01*
X113224342Y-73190476D02*
X112414819Y-73190476D01*
X112414819Y-72238095D02*
X112414819Y-72714285D01*
X112414819Y-72714285D02*
X112891009Y-72761904D01*
X112891009Y-72761904D02*
X112843390Y-72714285D01*
X112843390Y-72714285D02*
X112795771Y-72619047D01*
X112795771Y-72619047D02*
X112795771Y-72380952D01*
X112795771Y-72380952D02*
X112843390Y-72285714D01*
X112843390Y-72285714D02*
X112891009Y-72238095D01*
X112891009Y-72238095D02*
X112986247Y-72190476D01*
X112986247Y-72190476D02*
X113224342Y-72190476D01*
X113224342Y-72190476D02*
X113319580Y-72238095D01*
X113319580Y-72238095D02*
X113367200Y-72285714D01*
X113367200Y-72285714D02*
X113414819Y-72380952D01*
X113414819Y-72380952D02*
X113414819Y-72619047D01*
X113414819Y-72619047D02*
X113367200Y-72714285D01*
X113367200Y-72714285D02*
X113319580Y-72761904D01*
X109166667Y-119657200D02*
X109309524Y-119704819D01*
X109309524Y-119704819D02*
X109547619Y-119704819D01*
X109547619Y-119704819D02*
X109642857Y-119657200D01*
X109642857Y-119657200D02*
X109690476Y-119609580D01*
X109690476Y-119609580D02*
X109738095Y-119514342D01*
X109738095Y-119514342D02*
X109738095Y-119419104D01*
X109738095Y-119419104D02*
X109690476Y-119323866D01*
X109690476Y-119323866D02*
X109642857Y-119276247D01*
X109642857Y-119276247D02*
X109547619Y-119228628D01*
X109547619Y-119228628D02*
X109357143Y-119181009D01*
X109357143Y-119181009D02*
X109261905Y-119133390D01*
X109261905Y-119133390D02*
X109214286Y-119085771D01*
X109214286Y-119085771D02*
X109166667Y-118990533D01*
X109166667Y-118990533D02*
X109166667Y-118895295D01*
X109166667Y-118895295D02*
X109214286Y-118800057D01*
X109214286Y-118800057D02*
X109261905Y-118752438D01*
X109261905Y-118752438D02*
X109357143Y-118704819D01*
X109357143Y-118704819D02*
X109595238Y-118704819D01*
X109595238Y-118704819D02*
X109738095Y-118752438D01*
X110071429Y-118704819D02*
X110309524Y-119704819D01*
X110309524Y-119704819D02*
X110500000Y-118990533D01*
X110500000Y-118990533D02*
X110690476Y-119704819D01*
X110690476Y-119704819D02*
X110928572Y-118704819D01*
X111833333Y-119704819D02*
X111261905Y-119704819D01*
X111547619Y-119704819D02*
X111547619Y-118704819D01*
X111547619Y-118704819D02*
X111452381Y-118847676D01*
X111452381Y-118847676D02*
X111357143Y-118942914D01*
X111357143Y-118942914D02*
X111261905Y-118990533D01*
X120600595Y-117504819D02*
X120600595Y-118314342D01*
X120600595Y-118314342D02*
X120648214Y-118409580D01*
X120648214Y-118409580D02*
X120695833Y-118457200D01*
X120695833Y-118457200D02*
X120791071Y-118504819D01*
X120791071Y-118504819D02*
X120981547Y-118504819D01*
X120981547Y-118504819D02*
X121076785Y-118457200D01*
X121076785Y-118457200D02*
X121124404Y-118409580D01*
X121124404Y-118409580D02*
X121172023Y-118314342D01*
X121172023Y-118314342D02*
X121172023Y-117504819D01*
X122076785Y-117504819D02*
X121886309Y-117504819D01*
X121886309Y-117504819D02*
X121791071Y-117552438D01*
X121791071Y-117552438D02*
X121743452Y-117600057D01*
X121743452Y-117600057D02*
X121648214Y-117742914D01*
X121648214Y-117742914D02*
X121600595Y-117933390D01*
X121600595Y-117933390D02*
X121600595Y-118314342D01*
X121600595Y-118314342D02*
X121648214Y-118409580D01*
X121648214Y-118409580D02*
X121695833Y-118457200D01*
X121695833Y-118457200D02*
X121791071Y-118504819D01*
X121791071Y-118504819D02*
X121981547Y-118504819D01*
X121981547Y-118504819D02*
X122076785Y-118457200D01*
X122076785Y-118457200D02*
X122124404Y-118409580D01*
X122124404Y-118409580D02*
X122172023Y-118314342D01*
X122172023Y-118314342D02*
X122172023Y-118076247D01*
X122172023Y-118076247D02*
X122124404Y-117981009D01*
X122124404Y-117981009D02*
X122076785Y-117933390D01*
X122076785Y-117933390D02*
X121981547Y-117885771D01*
X121981547Y-117885771D02*
X121791071Y-117885771D01*
X121791071Y-117885771D02*
X121695833Y-117933390D01*
X121695833Y-117933390D02*
X121648214Y-117981009D01*
X121648214Y-117981009D02*
X121600595Y-118076247D01*
X123414819Y-58456189D02*
X122414819Y-58456189D01*
X122414819Y-58456189D02*
X122414819Y-58075237D01*
X122414819Y-58075237D02*
X122462438Y-57979999D01*
X122462438Y-57979999D02*
X122510057Y-57932380D01*
X122510057Y-57932380D02*
X122605295Y-57884761D01*
X122605295Y-57884761D02*
X122748152Y-57884761D01*
X122748152Y-57884761D02*
X122843390Y-57932380D01*
X122843390Y-57932380D02*
X122891009Y-57979999D01*
X122891009Y-57979999D02*
X122938628Y-58075237D01*
X122938628Y-58075237D02*
X122938628Y-58456189D01*
X123414819Y-57456189D02*
X122414819Y-57456189D01*
X123414819Y-56408571D02*
X122938628Y-56741904D01*
X123414819Y-56979999D02*
X122414819Y-56979999D01*
X122414819Y-56979999D02*
X122414819Y-56599047D01*
X122414819Y-56599047D02*
X122462438Y-56503809D01*
X122462438Y-56503809D02*
X122510057Y-56456190D01*
X122510057Y-56456190D02*
X122605295Y-56408571D01*
X122605295Y-56408571D02*
X122748152Y-56408571D01*
X122748152Y-56408571D02*
X122843390Y-56456190D01*
X122843390Y-56456190D02*
X122891009Y-56503809D01*
X122891009Y-56503809D02*
X122938628Y-56599047D01*
X122938628Y-56599047D02*
X122938628Y-56979999D01*
X123414819Y-55456190D02*
X123414819Y-56027618D01*
X123414819Y-55741904D02*
X122414819Y-55741904D01*
X122414819Y-55741904D02*
X122557676Y-55837142D01*
X122557676Y-55837142D02*
X122652914Y-55932380D01*
X122652914Y-55932380D02*
X122700533Y-56027618D01*
X107359580Y-70666666D02*
X107407200Y-70714285D01*
X107407200Y-70714285D02*
X107454819Y-70857142D01*
X107454819Y-70857142D02*
X107454819Y-70952380D01*
X107454819Y-70952380D02*
X107407200Y-71095237D01*
X107407200Y-71095237D02*
X107311961Y-71190475D01*
X107311961Y-71190475D02*
X107216723Y-71238094D01*
X107216723Y-71238094D02*
X107026247Y-71285713D01*
X107026247Y-71285713D02*
X106883390Y-71285713D01*
X106883390Y-71285713D02*
X106692914Y-71238094D01*
X106692914Y-71238094D02*
X106597676Y-71190475D01*
X106597676Y-71190475D02*
X106502438Y-71095237D01*
X106502438Y-71095237D02*
X106454819Y-70952380D01*
X106454819Y-70952380D02*
X106454819Y-70857142D01*
X106454819Y-70857142D02*
X106502438Y-70714285D01*
X106502438Y-70714285D02*
X106550057Y-70666666D01*
X106454819Y-70333332D02*
X106454819Y-69666666D01*
X106454819Y-69666666D02*
X107454819Y-70095237D01*
X97913333Y-118954819D02*
X97580000Y-118478628D01*
X97341905Y-118954819D02*
X97341905Y-117954819D01*
X97341905Y-117954819D02*
X97722857Y-117954819D01*
X97722857Y-117954819D02*
X97818095Y-118002438D01*
X97818095Y-118002438D02*
X97865714Y-118050057D01*
X97865714Y-118050057D02*
X97913333Y-118145295D01*
X97913333Y-118145295D02*
X97913333Y-118288152D01*
X97913333Y-118288152D02*
X97865714Y-118383390D01*
X97865714Y-118383390D02*
X97818095Y-118431009D01*
X97818095Y-118431009D02*
X97722857Y-118478628D01*
X97722857Y-118478628D02*
X97341905Y-118478628D01*
X98865714Y-118954819D02*
X98294286Y-118954819D01*
X98580000Y-118954819D02*
X98580000Y-117954819D01*
X98580000Y-117954819D02*
X98484762Y-118097676D01*
X98484762Y-118097676D02*
X98389524Y-118192914D01*
X98389524Y-118192914D02*
X98294286Y-118240533D01*
%TO.C,R2*%
D11*
X93960000Y-126000000D02*
X94730000Y-126000000D01*
X102040000Y-126000000D02*
X101270000Y-126000000D01*
X94730000Y-124630000D02*
X101270000Y-124630000D01*
X101270000Y-127370000D01*
X94730000Y-127370000D01*
X94730000Y-124630000D01*
%TO.C,C4*%
X109630000Y-51880000D02*
X109967000Y-51880000D01*
X109630000Y-57120000D02*
X109630000Y-51880000D01*
X109967000Y-57120000D02*
X109630000Y-57120000D01*
X112033000Y-51880000D02*
X112370000Y-51880000D01*
X112370000Y-51880000D02*
X112370000Y-57120000D01*
X112370000Y-57120000D02*
X112033000Y-57120000D01*
%TO.C,U1*%
X95180000Y-82660000D02*
X134380000Y-82660000D01*
X95180000Y-111660000D02*
X95180000Y-82660000D01*
X134380000Y-82660000D02*
X134380000Y-111660000D01*
X134380000Y-111660000D02*
X95180000Y-111660000D01*
%TO.C,U7*%
X51000000Y-51000000D02*
X70000000Y-51000000D01*
X51000000Y-94000000D02*
X51000000Y-51000000D01*
X70000000Y-51000000D02*
X70000000Y-94000000D01*
X70000000Y-94000000D02*
X51000000Y-94000000D01*
%TO.C,SW2*%
X51120000Y-113120000D02*
X52500000Y-113120000D01*
X51120000Y-114500000D02*
X51120000Y-113120000D01*
X51120000Y-115770000D02*
X51120000Y-118420000D01*
X51120000Y-115770000D02*
X53880000Y-115770000D01*
X51120000Y-118420000D02*
X53880000Y-118420000D01*
X53880000Y-115770000D02*
X53880000Y-118420000D01*
%TO.C,U3*%
X71000000Y-51000000D02*
X108000000Y-51000000D01*
X71000000Y-68000000D02*
X71000000Y-51000000D01*
X108000000Y-51000000D02*
X108000000Y-68000000D01*
X108000000Y-68000000D02*
X71000000Y-68000000D01*
%TO.C,U4*%
X51000000Y-94500000D02*
X78000000Y-94500000D01*
X51000000Y-111500000D02*
X51000000Y-94500000D01*
X78000000Y-94500000D02*
X78000000Y-111500000D01*
X78000000Y-111500000D02*
X51000000Y-111500000D01*
%TO.C,BT1*%
X51120000Y-126730000D02*
X51120000Y-124080000D01*
X53880000Y-124080000D02*
X51120000Y-124080000D01*
X53880000Y-126730000D02*
X51120000Y-126730000D01*
X53880000Y-126730000D02*
X53880000Y-124080000D01*
X53880000Y-128000000D02*
X53880000Y-129380000D01*
X53880000Y-129380000D02*
X52500000Y-129380000D01*
%TO.C,U2*%
X56000000Y-116000000D02*
X66000000Y-116000000D01*
X56000000Y-125000000D02*
X56000000Y-116000000D01*
X66000000Y-112500000D02*
X90000000Y-112500000D01*
X66000000Y-125000000D02*
X56000000Y-125000000D01*
X66000000Y-128500000D02*
X66000000Y-112500000D01*
X90000000Y-112500000D02*
X90000000Y-128500000D01*
X90000000Y-128500000D02*
X66000000Y-128500000D01*
%TO.C,R3*%
X138500000Y-97540000D02*
X138500000Y-98310000D01*
X138500000Y-105620000D02*
X138500000Y-104850000D01*
X137130000Y-98310000D02*
X139870000Y-98310000D01*
X139870000Y-104850000D01*
X137130000Y-104850000D01*
X137130000Y-98310000D01*
%TO.C,C1*%
X82130000Y-87880000D02*
X82467000Y-87880000D01*
X82130000Y-93120000D02*
X82130000Y-87880000D01*
X82467000Y-93120000D02*
X82130000Y-93120000D01*
X84533000Y-87880000D02*
X84870000Y-87880000D01*
X84870000Y-87880000D02*
X84870000Y-93120000D01*
X84870000Y-93120000D02*
X84533000Y-93120000D01*
%TO.C,C3*%
X87960000Y-74470000D02*
X84983000Y-74470000D01*
X87960000Y-74510000D02*
X84991000Y-74510000D01*
X87960000Y-74550000D02*
X84998000Y-74550000D01*
X87960000Y-74590000D02*
X85007000Y-74590000D01*
X87960000Y-74630000D02*
X85015000Y-74630000D01*
X87960000Y-74670000D02*
X85024000Y-74670000D01*
X87960000Y-74710000D02*
X85033000Y-74710000D01*
X87960000Y-74750000D02*
X85043000Y-74750000D01*
X87960000Y-74790000D02*
X85053000Y-74790000D01*
X87960000Y-74830000D02*
X85064000Y-74830000D01*
X87960000Y-74870000D02*
X85075000Y-74870000D01*
X87960000Y-74910000D02*
X85087000Y-74910000D01*
X87960000Y-74950000D02*
X85099000Y-74950000D01*
X87960000Y-74990000D02*
X85111000Y-74990000D01*
X87960000Y-75030000D02*
X85124000Y-75030000D01*
X87960000Y-75070000D02*
X85137000Y-75070000D01*
X87960000Y-75110000D02*
X85151000Y-75110000D01*
X87960000Y-75150000D02*
X85165000Y-75150000D01*
X87960000Y-75190000D02*
X85180000Y-75190000D01*
X87960000Y-75230000D02*
X85195000Y-75230000D01*
X87960000Y-75270000D02*
X85211000Y-75270000D01*
X87960000Y-75310000D02*
X85227000Y-75310000D01*
X87960000Y-75350000D02*
X85243000Y-75350000D01*
X87960000Y-75390000D02*
X85260000Y-75390000D01*
X87960000Y-75430000D02*
X85278000Y-75430000D01*
X87960000Y-75470000D02*
X85296000Y-75470000D01*
X87960000Y-75510000D02*
X85315000Y-75510000D01*
X87960000Y-75550000D02*
X85334000Y-75550000D01*
X87960000Y-75590000D02*
X85354000Y-75590000D01*
X87960000Y-75630000D02*
X85374000Y-75630000D01*
X87960000Y-75670000D02*
X85395000Y-75670000D01*
X87960000Y-75710000D02*
X85416000Y-75710000D01*
X87960000Y-75750000D02*
X85438000Y-75750000D01*
X87960000Y-75790000D02*
X85461000Y-75790000D01*
X87960000Y-75830000D02*
X85484000Y-75830000D01*
X87960000Y-75870000D02*
X85507000Y-75870000D01*
X87960000Y-75910000D02*
X85532000Y-75910000D01*
X87960000Y-75950000D02*
X85557000Y-75950000D01*
X87960000Y-75990000D02*
X85582000Y-75990000D01*
X87960000Y-76030000D02*
X85608000Y-76030000D01*
X87960000Y-76070000D02*
X85635000Y-76070000D01*
X87960000Y-76110000D02*
X85663000Y-76110000D01*
X87960000Y-76150000D02*
X85691000Y-76150000D01*
X87960000Y-76190000D02*
X85720000Y-76190000D01*
X87960000Y-76230000D02*
X85750000Y-76230000D01*
X87960000Y-76270000D02*
X85781000Y-76270000D01*
X87960000Y-76310000D02*
X85812000Y-76310000D01*
X87960000Y-76350000D02*
X85844000Y-76350000D01*
X87960000Y-76390000D02*
X85877000Y-76390000D01*
X87960000Y-76430000D02*
X85911000Y-76430000D01*
X87960000Y-76470000D02*
X85945000Y-76470000D01*
X87960000Y-76510000D02*
X85981000Y-76510000D01*
X89533000Y-77830000D02*
X88467000Y-77830000D01*
X89768000Y-77790000D02*
X88232000Y-77790000D01*
X89947000Y-77750000D02*
X88053000Y-77750000D01*
X90097000Y-77710000D02*
X87903000Y-77710000D01*
X90228000Y-77670000D02*
X87772000Y-77670000D01*
X90346000Y-77630000D02*
X87654000Y-77630000D01*
X90453000Y-77590000D02*
X87547000Y-77590000D01*
X90552000Y-77550000D02*
X87448000Y-77550000D01*
X90644000Y-77510000D02*
X87356000Y-77510000D01*
X90731000Y-77470000D02*
X87269000Y-77470000D01*
X90813000Y-77430000D02*
X87187000Y-77430000D01*
X90890000Y-77390000D02*
X87110000Y-77390000D01*
X90964000Y-77350000D02*
X87036000Y-77350000D01*
X91034000Y-77310000D02*
X86966000Y-77310000D01*
X91101000Y-77270000D02*
X86899000Y-77270000D01*
X91165000Y-77230000D02*
X86835000Y-77230000D01*
X91227000Y-77190000D02*
X86773000Y-77190000D01*
X91287000Y-77150000D02*
X86713000Y-77150000D01*
X91315000Y-69340302D02*
X91315000Y-70140302D01*
X91344000Y-77110000D02*
X86656000Y-77110000D01*
X91400000Y-77070000D02*
X86600000Y-77070000D01*
X91453000Y-77030000D02*
X86547000Y-77030000D01*
X91505000Y-76990000D02*
X86495000Y-76990000D01*
X91555000Y-76950000D02*
X86445000Y-76950000D01*
X91604000Y-76910000D02*
X86396000Y-76910000D01*
X91651000Y-76870000D02*
X86349000Y-76870000D01*
X91696000Y-76830000D02*
X86304000Y-76830000D01*
X91715000Y-69740302D02*
X90915000Y-69740302D01*
X91741000Y-76790000D02*
X86259000Y-76790000D01*
X91784000Y-76750000D02*
X86216000Y-76750000D01*
X91826000Y-76710000D02*
X86174000Y-76710000D01*
X91867000Y-76670000D02*
X86133000Y-76670000D01*
X91906000Y-76630000D02*
X86094000Y-76630000D01*
X91945000Y-76590000D02*
X86055000Y-76590000D01*
X91982000Y-76550000D02*
X86018000Y-76550000D01*
X92019000Y-76510000D02*
X90040000Y-76510000D01*
X92055000Y-76470000D02*
X90040000Y-76470000D01*
X92089000Y-76430000D02*
X90040000Y-76430000D01*
X92123000Y-76390000D02*
X90040000Y-76390000D01*
X92156000Y-76350000D02*
X90040000Y-76350000D01*
X92188000Y-76310000D02*
X90040000Y-76310000D01*
X92219000Y-76270000D02*
X90040000Y-76270000D01*
X92250000Y-76230000D02*
X90040000Y-76230000D01*
X92280000Y-76190000D02*
X90040000Y-76190000D01*
X92309000Y-76150000D02*
X90040000Y-76150000D01*
X92337000Y-76110000D02*
X90040000Y-76110000D01*
X92365000Y-76070000D02*
X90040000Y-76070000D01*
X92392000Y-76030000D02*
X90040000Y-76030000D01*
X92418000Y-75990000D02*
X90040000Y-75990000D01*
X92443000Y-75950000D02*
X90040000Y-75950000D01*
X92468000Y-75910000D02*
X90040000Y-75910000D01*
X92493000Y-75870000D02*
X90040000Y-75870000D01*
X92516000Y-75830000D02*
X90040000Y-75830000D01*
X92539000Y-75790000D02*
X90040000Y-75790000D01*
X92562000Y-75750000D02*
X90040000Y-75750000D01*
X92584000Y-75710000D02*
X90040000Y-75710000D01*
X92605000Y-75670000D02*
X90040000Y-75670000D01*
X92626000Y-75630000D02*
X90040000Y-75630000D01*
X92646000Y-75590000D02*
X90040000Y-75590000D01*
X92666000Y-75550000D02*
X90040000Y-75550000D01*
X92685000Y-75510000D02*
X90040000Y-75510000D01*
X92704000Y-75470000D02*
X90040000Y-75470000D01*
X92722000Y-75430000D02*
X90040000Y-75430000D01*
X92740000Y-75390000D02*
X90040000Y-75390000D01*
X92757000Y-75350000D02*
X90040000Y-75350000D01*
X92773000Y-75310000D02*
X90040000Y-75310000D01*
X92789000Y-75270000D02*
X90040000Y-75270000D01*
X92805000Y-75230000D02*
X90040000Y-75230000D01*
X92820000Y-75190000D02*
X90040000Y-75190000D01*
X92835000Y-75150000D02*
X90040000Y-75150000D01*
X92849000Y-75110000D02*
X90040000Y-75110000D01*
X92863000Y-75070000D02*
X90040000Y-75070000D01*
X92876000Y-75030000D02*
X90040000Y-75030000D01*
X92889000Y-74990000D02*
X90040000Y-74990000D01*
X92901000Y-74950000D02*
X90040000Y-74950000D01*
X92913000Y-74910000D02*
X90040000Y-74910000D01*
X92925000Y-74870000D02*
X90040000Y-74870000D01*
X92936000Y-74830000D02*
X90040000Y-74830000D01*
X92947000Y-74790000D02*
X90040000Y-74790000D01*
X92957000Y-74750000D02*
X90040000Y-74750000D01*
X92967000Y-74710000D02*
X90040000Y-74710000D01*
X92976000Y-74670000D02*
X90040000Y-74670000D01*
X92985000Y-74630000D02*
X90040000Y-74630000D01*
X92993000Y-74590000D02*
X90040000Y-74590000D01*
X93002000Y-74550000D02*
X90040000Y-74550000D01*
X93009000Y-74510000D02*
X90040000Y-74510000D01*
X93017000Y-74470000D02*
X90040000Y-74470000D01*
X93023000Y-74430000D02*
X84977000Y-74430000D01*
X93030000Y-74390000D02*
X84970000Y-74390000D01*
X93036000Y-74350000D02*
X84964000Y-74350000D01*
X93042000Y-74310000D02*
X84958000Y-74310000D01*
X93047000Y-74270000D02*
X84953000Y-74270000D01*
X93052000Y-74230000D02*
X84948000Y-74230000D01*
X93056000Y-74190000D02*
X84944000Y-74190000D01*
X93061000Y-74150000D02*
X84939000Y-74150000D01*
X93064000Y-74110000D02*
X84936000Y-74110000D01*
X93068000Y-74070000D02*
X84932000Y-74070000D01*
X93070000Y-74030000D02*
X84930000Y-74030000D01*
X93073000Y-73990000D02*
X84927000Y-73990000D01*
X93075000Y-73950000D02*
X84925000Y-73950000D01*
X93077000Y-73910000D02*
X84923000Y-73910000D01*
X93078000Y-73870000D02*
X84922000Y-73870000D01*
X93079000Y-73830000D02*
X84921000Y-73830000D01*
X93080000Y-73750000D02*
X84920000Y-73750000D01*
X93080000Y-73790000D02*
X84920000Y-73790000D01*
X93120000Y-73750000D02*
G75*
G02*
X84880000Y-73750000I-4120000J0D01*
G01*
X84880000Y-73750000D02*
G75*
G02*
X93120000Y-73750000I4120000J0D01*
G01*
%TO.C,RADAR1*%
X140000000Y-109000000D02*
X160000000Y-109000000D01*
X140000000Y-129000000D02*
X140000000Y-109000000D01*
X160000000Y-109000000D02*
X160000000Y-129000000D01*
X160000000Y-129000000D02*
X140000000Y-129000000D01*
%TO.C,D1*%
X139940000Y-87764000D02*
X139940000Y-87920000D01*
X139940000Y-90080000D02*
X139940000Y-90236000D01*
X139940000Y-87764484D02*
G75*
G02*
X143171437Y-87920000I1560000J-1235516D01*
G01*
X140459039Y-87920000D02*
G75*
G02*
X142540961Y-87920000I1040961J-1080000D01*
G01*
X142540961Y-90080000D02*
G75*
G02*
X140459039Y-90080000I-1040961J1080000D01*
G01*
X143171437Y-90080000D02*
G75*
G02*
X139940000Y-90235516I-1671437J1080000D01*
G01*
%TO.C,U5*%
X114000000Y-66190000D02*
X148000000Y-66190000D01*
X114000000Y-79810000D02*
X114000000Y-66190000D01*
X148000000Y-66190000D02*
X148000000Y-79810000D01*
X148000000Y-79810000D02*
X114000000Y-79810000D01*
X146500000Y-73000000D02*
G75*
G02*
X138500000Y-73000000I-4000000J0D01*
G01*
X138500000Y-73000000D02*
G75*
G02*
X146500000Y-73000000I4000000J0D01*
G01*
%TO.C,SW1*%
X107000000Y-122750000D02*
X107000000Y-124250000D01*
X108250000Y-126750000D02*
X112750000Y-126750000D01*
X112750000Y-120250000D02*
X108250000Y-120250000D01*
X114000000Y-124250000D02*
X114000000Y-122750000D01*
%TO.C,U6*%
X120452500Y-118890000D02*
X122272500Y-118890000D01*
X120452500Y-118940000D02*
X120452500Y-118890000D01*
X120452500Y-122010000D02*
X120452500Y-121960000D01*
X122272500Y-118890000D02*
X122272500Y-118940000D01*
X122272500Y-121960000D02*
X122272500Y-122010000D01*
X122272500Y-122010000D02*
X120452500Y-122010000D01*
X119912500Y-118940000D02*
X119672500Y-118610000D01*
X120152500Y-118610000D01*
X119912500Y-118940000D01*
G36*
X119912500Y-118940000D02*
G01*
X119672500Y-118610000D01*
X120152500Y-118610000D01*
X119912500Y-118940000D01*
G37*
%TO.C,PIR1*%
X124000000Y-51750000D02*
X147000000Y-51750000D01*
X124000000Y-62250000D02*
X124000000Y-51750000D01*
X147000000Y-51750000D02*
X147000000Y-62250000D01*
X147000000Y-62250000D02*
X124000000Y-62250000D01*
X143500000Y-56980000D02*
G75*
G02*
X131500000Y-56980000I-6000000J0D01*
G01*
X131500000Y-56980000D02*
G75*
G02*
X143500000Y-56980000I6000000J0D01*
G01*
%TO.C,C7*%
X108630000Y-71380000D02*
X108967000Y-71380000D01*
X108630000Y-76620000D02*
X108630000Y-71380000D01*
X108967000Y-76620000D02*
X108630000Y-76620000D01*
X111033000Y-71380000D02*
X111370000Y-71380000D01*
X111370000Y-71380000D02*
X111370000Y-76620000D01*
X111370000Y-76620000D02*
X111033000Y-76620000D01*
%TO.C,R1*%
X94040000Y-121500000D02*
X94810000Y-121500000D01*
X102120000Y-121500000D02*
X101350000Y-121500000D01*
X94810000Y-120130000D02*
X101350000Y-120130000D01*
X101350000Y-122870000D01*
X94810000Y-122870000D01*
X94810000Y-120130000D01*
%TD*%
M02*
