M48
; DRILL file KiCad 10.0.3 date 2026-08-26T13:22:29
; FORMAT={-:-/ absolute / metric / decimal}
; #@! TF.CreationDate,2026-08-26T13:22:29+05:30
; #@! TF.GenerationSoftware,Kicad,Pcbnew,10.0.3
; #@! TF.FileFunction,MixedPlating,1,2
FMAT,2
METRIC
; #@! TA.AperFunction,Plated,PTH,ViaDrill
T1C0.300
; #@! TA.AperFunction,Plated,PTH,ComponentDrill
T2C0.800
; #@! TA.AperFunction,Plated,PTH,ComponentDrill
T3C0.900
; #@! TA.AperFunction,Plated,PTH,ComponentDrill
T4C1.000
; #@! TA.AperFunction,Plated,PTH,ComponentDrill
T5C1.100
; #@! TA.AperFunction,Plated,PTH,ComponentDrill
T6C1.200
; #@! TA.AperFunction,Plated,PTH,ComponentDrill
T7C1.500
%
G90
G05
T1
X56.5Y-125.5
X82.0Y-107.0
X83.0Y-108.5
X83.5Y-105.0
X85.0Y-105.5
X87.0Y-112.0
X91.0Y-80.5
X92.933Y-94.183
X93.0Y-95.0
X96.0Y-91.5
X96.129Y-92.754
X96.279Y-113.221
X97.5Y-76.5
X104.5Y-120.5
X109.262Y-77.976
X116.0Y-121.0
X116.5Y-118.0
X117.0Y-112.5
X117.5Y-113.5
X118.5Y-120.4
X119.5Y-117.5
X120.0Y-63.0
X124.0Y-119.5
X126.5Y-116.0
X127.0Y-121.5
X128.5Y-120.0
X131.5Y-107.0
X132.5Y-105.5
X133.0Y-121.0
X133.18Y-101.5
X135.5Y-104.0
X135.5Y-107.5
X136.0Y-106.0
T2
X73.0Y-83.5
X74.0Y-89.0
X74.0Y-91.5
X75.5Y-83.5
X81.0Y-96.5
X81.0Y-101.5
X83.5Y-88.0
X83.5Y-91.5
X92.92Y-126.0
X93.0Y-121.5
X103.08Y-126.0
X103.16Y-121.5
X110.0Y-71.5
X110.0Y-76.5
X111.0Y-52.0
X111.0Y-57.0
X120.0Y-54.5
X120.0Y-59.5
X138.5Y-96.5
X138.5Y-106.66
T3
X140.23Y-89.0
X142.77Y-89.0
T4
X52.5Y-114.5
X52.5Y-117.04
X52.5Y-125.46
X52.5Y-128.0
X75.3Y-114.3
X76.0Y-98.88
X76.0Y-101.42
X76.0Y-103.96
X76.0Y-106.5
X77.84Y-114.3
X80.38Y-114.3
X82.92Y-114.3
X85.46Y-114.3
X88.0Y-114.3
X88.0Y-121.92
X88.0Y-124.46
X88.0Y-127.0
X89.0Y-72.0
X89.0Y-77.0
X97.02Y-84.46
X97.02Y-109.86
X99.56Y-84.46
X99.56Y-109.86
X102.0Y-73.5
X102.0Y-78.5
X102.1Y-84.46
X102.1Y-109.86
X104.64Y-84.46
X104.64Y-109.86
X107.18Y-84.46
X107.18Y-109.86
X109.72Y-84.46
X109.72Y-109.86
X112.26Y-84.46
X112.26Y-109.86
X114.8Y-84.46
X114.8Y-109.86
X115.5Y-69.19
X115.5Y-71.73
X115.5Y-74.27
X115.5Y-76.81
X117.34Y-84.46
X117.34Y-109.86
X119.88Y-84.46
X119.88Y-109.86
X122.42Y-84.46
X122.42Y-109.86
X124.96Y-84.46
X124.96Y-109.86
X125.5Y-53.17
X125.5Y-55.71
X125.5Y-58.25
X127.5Y-84.46
X127.5Y-109.86
X130.04Y-84.46
X130.04Y-109.86
X132.58Y-84.46
X132.58Y-109.86
X141.5Y-112.0
X141.5Y-114.54
X141.5Y-117.08
X141.5Y-119.62
X141.5Y-122.16
X141.5Y-124.7
T5
X107.25Y-121.25
X107.25Y-125.75
X113.75Y-121.25
X113.75Y-125.75
T6
X72.5Y-52.5
X72.5Y-66.5
X106.5Y-52.5
X106.5Y-66.5
T7
X52.5Y-52.5
X52.5Y-92.5
X68.5Y-52.5
X68.5Y-92.5
M30
